<svg width="97" height="67" viewBox="0 0 97 67" fill="none" xmlns="http://www.w3.org/2000/svg">
<rect y="12" width="94.9375" height="39" rx="6" fill="#00B998"/>
<path d="M35.7903 35.14C34.8569 35.14 34.0823 35.0093 33.4663 34.748C32.8503 34.4773 32.3836 34.1273 32.0663 33.698C31.7489 33.2687 31.5809 32.8113 31.5623 32.326C31.5623 32.2513 31.5903 32.186 31.6463 32.13C31.7116 32.0647 31.7863 32.032 31.8703 32.032H33.6343C33.7649 32.032 33.8629 32.0553 33.9283 32.102C34.0029 32.1487 34.0683 32.2093 34.1243 32.284C34.1989 32.424 34.3016 32.5593 34.4323 32.69C34.5723 32.8207 34.7496 32.928 34.9643 33.012C35.1883 33.0867 35.4636 33.124 35.7903 33.124C36.3316 33.124 36.7376 33.04 37.0083 32.872C37.2883 32.704 37.4283 32.4753 37.4283 32.186C37.4283 31.9807 37.3536 31.8127 37.2043 31.682C37.0549 31.542 36.8123 31.4207 36.4763 31.318C36.1496 31.206 35.7109 31.094 35.1603 30.982C34.4509 30.8327 33.8443 30.6413 33.3403 30.408C32.8456 30.1653 32.4676 29.8527 32.2063 29.47C31.9449 29.078 31.8143 28.5927 31.8143 28.014C31.8143 27.4447 31.9729 26.936 32.2903 26.488C32.6169 26.04 33.0696 25.69 33.6483 25.438C34.2269 25.186 34.9129 25.06 35.7063 25.06C36.3503 25.06 36.9149 25.144 37.4003 25.312C37.8949 25.48 38.3103 25.704 38.6463 25.984C38.9823 26.264 39.2343 26.5627 39.4023 26.88C39.5796 27.188 39.6729 27.4913 39.6823 27.79C39.6823 27.8647 39.6543 27.9347 39.5983 28C39.5423 28.056 39.4723 28.084 39.3882 28.084H37.5403C37.4376 28.084 37.3489 28.0653 37.2743 28.028C37.1996 27.9907 37.1343 27.93 37.0783 27.846C37.0223 27.6407 36.8729 27.4633 36.6303 27.314C36.3969 27.1553 36.0889 27.076 35.7063 27.076C35.2956 27.076 34.9736 27.1507 34.7403 27.3C34.5163 27.44 34.4043 27.6593 34.4043 27.958C34.4043 28.1447 34.4649 28.308 34.5863 28.448C34.7169 28.588 34.9269 28.7093 35.2163 28.812C35.5149 28.9147 35.9209 29.022 36.4343 29.134C37.2836 29.2927 37.9696 29.4933 38.4923 29.736C39.0149 29.9693 39.3976 30.2773 39.6403 30.66C39.8829 31.0333 40.0043 31.5047 40.0043 32.074C40.0043 32.7087 39.8223 33.2593 39.4583 33.726C39.1036 34.1833 38.6089 34.5333 37.9743 34.776C37.3396 35.0187 36.6116 35.14 35.7903 35.14ZM43.4358 35.14C42.9318 35.14 42.4791 35.0467 42.0778 34.86C41.6858 34.664 41.3731 34.4027 41.1398 34.076C40.9064 33.7493 40.7898 33.3807 40.7898 32.97C40.7898 32.3073 41.0604 31.7847 41.6018 31.402C42.1431 31.01 42.8618 30.744 43.7578 30.604L45.5078 30.338V30.142C45.5078 29.806 45.4378 29.5493 45.2978 29.372C45.1578 29.1947 44.9011 29.106 44.5278 29.106C44.2664 29.106 44.0518 29.1573 43.8838 29.26C43.7251 29.3627 43.5991 29.5027 43.5058 29.68C43.4218 29.8013 43.3051 29.862 43.1558 29.862H41.5878C41.4851 29.862 41.4058 29.834 41.3498 29.778C41.2938 29.7127 41.2704 29.638 41.2798 29.554C41.2798 29.386 41.3404 29.1947 41.4618 28.98C41.5924 28.756 41.7884 28.5367 42.0498 28.322C42.3111 28.1073 42.6471 27.93 43.0578 27.79C43.4684 27.65 43.9631 27.58 44.5418 27.58C45.1484 27.58 45.6664 27.65 46.0958 27.79C46.5251 27.93 46.8704 28.126 47.1318 28.378C47.4024 28.63 47.6031 28.9287 47.7338 29.274C47.8644 29.61 47.9298 29.9833 47.9298 30.394V34.65C47.9298 34.7527 47.8924 34.8367 47.8178 34.902C47.7524 34.9673 47.6731 35 47.5798 35H45.9558C45.8531 35 45.7691 34.9673 45.7038 34.902C45.6384 34.8367 45.6058 34.7527 45.6058 34.65V34.16C45.4844 34.3373 45.3211 34.5007 45.1158 34.65C44.9104 34.7993 44.6678 34.916 44.3878 35C44.1171 35.0933 43.7998 35.14 43.4358 35.14ZM44.0938 33.544C44.3644 33.544 44.6071 33.488 44.8218 33.376C45.0458 33.2547 45.2184 33.0727 45.3398 32.83C45.4704 32.578 45.5358 32.2653 45.5358 31.892V31.696L44.3458 31.906C43.9071 31.9807 43.5851 32.0973 43.3798 32.256C43.1838 32.4053 43.0858 32.5827 43.0858 32.788C43.0858 32.9467 43.1324 33.082 43.2258 33.194C43.3191 33.306 43.4404 33.3947 43.5898 33.46C43.7391 33.516 43.9071 33.544 44.0938 33.544ZM51.8945 35C51.7545 35 51.6518 34.9673 51.5865 34.902C51.5212 34.8273 51.4652 34.7433 51.4185 34.65L48.7725 28.154C48.7538 28.1167 48.7445 28.0747 48.7445 28.028C48.7445 27.944 48.7725 27.874 48.8285 27.818C48.8938 27.7527 48.9732 27.72 49.0665 27.72H50.6485C50.7698 27.72 50.8632 27.7527 50.9285 27.818C50.9938 27.8833 51.0358 27.9487 51.0545 28.014L52.6365 32.312L54.2325 28.014C54.2512 27.9487 54.2932 27.8833 54.3585 27.818C54.4238 27.7527 54.5172 27.72 54.6385 27.72H56.2205C56.3045 27.72 56.3792 27.7527 56.4445 27.818C56.5098 27.874 56.5425 27.944 56.5425 28.028C56.5425 28.0747 56.5332 28.1167 56.5145 28.154L53.8685 34.65C53.8312 34.7433 53.7752 34.8273 53.7005 34.902C53.6352 34.9673 53.5278 35 53.3785 35H51.8945ZM60.7173 35.14C59.6159 35.14 58.7386 34.8413 58.0853 34.244C57.4319 33.6467 57.0913 32.76 57.0633 31.584C57.0633 31.5187 57.0633 31.4347 57.0633 31.332C57.0633 31.2293 57.0633 31.15 57.0633 31.094C57.0913 30.3567 57.2546 29.7267 57.5533 29.204C57.8613 28.672 58.2813 28.2707 58.8133 28C59.3546 27.72 59.9846 27.58 60.7033 27.58C61.5246 27.58 62.2013 27.7433 62.7333 28.07C63.2746 28.3967 63.6806 28.84 63.9513 29.4C64.2219 29.96 64.3573 30.5993 64.3573 31.318V31.654C64.3573 31.7567 64.3199 31.8407 64.2452 31.906C64.1799 31.9713 64.1006 32.004 64.0073 32.004H59.5273C59.5273 32.0133 59.5273 32.0273 59.5273 32.046C59.5273 32.0647 59.5273 32.0833 59.5273 32.102C59.5366 32.3727 59.5833 32.62 59.6673 32.844C59.7513 33.068 59.8819 33.2453 60.0593 33.376C60.2366 33.5067 60.4513 33.572 60.7033 33.572C60.8899 33.572 61.0439 33.544 61.1653 33.488C61.2959 33.4227 61.4033 33.3527 61.4873 33.278C61.5713 33.194 61.6366 33.124 61.6833 33.068C61.7673 32.9747 61.8326 32.9187 61.8793 32.9C61.9353 32.872 62.0193 32.858 62.1313 32.858H63.8673C63.9606 32.858 64.0353 32.886 64.0913 32.942C64.1566 32.9887 64.1846 33.0587 64.1753 33.152C64.1659 33.3107 64.0866 33.502 63.9373 33.726C63.7879 33.95 63.5686 34.174 63.2793 34.398C62.9993 34.6127 62.6446 34.79 62.2153 34.93C61.7859 35.07 61.2866 35.14 60.7173 35.14ZM59.5273 30.618H61.8933V30.59C61.8933 30.2913 61.8466 30.03 61.7533 29.806C61.6693 29.582 61.5339 29.4093 61.3473 29.288C61.1699 29.1667 60.9553 29.106 60.7033 29.106C60.4513 29.106 60.2366 29.1667 60.0593 29.288C59.8913 29.4093 59.7606 29.582 59.6673 29.806C59.5739 30.03 59.5273 30.2913 59.5273 30.59V30.618Z" fill="white"/>
<path d="M47.0707 35.9293C47.0317 35.8902 46.9683 35.8902 46.9293 35.9293L46.2929 36.5657C46.2538 36.6047 46.2538 36.6681 46.2929 36.7071C46.3319 36.7462 46.3953 36.7462 46.4343 36.7071L47 36.1414L47.5657 36.7071C47.6047 36.7462 47.6681 36.7462 47.7071 36.7071C47.7462 36.6681 47.7462 36.6047 47.7071 36.5657L47.0707 35.9293ZM46.9293 51.0707C46.9683 51.1098 47.0317 51.1098 47.0707 51.0707L47.7071 50.4343C47.7462 50.3953 47.7462 50.3319 47.7071 50.2929C47.6681 50.2538 47.6047 50.2538 47.5657 50.2929L47 50.8586L46.4343 50.2929C46.3953 50.2538 46.3319 50.2538 46.2929 50.2929C46.2538 50.3319 46.2538 50.3953 46.2929 50.4343L46.9293 51.0707ZM46.9 36L46.9 51L47.1 51L47.1 36L46.9 36Z" fill="black"/>
<line x1="93.9" y1="15" x2="93.9" y2="5" stroke="black" stroke-width="0.2"/>
<path d="M92.3386 4.03C92.1726 4.03 92.0316 3.997 91.9156 3.931C91.7996 3.863 91.7106 3.775 91.6486 3.667C91.5886 3.557 91.5586 3.438 91.5586 3.31C91.5586 3.25 91.5656 3.193 91.5796 3.139C91.5956 3.083 91.6146 3.031 91.6366 2.983C91.6606 2.933 91.6836 2.889 91.7056 2.851C91.7296 2.811 91.7506 2.779 91.7686 2.755L92.3386 1.96C92.3486 1.95 92.3606 1.938 92.3746 1.924C92.3886 1.908 92.4096 1.9 92.4376 1.9H92.5966C92.6146 1.9 92.6286 1.907 92.6386 1.921C92.6506 1.933 92.6566 1.948 92.6566 1.966C92.6566 1.974 92.6556 1.982 92.6536 1.99C92.6516 1.996 92.6486 2.001 92.6446 2.005L92.2066 2.617C92.2306 2.609 92.2576 2.604 92.2876 2.602C92.3196 2.598 92.3496 2.596 92.3776 2.596C92.4876 2.598 92.5876 2.618 92.6776 2.656C92.7676 2.694 92.8446 2.746 92.9086 2.812C92.9746 2.876 93.0246 2.951 93.0586 3.037C93.0926 3.121 93.1096 3.211 93.1096 3.307C93.1096 3.433 93.0796 3.551 93.0196 3.661C92.9596 3.771 92.8716 3.86 92.7556 3.928C92.6416 3.996 92.5026 4.03 92.3386 4.03ZM92.3356 3.775C92.4196 3.775 92.4976 3.757 92.5696 3.721C92.6416 3.685 92.6996 3.633 92.7436 3.565C92.7896 3.495 92.8126 3.41 92.8126 3.31C92.8126 3.208 92.7906 3.123 92.7466 3.055C92.7026 2.985 92.6436 2.933 92.5696 2.899C92.4976 2.863 92.4196 2.845 92.3356 2.845C92.2516 2.845 92.1736 2.863 92.1016 2.899C92.0296 2.933 91.9706 2.985 91.9246 3.055C91.8806 3.123 91.8586 3.208 91.8586 3.31C91.8586 3.41 91.8806 3.495 91.9246 3.565C91.9706 3.633 92.0296 3.685 92.1016 3.721C92.1736 3.757 92.2516 3.775 92.3356 3.775ZM93.5162 4.57C93.4962 4.57 93.4792 4.563 93.4652 4.549C93.4532 4.537 93.4472 4.521 93.4472 4.501V2.509C93.4472 2.489 93.4532 2.473 93.4652 2.461C93.4792 2.447 93.4962 2.44 93.5162 2.44H93.6542C93.6742 2.44 93.6902 2.447 93.7022 2.461C93.7162 2.473 93.7232 2.489 93.7232 2.509V2.641C93.7712 2.575 93.8352 2.52 93.9152 2.476C93.9952 2.432 94.0952 2.41 94.2152 2.41C94.3272 2.41 94.4222 2.429 94.5002 2.467C94.5802 2.505 94.6452 2.557 94.6952 2.623C94.7472 2.689 94.7862 2.764 94.8122 2.848C94.8382 2.932 94.8522 3.022 94.8542 3.118C94.8562 3.15 94.8572 3.184 94.8572 3.22C94.8572 3.256 94.8562 3.29 94.8542 3.322C94.8522 3.416 94.8382 3.506 94.8122 3.592C94.7862 3.676 94.7472 3.751 94.6952 3.817C94.6452 3.881 94.5802 3.933 94.5002 3.973C94.4222 4.011 94.3272 4.03 94.2152 4.03C94.0992 4.03 94.0012 4.009 93.9212 3.967C93.8432 3.923 93.7792 3.869 93.7292 3.805V4.501C93.7292 4.521 93.7232 4.537 93.7112 4.549C93.6992 4.563 93.6822 4.57 93.6602 4.57H93.5162ZM94.1522 3.787C94.2562 3.787 94.3372 3.765 94.3952 3.721C94.4552 3.675 94.4982 3.616 94.5242 3.544C94.5502 3.47 94.5652 3.391 94.5692 3.307C94.5712 3.249 94.5712 3.191 94.5692 3.133C94.5652 3.049 94.5502 2.971 94.5242 2.899C94.4982 2.825 94.4552 2.766 94.3952 2.722C94.3372 2.676 94.2562 2.653 94.1522 2.653C94.0542 2.653 93.9742 2.676 93.9122 2.722C93.8522 2.768 93.8072 2.827 93.7772 2.899C93.7492 2.969 93.7332 3.041 93.7292 3.115C93.7272 3.147 93.7262 3.185 93.7262 3.229C93.7262 3.273 93.7272 3.312 93.7292 3.346C93.7312 3.416 93.7472 3.485 93.7772 3.553C93.8092 3.621 93.8562 3.677 93.9182 3.721C93.9802 3.765 94.0582 3.787 94.1522 3.787ZM95.1183 4C95.1023 4 95.0873 3.994 95.0733 3.982C95.0613 3.97 95.0553 3.955 95.0553 3.937C95.0553 3.931 95.0563 3.924 95.0583 3.916C95.0623 3.906 95.0683 3.895 95.0763 3.883L95.5983 3.202L95.1093 2.557C95.1013 2.545 95.0953 2.535 95.0913 2.527C95.0893 2.519 95.0883 2.511 95.0883 2.503C95.0883 2.485 95.0943 2.47 95.1063 2.458C95.1183 2.446 95.1333 2.44 95.1513 2.44H95.3043C95.3263 2.44 95.3423 2.446 95.3523 2.458C95.3643 2.468 95.3743 2.478 95.3823 2.488L95.7813 3.007L96.1803 2.491C96.1883 2.481 96.1973 2.47 96.2073 2.458C96.2193 2.446 96.2363 2.44 96.2583 2.44H96.4053C96.4233 2.44 96.4383 2.446 96.4503 2.458C96.4623 2.47 96.4683 2.485 96.4683 2.503C96.4683 2.511 96.4663 2.519 96.4623 2.527C96.4603 2.535 96.4553 2.545 96.4473 2.557L95.9523 3.208L96.4743 3.883C96.4823 3.895 96.4873 3.905 96.4893 3.913C96.4933 3.921 96.4953 3.929 96.4953 3.937C96.4953 3.955 96.4893 3.97 96.4773 3.982C96.4653 3.994 96.4503 4 96.4323 4H96.2733C96.2533 4 96.2373 3.995 96.2253 3.985C96.2133 3.975 96.2033 3.965 96.1953 3.955L95.7723 3.406L95.3493 3.955C95.3413 3.963 95.3313 3.973 95.3193 3.985C95.3093 3.995 95.2933 4 95.2713 4H95.1183Z" fill="black"/>
<line x1="34.9" y1="25" x2="34.9" y2="5" stroke="black" stroke-width="0.2"/>
<path d="M33.0811 4.03C32.9231 4.03 32.7891 4.003 32.6791 3.949C32.5711 3.893 32.4881 3.821 32.4301 3.733C32.3741 3.645 32.3441 3.552 32.3401 3.454C32.3381 3.436 32.3431 3.422 32.3551 3.412C32.3671 3.402 32.3821 3.397 32.4001 3.397H32.5621C32.5801 3.397 32.5961 3.401 32.6101 3.409C32.6241 3.417 32.6351 3.434 32.6431 3.46C32.6631 3.534 32.6951 3.595 32.7391 3.643C32.7851 3.689 32.8371 3.723 32.8951 3.745C32.9551 3.765 33.0171 3.775 33.0811 3.775C33.1671 3.775 33.2451 3.758 33.3151 3.724C33.3871 3.688 33.4441 3.636 33.4861 3.568C33.5281 3.498 33.5491 3.414 33.5491 3.316C33.5491 3.226 33.5281 3.149 33.4861 3.085C33.4461 3.019 33.3901 2.969 33.3181 2.935C33.2481 2.899 33.1691 2.881 33.0811 2.881C33.0151 2.881 32.9611 2.889 32.9191 2.905C32.8771 2.921 32.8411 2.94 32.8111 2.962C32.7831 2.984 32.7571 3.003 32.7331 3.019C32.7111 3.035 32.6861 3.043 32.6581 3.043H32.5021C32.4841 3.043 32.4681 3.037 32.4541 3.025C32.4401 3.011 32.4341 2.995 32.4361 2.977L32.5321 1.975C32.5341 1.951 32.5411 1.933 32.5531 1.921C32.5671 1.907 32.5851 1.9 32.6071 1.9H33.6541C33.6741 1.9 33.6901 1.907 33.7021 1.921C33.7161 1.933 33.7231 1.949 33.7231 1.969V2.086C33.7231 2.108 33.7161 2.125 33.7021 2.137C33.6901 2.149 33.6741 2.155 33.6541 2.155H32.7901L32.7331 2.746C32.7611 2.728 32.8061 2.707 32.8681 2.683C32.9301 2.657 33.0151 2.644 33.1231 2.644C33.2211 2.644 33.3131 2.659 33.3991 2.689C33.4871 2.719 33.5651 2.763 33.6331 2.821C33.7011 2.879 33.7541 2.95 33.7921 3.034C33.8301 3.116 33.8491 3.211 33.8491 3.319C33.8491 3.471 33.8151 3.6 33.7471 3.706C33.6811 3.812 33.5901 3.893 33.4741 3.949C33.3601 4.003 33.2291 4.03 33.0811 4.03ZM34.9373 4.03C34.7993 4.03 34.6823 4.009 34.5863 3.967C34.4923 3.923 34.4153 3.863 34.3553 3.787C34.2953 3.711 34.2513 3.624 34.2233 3.526C34.1973 3.428 34.1823 3.324 34.1783 3.214C34.1763 3.16 34.1743 3.103 34.1723 3.043C34.1723 2.983 34.1723 2.923 34.1723 2.863C34.1743 2.801 34.1763 2.742 34.1783 2.686C34.1803 2.576 34.1953 2.472 34.2233 2.374C34.2533 2.274 34.2973 2.187 34.3553 2.113C34.4153 2.037 34.4933 1.978 34.5893 1.936C34.6853 1.892 34.8013 1.87 34.9373 1.87C35.0753 1.87 35.1913 1.892 35.2853 1.936C35.3813 1.978 35.4593 2.037 35.5193 2.113C35.5793 2.187 35.6233 2.274 35.6513 2.374C35.6813 2.472 35.6973 2.576 35.6993 2.686C35.7013 2.742 35.7023 2.801 35.7023 2.863C35.7043 2.923 35.7043 2.983 35.7023 3.043C35.7023 3.103 35.7013 3.16 35.6993 3.214C35.6973 3.324 35.6813 3.428 35.6513 3.526C35.6233 3.624 35.5793 3.711 35.5193 3.787C35.4613 3.863 35.3843 3.923 35.2883 3.967C35.1943 4.009 35.0773 4.03 34.9373 4.03ZM34.9373 3.775C35.0933 3.775 35.2083 3.724 35.2823 3.622C35.3583 3.518 35.3973 3.377 35.3993 3.199C35.4033 3.141 35.4053 3.085 35.4053 3.031C35.4053 2.975 35.4053 2.92 35.4053 2.866C35.4053 2.81 35.4033 2.755 35.3993 2.701C35.3973 2.527 35.3583 2.388 35.2823 2.284C35.2083 2.178 35.0933 2.125 34.9373 2.125C34.7833 2.125 34.6683 2.178 34.5923 2.284C34.5183 2.388 34.4793 2.527 34.4753 2.701C34.4753 2.755 34.4743 2.81 34.4723 2.866C34.4723 2.92 34.4723 2.975 34.4723 3.031C34.4743 3.085 34.4753 3.141 34.4753 3.199C34.4793 3.377 34.5193 3.518 34.5953 3.622C34.6713 3.724 34.7853 3.775 34.9373 3.775ZM36.8416 4.03C36.7036 4.03 36.5866 4.009 36.4906 3.967C36.3966 3.923 36.3196 3.863 36.2596 3.787C36.1996 3.711 36.1556 3.624 36.1276 3.526C36.1016 3.428 36.0866 3.324 36.0826 3.214C36.0806 3.16 36.0786 3.103 36.0766 3.043C36.0766 2.983 36.0766 2.923 36.0766 2.863C36.0786 2.801 36.0806 2.742 36.0826 2.686C36.0846 2.576 36.0996 2.472 36.1276 2.374C36.1576 2.274 36.2016 2.187 36.2596 2.113C36.3196 2.037 36.3976 1.978 36.4936 1.936C36.5896 1.892 36.7056 1.87 36.8416 1.87C36.9796 1.87 37.0956 1.892 37.1896 1.936C37.2856 1.978 37.3636 2.037 37.4236 2.113C37.4836 2.187 37.5276 2.274 37.5556 2.374C37.5856 2.472 37.6016 2.576 37.6036 2.686C37.6056 2.742 37.6066 2.801 37.6066 2.863C37.6086 2.923 37.6086 2.983 37.6066 3.043C37.6066 3.103 37.6056 3.16 37.6036 3.214C37.6016 3.324 37.5856 3.428 37.5556 3.526C37.5276 3.624 37.4836 3.711 37.4236 3.787C37.3656 3.863 37.2886 3.923 37.1926 3.967C37.0986 4.009 36.9816 4.03 36.8416 4.03ZM36.8416 3.775C36.9976 3.775 37.1126 3.724 37.1866 3.622C37.2626 3.518 37.3016 3.377 37.3036 3.199C37.3076 3.141 37.3096 3.085 37.3096 3.031C37.3096 2.975 37.3096 2.92 37.3096 2.866C37.3096 2.81 37.3076 2.755 37.3036 2.701C37.3016 2.527 37.2626 2.388 37.1866 2.284C37.1126 2.178 36.9976 2.125 36.8416 2.125C36.6876 2.125 36.5726 2.178 36.4966 2.284C36.4226 2.388 36.3836 2.527 36.3796 2.701C36.3796 2.755 36.3786 2.81 36.3766 2.866C36.3766 2.92 36.3766 2.975 36.3766 3.031C36.3786 3.085 36.3796 3.141 36.3796 3.199C36.3836 3.377 36.4236 3.518 36.4996 3.622C36.5756 3.724 36.6896 3.775 36.8416 3.775Z" fill="black"/>
<line x1="46.9" y1="62" x2="46.9" y2="52" stroke="black" stroke-width="0.2"/>
<path d="M45.3187 65.03C45.2027 65.03 45.0957 65.016 44.9977 64.988C44.9017 64.958 44.8187 64.916 44.7487 64.862C44.6807 64.806 44.6277 64.739 44.5897 64.661C44.5517 64.583 44.5327 64.495 44.5327 64.397C44.5327 64.275 44.5617 64.17 44.6197 64.082C44.6797 63.994 44.7587 63.927 44.8567 63.881C44.7787 63.835 44.7177 63.775 44.6737 63.701C44.6297 63.627 44.6077 63.539 44.6077 63.437C44.6077 63.317 44.6367 63.216 44.6947 63.134C44.7547 63.05 44.8377 62.985 44.9437 62.939C45.0517 62.893 45.1767 62.87 45.3187 62.87C45.4587 62.87 45.5817 62.893 45.6877 62.939C45.7957 62.983 45.8787 63.047 45.9367 63.131C45.9967 63.215 46.0267 63.316 46.0267 63.434C46.0267 63.536 46.0047 63.625 45.9607 63.701C45.9167 63.775 45.8567 63.835 45.7807 63.881C45.8787 63.927 45.9567 63.994 46.0147 64.082C46.0747 64.17 46.1047 64.275 46.1047 64.397C46.1047 64.527 46.0717 64.64 46.0057 64.736C45.9397 64.83 45.8477 64.903 45.7297 64.955C45.6117 65.005 45.4747 65.03 45.3187 65.03ZM45.3187 64.79C45.4107 64.79 45.4937 64.774 45.5677 64.742C45.6417 64.71 45.7007 64.665 45.7447 64.607C45.7887 64.547 45.8107 64.477 45.8107 64.397C45.8107 64.315 45.7887 64.246 45.7447 64.19C45.7007 64.132 45.6417 64.088 45.5677 64.058C45.4937 64.026 45.4107 64.01 45.3187 64.01C45.2267 64.01 45.1427 64.026 45.0667 64.058C44.9927 64.088 44.9337 64.132 44.8897 64.19C44.8457 64.246 44.8237 64.315 44.8237 64.397C44.8237 64.477 44.8457 64.547 44.8897 64.607C44.9337 64.665 44.9927 64.71 45.0667 64.742C45.1427 64.774 45.2267 64.79 45.3187 64.79ZM45.3187 63.773C45.3947 63.773 45.4647 63.759 45.5287 63.731C45.5947 63.703 45.6467 63.665 45.6847 63.617C45.7247 63.569 45.7447 63.511 45.7447 63.443C45.7447 63.375 45.7257 63.316 45.6877 63.266C45.6517 63.216 45.6007 63.178 45.5347 63.152C45.4707 63.124 45.3987 63.11 45.3187 63.11C45.2387 63.11 45.1657 63.124 45.0997 63.152C45.0357 63.178 44.9847 63.216 44.9467 63.266C44.9087 63.316 44.8897 63.375 44.8897 63.443C44.8897 63.513 44.9087 63.573 44.9467 63.623C44.9847 63.671 45.0357 63.708 45.0997 63.734C45.1657 63.76 45.2387 63.773 45.3187 63.773ZM46.566 65.57C46.546 65.57 46.529 65.563 46.515 65.549C46.503 65.537 46.497 65.521 46.497 65.501V63.509C46.497 63.489 46.503 63.473 46.515 63.461C46.529 63.447 46.546 63.44 46.566 63.44H46.704C46.724 63.44 46.74 63.447 46.752 63.461C46.766 63.473 46.773 63.489 46.773 63.509V63.641C46.821 63.575 46.885 63.52 46.965 63.476C47.045 63.432 47.145 63.41 47.265 63.41C47.377 63.41 47.472 63.429 47.55 63.467C47.63 63.505 47.695 63.557 47.745 63.623C47.797 63.689 47.836 63.764 47.862 63.848C47.888 63.932 47.902 64.022 47.904 64.118C47.906 64.15 47.907 64.184 47.907 64.22C47.907 64.256 47.906 64.29 47.904 64.322C47.902 64.416 47.888 64.506 47.862 64.592C47.836 64.676 47.797 64.751 47.745 64.817C47.695 64.881 47.63 64.933 47.55 64.973C47.472 65.011 47.377 65.03 47.265 65.03C47.149 65.03 47.051 65.009 46.971 64.967C46.893 64.923 46.829 64.869 46.779 64.805V65.501C46.779 65.521 46.773 65.537 46.761 65.549C46.749 65.563 46.732 65.57 46.71 65.57H46.566ZM47.202 64.787C47.306 64.787 47.387 64.765 47.445 64.721C47.505 64.675 47.548 64.616 47.574 64.544C47.6 64.47 47.615 64.391 47.619 64.307C47.621 64.249 47.621 64.191 47.619 64.133C47.615 64.049 47.6 63.971 47.574 63.899C47.548 63.825 47.505 63.766 47.445 63.722C47.387 63.676 47.306 63.653 47.202 63.653C47.104 63.653 47.024 63.676 46.962 63.722C46.902 63.768 46.857 63.827 46.827 63.899C46.799 63.969 46.783 64.041 46.779 64.115C46.777 64.147 46.776 64.185 46.776 64.229C46.776 64.273 46.777 64.312 46.779 64.346C46.781 64.416 46.797 64.485 46.827 64.553C46.859 64.621 46.906 64.677 46.968 64.721C47.03 64.765 47.108 64.787 47.202 64.787ZM48.1681 65C48.1521 65 48.1371 64.994 48.1231 64.982C48.1111 64.97 48.1051 64.955 48.1051 64.937C48.1051 64.931 48.1061 64.924 48.1081 64.916C48.1121 64.906 48.1181 64.895 48.1261 64.883L48.6481 64.202L48.1591 63.557C48.1511 63.545 48.1451 63.535 48.1411 63.527C48.1391 63.519 48.1381 63.511 48.1381 63.503C48.1381 63.485 48.1441 63.47 48.1561 63.458C48.1681 63.446 48.1831 63.44 48.2011 63.44H48.3541C48.3761 63.44 48.3921 63.446 48.4021 63.458C48.4141 63.468 48.4241 63.478 48.4321 63.488L48.8311 64.007L49.2301 63.491C49.2381 63.481 49.2471 63.47 49.2571 63.458C49.2691 63.446 49.2861 63.44 49.3081 63.44H49.4551C49.4731 63.44 49.4881 63.446 49.5001 63.458C49.5121 63.47 49.5181 63.485 49.5181 63.503C49.5181 63.511 49.5161 63.519 49.5121 63.527C49.5101 63.535 49.5051 63.545 49.4971 63.557L49.0021 64.208L49.5241 64.883C49.5321 64.895 49.5371 64.905 49.5391 64.913C49.5431 64.921 49.5451 64.929 49.5451 64.937C49.5451 64.955 49.5391 64.97 49.5271 64.982C49.5151 64.994 49.5001 65 49.4821 65H49.3231C49.3031 65 49.2871 64.995 49.2751 64.985C49.2631 64.975 49.2531 64.965 49.2451 64.955L48.8221 64.406L48.3991 64.955C48.3911 64.963 48.3811 64.973 48.3691 64.985C48.3591 64.995 48.3431 65 48.3211 65H48.1681Z" fill="black"/>
</svg>
