<svg width="550" height="94" viewBox="0 0 550 94" fill="none" xmlns="http://www.w3.org/2000/svg">
<rect width="550" height="94" rx="4" fill="#FFE4E6"/>
<g clip-path="url(#clip0_1505_6634)">
<path d="M31.1178 29.4878L31.1178 29.4879C31.1977 29.6403 31.2368 29.8107 31.2315 29.9827C31.2262 30.1547 31.1766 30.3224 31.0875 30.4696C30.9984 30.6168 30.8729 30.7386 30.723 30.823C30.5731 30.9075 30.4039 30.9519 30.2318 30.9519H30.2318H17.7691H17.769C17.597 30.9519 17.4278 30.9075 17.2779 30.823C17.128 30.7386 17.0024 30.6168 16.9134 30.4696C16.8243 30.3224 16.7747 30.1547 16.7694 29.9827C16.764 29.8107 16.8032 29.6403 16.883 29.4879L16.8831 29.4878L23.115 17.5879C23.115 17.5879 23.115 17.5879 23.1151 17.5878C23.1998 17.4262 23.3271 17.2909 23.4832 17.1965L23.3119 16.9134L23.4832 17.1965C23.6393 17.102 23.8183 17.0521 24.0008 17.0521C24.1832 17.0521 24.3622 17.102 24.5184 17.1965C24.6745 17.2909 24.8018 17.4262 24.8865 17.5878C24.8865 17.5879 24.8865 17.5879 24.8865 17.5879L31.1178 29.4878ZM24.0338 29.6219V29.6219L25.0004 28.2665L25.3335 28.2534C25.3335 28.2534 25.3335 28.2534 25.3335 28.2534C25.3198 27.9047 25.1717 27.5749 24.9204 27.333C24.669 27.091 24.3338 26.9556 23.9848 26.9552H23.9844H23.9658V26.9551L23.9597 26.9553C23.7847 26.9585 23.612 26.9965 23.4519 27.0672C23.2918 27.1379 23.1473 27.2397 23.027 27.3669C22.9067 27.494 22.8129 27.6438 22.7511 27.8076C22.6894 27.9714 22.6609 28.1459 22.6673 28.3208L22.6673 28.3212C22.6806 28.6699 22.8281 28.9999 23.0791 29.2423C23.3301 29.4848 23.6651 29.6207 24.014 29.6219H24.0151H24.0338ZM24.0151 29.2885C23.7522 29.2877 23.4998 29.1852 23.3107 29.0026C23.1216 28.8199 23.0104 28.5713 23.0004 28.3085C22.9956 28.1779 23.0169 28.0476 23.063 27.9252C23.1092 27.8029 23.1792 27.691 23.2691 27.596C23.359 27.501 23.4669 27.4249 23.5865 27.3721C23.7061 27.3193 23.835 27.2909 23.9658 27.2885L24.0151 29.2885ZM23.2933 20.9081C23.1058 21.0956 23.0004 21.35 23.0004 21.6152V25.6152C23.0004 25.8804 23.1058 26.1348 23.2933 26.3223C23.4809 26.5098 23.7352 26.6152 24.0004 26.6152C24.2657 26.6152 24.52 26.5098 24.7075 26.3223C24.8951 26.1348 25.0004 25.8804 25.0004 25.6152V21.6152C25.0004 21.35 24.8951 21.0956 24.7075 20.9081C24.52 20.7206 24.2657 20.6152 24.0004 20.6152C23.7352 20.6152 23.4809 20.7206 23.2933 20.9081Z" fill="#E11D48" stroke="#E11D48" stroke-width="0.666667"/>
</g>
<path d="M44.7045 19.875V18.3636H53.7102V19.875H50.0795V30H48.3295V19.875H44.7045ZM54.6577 30V21.2727H56.2997V22.6591H56.3906C56.5497 22.1894 56.83 21.8201 57.2315 21.5511C57.6368 21.2784 58.0952 21.142 58.6065 21.142C58.7126 21.142 58.8376 21.1458 58.9815 21.1534C59.1293 21.161 59.2448 21.1705 59.3281 21.1818V22.8068C59.2599 22.7879 59.1387 22.767 58.9645 22.7443C58.7902 22.7178 58.616 22.7045 58.4418 22.7045C58.0402 22.7045 57.6823 22.7898 57.3679 22.9602C57.0573 23.1269 56.8111 23.3598 56.6293 23.6591C56.4474 23.9545 56.3565 24.2917 56.3565 24.6705V30H54.6577ZM62.1378 33.2727C61.884 33.2727 61.6529 33.2519 61.4446 33.2102C61.2363 33.1723 61.081 33.1307 60.9787 33.0852L61.3878 31.6932C61.6984 31.7765 61.9749 31.8125 62.2173 31.8011C62.4598 31.7898 62.6738 31.6989 62.8594 31.5284C63.0488 31.358 63.2154 31.0795 63.3594 30.6932L63.5696 30.1136L60.3764 21.2727H62.1946L64.4048 28.0455H64.4957L66.706 21.2727H68.5298L64.9332 31.1648C64.7666 31.6193 64.5545 32.0038 64.2969 32.3182C64.0393 32.6364 63.7325 32.875 63.3764 33.0341C63.0204 33.1932 62.6075 33.2727 62.1378 33.2727ZM76.9006 30.1932C76.3475 30.1932 75.8475 30.0909 75.4006 29.8864C74.9536 29.678 74.5994 29.3769 74.3381 28.983C74.0805 28.589 73.9517 28.1061 73.9517 27.5341C73.9517 27.0417 74.0464 26.6364 74.2358 26.3182C74.4252 26 74.6809 25.7481 75.0028 25.5625C75.3248 25.3769 75.6847 25.2367 76.0824 25.142C76.4801 25.0473 76.8854 24.9754 77.2983 24.9261C77.821 24.8655 78.2453 24.8163 78.571 24.7784C78.8968 24.7367 79.1335 24.6705 79.2812 24.5795C79.429 24.4886 79.5028 24.3409 79.5028 24.1364V24.0966C79.5028 23.6004 79.3627 23.2159 79.0824 22.9432C78.8059 22.6705 78.393 22.5341 77.8438 22.5341C77.2718 22.5341 76.821 22.661 76.4915 22.9148C76.1657 23.1648 75.9403 23.4432 75.8153 23.75L74.2188 23.3864C74.4081 22.8561 74.6847 22.428 75.0483 22.1023C75.4157 21.7727 75.8381 21.5341 76.3153 21.3864C76.7926 21.2348 77.2945 21.1591 77.821 21.1591C78.1695 21.1591 78.5388 21.2008 78.929 21.2841C79.3229 21.3636 79.6903 21.5114 80.0312 21.7273C80.3759 21.9432 80.6581 22.2519 80.8778 22.6534C81.0975 23.0511 81.2074 23.5682 81.2074 24.2045V30H79.5483V28.8068H79.4801C79.3703 29.0265 79.2055 29.2424 78.9858 29.4545C78.7661 29.6667 78.4839 29.8428 78.1392 29.983C77.7945 30.1231 77.3816 30.1932 76.9006 30.1932ZM77.2699 28.8295C77.7396 28.8295 78.1411 28.7367 78.4744 28.5511C78.8116 28.3655 79.0672 28.1231 79.2415 27.8239C79.4195 27.5208 79.5085 27.197 79.5085 26.8523V25.7273C79.4479 25.7879 79.3305 25.8447 79.1562 25.8977C78.9858 25.947 78.7907 25.9905 78.571 26.0284C78.3513 26.0625 78.1373 26.0947 77.929 26.125C77.7206 26.1515 77.5464 26.1742 77.4062 26.1932C77.0767 26.2348 76.7756 26.3049 76.5028 26.4034C76.2339 26.5019 76.018 26.6439 75.8551 26.8295C75.696 27.0114 75.6165 27.2538 75.6165 27.5568C75.6165 27.9773 75.7718 28.2955 76.0824 28.5114C76.393 28.7235 76.7888 28.8295 77.2699 28.8295ZM87.1293 33.4545C86.4361 33.4545 85.8395 33.3636 85.3395 33.1818C84.8433 33 84.438 32.7595 84.1236 32.4602C83.8092 32.161 83.5743 31.8333 83.419 31.4773L84.8793 30.875C84.9815 31.0417 85.1179 31.2178 85.2884 31.4034C85.4626 31.5928 85.6974 31.7538 85.9929 31.8864C86.2921 32.0189 86.6766 32.0852 87.1463 32.0852C87.7902 32.0852 88.3224 31.928 88.7429 31.6136C89.1634 31.303 89.3736 30.8068 89.3736 30.125V28.4091H89.2656C89.1634 28.5947 89.0156 28.8011 88.8224 29.0284C88.633 29.2557 88.3717 29.4527 88.0384 29.6193C87.705 29.786 87.2713 29.8693 86.7372 29.8693C86.0478 29.8693 85.4266 29.7083 84.8736 29.3864C84.3243 29.0606 83.8887 28.5814 83.5668 27.9489C83.2486 27.3125 83.0895 26.5303 83.0895 25.6023C83.0895 24.6742 83.2467 23.8788 83.5611 23.2159C83.8793 22.553 84.3149 22.0455 84.8679 21.6932C85.4209 21.3371 86.0478 21.1591 86.7486 21.1591C87.2902 21.1591 87.7277 21.25 88.0611 21.4318C88.3944 21.6098 88.6539 21.8182 88.8395 22.0568C89.0289 22.2955 89.1747 22.5057 89.277 22.6875H89.402V21.2727H91.0668V30.1932C91.0668 30.9432 90.8925 31.5587 90.544 32.0398C90.1955 32.5208 89.724 32.8769 89.1293 33.108C88.5384 33.339 87.8717 33.4545 87.1293 33.4545ZM87.1122 28.4602C87.6009 28.4602 88.0137 28.3466 88.3509 28.1193C88.6918 27.8883 88.9493 27.5587 89.1236 27.1307C89.3016 26.6989 89.3906 26.1818 89.3906 25.5795C89.3906 24.9924 89.3035 24.4754 89.1293 24.0284C88.955 23.5814 88.6993 23.233 88.3622 22.983C88.0251 22.7292 87.6084 22.6023 87.1122 22.6023C86.6009 22.6023 86.1747 22.7348 85.8338 23C85.4929 23.2614 85.2353 23.6174 85.0611 24.0682C84.8906 24.5189 84.8054 25.0227 84.8054 25.5795C84.8054 26.1515 84.8925 26.6534 85.0668 27.0852C85.241 27.517 85.4986 27.8542 85.8395 28.0966C86.1842 28.339 86.6084 28.4602 87.1122 28.4602ZM95.8849 30.1932C95.3319 30.1932 94.8319 30.0909 94.3849 29.8864C93.938 29.678 93.5838 29.3769 93.3224 28.983C93.0649 28.589 92.9361 28.1061 92.9361 27.5341C92.9361 27.0417 93.0308 26.6364 93.2202 26.3182C93.4096 26 93.6652 25.7481 93.9872 25.5625C94.3092 25.3769 94.669 25.2367 95.0668 25.142C95.4645 25.0473 95.8698 24.9754 96.2827 24.9261C96.8054 24.8655 97.2296 24.8163 97.5554 24.7784C97.8812 24.7367 98.1179 24.6705 98.2656 24.5795C98.4134 24.4886 98.4872 24.3409 98.4872 24.1364V24.0966C98.4872 23.6004 98.3471 23.2159 98.0668 22.9432C97.7902 22.6705 97.3774 22.5341 96.8281 22.5341C96.2562 22.5341 95.8054 22.661 95.4759 22.9148C95.1501 23.1648 94.9247 23.4432 94.7997 23.75L93.2031 23.3864C93.3925 22.8561 93.669 22.428 94.0327 22.1023C94.4001 21.7727 94.8224 21.5341 95.2997 21.3864C95.777 21.2348 96.2789 21.1591 96.8054 21.1591C97.1539 21.1591 97.5232 21.2008 97.9134 21.2841C98.3073 21.3636 98.6747 21.5114 99.0156 21.7273C99.3603 21.9432 99.6425 22.2519 99.8622 22.6534C100.082 23.0511 100.192 23.5682 100.192 24.2045V30H98.5327V28.8068H98.4645C98.3546 29.0265 98.1899 29.2424 97.9702 29.4545C97.7505 29.6667 97.4683 29.8428 97.1236 29.983C96.7789 30.1231 96.366 30.1932 95.8849 30.1932ZM96.2543 28.8295C96.724 28.8295 97.1255 28.7367 97.4588 28.5511C97.7959 28.3655 98.0516 28.1231 98.2259 27.8239C98.4039 27.5208 98.4929 27.197 98.4929 26.8523V25.7273C98.4323 25.7879 98.3149 25.8447 98.1406 25.8977C97.9702 25.947 97.7751 25.9905 97.5554 26.0284C97.3357 26.0625 97.1217 26.0947 96.9134 26.125C96.705 26.1515 96.5308 26.1742 96.3906 26.1932C96.0611 26.2348 95.7599 26.3049 95.4872 26.4034C95.2183 26.5019 95.0024 26.6439 94.8395 26.8295C94.6804 27.0114 94.6009 27.2538 94.6009 27.5568C94.6009 27.9773 94.7562 28.2955 95.0668 28.5114C95.3774 28.7235 95.7732 28.8295 96.2543 28.8295ZM102.455 30V21.2727H104.153V30H102.455ZM103.312 19.9261C103.017 19.9261 102.763 19.8277 102.551 19.6307C102.343 19.4299 102.239 19.1913 102.239 18.9148C102.239 18.6345 102.343 18.3958 102.551 18.1989C102.763 17.9981 103.017 17.8977 103.312 17.8977C103.608 17.8977 103.86 17.9981 104.068 18.1989C104.28 18.3958 104.386 18.6345 104.386 18.9148C104.386 19.1913 104.28 19.4299 104.068 19.6307C103.86 19.8277 103.608 19.9261 103.312 19.9261ZM108.138 24.8182V30H106.439V21.2727H108.07V22.6932H108.178C108.378 22.2311 108.693 21.8598 109.121 21.5795C109.553 21.2992 110.096 21.1591 110.751 21.1591C111.346 21.1591 111.867 21.2841 112.314 21.5341C112.761 21.7803 113.107 22.1477 113.354 22.6364C113.6 23.125 113.723 23.7292 113.723 24.4489V30H112.024V24.6534C112.024 24.0208 111.859 23.5265 111.53 23.1705C111.2 22.8106 110.748 22.6307 110.172 22.6307C109.778 22.6307 109.428 22.7159 109.121 22.8864C108.818 23.0568 108.577 23.3068 108.399 23.6364C108.225 23.9621 108.138 24.3561 108.138 24.8182ZM121.935 18.3636V30H120.236V18.3636H121.935ZM126.76 30.1932C126.207 30.1932 125.707 30.0909 125.26 29.8864C124.813 29.678 124.459 29.3769 124.197 28.983C123.94 28.589 123.811 28.1061 123.811 27.5341C123.811 27.0417 123.906 26.6364 124.095 26.3182C124.285 26 124.54 25.7481 124.862 25.5625C125.184 25.3769 125.544 25.2367 125.942 25.142C126.339 25.0473 126.745 24.9754 127.158 24.9261C127.68 24.8655 128.105 24.8163 128.43 24.7784C128.756 24.7367 128.993 24.6705 129.141 24.5795C129.288 24.4886 129.362 24.3409 129.362 24.1364V24.0966C129.362 23.6004 129.222 23.2159 128.942 22.9432C128.665 22.6705 128.252 22.5341 127.703 22.5341C127.131 22.5341 126.68 22.661 126.351 22.9148C126.025 23.1648 125.8 23.4432 125.675 23.75L124.078 23.3864C124.268 22.8561 124.544 22.428 124.908 22.1023C125.275 21.7727 125.697 21.5341 126.175 21.3864C126.652 21.2348 127.154 21.1591 127.68 21.1591C128.029 21.1591 128.398 21.2008 128.788 21.2841C129.182 21.3636 129.55 21.5114 129.891 21.7273C130.235 21.9432 130.518 22.2519 130.737 22.6534C130.957 23.0511 131.067 23.5682 131.067 24.2045V30H129.408V28.8068H129.339C129.23 29.0265 129.065 29.2424 128.845 29.4545C128.625 29.6667 128.343 29.8428 127.999 29.983C127.654 30.1231 127.241 30.1932 126.76 30.1932ZM127.129 28.8295C127.599 28.8295 128 28.7367 128.334 28.5511C128.671 28.3655 128.927 28.1231 129.101 27.8239C129.279 27.5208 129.368 27.197 129.368 26.8523V25.7273C129.307 25.7879 129.19 25.8447 129.016 25.8977C128.845 25.947 128.65 25.9905 128.43 26.0284C128.211 26.0625 127.997 26.0947 127.788 26.125C127.58 26.1515 127.406 26.1742 127.266 26.1932C126.936 26.2348 126.635 26.3049 126.362 26.4034C126.093 26.5019 125.877 26.6439 125.714 26.8295C125.555 27.0114 125.476 27.2538 125.476 27.5568C125.476 27.9773 125.631 28.2955 125.942 28.5114C126.252 28.7235 126.648 28.8295 127.129 28.8295ZM137.403 21.2727V22.6364H132.636V21.2727H137.403ZM133.915 19.1818H135.614V27.4375C135.614 27.767 135.663 28.0152 135.761 28.1818C135.86 28.3447 135.987 28.4564 136.142 28.517C136.301 28.5739 136.473 28.6023 136.659 28.6023C136.795 28.6023 136.915 28.5928 137.017 28.5739C137.119 28.5549 137.199 28.5398 137.256 28.5284L137.562 29.9318C137.464 29.9697 137.324 30.0076 137.142 30.0455C136.96 30.0871 136.733 30.1098 136.46 30.1136C136.013 30.1212 135.597 30.0417 135.21 29.875C134.824 29.7083 134.511 29.4508 134.273 29.1023C134.034 28.7538 133.915 28.3163 133.915 27.7898V19.1818ZM142.95 30.1761C142.09 30.1761 141.35 29.9924 140.729 29.625C140.111 29.2538 139.634 28.733 139.297 28.0625C138.964 27.3883 138.797 26.5985 138.797 25.6932C138.797 24.7992 138.964 24.0114 139.297 23.3295C139.634 22.6477 140.104 22.1155 140.706 21.733C141.312 21.3504 142.02 21.1591 142.831 21.1591C143.323 21.1591 143.801 21.2405 144.263 21.4034C144.725 21.5663 145.14 21.822 145.507 22.1705C145.875 22.5189 146.164 22.9716 146.376 23.5284C146.589 24.0814 146.695 24.7538 146.695 25.5455V26.1477H139.757V24.875H145.03C145.03 24.428 144.939 24.0322 144.757 23.6875C144.575 23.339 144.32 23.0644 143.99 22.8636C143.664 22.6629 143.282 22.5625 142.842 22.5625C142.365 22.5625 141.948 22.6799 141.592 22.9148C141.24 23.1458 140.967 23.4489 140.774 23.8239C140.585 24.1951 140.49 24.5985 140.49 25.0341V26.0284C140.49 26.6117 140.592 27.108 140.797 27.517C141.005 27.9261 141.295 28.2386 141.666 28.4545C142.037 28.6667 142.471 28.7727 142.967 28.7727C143.289 28.7727 143.583 28.7273 143.848 28.6364C144.113 28.5417 144.342 28.4015 144.536 28.2159C144.729 28.0303 144.876 27.8011 144.979 27.5284L146.587 27.8182C146.458 28.2917 146.227 28.7064 145.893 29.0625C145.564 29.4148 145.149 29.6894 144.649 29.8864C144.153 30.0795 143.587 30.1761 142.95 30.1761ZM148.58 30V21.2727H150.222V22.6591H150.312C150.472 22.1894 150.752 21.8201 151.153 21.5511C151.559 21.2784 152.017 21.142 152.528 21.142C152.634 21.142 152.759 21.1458 152.903 21.1534C153.051 21.161 153.167 21.1705 153.25 21.1818V22.8068C153.182 22.7879 153.061 22.767 152.886 22.7443C152.712 22.7178 152.538 22.7045 152.364 22.7045C151.962 22.7045 151.604 22.7898 151.29 22.9602C150.979 23.1269 150.733 23.3598 150.551 23.6591C150.369 23.9545 150.278 24.2917 150.278 24.6705V30H148.58ZM156.862 18.3636L156.714 26.6534H155.141L154.993 18.3636H156.862ZM155.93 30.108C155.616 30.108 155.347 29.9981 155.124 29.7784C154.9 29.5549 154.79 29.286 154.794 28.9716C154.79 28.661 154.9 28.3958 155.124 28.1761C155.347 27.9527 155.616 27.8409 155.93 27.8409C156.237 27.8409 156.502 27.9527 156.726 28.1761C156.949 28.3958 157.063 28.661 157.067 28.9716C157.063 29.1799 157.008 29.3712 156.902 29.5455C156.8 29.7159 156.663 29.8523 156.493 29.9545C156.322 30.0568 156.135 30.108 155.93 30.108Z" fill="#1F2937"/>
<path d="M45.233 56V45.8182H51.3381V46.9119H46.4659V50.3523H50.8807V51.446H46.4659V56H45.233ZM55.9318 56.1591C55.196 56.1591 54.5613 55.9967 54.0277 55.6719C53.4974 55.3438 53.0881 54.8864 52.7997 54.2997C52.5147 53.7098 52.3722 53.0237 52.3722 52.2415C52.3722 51.4593 52.5147 50.7699 52.7997 50.1733C53.0881 49.5734 53.4891 49.1061 54.0028 48.7713C54.5199 48.4332 55.1231 48.2642 55.8125 48.2642C56.2102 48.2642 56.603 48.3305 56.9908 48.4631C57.3786 48.5956 57.7315 48.8111 58.0497 49.1094C58.3679 49.4044 58.6214 49.7955 58.8104 50.2827C58.9993 50.7699 59.0938 51.3698 59.0938 52.0824V52.5795H53.2074V51.5653H57.9006C57.9006 51.1345 57.8144 50.75 57.642 50.4119C57.473 50.0739 57.2311 49.8071 56.9162 49.6115C56.6046 49.416 56.2367 49.3182 55.8125 49.3182C55.3452 49.3182 54.9408 49.4342 54.5994 49.6662C54.2614 49.8949 54.0012 50.1932 53.8189 50.5611C53.6366 50.929 53.5455 51.3234 53.5455 51.7443V52.4205C53.5455 52.9972 53.6449 53.486 53.8438 53.8871C54.0459 54.2848 54.326 54.5881 54.6839 54.7969C55.0419 55.0024 55.4579 55.1051 55.9318 55.1051C56.2401 55.1051 56.5185 55.062 56.767 54.9759C57.0189 54.8864 57.236 54.7538 57.4183 54.5781C57.6006 54.3991 57.7415 54.1771 57.8409 53.9119L58.9744 54.2301C58.8551 54.6146 58.6546 54.9527 58.3729 55.2443C58.0911 55.5327 57.7431 55.758 57.3288 55.9205C56.9145 56.0795 56.4489 56.1591 55.9318 56.1591ZM62.6087 56L60.282 48.3636H61.5149L63.1655 54.2102H63.245L64.8757 48.3636H66.1286L67.7393 54.1903H67.8189L69.4695 48.3636H70.7024L68.3757 56H67.2223L65.5518 50.1335H65.4325L63.7621 56H62.6087ZM76.1911 56V48.3636H77.3643V56H76.1911ZM76.7876 47.0909C76.5589 47.0909 76.3617 47.013 76.196 46.8572C76.0336 46.7015 75.9524 46.5142 75.9524 46.2955C75.9524 46.0767 76.0336 45.8894 76.196 45.7337C76.3617 45.5779 76.5589 45.5 76.7876 45.5C77.0163 45.5 77.2119 45.5779 77.3743 45.7337C77.54 45.8894 77.6229 46.0767 77.6229 46.2955C77.6229 46.5142 77.54 46.7015 77.3743 46.8572C77.2119 47.013 77.0163 47.0909 76.7876 47.0909ZM82.8343 48.3636V49.358H78.877V48.3636H82.8343ZM80.0304 46.5341H81.2037V53.8125C81.2037 54.1439 81.2517 54.3925 81.3478 54.5582C81.4473 54.7206 81.5732 54.83 81.7257 54.8864C81.8815 54.9394 82.0455 54.9659 82.2179 54.9659C82.3471 54.9659 82.4532 54.9593 82.536 54.946C82.6189 54.9295 82.6852 54.9162 82.7349 54.9062L82.9735 55.9602C82.894 55.9901 82.783 56.0199 82.6404 56.0497C82.4979 56.0829 82.3173 56.0994 82.0985 56.0994C81.7671 56.0994 81.4423 56.0282 81.1241 55.8857C80.8092 55.7431 80.5474 55.526 80.3386 55.2344C80.1331 54.9427 80.0304 54.5748 80.0304 54.1307V46.5341ZM87.7189 56.1591C86.9831 56.1591 86.3484 55.9967 85.8148 55.6719C85.2845 55.3438 84.8752 54.8864 84.5868 54.2997C84.3018 53.7098 84.1593 53.0237 84.1593 52.2415C84.1593 51.4593 84.3018 50.7699 84.5868 50.1733C84.8752 49.5734 85.2762 49.1061 85.79 48.7713C86.307 48.4332 86.9102 48.2642 87.5996 48.2642C87.9973 48.2642 88.3901 48.3305 88.7779 48.4631C89.1657 48.5956 89.5186 48.8111 89.8368 49.1094C90.155 49.4044 90.4086 49.7955 90.5975 50.2827C90.7864 50.7699 90.8809 51.3698 90.8809 52.0824V52.5795H84.9945V51.5653H89.6877C89.6877 51.1345 89.6015 50.75 89.4292 50.4119C89.2601 50.0739 89.0182 49.8071 88.7033 49.6115C88.3917 49.416 88.0239 49.3182 87.5996 49.3182C87.1323 49.3182 86.7279 49.4342 86.3865 49.6662C86.0485 49.8949 85.7883 50.1932 85.606 50.5611C85.4237 50.929 85.3326 51.3234 85.3326 51.7443V52.4205C85.3326 52.9972 85.432 53.486 85.6309 53.8871C85.833 54.2848 86.1131 54.5881 86.4711 54.7969C86.829 55.0024 87.245 55.1051 87.7189 55.1051C88.0272 55.1051 88.3056 55.062 88.5542 54.9759C88.806 54.8864 89.0231 54.7538 89.2054 54.5781C89.3877 54.3991 89.5286 54.1771 89.628 53.9119L90.7615 54.2301C90.6422 54.6146 90.4417 54.9527 90.16 55.2443C89.8783 55.5327 89.5302 55.758 89.1159 55.9205C88.7016 56.0795 88.236 56.1591 87.7189 56.1591ZM92.6657 56V48.3636H93.7992V49.5568H93.8986C94.0577 49.1491 94.3146 48.8326 94.6692 48.6072C95.0239 48.3786 95.4498 48.2642 95.9469 48.2642C96.4507 48.2642 96.87 48.3786 97.2047 48.6072C97.5428 48.8326 97.8063 49.1491 97.9952 49.5568H98.0748C98.2703 49.1624 98.5636 48.8492 98.9547 48.6172C99.3458 48.3819 99.8148 48.2642 100.362 48.2642C101.044 48.2642 101.603 48.478 102.037 48.9055C102.471 49.3298 102.688 49.991 102.688 50.8892V56H101.515V50.8892C101.515 50.3258 101.361 49.9231 101.053 49.6811C100.744 49.4392 100.382 49.3182 99.964 49.3182C99.427 49.3182 99.0111 49.4806 98.7161 49.8054C98.4211 50.1269 98.2736 50.5346 98.2736 51.0284V56H97.0804V50.7699C97.0804 50.3357 96.9396 49.986 96.6578 49.7209C96.3761 49.4524 96.0132 49.3182 95.5691 49.3182C95.2641 49.3182 94.9791 49.3994 94.714 49.5618C94.4521 49.7242 94.24 49.9496 94.0776 50.2379C93.9185 50.523 93.839 50.8527 93.839 51.2273V56H92.6657ZM110.243 50.0739L109.189 50.3722C109.122 50.1965 109.025 50.0258 108.895 49.8601C108.769 49.6911 108.597 49.5518 108.378 49.4425C108.16 49.3331 107.88 49.2784 107.538 49.2784C107.071 49.2784 106.681 49.3861 106.37 49.6016C106.062 49.8137 105.907 50.0838 105.907 50.4119C105.907 50.7036 106.014 50.9339 106.226 51.103C106.438 51.272 106.769 51.4129 107.22 51.5256L108.354 51.804C109.036 51.9697 109.545 52.2232 109.88 52.5646C110.215 52.9027 110.382 53.3385 110.382 53.8722C110.382 54.3097 110.256 54.7008 110.004 55.0455C109.756 55.3902 109.407 55.6619 108.96 55.8608C108.513 56.0597 107.992 56.1591 107.399 56.1591C106.62 56.1591 105.975 55.9901 105.465 55.652C104.955 55.3139 104.631 54.8201 104.496 54.1705L105.609 53.892C105.715 54.303 105.916 54.6113 106.211 54.8168C106.509 55.0223 106.898 55.125 107.379 55.125C107.926 55.125 108.36 55.009 108.682 54.777C109.006 54.5417 109.169 54.2599 109.169 53.9318C109.169 53.6667 109.076 53.4446 108.89 53.2656C108.705 53.0833 108.42 52.9474 108.035 52.858L106.763 52.5597C106.063 52.3939 105.55 52.1371 105.221 51.7891C104.897 51.4377 104.734 50.9986 104.734 50.4716C104.734 50.0407 104.855 49.6596 105.097 49.3281C105.342 48.9967 105.675 48.7365 106.096 48.5476C106.521 48.3587 107.001 48.2642 107.538 48.2642C108.294 48.2642 108.887 48.4299 109.318 48.7614C109.752 49.0928 110.06 49.5303 110.243 50.0739ZM116.086 56V48.3636H117.259V56H116.086ZM116.682 47.0909C116.453 47.0909 116.256 47.013 116.091 46.8572C115.928 46.7015 115.847 46.5142 115.847 46.2955C115.847 46.0767 115.928 45.8894 116.091 45.7337C116.256 45.5779 116.453 45.5 116.682 45.5C116.911 45.5 117.106 45.5779 117.269 45.7337C117.435 45.8894 117.517 46.0767 117.517 46.2955C117.517 46.5142 117.435 46.7015 117.269 46.8572C117.106 47.013 116.911 47.0909 116.682 47.0909ZM120.581 51.4062V56H119.408V48.3636H120.541V49.5568H120.641C120.82 49.169 121.092 48.8575 121.456 48.6222C121.821 48.3835 122.291 48.2642 122.868 48.2642C123.385 48.2642 123.838 48.3703 124.225 48.5824C124.613 48.7912 124.915 49.1094 125.13 49.5369C125.346 49.9612 125.453 50.4981 125.453 51.1477V56H124.28V51.2273C124.28 50.6274 124.124 50.16 123.813 49.8253C123.501 49.4872 123.074 49.3182 122.53 49.3182C122.155 49.3182 121.821 49.3994 121.526 49.5618C121.234 49.7242 121.004 49.9612 120.835 50.2727C120.666 50.5843 120.581 50.9621 120.581 51.4062ZM134.856 48.3636V49.358H130.898V48.3636H134.856ZM132.052 46.5341H133.225V53.8125C133.225 54.1439 133.273 54.3925 133.369 54.5582C133.469 54.7206 133.595 54.83 133.747 54.8864C133.903 54.9394 134.067 54.9659 134.239 54.9659C134.369 54.9659 134.475 54.9593 134.558 54.946C134.64 54.9295 134.707 54.9162 134.756 54.9062L134.995 55.9602C134.915 55.9901 134.804 56.0199 134.662 56.0497C134.519 56.0829 134.339 56.0994 134.12 56.0994C133.789 56.0994 133.464 56.0282 133.146 55.8857C132.831 55.7431 132.569 55.526 132.36 55.2344C132.155 54.9427 132.052 54.5748 132.052 54.1307V46.5341ZM137.958 51.4062V56H136.785V45.8182H137.958V49.5568H138.058C138.237 49.1624 138.505 48.8492 138.863 48.6172C139.224 48.3819 139.705 48.2642 140.305 48.2642C140.825 48.2642 141.281 48.3686 141.672 48.5774C142.063 48.7829 142.366 49.0994 142.582 49.527C142.8 49.9512 142.91 50.4915 142.91 51.1477V56H141.737V51.2273C141.737 50.6207 141.579 50.1518 141.264 49.8203C140.953 49.4856 140.52 49.3182 139.967 49.3182C139.582 49.3182 139.237 49.3994 138.933 49.5618C138.631 49.7242 138.392 49.9612 138.217 50.2727C138.044 50.5843 137.958 50.9621 137.958 51.4062ZM145.056 56V48.3636H146.23V56H145.056ZM145.653 47.0909C145.424 47.0909 145.227 47.013 145.061 46.8572C144.899 46.7015 144.818 46.5142 144.818 46.2955C144.818 46.0767 144.899 45.8894 145.061 45.7337C145.227 45.5779 145.424 45.5 145.653 45.5C145.882 45.5 146.077 45.5779 146.24 45.7337C146.405 45.8894 146.488 46.0767 146.488 46.2955C146.488 46.5142 146.405 46.7015 146.24 46.8572C146.077 47.013 145.882 47.0909 145.653 47.0909ZM153.788 50.0739L152.734 50.3722C152.667 50.1965 152.57 50.0258 152.44 49.8601C152.314 49.6911 152.142 49.5518 151.923 49.4425C151.705 49.3331 151.424 49.2784 151.083 49.2784C150.616 49.2784 150.226 49.3861 149.915 49.6016C149.607 49.8137 149.452 50.0838 149.452 50.4119C149.452 50.7036 149.558 50.9339 149.771 51.103C149.983 51.272 150.314 51.4129 150.765 51.5256L151.898 51.804C152.581 51.9697 153.09 52.2232 153.425 52.5646C153.759 52.9027 153.927 53.3385 153.927 53.8722C153.927 54.3097 153.801 54.7008 153.549 55.0455C153.3 55.3902 152.952 55.6619 152.505 55.8608C152.058 56.0597 151.537 56.1591 150.944 56.1591C150.165 56.1591 149.52 55.9901 149.01 55.652C148.5 55.3139 148.176 54.8201 148.04 54.1705L149.154 53.892C149.26 54.303 149.461 54.6113 149.756 54.8168C150.054 55.0223 150.443 55.125 150.924 55.125C151.471 55.125 151.905 55.009 152.227 54.777C152.551 54.5417 152.714 54.2599 152.714 53.9318C152.714 53.6667 152.621 53.4446 152.435 53.2656C152.25 53.0833 151.965 52.9474 151.58 52.858L150.308 52.5597C149.608 52.3939 149.094 52.1371 148.766 51.7891C148.442 51.4377 148.279 50.9986 148.279 50.4716C148.279 50.0407 148.4 49.6596 148.642 49.3281C148.887 48.9967 149.22 48.7365 149.641 48.5476C150.066 48.3587 150.546 48.2642 151.083 48.2642C151.839 48.2642 152.432 48.4299 152.863 48.7614C153.297 49.0928 153.605 49.5303 153.788 50.0739ZM159.631 58.8636V48.3636H160.764V49.5767H160.903C160.989 49.4441 161.109 49.2751 161.261 49.0696C161.417 48.8608 161.639 48.6752 161.927 48.5128C162.219 48.3471 162.613 48.2642 163.111 48.2642C163.754 48.2642 164.32 48.425 164.811 48.7464C165.301 49.0679 165.684 49.5237 165.959 50.1136C166.234 50.7036 166.372 51.3996 166.372 52.2017C166.372 53.0104 166.234 53.7114 165.959 54.3047C165.684 54.8946 165.303 55.352 164.816 55.6768C164.329 55.9983 163.767 56.1591 163.131 56.1591C162.64 56.1591 162.247 56.0779 161.952 55.9155C161.657 55.7498 161.43 55.5625 161.271 55.3537C161.112 55.1416 160.989 54.9659 160.903 54.8267H160.804V58.8636H159.631ZM160.784 52.1818C160.784 52.7585 160.868 53.2673 161.037 53.7081C161.206 54.1456 161.453 54.4886 161.778 54.7372C162.103 54.9825 162.501 55.1051 162.971 55.1051C163.462 55.1051 163.871 54.9759 164.199 54.7173C164.531 54.4555 164.779 54.1042 164.945 53.6634C165.114 53.2192 165.199 52.7254 165.199 52.1818C165.199 51.6449 165.116 51.161 164.95 50.7301C164.788 50.2959 164.541 49.9529 164.209 49.701C163.881 49.4458 163.469 49.3182 162.971 49.3182C162.494 49.3182 162.093 49.4392 161.768 49.6811C161.443 49.9197 161.198 50.2545 161.032 50.6854C160.867 51.1129 160.784 51.6117 160.784 52.1818ZM170.409 56.179C169.925 56.179 169.486 56.0878 169.091 55.9055C168.697 55.7199 168.384 55.4531 168.152 55.1051C167.92 54.7538 167.804 54.3295 167.804 53.8324C167.804 53.3949 167.89 53.0402 168.062 52.7685C168.235 52.4934 168.465 52.2779 168.753 52.1222C169.042 51.9664 169.36 51.8504 169.708 51.7741C170.059 51.6946 170.412 51.6316 170.767 51.5852C171.231 51.5256 171.607 51.4808 171.895 51.451C172.187 51.4179 172.399 51.3632 172.532 51.2869C172.668 51.2107 172.736 51.0781 172.736 50.8892V50.8494C172.736 50.3589 172.601 49.9777 172.333 49.706C172.068 49.4342 171.665 49.2983 171.125 49.2983C170.565 49.2983 170.126 49.4209 169.807 49.6662C169.489 49.9115 169.265 50.1733 169.136 50.4517L168.023 50.054C168.221 49.59 168.487 49.2287 168.818 48.9702C169.153 48.7083 169.517 48.526 169.912 48.4233C170.309 48.3172 170.701 48.2642 171.085 48.2642C171.33 48.2642 171.612 48.294 171.93 48.3537C172.252 48.41 172.562 48.5277 172.86 48.7067C173.162 48.8857 173.412 49.1558 173.611 49.517C173.809 49.8783 173.909 50.3622 173.909 50.9688V56H172.736V54.9659H172.676C172.596 55.1316 172.464 55.3089 172.278 55.4979C172.093 55.6868 171.846 55.8475 171.537 55.9801C171.229 56.1127 170.853 56.179 170.409 56.179ZM170.588 55.125C171.052 55.125 171.443 55.0339 171.761 54.8516C172.083 54.6693 172.325 54.4339 172.487 54.1456C172.653 53.8572 172.736 53.554 172.736 53.2358V52.1619C172.686 52.2216 172.577 52.2763 172.407 52.326C172.242 52.3724 172.05 52.4138 171.831 52.4503C171.615 52.4834 171.405 52.5133 171.199 52.5398C170.997 52.563 170.833 52.5829 170.707 52.5994C170.402 52.6392 170.117 52.7038 169.852 52.7933C169.59 52.8795 169.378 53.0104 169.216 53.1861C169.057 53.3584 168.977 53.5937 168.977 53.892C168.977 54.2997 169.128 54.608 169.43 54.8168C169.734 55.0223 170.121 55.125 170.588 55.125ZM179.133 59.0227C178.566 59.0227 178.079 58.9498 177.671 58.804C177.263 58.6615 176.924 58.4725 176.652 58.2372C176.384 58.0052 176.17 57.7566 176.011 57.4915L176.945 56.8352C177.051 56.9744 177.186 57.1335 177.348 57.3125C177.51 57.4948 177.732 57.6522 178.014 57.7848C178.299 57.9207 178.672 57.9886 179.133 57.9886C179.749 57.9886 180.258 57.8395 180.659 57.5412C181.06 57.2429 181.261 56.7756 181.261 56.1392V54.5881H181.161C181.075 54.7273 180.952 54.8996 180.793 55.1051C180.638 55.3073 180.412 55.4879 180.117 55.647C179.826 55.8028 179.431 55.8807 178.934 55.8807C178.317 55.8807 177.764 55.7348 177.273 55.4432C176.786 55.1515 176.4 54.7273 176.115 54.1705C175.833 53.6136 175.692 52.9375 175.692 52.142C175.692 51.3598 175.83 50.6787 176.105 50.0987C176.38 49.5154 176.763 49.0646 177.254 48.7464C177.744 48.425 178.311 48.2642 178.954 48.2642C179.451 48.2642 179.845 48.3471 180.137 48.5128C180.432 48.6752 180.657 48.8608 180.813 49.0696C180.972 49.2751 181.095 49.4441 181.181 49.5767H181.3V48.3636H182.434V56.2188C182.434 56.875 182.285 57.4086 181.987 57.8196C181.692 58.2339 181.294 58.5372 180.793 58.7294C180.296 58.925 179.743 59.0227 179.133 59.0227ZM179.093 54.8267C179.564 54.8267 179.961 54.719 180.286 54.5036C180.611 54.2881 180.858 53.9782 181.027 53.5739C181.196 53.1695 181.281 52.6856 181.281 52.1222C181.281 51.572 181.198 51.0864 181.032 50.6655C180.866 50.2446 180.621 49.9148 180.296 49.6761C179.971 49.4375 179.57 49.3182 179.093 49.3182C178.596 49.3182 178.182 49.4441 177.85 49.696C177.522 49.9479 177.275 50.286 177.109 50.7102C176.947 51.1345 176.866 51.6051 176.866 52.1222C176.866 52.6525 176.949 53.1214 177.114 53.5291C177.283 53.9335 177.532 54.2517 177.86 54.4837C178.192 54.7124 178.603 54.8267 179.093 54.8267ZM187.783 56.1591C187.048 56.1591 186.413 55.9967 185.879 55.6719C185.349 55.3438 184.94 54.8864 184.651 54.2997C184.366 53.7098 184.224 53.0237 184.224 52.2415C184.224 51.4593 184.366 50.7699 184.651 50.1733C184.94 49.5734 185.341 49.1061 185.854 48.7713C186.371 48.4332 186.975 48.2642 187.664 48.2642C188.062 48.2642 188.455 48.3305 188.842 48.4631C189.23 48.5956 189.583 48.8111 189.901 49.1094C190.219 49.4044 190.473 49.7955 190.662 50.2827C190.851 50.7699 190.945 51.3698 190.945 52.0824V52.5795H185.059V51.5653H189.752C189.752 51.1345 189.666 50.75 189.494 50.4119C189.325 50.0739 189.083 49.8071 188.768 49.6115C188.456 49.416 188.088 49.3182 187.664 49.3182C187.197 49.3182 186.792 49.4342 186.451 49.6662C186.113 49.8949 185.853 50.1932 185.67 50.5611C185.488 50.929 185.397 51.3234 185.397 51.7443V52.4205C185.397 52.9972 185.496 53.486 185.695 53.8871C185.897 54.2848 186.178 54.5881 186.536 54.7969C186.893 55.0024 187.309 55.1051 187.783 55.1051C188.092 55.1051 188.37 55.062 188.619 54.9759C188.871 54.8864 189.088 54.7538 189.27 54.5781C189.452 54.3991 189.593 54.1771 189.692 53.9119L190.826 54.2301C190.707 54.6146 190.506 54.9527 190.224 55.2443C189.943 55.5327 189.595 55.758 189.18 55.9205C188.766 56.0795 188.3 56.1591 187.783 56.1591ZM200.068 48.3636V49.358H195.952V48.3636H200.068ZM197.185 56V47.3097C197.185 46.8722 197.287 46.5076 197.493 46.2159C197.698 45.9242 197.965 45.7055 198.293 45.5597C198.621 45.4138 198.968 45.3409 199.332 45.3409C199.621 45.3409 199.856 45.3641 200.038 45.4105C200.221 45.4569 200.357 45.5 200.446 45.5398L200.108 46.554C200.048 46.5341 199.965 46.5092 199.859 46.4794C199.757 46.4496 199.621 46.4347 199.452 46.4347C199.064 46.4347 198.784 46.5324 198.612 46.728C198.442 46.9235 198.358 47.2102 198.358 47.5881V56H197.185ZM203.741 56.179C203.257 56.179 202.818 56.0878 202.423 55.9055C202.029 55.7199 201.716 55.4531 201.484 55.1051C201.252 54.7538 201.136 54.3295 201.136 53.8324C201.136 53.3949 201.222 53.0402 201.394 52.7685C201.567 52.4934 201.797 52.2779 202.085 52.1222C202.374 51.9664 202.692 51.8504 203.04 51.7741C203.391 51.6946 203.744 51.6316 204.099 51.5852C204.563 51.5256 204.939 51.4808 205.227 51.451C205.519 51.4179 205.731 51.3632 205.864 51.2869C206 51.2107 206.068 51.0781 206.068 50.8892V50.8494C206.068 50.3589 205.933 49.9777 205.665 49.706C205.4 49.4342 204.997 49.2983 204.457 49.2983C203.897 49.2983 203.458 49.4209 203.139 49.6662C202.821 49.9115 202.597 50.1733 202.468 50.4517L201.355 50.054C201.553 49.59 201.819 49.2287 202.15 48.9702C202.485 48.7083 202.849 48.526 203.244 48.4233C203.642 48.3172 204.033 48.2642 204.417 48.2642C204.662 48.2642 204.944 48.294 205.262 48.3537C205.584 48.41 205.894 48.5277 206.192 48.7067C206.494 48.8857 206.744 49.1558 206.943 49.517C207.142 49.8783 207.241 50.3622 207.241 50.9688V56H206.068V54.9659H206.008C205.928 55.1316 205.796 55.3089 205.61 55.4979C205.425 55.6868 205.178 55.8475 204.869 55.9801C204.561 56.1127 204.185 56.179 203.741 56.179ZM203.92 55.125C204.384 55.125 204.775 55.0339 205.093 54.8516C205.415 54.6693 205.657 54.4339 205.819 54.1456C205.985 53.8572 206.068 53.554 206.068 53.2358V52.1619C206.018 52.2216 205.909 52.2763 205.74 52.326C205.574 52.3724 205.382 52.4138 205.163 52.4503C204.947 52.4834 204.737 52.5133 204.531 52.5398C204.329 52.563 204.165 52.5829 204.039 52.5994C203.734 52.6392 203.449 52.7038 203.184 52.7933C202.922 52.8795 202.71 53.0104 202.548 53.1861C202.389 53.3584 202.309 53.5937 202.309 53.892C202.309 54.2997 202.46 54.608 202.762 54.8168C203.066 55.0223 203.453 55.125 203.92 55.125ZM209.382 56V48.3636H210.556V56H209.382ZM209.979 47.0909C209.75 47.0909 209.553 47.013 209.387 46.8572C209.225 46.7015 209.144 46.5142 209.144 46.2955C209.144 46.0767 209.225 45.8894 209.387 45.7337C209.553 45.5779 209.75 45.5 209.979 45.5C210.208 45.5 210.403 45.5779 210.566 45.7337C210.731 45.8894 210.814 46.0767 210.814 46.2955C210.814 46.5142 210.731 46.7015 210.566 46.8572C210.403 47.013 210.208 47.0909 209.979 47.0909ZM213.878 45.8182V56H212.705V45.8182H213.878ZM219.229 56.1591C218.493 56.1591 217.858 55.9967 217.325 55.6719C216.794 55.3438 216.385 54.8864 216.097 54.2997C215.812 53.7098 215.669 53.0237 215.669 52.2415C215.669 51.4593 215.812 50.7699 216.097 50.1733C216.385 49.5734 216.786 49.1061 217.3 48.7713C217.817 48.4332 218.42 48.2642 219.109 48.2642C219.507 48.2642 219.9 48.3305 220.288 48.4631C220.675 48.5956 221.028 48.8111 221.347 49.1094C221.665 49.4044 221.918 49.7955 222.107 50.2827C222.296 50.7699 222.391 51.3698 222.391 52.0824V52.5795H216.504V51.5653H221.197C221.197 51.1345 221.111 50.75 220.939 50.4119C220.77 50.0739 220.528 49.8071 220.213 49.6115C219.902 49.416 219.534 49.3182 219.109 49.3182C218.642 49.3182 218.238 49.4342 217.896 49.6662C217.558 49.8949 217.298 50.1932 217.116 50.5611C216.933 50.929 216.842 51.3234 216.842 51.7443V52.4205C216.842 52.9972 216.942 53.486 217.141 53.8871C217.343 54.2848 217.623 54.5881 217.981 54.7969C218.339 55.0024 218.755 55.1051 219.229 55.1051C219.537 55.1051 219.815 55.062 220.064 54.9759C220.316 54.8864 220.533 54.7538 220.715 54.5781C220.897 54.3991 221.038 54.1771 221.138 53.9119L222.271 54.2301C222.152 54.6146 221.951 54.9527 221.67 55.2443C221.388 55.5327 221.04 55.758 220.626 55.9205C220.211 56.0795 219.746 56.1591 219.229 56.1591ZM227.059 56.1591C226.423 56.1591 225.861 55.9983 225.374 55.6768C224.886 55.352 224.505 54.8946 224.23 54.3047C223.955 53.7114 223.817 53.0104 223.817 52.2017C223.817 51.3996 223.955 50.7036 224.23 50.1136C224.505 49.5237 224.888 49.0679 225.379 48.7464C225.869 48.425 226.436 48.2642 227.079 48.2642C227.576 48.2642 227.969 48.3471 228.257 48.5128C228.549 48.6752 228.771 48.8608 228.923 49.0696C229.079 49.2751 229.2 49.4441 229.286 49.5767H229.386V45.8182H230.559V56H229.425V54.8267H229.286C229.2 54.9659 229.077 55.1416 228.918 55.3537C228.759 55.5625 228.532 55.7498 228.237 55.9155C227.942 56.0779 227.549 56.1591 227.059 56.1591ZM227.218 55.1051C227.689 55.1051 228.086 54.9825 228.411 54.7372C228.736 54.4886 228.983 54.1456 229.152 53.7081C229.321 53.2673 229.406 52.7585 229.406 52.1818C229.406 51.6117 229.323 51.1129 229.157 50.6854C228.991 50.2545 228.746 49.9197 228.421 49.6811C228.096 49.4392 227.695 49.3182 227.218 49.3182C226.721 49.3182 226.307 49.4458 225.975 49.701C225.647 49.9529 225.4 50.2959 225.234 50.7301C225.072 51.161 224.991 51.6449 224.991 52.1818C224.991 52.7254 225.074 53.2192 225.239 53.6634C225.408 54.1042 225.657 54.4555 225.985 54.7173C226.317 54.9759 226.728 55.1051 227.218 55.1051ZM240.129 48.3636V49.358H236.172V48.3636H240.129ZM237.325 46.5341H238.499V53.8125C238.499 54.1439 238.547 54.3925 238.643 54.5582C238.742 54.7206 238.868 54.83 239.021 54.8864C239.176 54.9394 239.34 54.9659 239.513 54.9659C239.642 54.9659 239.748 54.9593 239.831 54.946C239.914 54.9295 239.98 54.9162 240.03 54.9062L240.268 55.9602C240.189 55.9901 240.078 56.0199 239.935 56.0497C239.793 56.0829 239.612 56.0994 239.393 56.0994C239.062 56.0994 238.737 56.0282 238.419 55.8857C238.104 55.7431 237.842 55.526 237.634 55.2344C237.428 54.9427 237.325 54.5748 237.325 54.1307V46.5341ZM244.914 56.1591C244.225 56.1591 243.62 55.995 243.1 55.6669C242.583 55.3388 242.178 54.8797 241.887 54.2898C241.598 53.6998 241.454 53.0104 241.454 52.2216C241.454 51.4261 241.598 50.7318 241.887 50.1385C242.178 49.5452 242.583 49.0845 243.1 48.7564C243.62 48.4283 244.225 48.2642 244.914 48.2642C245.604 48.2642 246.207 48.4283 246.724 48.7564C247.244 49.0845 247.649 49.5452 247.937 50.1385C248.229 50.7318 248.375 51.4261 248.375 52.2216C248.375 53.0104 248.229 53.6998 247.937 54.2898C247.649 54.8797 247.244 55.3388 246.724 55.6669C246.207 55.995 245.604 56.1591 244.914 56.1591ZM244.914 55.1051C245.438 55.1051 245.869 54.9709 246.207 54.7024C246.545 54.4339 246.795 54.081 246.958 53.6435C247.12 53.206 247.201 52.732 247.201 52.2216C247.201 51.7112 247.12 51.2356 246.958 50.7947C246.795 50.3539 246.545 49.9976 246.207 49.7259C245.869 49.4541 245.438 49.3182 244.914 49.3182C244.391 49.3182 243.96 49.4541 243.622 49.7259C243.284 49.9976 243.033 50.3539 242.871 50.7947C242.709 51.2356 242.627 51.7112 242.627 52.2216C242.627 52.732 242.709 53.206 242.871 53.6435C243.033 54.081 243.284 54.4339 243.622 54.7024C243.96 54.9709 244.391 55.1051 244.914 55.1051ZM255.276 45.8182V56H254.103V45.8182H255.276ZM260.528 56.1591C259.838 56.1591 259.233 55.995 258.713 55.6669C258.196 55.3388 257.792 54.8797 257.5 54.2898C257.212 53.6998 257.067 53.0104 257.067 52.2216C257.067 51.4261 257.212 50.7318 257.5 50.1385C257.792 49.5452 258.196 49.0845 258.713 48.7564C259.233 48.4283 259.838 48.2642 260.528 48.2642C261.217 48.2642 261.82 48.4283 262.337 48.7564C262.858 49.0845 263.262 49.5452 263.55 50.1385C263.842 50.7318 263.988 51.4261 263.988 52.2216C263.988 53.0104 263.842 53.6998 263.55 54.2898C263.262 54.8797 262.858 55.3388 262.337 55.6669C261.82 55.995 261.217 56.1591 260.528 56.1591ZM260.528 55.1051C261.051 55.1051 261.482 54.9709 261.82 54.7024C262.158 54.4339 262.409 54.081 262.571 53.6435C262.733 53.206 262.815 52.732 262.815 52.2216C262.815 51.7112 262.733 51.2356 262.571 50.7947C262.409 50.3539 262.158 49.9976 261.82 49.7259C261.482 49.4541 261.051 49.3182 260.528 49.3182C260.004 49.3182 259.573 49.4541 259.235 49.7259C258.897 49.9976 258.647 50.3539 258.484 50.7947C258.322 51.2356 258.241 51.7112 258.241 52.2216C258.241 52.732 258.322 53.206 258.484 53.6435C258.647 54.081 258.897 54.4339 259.235 54.7024C259.573 54.9709 260.004 55.1051 260.528 55.1051ZM268.026 56.179C267.542 56.179 267.103 56.0878 266.709 55.9055C266.314 55.7199 266.001 55.4531 265.769 55.1051C265.537 54.7538 265.421 54.3295 265.421 53.8324C265.421 53.3949 265.507 53.0402 265.68 52.7685C265.852 52.4934 266.082 52.2779 266.371 52.1222C266.659 51.9664 266.977 51.8504 267.325 51.7741C267.676 51.6946 268.029 51.6316 268.384 51.5852C268.848 51.5256 269.224 51.4808 269.513 51.451C269.804 51.4179 270.016 51.3632 270.149 51.2869C270.285 51.2107 270.353 51.0781 270.353 50.8892V50.8494C270.353 50.3589 270.219 49.9777 269.95 49.706C269.685 49.4342 269.282 49.2983 268.742 49.2983C268.182 49.2983 267.743 49.4209 267.425 49.6662C267.106 49.9115 266.883 50.1733 266.753 50.4517L265.64 50.054C265.839 49.59 266.104 49.2287 266.435 48.9702C266.77 48.7083 267.135 48.526 267.529 48.4233C267.927 48.3172 268.318 48.2642 268.702 48.2642C268.948 48.2642 269.229 48.294 269.547 48.3537C269.869 48.41 270.179 48.5277 270.477 48.7067C270.779 48.8857 271.029 49.1558 271.228 49.517C271.427 49.8783 271.526 50.3622 271.526 50.9688V56H270.353V54.9659H270.293C270.214 55.1316 270.081 55.3089 269.895 55.4979C269.71 55.6868 269.463 55.8475 269.155 55.9801C268.846 56.1127 268.47 56.179 268.026 56.179ZM268.205 55.125C268.669 55.125 269.06 55.0339 269.378 54.8516C269.7 54.6693 269.942 54.4339 270.104 54.1456C270.27 53.8572 270.353 53.554 270.353 53.2358V52.1619C270.303 52.2216 270.194 52.2763 270.025 52.326C269.859 52.3724 269.667 52.4138 269.448 52.4503C269.233 52.4834 269.022 52.5133 268.817 52.5398C268.614 52.563 268.45 52.5829 268.324 52.5994C268.019 52.6392 267.734 52.7038 267.469 52.7933C267.207 52.8795 266.995 53.0104 266.833 53.1861C266.674 53.3584 266.594 53.5937 266.594 53.892C266.594 54.2997 266.745 54.608 267.047 54.8168C267.352 55.0223 267.738 55.125 268.205 55.125ZM276.551 56.1591C275.915 56.1591 275.353 55.9983 274.866 55.6768C274.379 55.352 273.997 54.8946 273.722 54.3047C273.447 53.7114 273.31 53.0104 273.31 52.2017C273.31 51.3996 273.447 50.7036 273.722 50.1136C273.997 49.5237 274.38 49.0679 274.871 48.7464C275.361 48.425 275.928 48.2642 276.571 48.2642C277.068 48.2642 277.461 48.3471 277.749 48.5128C278.041 48.6752 278.263 48.8608 278.415 49.0696C278.571 49.2751 278.692 49.4441 278.778 49.5767H278.878V45.8182H280.051V56H278.918V54.8267H278.778C278.692 54.9659 278.57 55.1416 278.411 55.3537C278.251 55.5625 278.024 55.7498 277.729 55.9155C277.434 56.0779 277.042 56.1591 276.551 56.1591ZM276.71 55.1051C277.181 55.1051 277.579 54.9825 277.903 54.7372C278.228 54.4886 278.475 54.1456 278.644 53.7081C278.813 53.2673 278.898 52.7585 278.898 52.1818C278.898 51.6117 278.815 51.1129 278.649 50.6854C278.483 50.2545 278.238 49.9197 277.913 49.6811C277.589 49.4392 277.188 49.3182 276.71 49.3182C276.213 49.3182 275.799 49.4458 275.467 49.701C275.139 49.9529 274.892 50.2959 274.727 50.7301C274.564 51.161 274.483 51.6449 274.483 52.1818C274.483 52.7254 274.566 53.2192 274.732 53.6634C274.901 54.1042 275.149 54.4555 275.477 54.7173C275.809 54.9759 276.22 55.1051 276.71 55.1051ZM283.218 56.0795C282.973 56.0795 282.762 55.9917 282.587 55.8161C282.411 55.6404 282.323 55.4299 282.323 55.1847C282.323 54.9394 282.411 54.7289 282.587 54.5533C282.762 54.3776 282.973 54.2898 283.218 54.2898C283.463 54.2898 283.674 54.3776 283.849 54.5533C284.025 54.7289 284.113 54.9394 284.113 55.1847C284.113 55.3471 284.071 55.4962 283.989 55.6321C283.909 55.768 283.801 55.8774 283.665 55.9602C283.533 56.0398 283.384 56.0795 283.218 56.0795ZM290.315 56V45.8182H293.755C294.554 45.8182 295.207 45.9624 295.714 46.2507C296.225 46.5357 296.602 46.9219 296.848 47.4091C297.093 47.8963 297.216 48.4399 297.216 49.0398C297.216 49.6397 297.093 50.1849 296.848 50.6754C296.606 51.166 296.231 51.5571 295.724 51.8487C295.217 52.1371 294.567 52.2812 293.775 52.2812H291.309V51.1875H293.735C294.282 51.1875 294.721 51.093 295.053 50.9041C295.384 50.7152 295.625 50.46 295.774 50.1385C295.926 49.8137 296.002 49.4474 296.002 49.0398C296.002 48.6321 295.926 48.2675 295.774 47.946C295.625 47.6245 295.383 47.3726 295.048 47.1903C294.713 47.0047 294.269 46.9119 293.716 46.9119H291.548V56H290.315ZM300.216 45.8182V56H299.043V45.8182H300.216ZM305.567 56.1591C304.831 56.1591 304.196 55.9967 303.662 55.6719C303.132 55.3438 302.723 54.8864 302.434 54.2997C302.149 53.7098 302.007 53.0237 302.007 52.2415C302.007 51.4593 302.149 50.7699 302.434 50.1733C302.723 49.5734 303.124 49.1061 303.638 48.7713C304.155 48.4332 304.758 48.2642 305.447 48.2642C305.845 48.2642 306.238 48.3305 306.626 48.4631C307.013 48.5956 307.366 48.8111 307.684 49.1094C308.003 49.4044 308.256 49.7955 308.445 50.2827C308.634 50.7699 308.729 51.3698 308.729 52.0824V52.5795H302.842V51.5653H307.535C307.535 51.1345 307.449 50.75 307.277 50.4119C307.108 50.0739 306.866 49.8071 306.551 49.6115C306.239 49.416 305.872 49.3182 305.447 49.3182C304.98 49.3182 304.576 49.4342 304.234 49.6662C303.896 49.8949 303.636 50.1932 303.454 50.5611C303.271 50.929 303.18 51.3234 303.18 51.7443V52.4205C303.18 52.9972 303.28 53.486 303.479 53.8871C303.681 54.2848 303.961 54.5881 304.319 54.7969C304.677 55.0024 305.093 55.1051 305.567 55.1051C305.875 55.1051 306.153 55.062 306.402 54.9759C306.654 54.8864 306.871 54.7538 307.053 54.5781C307.235 54.3991 307.376 54.1771 307.476 53.9119L308.609 54.2301C308.49 54.6146 308.289 54.9527 308.008 55.2443C307.726 55.5327 307.378 55.758 306.964 55.9205C306.549 56.0795 306.084 56.1591 305.567 56.1591ZM312.76 56.179C312.277 56.179 311.837 56.0878 311.443 55.9055C311.049 55.7199 310.735 55.4531 310.503 55.1051C310.271 54.7538 310.155 54.3295 310.155 53.8324C310.155 53.3949 310.242 53.0402 310.414 52.7685C310.586 52.4934 310.817 52.2779 311.105 52.1222C311.393 51.9664 311.711 51.8504 312.059 51.7741C312.411 51.6946 312.764 51.6316 313.118 51.5852C313.582 51.5256 313.959 51.4808 314.247 51.451C314.539 51.4179 314.751 51.3632 314.883 51.2869C315.019 51.2107 315.087 51.0781 315.087 50.8892V50.8494C315.087 50.3589 314.953 49.9777 314.684 49.706C314.419 49.4342 314.017 49.2983 313.476 49.2983C312.916 49.2983 312.477 49.4209 312.159 49.6662C311.841 49.9115 311.617 50.1733 311.488 50.4517L310.374 50.054C310.573 49.59 310.838 49.2287 311.17 48.9702C311.504 48.7083 311.869 48.526 312.263 48.4233C312.661 48.3172 313.052 48.2642 313.437 48.2642C313.682 48.2642 313.964 48.294 314.282 48.3537C314.603 48.41 314.913 48.5277 315.211 48.7067C315.513 48.8857 315.763 49.1558 315.962 49.517C316.161 49.8783 316.26 50.3622 316.26 50.9688V56H315.087V54.9659H315.028C314.948 55.1316 314.815 55.3089 314.63 55.4979C314.444 55.6868 314.197 55.8475 313.889 55.9801C313.581 56.1127 313.205 56.179 312.76 56.179ZM312.939 55.125C313.403 55.125 313.795 55.0339 314.113 54.8516C314.434 54.6693 314.676 54.4339 314.839 54.1456C315.004 53.8572 315.087 53.554 315.087 53.2358V52.1619C315.037 52.2216 314.928 52.2763 314.759 52.326C314.593 52.3724 314.401 52.4138 314.182 52.4503C313.967 52.4834 313.756 52.5133 313.551 52.5398C313.349 52.563 313.185 52.5829 313.059 52.5994C312.754 52.6392 312.469 52.7038 312.204 52.7933C311.942 52.8795 311.73 53.0104 311.567 53.1861C311.408 53.3584 311.329 53.5937 311.329 53.892C311.329 54.2997 311.479 54.608 311.781 54.8168C312.086 55.0223 312.472 55.125 312.939 55.125ZM323.811 50.0739L322.757 50.3722C322.691 50.1965 322.593 50.0258 322.464 49.8601C322.338 49.6911 322.165 49.5518 321.947 49.4425C321.728 49.3331 321.448 49.2784 321.107 49.2784C320.639 49.2784 320.25 49.3861 319.938 49.6016C319.63 49.8137 319.476 50.0838 319.476 50.4119C319.476 50.7036 319.582 50.9339 319.794 51.103C320.006 51.272 320.338 51.4129 320.788 51.5256L321.922 51.804C322.605 51.9697 323.113 52.2232 323.448 52.5646C323.783 52.9027 323.95 53.3385 323.95 53.8722C323.95 54.3097 323.824 54.7008 323.572 55.0455C323.324 55.3902 322.976 55.6619 322.528 55.8608C322.081 56.0597 321.561 56.1591 320.967 56.1591C320.188 56.1591 319.544 55.9901 319.033 55.652C318.523 55.3139 318.2 54.8201 318.064 54.1705L319.178 53.892C319.284 54.303 319.484 54.6113 319.779 54.8168C320.077 55.0223 320.467 55.125 320.947 55.125C321.494 55.125 321.929 55.009 322.25 54.777C322.575 54.5417 322.737 54.2599 322.737 53.9318C322.737 53.6667 322.644 53.4446 322.459 53.2656C322.273 53.0833 321.988 52.9474 321.604 52.858L320.331 52.5597C319.632 52.3939 319.118 52.1371 318.79 51.7891C318.465 51.4377 318.303 50.9986 318.303 50.4716C318.303 50.0407 318.424 49.6596 318.665 49.3281C318.911 48.9967 319.244 48.7365 319.665 48.5476C320.089 48.3587 320.57 48.2642 321.107 48.2642C321.862 48.2642 322.455 48.4299 322.886 48.7614C323.321 49.0928 323.629 49.5303 323.811 50.0739ZM328.918 56.1591C328.182 56.1591 327.548 55.9967 327.014 55.6719C326.484 55.3438 326.074 54.8864 325.786 54.2997C325.501 53.7098 325.358 53.0237 325.358 52.2415C325.358 51.4593 325.501 50.7699 325.786 50.1733C326.074 49.5734 326.475 49.1061 326.989 48.7713C327.506 48.4332 328.109 48.2642 328.799 48.2642C329.197 48.2642 329.589 48.3305 329.977 48.4631C330.365 48.5956 330.718 48.8111 331.036 49.1094C331.354 49.4044 331.608 49.7955 331.797 50.2827C331.986 50.7699 332.08 51.3698 332.08 52.0824V52.5795H326.194V51.5653H330.887C330.887 51.1345 330.801 50.75 330.628 50.4119C330.459 50.0739 330.217 49.8071 329.903 49.6115C329.591 49.416 329.223 49.3182 328.799 49.3182C328.331 49.3182 327.927 49.4342 327.586 49.6662C327.248 49.8949 326.988 50.1932 326.805 50.5611C326.623 50.929 326.532 51.3234 326.532 51.7443V52.4205C326.532 52.9972 326.631 53.486 326.83 53.8871C327.032 54.2848 327.312 54.5881 327.67 54.7969C328.028 55.0024 328.444 55.1051 328.918 55.1051C329.226 55.1051 329.505 55.062 329.753 54.9759C330.005 54.8864 330.222 54.7538 330.405 54.5781C330.587 54.3991 330.728 54.1771 330.827 53.9119L331.961 54.2301C331.841 54.6146 331.641 54.9527 331.359 55.2443C331.077 55.5327 330.729 55.758 330.315 55.9205C329.901 56.0795 329.435 56.1591 328.918 56.1591ZM337.802 56V48.3636H338.936V49.517H339.015C339.155 49.1392 339.407 48.8326 339.771 48.5973C340.136 48.362 340.547 48.2443 341.004 48.2443C341.09 48.2443 341.198 48.246 341.327 48.2493C341.456 48.2526 341.554 48.2576 341.621 48.2642V49.4574C341.581 49.4474 341.49 49.4325 341.347 49.4126C341.208 49.3894 341.06 49.3778 340.905 49.3778C340.533 49.3778 340.202 49.4557 339.91 49.6115C339.622 49.764 339.393 49.9761 339.224 50.2479C339.059 50.5163 338.976 50.8229 338.976 51.1676V56H337.802ZM345.981 56.1591C345.245 56.1591 344.61 55.9967 344.077 55.6719C343.546 55.3438 343.137 54.8864 342.849 54.2997C342.564 53.7098 342.421 53.0237 342.421 52.2415C342.421 51.4593 342.564 50.7699 342.849 50.1733C343.137 49.5734 343.538 49.1061 344.052 48.7713C344.569 48.4332 345.172 48.2642 345.861 48.2642C346.259 48.2642 346.652 48.3305 347.04 48.4631C347.427 48.5956 347.78 48.8111 348.099 49.1094C348.417 49.4044 348.67 49.7955 348.859 50.2827C349.048 50.7699 349.143 51.3698 349.143 52.0824V52.5795H343.256V51.5653H347.949C347.949 51.1345 347.863 50.75 347.691 50.4119C347.522 50.0739 347.28 49.8071 346.965 49.6115C346.653 49.416 346.286 49.3182 345.861 49.3182C345.394 49.3182 344.99 49.4342 344.648 49.6662C344.31 49.8949 344.05 50.1932 343.868 50.5611C343.685 50.929 343.594 51.3234 343.594 51.7443V52.4205C343.594 52.9972 343.694 53.486 343.893 53.8871C344.095 54.2848 344.375 54.5881 344.733 54.7969C345.091 55.0024 345.507 55.1051 345.981 55.1051C346.289 55.1051 346.567 55.062 346.816 54.9759C347.068 54.8864 347.285 54.7538 347.467 54.5781C347.649 54.3991 347.79 54.1771 347.89 53.9119L349.023 54.2301C348.904 54.6146 348.703 54.9527 348.422 55.2443C348.14 55.5327 347.792 55.758 347.378 55.9205C346.963 56.0795 346.498 56.1591 345.981 56.1591ZM354.328 48.3636V49.358H350.211V48.3636H354.328ZM351.444 56V47.3097C351.444 46.8722 351.547 46.5076 351.753 46.2159C351.958 45.9242 352.225 45.7055 352.553 45.5597C352.881 45.4138 353.228 45.3409 353.592 45.3409C353.881 45.3409 354.116 45.3641 354.298 45.4105C354.48 45.4569 354.616 45.5 354.706 45.5398L354.368 46.554C354.308 46.5341 354.225 46.5092 354.119 46.4794C354.016 46.4496 353.881 46.4347 353.711 46.4347C353.324 46.4347 353.044 46.5324 352.871 46.728C352.702 46.9235 352.618 47.2102 352.618 47.5881V56H351.444ZM355.972 56V48.3636H357.106V49.517H357.185C357.325 49.1392 357.576 48.8326 357.941 48.5973C358.306 48.362 358.717 48.2443 359.174 48.2443C359.26 48.2443 359.368 48.246 359.497 48.2493C359.626 48.2526 359.724 48.2576 359.79 48.2642V49.4574C359.751 49.4474 359.66 49.4325 359.517 49.4126C359.378 49.3894 359.23 49.3778 359.075 49.3778C358.703 49.3778 358.372 49.4557 358.08 49.6115C357.792 49.764 357.563 49.9761 357.394 50.2479C357.228 50.5163 357.146 50.8229 357.146 51.1676V56H355.972ZM364.151 56.1591C363.415 56.1591 362.78 55.9967 362.246 55.6719C361.716 55.3438 361.307 54.8864 361.018 54.2997C360.733 53.7098 360.591 53.0237 360.591 52.2415C360.591 51.4593 360.733 50.7699 361.018 50.1733C361.307 49.5734 361.708 49.1061 362.222 48.7713C362.739 48.4332 363.342 48.2642 364.031 48.2642C364.429 48.2642 364.822 48.3305 365.21 48.4631C365.597 48.5956 365.95 48.8111 366.268 49.1094C366.587 49.4044 366.84 49.7955 367.029 50.2827C367.218 50.7699 367.312 51.3698 367.312 52.0824V52.5795H361.426V51.5653H366.119C366.119 51.1345 366.033 50.75 365.861 50.4119C365.692 50.0739 365.45 49.8071 365.135 49.6115C364.823 49.416 364.455 49.3182 364.031 49.3182C363.564 49.3182 363.16 49.4342 362.818 49.6662C362.48 49.8949 362.22 50.1932 362.038 50.5611C361.855 50.929 361.764 51.3234 361.764 51.7443V52.4205C361.764 52.9972 361.864 53.486 362.062 53.8871C362.265 54.2848 362.545 54.5881 362.903 54.7969C363.261 55.0024 363.677 55.1051 364.151 55.1051C364.459 55.1051 364.737 55.062 364.986 54.9759C365.238 54.8864 365.455 54.7538 365.637 54.5781C365.819 54.3991 365.96 54.1771 366.06 53.9119L367.193 54.2301C367.074 54.6146 366.873 54.9527 366.592 55.2443C366.31 55.5327 365.962 55.758 365.548 55.9205C365.133 56.0795 364.668 56.1591 364.151 56.1591ZM374.506 50.0739L373.452 50.3722C373.386 50.1965 373.288 50.0258 373.159 49.8601C373.033 49.6911 372.861 49.5518 372.642 49.4425C372.423 49.3331 372.143 49.2784 371.802 49.2784C371.335 49.2784 370.945 49.3861 370.634 49.6016C370.325 49.8137 370.171 50.0838 370.171 50.4119C370.171 50.7036 370.277 50.9339 370.489 51.103C370.701 51.272 371.033 51.4129 371.484 51.5256L372.617 51.804C373.3 51.9697 373.809 52.2232 374.143 52.5646C374.478 52.9027 374.646 53.3385 374.646 53.8722C374.646 54.3097 374.52 54.7008 374.268 55.0455C374.019 55.3902 373.671 55.6619 373.224 55.8608C372.776 56.0597 372.256 56.1591 371.663 56.1591C370.884 56.1591 370.239 55.9901 369.729 55.652C369.218 55.3139 368.895 54.8201 368.759 54.1705L369.873 53.892C369.979 54.303 370.179 54.6113 370.474 54.8168C370.773 55.0223 371.162 55.125 371.643 55.125C372.19 55.125 372.624 55.009 372.945 54.777C373.27 54.5417 373.433 54.2599 373.433 53.9318C373.433 53.6667 373.34 53.4446 373.154 53.2656C372.969 53.0833 372.683 52.9474 372.299 52.858L371.026 52.5597C370.327 52.3939 369.813 52.1371 369.485 51.7891C369.16 51.4377 368.998 50.9986 368.998 50.4716C368.998 50.0407 369.119 49.6596 369.361 49.3281C369.606 48.9967 369.939 48.7365 370.36 48.5476C370.784 48.3587 371.265 48.2642 371.802 48.2642C372.558 48.2642 373.151 48.4299 373.582 48.7614C374.016 49.0928 374.324 49.5303 374.506 50.0739ZM377.585 51.4062V56H376.412V45.8182H377.585V49.5568H377.684C377.863 49.1624 378.132 48.8492 378.49 48.6172C378.851 48.3819 379.332 48.2642 379.932 48.2642C380.452 48.2642 380.908 48.3686 381.299 48.5774C381.69 48.7829 381.993 49.0994 382.209 49.527C382.427 49.9512 382.537 50.4915 382.537 51.1477V56H381.363V51.2273C381.363 50.6207 381.206 50.1518 380.891 49.8203C380.58 49.4856 380.147 49.3182 379.594 49.3182C379.209 49.3182 378.864 49.3994 378.559 49.5618C378.258 49.7242 378.019 49.9612 377.844 50.2727C377.671 50.5843 377.585 50.9621 377.585 51.4062ZM389.376 58.8636C389.178 58.8636 389 58.8471 388.844 58.8139C388.689 58.7841 388.581 58.7543 388.521 58.7244L388.82 57.6903C389.105 57.7633 389.357 57.7898 389.575 57.7699C389.794 57.75 389.988 57.6522 390.157 57.4766C390.329 57.3042 390.487 57.0241 390.629 56.6364L390.848 56.0398L388.024 48.3636H389.297L391.405 54.4489H391.484L393.592 48.3636H394.865L391.624 57.1136C391.478 57.508 391.297 57.8345 391.082 58.093C390.866 58.3549 390.616 58.5488 390.331 58.6747C390.049 58.8007 389.731 58.8636 389.376 58.8636ZM399.243 56.1591C398.553 56.1591 397.948 55.995 397.428 55.6669C396.911 55.3388 396.507 54.8797 396.215 54.2898C395.926 53.6998 395.782 53.0104 395.782 52.2216C395.782 51.4261 395.926 50.7318 396.215 50.1385C396.507 49.5452 396.911 49.0845 397.428 48.7564C397.948 48.4283 398.553 48.2642 399.243 48.2642C399.932 48.2642 400.535 48.4283 401.052 48.7564C401.573 49.0845 401.977 49.5452 402.265 50.1385C402.557 50.7318 402.703 51.4261 402.703 52.2216C402.703 53.0104 402.557 53.6998 402.265 54.2898C401.977 54.8797 401.573 55.3388 401.052 55.6669C400.535 55.995 399.932 56.1591 399.243 56.1591ZM399.243 55.1051C399.766 55.1051 400.197 54.9709 400.535 54.7024C400.873 54.4339 401.123 54.081 401.286 53.6435C401.448 53.206 401.529 52.732 401.529 52.2216C401.529 51.7112 401.448 51.2356 401.286 50.7947C401.123 50.3539 400.873 49.9976 400.535 49.7259C400.197 49.4541 399.766 49.3182 399.243 49.3182C398.719 49.3182 398.288 49.4541 397.95 49.7259C397.612 49.9976 397.362 50.3539 397.199 50.7947C397.037 51.2356 396.956 51.7112 396.956 52.2216C396.956 52.732 397.037 53.206 397.199 53.6435C397.362 54.081 397.612 54.4339 397.95 54.7024C398.288 54.9709 398.719 55.1051 399.243 55.1051ZM409.306 52.8778V48.3636H410.48V56H409.306V54.7074H409.227C409.048 55.0952 408.769 55.425 408.392 55.6967C408.014 55.9652 407.536 56.0994 406.96 56.0994C406.482 56.0994 406.058 55.995 405.687 55.7862C405.316 55.5741 405.024 55.2559 404.812 54.8317C404.6 54.4041 404.494 53.8655 404.494 53.2159V48.3636H405.667V53.1364C405.667 53.6932 405.823 54.1373 406.134 54.4688C406.449 54.8002 406.85 54.9659 407.338 54.9659C407.629 54.9659 407.926 54.8913 408.227 54.7422C408.532 54.593 408.788 54.3643 408.993 54.0561C409.202 53.7479 409.306 53.3551 409.306 52.8778ZM412.629 56V48.3636H413.762V49.517H413.842C413.981 49.1392 414.233 48.8326 414.597 48.5973C414.962 48.362 415.373 48.2443 415.83 48.2443C415.916 48.2443 416.024 48.246 416.153 48.2493C416.283 48.2526 416.38 48.2576 416.447 48.2642V49.4574C416.407 49.4474 416.316 49.4325 416.173 49.4126C416.034 49.3894 415.887 49.3778 415.731 49.3778C415.36 49.3778 415.028 49.4557 414.737 49.6115C414.448 49.764 414.219 49.9761 414.05 50.2479C413.885 50.5163 413.802 50.8229 413.802 51.1676V56H412.629ZM421.934 56V45.8182H423.107V49.5767H423.207C423.293 49.4441 423.412 49.2751 423.565 49.0696C423.721 48.8608 423.943 48.6752 424.231 48.5128C424.523 48.3471 424.917 48.2642 425.414 48.2642C426.057 48.2642 426.624 48.425 427.115 48.7464C427.605 49.0679 427.988 49.5237 428.263 50.1136C428.538 50.7036 428.676 51.3996 428.676 52.2017C428.676 53.0104 428.538 53.7114 428.263 54.3047C427.988 54.8946 427.607 55.352 427.119 55.6768C426.632 55.9983 426.07 56.1591 425.434 56.1591C424.944 56.1591 424.551 56.0779 424.256 55.9155C423.961 55.7498 423.734 55.5625 423.575 55.3537C423.416 55.1416 423.293 54.9659 423.207 54.8267H423.068V56H421.934ZM423.088 52.1818C423.088 52.7585 423.172 53.2673 423.341 53.7081C423.51 54.1456 423.757 54.4886 424.082 54.7372C424.407 54.9825 424.804 55.1051 425.275 55.1051C425.766 55.1051 426.175 54.9759 426.503 54.7173C426.834 54.4555 427.083 54.1042 427.249 53.6634C427.418 53.2192 427.502 52.7254 427.502 52.1818C427.502 51.6449 427.419 51.161 427.254 50.7301C427.091 50.2959 426.844 49.9529 426.513 49.701C426.185 49.4458 425.772 49.3182 425.275 49.3182C424.798 49.3182 424.397 49.4392 424.072 49.6811C423.747 49.9197 423.502 50.2545 423.336 50.6854C423.17 51.1129 423.088 51.6117 423.088 52.1818ZM430.47 56V48.3636H431.604V49.517H431.683C431.823 49.1392 432.075 48.8326 432.439 48.5973C432.804 48.362 433.215 48.2443 433.672 48.2443C433.758 48.2443 433.866 48.246 433.995 48.2493C434.124 48.2526 434.222 48.2576 434.289 48.2642V49.4574C434.249 49.4474 434.158 49.4325 434.015 49.4126C433.876 49.3894 433.728 49.3778 433.573 49.3778C433.201 49.3778 432.87 49.4557 432.578 49.6115C432.29 49.764 432.061 49.9761 431.892 50.2479C431.727 50.5163 431.644 50.8229 431.644 51.1676V56H430.47ZM438.549 56.1591C437.86 56.1591 437.255 55.995 436.735 55.6669C436.218 55.3388 435.813 54.8797 435.521 54.2898C435.233 53.6998 435.089 53.0104 435.089 52.2216C435.089 51.4261 435.233 50.7318 435.521 50.1385C435.813 49.5452 436.218 49.0845 436.735 48.7564C437.255 48.4283 437.86 48.2642 438.549 48.2642C439.239 48.2642 439.842 48.4283 440.359 48.7564C440.879 49.0845 441.284 49.5452 441.572 50.1385C441.864 50.7318 442.009 51.4261 442.009 52.2216C442.009 53.0104 441.864 53.6998 441.572 54.2898C441.284 54.8797 440.879 55.3388 440.359 55.6669C439.842 55.995 439.239 56.1591 438.549 56.1591ZM438.549 55.1051C439.073 55.1051 439.504 54.9709 439.842 54.7024C440.18 54.4339 440.43 54.081 440.593 53.6435C440.755 53.206 440.836 52.732 440.836 52.2216C440.836 51.7112 440.755 51.2356 440.593 50.7947C440.43 50.3539 440.18 49.9976 439.842 49.7259C439.504 49.4541 439.073 49.3182 438.549 49.3182C438.026 49.3182 437.595 49.4541 437.257 49.7259C436.919 49.9976 436.668 50.3539 436.506 50.7947C436.343 51.2356 436.262 51.7112 436.262 52.2216C436.262 52.732 436.343 53.206 436.506 53.6435C436.668 54.081 436.919 54.4339 437.257 54.7024C437.595 54.9709 438.026 55.1051 438.549 55.1051ZM445.271 56L442.944 48.3636H444.177L445.828 54.2102H445.907L447.538 48.3636H448.791L450.401 54.1903H450.481L452.132 48.3636H453.365L451.038 56H449.884L448.214 50.1335H448.095L446.424 56H445.271ZM460.325 50.0739L459.271 50.3722C459.204 50.1965 459.107 50.0258 458.977 49.8601C458.852 49.6911 458.679 49.5518 458.46 49.4425C458.242 49.3331 457.962 49.2784 457.62 49.2784C457.153 49.2784 456.763 49.3861 456.452 49.6016C456.144 49.8137 455.99 50.0838 455.99 50.4119C455.99 50.7036 456.096 50.9339 456.308 51.103C456.52 51.272 456.851 51.4129 457.302 51.5256L458.436 51.804C459.118 51.9697 459.627 52.2232 459.962 52.5646C460.297 52.9027 460.464 53.3385 460.464 53.8722C460.464 54.3097 460.338 54.7008 460.086 55.0455C459.838 55.3902 459.49 55.6619 459.042 55.8608C458.595 56.0597 458.074 56.1591 457.481 56.1591C456.702 56.1591 456.057 55.9901 455.547 55.652C455.037 55.3139 454.713 54.8201 454.578 54.1705L455.691 53.892C455.797 54.303 455.998 54.6113 456.293 54.8168C456.591 55.0223 456.981 55.125 457.461 55.125C458.008 55.125 458.442 55.009 458.764 54.777C459.088 54.5417 459.251 54.2599 459.251 53.9318C459.251 53.6667 459.158 53.4446 458.972 53.2656C458.787 53.0833 458.502 52.9474 458.117 52.858L456.845 52.5597C456.145 52.3939 455.632 52.1371 455.303 51.7891C454.979 51.4377 454.816 50.9986 454.816 50.4716C454.816 50.0407 454.937 49.6596 455.179 49.3281C455.424 48.9967 455.758 48.7365 456.178 48.5476C456.603 48.3587 457.083 48.2642 457.62 48.2642C458.376 48.2642 458.969 48.4299 459.4 48.7614C459.834 49.0928 460.142 49.5303 460.325 50.0739ZM465.432 56.1591C464.696 56.1591 464.061 55.9967 463.528 55.6719C462.997 55.3438 462.588 54.8864 462.3 54.2997C462.015 53.7098 461.872 53.0237 461.872 52.2415C461.872 51.4593 462.015 50.7699 462.3 50.1733C462.588 49.5734 462.989 49.1061 463.503 48.7713C464.02 48.4332 464.623 48.2642 465.312 48.2642C465.71 48.2642 466.103 48.3305 466.491 48.4631C466.879 48.5956 467.232 48.8111 467.55 49.1094C467.868 49.4044 468.121 49.7955 468.31 50.2827C468.499 50.7699 468.594 51.3698 468.594 52.0824V52.5795H462.707V51.5653H467.401C467.401 51.1345 467.314 50.75 467.142 50.4119C466.973 50.0739 466.731 49.8071 466.416 49.6115C466.105 49.416 465.737 49.3182 465.312 49.3182C464.845 49.3182 464.441 49.4342 464.099 49.6662C463.761 49.8949 463.501 50.1932 463.319 50.5611C463.137 50.929 463.045 51.3234 463.045 51.7443V52.4205C463.045 52.9972 463.145 53.486 463.344 53.8871C463.546 54.2848 463.826 54.5881 464.184 54.7969C464.542 55.0024 464.958 55.1051 465.432 55.1051C465.74 55.1051 466.018 55.062 466.267 54.9759C466.519 54.8864 466.736 54.7538 466.918 54.5781C467.101 54.3991 467.241 54.1771 467.341 53.9119L468.474 54.2301C468.355 54.6146 468.155 54.9527 467.873 55.2443C467.591 55.5327 467.243 55.758 466.829 55.9205C466.415 56.0795 465.949 56.1591 465.432 56.1591ZM470.379 56V48.3636H471.512V49.517H471.592C471.731 49.1392 471.983 48.8326 472.347 48.5973C472.712 48.362 473.123 48.2443 473.58 48.2443C473.666 48.2443 473.774 48.246 473.903 48.2493C474.033 48.2526 474.13 48.2576 474.197 48.2642V49.4574C474.157 49.4474 474.066 49.4325 473.923 49.4126C473.784 49.3894 473.637 49.3778 473.481 49.3778C473.11 49.3778 472.778 49.4557 472.487 49.6115C472.198 49.764 471.969 49.9761 471.8 50.2479C471.635 50.5163 471.552 50.8229 471.552 51.1676V56H470.379ZM482.846 48.3636V49.358H478.889V48.3636H482.846ZM480.042 46.5341H481.215V53.8125C481.215 54.1439 481.263 54.3925 481.36 54.5582C481.459 54.7206 481.585 54.83 481.737 54.8864C481.893 54.9394 482.057 54.9659 482.23 54.9659C482.359 54.9659 482.465 54.9593 482.548 54.946C482.631 54.9295 482.697 54.9162 482.747 54.9062L482.985 55.9602C482.906 55.9901 482.795 56.0199 482.652 56.0497C482.51 56.0829 482.329 56.0994 482.11 56.0994C481.779 56.0994 481.454 56.0282 481.136 55.8857C480.821 55.7431 480.559 55.526 480.35 55.2344C480.145 54.9427 480.042 54.5748 480.042 54.1307V46.5341ZM487.631 56.1591C486.942 56.1591 486.337 55.995 485.817 55.6669C485.3 55.3388 484.895 54.8797 484.604 54.2898C484.315 53.6998 484.171 53.0104 484.171 52.2216C484.171 51.4261 484.315 50.7318 484.604 50.1385C484.895 49.5452 485.3 49.0845 485.817 48.7564C486.337 48.4283 486.942 48.2642 487.631 48.2642C488.321 48.2642 488.924 48.4283 489.441 48.7564C489.961 49.0845 490.366 49.5452 490.654 50.1385C490.946 50.7318 491.091 51.4261 491.091 52.2216C491.091 53.0104 490.946 53.6998 490.654 54.2898C490.366 54.8797 489.961 55.3388 489.441 55.6669C488.924 55.995 488.321 56.1591 487.631 56.1591ZM487.631 55.1051C488.155 55.1051 488.586 54.9709 488.924 54.7024C489.262 54.4339 489.512 54.081 489.675 53.6435C489.837 53.206 489.918 52.732 489.918 52.2216C489.918 51.7112 489.837 51.2356 489.675 50.7947C489.512 50.3539 489.262 49.9976 488.924 49.7259C488.586 49.4541 488.155 49.3182 487.631 49.3182C487.108 49.3182 486.677 49.4541 486.339 49.7259C486.001 49.9976 485.75 50.3539 485.588 50.7947C485.425 51.2356 485.344 51.7112 485.344 52.2216C485.344 52.732 485.425 53.206 485.588 53.6435C485.75 54.081 486.001 54.4339 486.339 54.7024C486.677 54.9709 487.108 55.1051 487.631 55.1051ZM497.993 45.8182V56H496.82V45.8182H497.993ZM503.244 56.1591C502.555 56.1591 501.95 55.995 501.43 55.6669C500.913 55.3388 500.508 54.8797 500.217 54.2898C499.928 53.6998 499.784 53.0104 499.784 52.2216C499.784 51.4261 499.928 50.7318 500.217 50.1385C500.508 49.5452 500.913 49.0845 501.43 48.7564C501.95 48.4283 502.555 48.2642 503.244 48.2642C503.934 48.2642 504.537 48.4283 505.054 48.7564C505.575 49.0845 505.979 49.5452 506.267 50.1385C506.559 50.7318 506.705 51.4261 506.705 52.2216C506.705 53.0104 506.559 53.6998 506.267 54.2898C505.979 54.8797 505.575 55.3388 505.054 55.6669C504.537 55.995 503.934 56.1591 503.244 56.1591ZM503.244 55.1051C503.768 55.1051 504.199 54.9709 504.537 54.7024C504.875 54.4339 505.125 54.081 505.288 53.6435C505.45 53.206 505.531 52.732 505.531 52.2216C505.531 51.7112 505.45 51.2356 505.288 50.7947C505.125 50.3539 504.875 49.9976 504.537 49.7259C504.199 49.4541 503.768 49.3182 503.244 49.3182C502.721 49.3182 502.29 49.4541 501.952 49.7259C501.614 49.9976 501.364 50.3539 501.201 50.7947C501.039 51.2356 500.958 51.7112 500.958 52.2216C500.958 52.732 501.039 53.206 501.201 53.6435C501.364 54.081 501.614 54.4339 501.952 54.7024C502.29 54.9709 502.721 55.1051 503.244 55.1051ZM510.743 56.179C510.259 56.179 509.82 56.0878 509.425 55.9055C509.031 55.7199 508.718 55.4531 508.486 55.1051C508.254 54.7538 508.138 54.3295 508.138 53.8324C508.138 53.3949 508.224 53.0402 508.396 52.7685C508.569 52.4934 508.799 52.2779 509.087 52.1222C509.376 51.9664 509.694 51.8504 510.042 51.7741C510.393 51.6946 510.746 51.6316 511.101 51.5852C511.565 51.5256 511.941 51.4808 512.229 51.451C512.521 51.4179 512.733 51.3632 512.866 51.2869C513.002 51.2107 513.07 51.0781 513.07 50.8892V50.8494C513.07 50.3589 512.935 49.9777 512.667 49.706C512.402 49.4342 511.999 49.2983 511.459 49.2983C510.899 49.2983 510.46 49.4209 510.141 49.6662C509.823 49.9115 509.599 50.1733 509.47 50.4517L508.357 50.054C508.555 49.59 508.821 49.2287 509.152 48.9702C509.487 48.7083 509.851 48.526 510.246 48.4233C510.643 48.3172 511.035 48.2642 511.419 48.2642C511.664 48.2642 511.946 48.294 512.264 48.3537C512.586 48.41 512.896 48.5277 513.194 48.7067C513.496 48.8857 513.746 49.1558 513.945 49.517C514.143 49.8783 514.243 50.3622 514.243 50.9688V56H513.07V54.9659H513.01C512.93 55.1316 512.798 55.3089 512.612 55.4979C512.427 55.6868 512.18 55.8475 511.871 55.9801C511.563 56.1127 511.187 56.179 510.743 56.179ZM510.922 55.125C511.386 55.125 511.777 55.0339 512.095 54.8516C512.417 54.6693 512.659 54.4339 512.821 54.1456C512.987 53.8572 513.07 53.554 513.07 53.2358V52.1619C513.02 52.2216 512.911 52.2763 512.741 52.326C512.576 52.3724 512.384 52.4138 512.165 52.4503C511.949 52.4834 511.739 52.5133 511.533 52.5398C511.331 52.563 511.167 52.5829 511.041 52.5994C510.736 52.6392 510.451 52.7038 510.186 52.7933C509.924 52.8795 509.712 53.0104 509.55 53.1861C509.391 53.3584 509.311 53.5937 509.311 53.892C509.311 54.2997 509.462 54.608 509.763 54.8168C510.068 55.0223 510.455 55.125 510.922 55.125ZM519.268 56.1591C518.632 56.1591 518.07 55.9983 517.583 55.6768C517.095 55.352 516.714 54.8946 516.439 54.3047C516.164 53.7114 516.026 53.0104 516.026 52.2017C516.026 51.3996 516.164 50.7036 516.439 50.1136C516.714 49.5237 517.097 49.0679 517.588 48.7464C518.078 48.425 518.645 48.2642 519.288 48.2642C519.785 48.2642 520.178 48.3471 520.466 48.5128C520.758 48.6752 520.98 48.8608 521.132 49.0696C521.288 49.2751 521.409 49.4441 521.495 49.5767H521.595V45.8182H522.768V56H521.634V54.8267H521.495C521.409 54.9659 521.286 55.1416 521.127 55.3537C520.968 55.5625 520.741 55.7498 520.446 55.9155C520.151 56.0779 519.758 56.1591 519.268 56.1591ZM519.427 55.1051C519.898 55.1051 520.295 54.9825 520.62 54.7372C520.945 54.4886 521.192 54.1456 521.361 53.7081C521.53 53.2673 521.615 52.7585 521.615 52.1818C521.615 51.6117 521.532 51.1129 521.366 50.6854C521.2 50.2545 520.955 49.9197 520.63 49.6811C520.305 49.4392 519.904 49.3182 519.427 49.3182C518.93 49.3182 518.516 49.4458 518.184 49.701C517.856 49.9529 517.609 50.2959 517.443 50.7301C517.281 51.161 517.2 51.6449 517.2 52.1818C517.2 52.7254 517.283 53.2192 517.448 53.6634C517.617 54.1042 517.866 54.4555 518.194 54.7173C518.526 54.9759 518.936 55.1051 519.427 55.1051ZM48.3949 69.3636V70.358H44.4375V69.3636H48.3949ZM45.5909 67.5341H46.7642V74.8125C46.7642 75.1439 46.8123 75.3925 46.9084 75.5582C47.0078 75.7206 47.1338 75.83 47.2862 75.8864C47.442 75.9394 47.6061 75.9659 47.7784 75.9659C47.9077 75.9659 48.0137 75.9593 48.0966 75.946C48.1795 75.9295 48.2457 75.9162 48.2955 75.9062L48.5341 76.9602C48.4545 76.9901 48.3435 77.0199 48.201 77.0497C48.0585 77.0829 47.8778 77.0994 47.6591 77.0994C47.3277 77.0994 47.0028 77.0282 46.6847 76.8857C46.3698 76.7431 46.108 76.526 45.8991 76.2344C45.6937 75.9427 45.5909 75.5748 45.5909 75.1307V67.5341ZM51.4972 72.4062V77H50.3239V66.8182H51.4972V70.5568H51.5966C51.7756 70.1624 52.044 69.8492 52.402 69.6172C52.7633 69.3819 53.2438 69.2642 53.8438 69.2642C54.3641 69.2642 54.8198 69.3686 55.2109 69.5774C55.602 69.7829 55.9053 70.0994 56.1207 70.527C56.3395 70.9512 56.4489 71.4915 56.4489 72.1477V77H55.2756V72.2273C55.2756 71.6207 55.1181 71.1518 54.8033 70.8203C54.4917 70.4856 54.0592 70.3182 53.5057 70.3182C53.1212 70.3182 52.7765 70.3994 52.4716 70.5618C52.17 70.7242 51.9313 70.9612 51.7557 71.2727C51.5833 71.5843 51.4972 71.9621 51.4972 72.4062ZM58.5953 77V69.3636H59.7686V77H58.5953ZM59.1919 68.0909C58.9632 68.0909 58.766 68.013 58.6003 67.8572C58.4379 67.7015 58.3567 67.5142 58.3567 67.2955C58.3567 67.0767 58.4379 66.8894 58.6003 66.7337C58.766 66.5779 58.9632 66.5 59.1919 66.5C59.4206 66.5 59.6162 66.5779 59.7786 66.7337C59.9443 66.8894 60.0272 67.0767 60.0272 67.2955C60.0272 67.5142 59.9443 67.7015 59.7786 67.8572C59.6162 68.013 59.4206 68.0909 59.1919 68.0909ZM67.3267 71.0739L66.2727 71.3722C66.2064 71.1965 66.1087 71.0258 65.9794 70.8601C65.8535 70.6911 65.6811 70.5518 65.4624 70.4425C65.2436 70.3331 64.9635 70.2784 64.6222 70.2784C64.1548 70.2784 63.7654 70.3861 63.4538 70.6016C63.1456 70.8137 62.9915 71.0838 62.9915 71.4119C62.9915 71.7036 63.0975 71.9339 63.3097 72.103C63.5218 72.272 63.8532 72.4129 64.304 72.5256L65.4375 72.804C66.1203 72.9697 66.629 73.2232 66.9638 73.5646C67.2985 73.9027 67.4659 74.3385 67.4659 74.8722C67.4659 75.3097 67.34 75.7008 67.0881 76.0455C66.8395 76.3902 66.4915 76.6619 66.044 76.8608C65.5966 77.0597 65.0762 77.1591 64.483 77.1591C63.7041 77.1591 63.0594 76.9901 62.549 76.652C62.0386 76.3139 61.7154 75.8201 61.5795 75.1705L62.6932 74.892C62.7992 75.303 62.9998 75.6113 63.2947 75.8168C63.593 76.0223 63.9825 76.125 64.4631 76.125C65.0099 76.125 65.4441 76.009 65.7656 75.777C66.0904 75.5417 66.2528 75.2599 66.2528 74.9318C66.2528 74.6667 66.16 74.4446 65.9744 74.2656C65.7888 74.0833 65.5038 73.9474 65.1193 73.858L63.8466 73.5597C63.1473 73.3939 62.6335 73.1371 62.3054 72.7891C61.9806 72.4377 61.8182 71.9986 61.8182 71.4716C61.8182 71.0407 61.9392 70.6596 62.1811 70.3281C62.4264 69.9967 62.7595 69.7365 63.1804 69.5476C63.6046 69.3587 64.0852 69.2642 64.6222 69.2642C65.3778 69.2642 65.9711 69.4299 66.402 69.7614C66.8362 70.0928 67.1444 70.5303 67.3267 71.0739ZM73.1696 79.8636V69.3636H74.3031V70.5767H74.4423C74.5285 70.4441 74.6478 70.2751 74.8002 70.0696C74.956 69.8608 75.1781 69.6752 75.4664 69.5128C75.7581 69.3471 76.1525 69.2642 76.6497 69.2642C77.2927 69.2642 77.8594 69.425 78.35 69.7464C78.8405 70.0679 79.2233 70.5237 79.4984 71.1136C79.7735 71.7036 79.911 72.3996 79.911 73.2017C79.911 74.0104 79.7735 74.7114 79.4984 75.3047C79.2233 75.8946 78.8422 76.352 78.3549 76.6768C77.8677 76.9983 77.3059 77.1591 76.6696 77.1591C76.179 77.1591 75.7863 77.0779 75.4913 76.9155C75.1963 76.7498 74.9693 76.5625 74.8102 76.3537C74.6511 76.1416 74.5285 75.9659 74.4423 75.8267H74.3429V79.8636H73.1696ZM74.323 73.1818C74.323 73.7585 74.4075 74.2673 74.5765 74.7081C74.7456 75.1456 74.9925 75.4886 75.3173 75.7372C75.6421 75.9825 76.0398 76.1051 76.5105 76.1051C77.001 76.1051 77.4103 75.9759 77.7385 75.7173C78.0699 75.4555 78.3185 75.1042 78.4842 74.6634C78.6532 74.2192 78.7377 73.7254 78.7377 73.1818C78.7377 72.6449 78.6549 72.161 78.4892 71.7301C78.3268 71.2959 78.0798 70.9529 77.7484 70.701C77.4203 70.4458 77.0076 70.3182 76.5105 70.3182C76.0332 70.3182 75.6322 70.4392 75.3074 70.6811C74.9825 70.9197 74.7373 71.2545 74.5716 71.6854C74.4058 72.1129 74.323 72.6117 74.323 73.1818ZM83.948 77.179C83.4641 77.179 83.0249 77.0878 82.6305 76.9055C82.2361 76.7199 81.9229 76.4531 81.6909 76.1051C81.4589 75.7538 81.3429 75.3295 81.3429 74.8324C81.3429 74.3949 81.429 74.0402 81.6014 73.7685C81.7737 73.4934 82.0041 73.2779 82.2924 73.1222C82.5808 72.9664 82.899 72.8504 83.247 72.7741C83.5983 72.6946 83.9513 72.6316 84.3059 72.5852C84.7699 72.5256 85.1461 72.4808 85.4345 72.451C85.7261 72.4179 85.9383 72.3632 86.0708 72.2869C86.2067 72.2107 86.2747 72.0781 86.2747 71.8892V71.8494C86.2747 71.3589 86.1404 70.9777 85.872 70.706C85.6068 70.4342 85.2041 70.2983 84.6639 70.2983C84.1038 70.2983 83.6646 70.4209 83.3464 70.6662C83.0282 70.9115 82.8045 71.1733 82.6752 71.4517L81.5616 71.054C81.7605 70.59 82.0256 70.2287 82.3571 69.9702C82.6918 69.7083 83.0564 69.526 83.4508 69.4233C83.8485 69.3172 84.2396 69.2642 84.6241 69.2642C84.8694 69.2642 85.1511 69.294 85.4693 69.3537C85.7908 69.41 86.1007 69.5277 86.399 69.7067C86.7006 69.8857 86.9508 70.1558 87.1497 70.517C87.3485 70.8783 87.448 71.3622 87.448 71.9688V77H86.2747V75.9659H86.215C86.1355 76.1316 86.0029 76.3089 85.8173 76.4979C85.6317 76.6868 85.3848 76.8475 85.0765 76.9801C84.7683 77.1127 84.3921 77.179 83.948 77.179ZM84.127 76.125C84.591 76.125 84.9821 76.0339 85.3002 75.8516C85.6217 75.6693 85.8637 75.4339 86.0261 75.1456C86.1918 74.8572 86.2747 74.554 86.2747 74.2358V73.1619C86.225 73.2216 86.1156 73.2763 85.9466 73.326C85.7808 73.3724 85.5886 73.4138 85.3699 73.4503C85.1544 73.4834 84.944 73.5133 84.7385 73.5398C84.5363 73.563 84.3722 73.5829 84.2463 73.5994C83.9413 73.6392 83.6563 73.7038 83.3912 73.7933C83.1293 73.8795 82.9172 74.0104 82.7548 74.1861C82.5957 74.3584 82.5162 74.5937 82.5162 74.892C82.5162 75.2997 82.667 75.608 82.9686 75.8168C83.2735 76.0223 83.6596 76.125 84.127 76.125ZM92.6719 80.0227C92.1051 80.0227 91.6179 79.9498 91.2102 79.804C90.8026 79.6615 90.4628 79.4725 90.1911 79.2372C89.9226 79.0052 89.7088 78.7566 89.5497 78.4915L90.4844 77.8352C90.5904 77.9744 90.7247 78.1335 90.8871 78.3125C91.0495 78.4948 91.2715 78.6522 91.5533 78.7848C91.8383 78.9207 92.2112 78.9886 92.6719 78.9886C93.2884 78.9886 93.7971 78.8395 94.1982 78.5412C94.5992 78.2429 94.7997 77.7756 94.7997 77.1392V75.5881H94.7003C94.6141 75.7273 94.4915 75.8996 94.3324 76.1051C94.1766 76.3073 93.9512 76.4879 93.6562 76.647C93.3646 76.8028 92.9702 76.8807 92.473 76.8807C91.8565 76.8807 91.303 76.7348 90.8125 76.4432C90.3253 76.1515 89.9392 75.7273 89.6541 75.1705C89.3724 74.6136 89.2315 73.9375 89.2315 73.142C89.2315 72.3598 89.3691 71.6787 89.6442 71.0987C89.9193 70.5154 90.3021 70.0646 90.7926 69.7464C91.2831 69.425 91.8499 69.2642 92.4929 69.2642C92.9901 69.2642 93.3845 69.3471 93.6761 69.5128C93.9711 69.6752 94.1965 69.8608 94.3523 70.0696C94.5114 70.2751 94.634 70.4441 94.7202 70.5767H94.8395V69.3636H95.973V77.2188C95.973 77.875 95.8239 78.4086 95.5256 78.8196C95.2306 79.2339 94.8329 79.5372 94.3324 79.7294C93.8352 79.925 93.2817 80.0227 92.6719 80.0227ZM92.6321 75.8267C93.1027 75.8267 93.5005 75.719 93.8253 75.5036C94.1501 75.2881 94.397 74.9782 94.5661 74.5739C94.7351 74.1695 94.8196 73.6856 94.8196 73.1222C94.8196 72.572 94.7367 72.0864 94.571 71.6655C94.4053 71.2446 94.16 70.9148 93.8352 70.6761C93.5104 70.4375 93.1094 70.3182 92.6321 70.3182C92.1349 70.3182 91.7206 70.4441 91.3892 70.696C91.0611 70.9479 90.8142 71.286 90.6484 71.7102C90.486 72.1345 90.4048 72.6051 90.4048 73.1222C90.4048 73.6525 90.4877 74.1214 90.6534 74.5291C90.8224 74.9335 91.071 75.2517 91.3991 75.4837C91.7306 75.7124 92.1416 75.8267 92.6321 75.8267ZM101.322 77.1591C100.587 77.1591 99.9519 76.9967 99.4183 76.6719C98.888 76.3438 98.4787 75.8864 98.1903 75.2997C97.9053 74.7098 97.7628 74.0237 97.7628 73.2415C97.7628 72.4593 97.9053 71.7699 98.1903 71.1733C98.4787 70.5734 98.8797 70.1061 99.3935 69.7713C99.9105 69.4332 100.514 69.2642 101.203 69.2642C101.601 69.2642 101.994 69.3305 102.381 69.4631C102.769 69.5956 103.122 69.8111 103.44 70.1094C103.759 70.4044 104.012 70.7955 104.201 71.2827C104.39 71.7699 104.484 72.3698 104.484 73.0824V73.5795H98.598V72.5653H103.291C103.291 72.1345 103.205 71.75 103.033 71.4119C102.864 71.0739 102.622 70.8071 102.307 70.6115C101.995 70.416 101.627 70.3182 101.203 70.3182C100.736 70.3182 100.331 70.4342 99.9901 70.6662C99.652 70.8949 99.3918 71.1932 99.2095 71.5611C99.0272 71.929 98.9361 72.3234 98.9361 72.7443V73.4205C98.9361 73.9972 99.0355 74.486 99.2344 74.8871C99.4366 75.2848 99.7166 75.5881 100.075 75.7969C100.433 76.0024 100.848 76.1051 101.322 76.1051C101.631 76.1051 101.909 76.062 102.158 75.9759C102.41 75.8864 102.627 75.7538 102.809 75.5781C102.991 75.3991 103.132 75.1771 103.232 74.9119L104.365 75.2301C104.246 75.6146 104.045 75.9527 103.763 76.2443C103.482 76.5327 103.134 76.758 102.719 76.9205C102.305 77.0795 101.839 77.1591 101.322 77.1591ZM113.309 77.1591C112.593 77.1591 111.977 76.9901 111.46 76.652C110.942 76.3139 110.545 75.8482 110.266 75.255C109.988 74.6617 109.849 73.9839 109.849 73.2216C109.849 72.446 109.991 71.7616 110.276 71.1683C110.565 70.5717 110.966 70.1061 111.479 69.7713C111.996 69.4332 112.6 69.2642 113.289 69.2642C113.826 69.2642 114.31 69.3636 114.741 69.5625C115.172 69.7614 115.525 70.0398 115.8 70.3977C116.075 70.7557 116.246 71.1733 116.312 71.6506H115.138C115.049 71.3026 114.85 70.9943 114.542 70.7259C114.237 70.4541 113.826 70.3182 113.309 70.3182C112.852 70.3182 112.451 70.4375 112.106 70.6761C111.764 70.9115 111.498 71.2446 111.305 71.6754C111.116 72.103 111.022 72.6051 111.022 73.1818C111.022 73.7718 111.115 74.2855 111.3 74.723C111.489 75.1605 111.754 75.5002 112.096 75.7422C112.441 75.9841 112.845 76.1051 113.309 76.1051C113.614 76.1051 113.891 76.0521 114.139 75.946C114.388 75.84 114.598 75.6875 114.771 75.4886C114.943 75.2898 115.066 75.0511 115.138 74.7727H116.312C116.246 75.2235 116.081 75.6295 115.82 75.9908C115.561 76.3487 115.218 76.6338 114.79 76.8459C114.366 77.0547 113.872 77.1591 113.309 77.1591ZM121.129 77.1591C120.44 77.1591 119.835 76.995 119.315 76.6669C118.798 76.3388 118.393 75.8797 118.102 75.2898C117.813 74.6998 117.669 74.0104 117.669 73.2216C117.669 72.4261 117.813 71.7318 118.102 71.1385C118.393 70.5452 118.798 70.0845 119.315 69.7564C119.835 69.4283 120.44 69.2642 121.129 69.2642C121.819 69.2642 122.422 69.4283 122.939 69.7564C123.459 70.0845 123.864 70.5452 124.152 71.1385C124.444 71.7318 124.589 72.4261 124.589 73.2216C124.589 74.0104 124.444 74.6998 124.152 75.2898C123.864 75.8797 123.459 76.3388 122.939 76.6669C122.422 76.995 121.819 77.1591 121.129 77.1591ZM121.129 76.1051C121.653 76.1051 122.084 75.9709 122.422 75.7024C122.76 75.4339 123.01 75.081 123.173 74.6435C123.335 74.206 123.416 73.732 123.416 73.2216C123.416 72.7112 123.335 72.2356 123.173 71.7947C123.01 71.3539 122.76 70.9976 122.422 70.7259C122.084 70.4541 121.653 70.3182 121.129 70.3182C120.606 70.3182 120.175 70.4541 119.837 70.7259C119.499 70.9976 119.248 71.3539 119.086 71.7947C118.924 72.2356 118.842 72.7112 118.842 73.2216C118.842 73.732 118.924 74.206 119.086 74.6435C119.248 75.081 119.499 75.4339 119.837 75.7024C120.175 75.9709 120.606 76.1051 121.129 76.1051ZM126.381 77V69.3636H127.514V70.517H127.594C127.733 70.1392 127.985 69.8326 128.349 69.5973C128.714 69.362 129.125 69.2443 129.582 69.2443C129.668 69.2443 129.776 69.246 129.905 69.2493C130.035 69.2526 130.132 69.2576 130.199 69.2642V70.4574C130.159 70.4474 130.068 70.4325 129.925 70.4126C129.786 70.3894 129.639 70.3778 129.483 70.3778C129.112 70.3778 128.78 70.4557 128.488 70.6115C128.2 70.764 127.971 70.9761 127.802 71.2479C127.637 71.5163 127.554 71.8229 127.554 72.1676V77H126.381ZM131.589 77V69.3636H132.723V70.517H132.803C132.942 70.1392 133.194 69.8326 133.558 69.5973C133.923 69.362 134.334 69.2443 134.791 69.2443C134.877 69.2443 134.985 69.246 135.114 69.2493C135.244 69.2526 135.341 69.2576 135.408 69.2642V70.4574C135.368 70.4474 135.277 70.4325 135.134 70.4126C134.995 70.3894 134.848 70.3778 134.692 70.3778C134.321 70.3778 133.989 70.4557 133.697 70.6115C133.409 70.764 133.18 70.9761 133.011 71.2479C132.846 71.5163 132.763 71.8229 132.763 72.1676V77H131.589ZM139.768 77.1591C139.032 77.1591 138.397 76.9967 137.864 76.6719C137.333 76.3438 136.924 75.8864 136.636 75.2997C136.351 74.7098 136.208 74.0237 136.208 73.2415C136.208 72.4593 136.351 71.7699 136.636 71.1733C136.924 70.5734 137.325 70.1061 137.839 69.7713C138.356 69.4332 138.959 69.2642 139.648 69.2642C140.046 69.2642 140.439 69.3305 140.827 69.4631C141.214 69.5956 141.567 69.8111 141.886 70.1094C142.204 70.4044 142.457 70.7955 142.646 71.2827C142.835 71.7699 142.93 72.3698 142.93 73.0824V73.5795H137.043V72.5653H141.737C141.737 72.1345 141.65 71.75 141.478 71.4119C141.309 71.0739 141.067 70.8071 140.752 70.6115C140.441 70.416 140.073 70.3182 139.648 70.3182C139.181 70.3182 138.777 70.4342 138.435 70.6662C138.097 70.8949 137.837 71.1932 137.655 71.5611C137.473 71.929 137.381 72.3234 137.381 72.7443V73.4205C137.381 73.9972 137.481 74.486 137.68 74.8871C137.882 75.2848 138.162 75.5881 138.52 75.7969C138.878 76.0024 139.294 76.1051 139.768 76.1051C140.076 76.1051 140.354 76.062 140.603 75.9759C140.855 75.8864 141.072 75.7538 141.254 75.5781C141.437 75.3991 141.577 75.1771 141.677 74.9119L142.81 75.2301C142.691 75.6146 142.491 75.9527 142.209 76.2443C141.927 76.5327 141.579 76.758 141.165 76.9205C140.75 77.0795 140.285 77.1591 139.768 77.1591ZM147.817 77.1591C147.101 77.1591 146.484 76.9901 145.967 76.652C145.45 76.3139 145.053 75.8482 144.774 75.255C144.496 74.6617 144.357 73.9839 144.357 73.2216C144.357 72.446 144.499 71.7616 144.784 71.1683C145.072 70.5717 145.473 70.1061 145.987 69.7713C146.504 69.4332 147.107 69.2642 147.797 69.2642C148.334 69.2642 148.818 69.3636 149.249 69.5625C149.679 69.7614 150.032 70.0398 150.308 70.3977C150.583 70.7557 150.753 71.1733 150.82 71.6506H149.646C149.557 71.3026 149.358 70.9943 149.05 70.7259C148.745 70.4541 148.334 70.3182 147.817 70.3182C147.359 70.3182 146.958 70.4375 146.614 70.6761C146.272 70.9115 146.005 71.2446 145.813 71.6754C145.624 72.103 145.53 72.6051 145.53 73.1818C145.53 73.7718 145.623 74.2855 145.808 74.723C145.997 75.1605 146.262 75.5002 146.604 75.7422C146.948 75.9841 147.353 76.1051 147.817 76.1051C148.122 76.1051 148.398 76.0521 148.647 75.946C148.896 75.84 149.106 75.6875 149.278 75.4886C149.451 75.2898 149.573 75.0511 149.646 74.7727H150.82C150.753 75.2235 150.589 75.6295 150.327 75.9908C150.069 76.3487 149.726 76.6338 149.298 76.8459C148.874 77.0547 148.38 77.1591 147.817 77.1591ZM155.856 69.3636V70.358H151.898V69.3636H155.856ZM153.052 67.5341H154.225V74.8125C154.225 75.1439 154.273 75.3925 154.369 75.5582C154.469 75.7206 154.595 75.83 154.747 75.8864C154.903 75.9394 155.067 75.9659 155.239 75.9659C155.369 75.9659 155.475 75.9593 155.558 75.946C155.64 75.9295 155.707 75.9162 155.756 75.9062L155.995 76.9602C155.915 76.9901 155.804 77.0199 155.662 77.0497C155.519 77.0829 155.339 77.0994 155.12 77.0994C154.789 77.0994 154.464 77.0282 154.146 76.8857C153.831 76.7431 153.569 76.526 153.36 76.2344C153.155 75.9427 153.052 75.5748 153.052 75.1307V67.5341ZM158.958 66.8182V77H157.785V66.8182H158.958ZM161.863 79.8636C161.664 79.8636 161.487 79.8471 161.331 79.8139C161.175 79.7841 161.067 79.7543 161.008 79.7244L161.306 78.6903C161.591 78.7633 161.843 78.7898 162.062 78.7699C162.28 78.75 162.474 78.6522 162.643 78.4766C162.816 78.3042 162.973 78.0241 163.116 77.6364L163.334 77.0398L160.51 69.3636H161.783L163.891 75.4489H163.971L166.079 69.3636H167.351L164.11 78.1136C163.964 78.508 163.783 78.8345 163.568 79.093C163.353 79.3549 163.102 79.5488 162.817 79.6747C162.536 79.8007 162.217 79.8636 161.863 79.8636ZM169.277 77.0795C169.031 77.0795 168.821 76.9917 168.645 76.8161C168.47 76.6404 168.382 76.4299 168.382 76.1847C168.382 75.9394 168.47 75.7289 168.645 75.5533C168.821 75.3776 169.031 75.2898 169.277 75.2898C169.522 75.2898 169.732 75.3776 169.908 75.5533C170.084 75.7289 170.172 75.9394 170.172 76.1847C170.172 76.3471 170.13 76.4962 170.047 76.6321C169.968 76.768 169.86 76.8774 169.724 76.9602C169.592 77.0398 169.442 77.0795 169.277 77.0795Z" fill="#1F2937"/>
<path d="M0 4C0 1.79086 1.79086 0 4 0V94C1.79086 94 0 92.2091 0 90V4Z" fill="#E11D48"/>
<defs>
<clipPath id="clip0_1505_6634">
<rect width="16" height="16" fill="white" transform="translate(16 16)"/>
</clipPath>
</defs>
</svg>
