<svg width="550" height="73" viewBox="0 0 550 73" fill="none" xmlns="http://www.w3.org/2000/svg">
<g clip-path="url(#clip0_1498_3624)">
<path d="M23.9888 16.0018C21.8514 16.0368 19.8137 16.9115 18.3161 18.4368C17.5668 19.1829 16.9756 20.0723 16.5778 21.0521C16.18 22.0318 15.9839 23.0816 16.001 24.1389C15.9998 25.1719 16.2025 26.1951 16.5974 27.1497C16.9923 28.1043 17.5717 28.9716 18.3024 29.7019C19.0331 30.4322 19.9008 31.0111 20.8556 31.4054C21.8105 31.7998 22.8337 32.0018 23.8668 32H24.0095C26.1475 31.978 28.1894 31.1088 29.6873 29.583C31.1852 28.0573 32.0167 25.9996 31.9992 23.8616C32.0017 22.816 31.7951 21.7804 31.3915 20.8158C30.9879 19.8513 30.3955 18.9771 29.6492 18.2448C28.9028 17.5125 28.0176 16.9368 27.0455 16.5516C26.0735 16.1664 25.0342 15.9795 23.9888 16.0018ZM23.0003 27.0285C22.9954 26.8978 23.0167 26.7675 23.0629 26.6451C23.1091 26.5228 23.1792 26.4108 23.2691 26.3159C23.359 26.2209 23.467 26.1448 23.5867 26.0921C23.7064 26.0393 23.8354 26.011 23.9661 26.0087H23.9841C24.2472 26.0092 24.4998 26.1115 24.6891 26.2942C24.8783 26.4768 24.9895 26.7257 24.9994 26.9886C25.0043 27.1193 24.983 27.2497 24.9369 27.3721C24.8908 27.4945 24.8207 27.6065 24.7307 27.7014C24.6408 27.7964 24.5328 27.8725 24.413 27.9252C24.2933 27.9779 24.1643 28.0062 24.0335 28.0084H24.0155C23.7525 28.0076 23.5001 27.9052 23.3109 27.7226C23.1217 27.54 23.0104 27.2913 23.0003 27.0285ZM23.3335 24.3342V20.3346C23.3335 20.1578 23.4038 19.9883 23.5288 19.8633C23.6538 19.7383 23.8233 19.668 24.0001 19.668C24.1769 19.668 24.3465 19.7383 24.4715 19.8633C24.5965 19.9883 24.6667 20.1578 24.6667 20.3346V24.3342C24.6667 24.511 24.5965 24.6805 24.4715 24.8055C24.3465 24.9305 24.1769 25.0008 24.0001 25.0008C23.8233 25.0008 23.6538 24.9305 23.5288 24.8055C23.4038 24.6805 23.3335 24.511 23.3335 24.3342Z" fill="#EA580C"/>
</g>
<path d="M47.5568 30L44.3295 18.3636H46.1761L48.4432 27.375H48.5511L50.9091 18.3636H52.7386L55.0966 27.3807H55.2045L57.4659 18.3636H59.3182L56.0852 30H54.3182L51.8693 21.2841H51.7784L49.3295 30H47.5568ZM63.6847 30.1761C62.8248 30.1761 62.0843 29.9924 61.4631 29.625C60.8456 29.2538 60.3684 28.733 60.0312 28.0625C59.6979 27.3883 59.5312 26.5985 59.5312 25.6932C59.5312 24.7992 59.6979 24.0114 60.0312 23.3295C60.3684 22.6477 60.8381 22.1155 61.4403 21.733C62.0464 21.3504 62.7547 21.1591 63.5653 21.1591C64.0578 21.1591 64.535 21.2405 64.9972 21.4034C65.4593 21.5663 65.8741 21.822 66.2415 22.1705C66.6089 22.5189 66.8987 22.9716 67.1108 23.5284C67.3229 24.0814 67.429 24.7538 67.429 25.5455V26.1477H60.4915V24.875H65.7642C65.7642 24.428 65.6733 24.0322 65.4915 23.6875C65.3097 23.339 65.054 23.0644 64.7244 22.8636C64.3987 22.6629 64.0161 22.5625 63.5767 22.5625C63.0994 22.5625 62.6828 22.6799 62.3267 22.9148C61.9744 23.1458 61.7017 23.4489 61.5085 23.8239C61.3191 24.1951 61.2244 24.5985 61.2244 25.0341V26.0284C61.2244 26.6117 61.3267 27.108 61.5312 27.517C61.7396 27.9261 62.0294 28.2386 62.4006 28.4545C62.7718 28.6667 63.2055 28.7727 63.7017 28.7727C64.0237 28.7727 64.3172 28.7273 64.5824 28.6364C64.8475 28.5417 65.0767 28.4015 65.2699 28.2159C65.4631 28.0303 65.6108 27.8011 65.7131 27.5284L67.321 27.8182C67.1922 28.2917 66.9612 28.7064 66.6278 29.0625C66.2983 29.4148 65.8835 29.6894 65.3835 29.8864C64.8873 30.0795 64.321 30.1761 63.6847 30.1761ZM76.0881 30.1932C75.535 30.1932 75.035 30.0909 74.5881 29.8864C74.1411 29.678 73.7869 29.3769 73.5256 28.983C73.268 28.589 73.1392 28.1061 73.1392 27.5341C73.1392 27.0417 73.2339 26.6364 73.4233 26.3182C73.6127 26 73.8684 25.7481 74.1903 25.5625C74.5123 25.3769 74.8722 25.2367 75.2699 25.142C75.6676 25.0473 76.0729 24.9754 76.4858 24.9261C77.0085 24.8655 77.4328 24.8163 77.7585 24.7784C78.0843 24.7367 78.321 24.6705 78.4688 24.5795C78.6165 24.4886 78.6903 24.3409 78.6903 24.1364V24.0966C78.6903 23.6004 78.5502 23.2159 78.2699 22.9432C77.9934 22.6705 77.5805 22.5341 77.0312 22.5341C76.4593 22.5341 76.0085 22.661 75.679 22.9148C75.3532 23.1648 75.1278 23.4432 75.0028 23.75L73.4062 23.3864C73.5956 22.8561 73.8722 22.428 74.2358 22.1023C74.6032 21.7727 75.0256 21.5341 75.5028 21.3864C75.9801 21.2348 76.482 21.1591 77.0085 21.1591C77.357 21.1591 77.7263 21.2008 78.1165 21.2841C78.5104 21.3636 78.8778 21.5114 79.2188 21.7273C79.5634 21.9432 79.8456 22.2519 80.0653 22.6534C80.285 23.0511 80.3949 23.5682 80.3949 24.2045V30H78.7358V28.8068H78.6676C78.5578 29.0265 78.393 29.2424 78.1733 29.4545C77.9536 29.6667 77.6714 29.8428 77.3267 29.983C76.982 30.1231 76.5691 30.1932 76.0881 30.1932ZM76.4574 28.8295C76.9271 28.8295 77.3286 28.7367 77.6619 28.5511C77.9991 28.3655 78.2547 28.1231 78.429 27.8239C78.607 27.5208 78.696 27.197 78.696 26.8523V25.7273C78.6354 25.7879 78.518 25.8447 78.3438 25.8977C78.1733 25.947 77.9782 25.9905 77.7585 26.0284C77.5388 26.0625 77.3248 26.0947 77.1165 26.125C76.9081 26.1515 76.7339 26.1742 76.5938 26.1932C76.2642 26.2348 75.9631 26.3049 75.6903 26.4034C75.4214 26.5019 75.2055 26.6439 75.0426 26.8295C74.8835 27.0114 74.804 27.2538 74.804 27.5568C74.804 27.9773 74.9593 28.2955 75.2699 28.5114C75.5805 28.7235 75.9763 28.8295 76.4574 28.8295ZM82.6577 30V21.2727H84.2997V22.6591H84.3906C84.5497 22.1894 84.83 21.8201 85.2315 21.5511C85.6368 21.2784 86.0952 21.142 86.6065 21.142C86.7126 21.142 86.8376 21.1458 86.9815 21.1534C87.1293 21.161 87.2448 21.1705 87.3281 21.1818V22.8068C87.2599 22.7879 87.1387 22.767 86.9645 22.7443C86.7902 22.7178 86.616 22.7045 86.4418 22.7045C86.0402 22.7045 85.6823 22.7898 85.3679 22.9602C85.0573 23.1269 84.8111 23.3598 84.6293 23.6591C84.4474 23.9545 84.3565 24.2917 84.3565 24.6705V30H82.6577ZM92.2472 30.1761C91.3873 30.1761 90.6468 29.9924 90.0256 29.625C89.4081 29.2538 88.9309 28.733 88.5938 28.0625C88.2604 27.3883 88.0938 26.5985 88.0938 25.6932C88.0938 24.7992 88.2604 24.0114 88.5938 23.3295C88.9309 22.6477 89.4006 22.1155 90.0028 21.733C90.6089 21.3504 91.3172 21.1591 92.1278 21.1591C92.6203 21.1591 93.0975 21.2405 93.5597 21.4034C94.0218 21.5663 94.4366 21.822 94.804 22.1705C95.1714 22.5189 95.4612 22.9716 95.6733 23.5284C95.8854 24.0814 95.9915 24.7538 95.9915 25.5455V26.1477H89.054V24.875H94.3267C94.3267 24.428 94.2358 24.0322 94.054 23.6875C93.8722 23.339 93.6165 23.0644 93.2869 22.8636C92.9612 22.6629 92.5786 22.5625 92.1392 22.5625C91.6619 22.5625 91.2453 22.6799 90.8892 22.9148C90.5369 23.1458 90.2642 23.4489 90.071 23.8239C89.8816 24.1951 89.7869 24.5985 89.7869 25.0341V26.0284C89.7869 26.6117 89.8892 27.108 90.0938 27.517C90.3021 27.9261 90.5919 28.2386 90.9631 28.4545C91.3343 28.6667 91.768 28.7727 92.2642 28.7727C92.5862 28.7727 92.8797 28.7273 93.1449 28.6364C93.41 28.5417 93.6392 28.4015 93.8324 28.2159C94.0256 28.0303 94.1733 27.8011 94.2756 27.5284L95.8835 27.8182C95.7547 28.2917 95.5237 28.7064 95.1903 29.0625C94.8608 29.4148 94.446 29.6894 93.946 29.8864C93.4498 30.0795 92.8835 30.1761 92.2472 30.1761ZM105.77 33.4545C105.077 33.4545 104.48 33.3636 103.98 33.1818C103.484 33 103.079 32.7595 102.764 32.4602C102.45 32.161 102.215 31.8333 102.06 31.4773L103.52 30.875C103.622 31.0417 103.759 31.2178 103.929 31.4034C104.103 31.5928 104.338 31.7538 104.634 31.8864C104.933 32.0189 105.317 32.0852 105.787 32.0852C106.431 32.0852 106.963 31.928 107.384 31.6136C107.804 31.303 108.014 30.8068 108.014 30.125V28.4091H107.906C107.804 28.5947 107.656 28.8011 107.463 29.0284C107.274 29.2557 107.012 29.4527 106.679 29.6193C106.346 29.786 105.912 29.8693 105.378 29.8693C104.688 29.8693 104.067 29.7083 103.514 29.3864C102.965 29.0606 102.529 28.5814 102.207 27.9489C101.889 27.3125 101.73 26.5303 101.73 25.6023C101.73 24.6742 101.887 23.8788 102.202 23.2159C102.52 22.553 102.955 22.0455 103.509 21.6932C104.062 21.3371 104.688 21.1591 105.389 21.1591C105.931 21.1591 106.368 21.25 106.702 21.4318C107.035 21.6098 107.295 21.8182 107.48 22.0568C107.67 22.2955 107.815 22.5057 107.918 22.6875H108.043V21.2727H109.707V30.1932C109.707 30.9432 109.533 31.5587 109.185 32.0398C108.836 32.5208 108.365 32.8769 107.77 33.108C107.179 33.339 106.512 33.4545 105.77 33.4545ZM105.753 28.4602C106.241 28.4602 106.654 28.3466 106.991 28.1193C107.332 27.8883 107.59 27.5587 107.764 27.1307C107.942 26.6989 108.031 26.1818 108.031 25.5795C108.031 24.9924 107.944 24.4754 107.77 24.0284C107.596 23.5814 107.34 23.233 107.003 22.983C106.666 22.7292 106.249 22.6023 105.753 22.6023C105.241 22.6023 104.815 22.7348 104.474 23C104.134 23.2614 103.876 23.6174 103.702 24.0682C103.531 24.5189 103.446 25.0227 103.446 25.5795C103.446 26.1515 103.533 26.6534 103.707 27.0852C103.882 27.517 104.139 27.8542 104.48 28.0966C104.825 28.339 105.249 28.4602 105.753 28.4602ZM115.662 30.1761C114.844 30.1761 114.13 29.9886 113.52 29.6136C112.91 29.2386 112.437 28.714 112.099 28.0398C111.762 27.3655 111.594 26.5777 111.594 25.6761C111.594 24.7708 111.762 23.9792 112.099 23.3011C112.437 22.6231 112.91 22.0966 113.52 21.7216C114.13 21.3466 114.844 21.1591 115.662 21.1591C116.48 21.1591 117.194 21.3466 117.804 21.7216C118.414 22.0966 118.887 22.6231 119.224 23.3011C119.562 23.9792 119.73 24.7708 119.73 25.6761C119.73 26.5777 119.562 27.3655 119.224 28.0398C118.887 28.714 118.414 29.2386 117.804 29.6136C117.194 29.9886 116.48 30.1761 115.662 30.1761ZM115.668 28.75C116.198 28.75 116.637 28.6098 116.986 28.3295C117.334 28.0492 117.592 27.6761 117.759 27.2102C117.929 26.7443 118.014 26.2311 118.014 25.6705C118.014 25.1136 117.929 24.6023 117.759 24.1364C117.592 23.6667 117.334 23.2898 116.986 23.0057C116.637 22.7216 116.198 22.5795 115.668 22.5795C115.134 22.5795 114.69 22.7216 114.338 23.0057C113.99 23.2898 113.73 23.6667 113.56 24.1364C113.393 24.6023 113.31 25.1136 113.31 25.6705C113.31 26.2311 113.393 26.7443 113.56 27.2102C113.73 27.6761 113.99 28.0492 114.338 28.3295C114.69 28.6098 115.134 28.75 115.668 28.75ZM121.626 30V21.2727H123.325V30H121.626ZM122.484 19.9261C122.189 19.9261 121.935 19.8277 121.723 19.6307C121.515 19.4299 121.411 19.1913 121.411 18.9148C121.411 18.6345 121.515 18.3958 121.723 18.1989C121.935 17.9981 122.189 17.8977 122.484 17.8977C122.78 17.8977 123.032 17.9981 123.24 18.1989C123.452 18.3958 123.558 18.6345 123.558 18.9148C123.558 19.1913 123.452 19.4299 123.24 19.6307C123.032 19.8277 122.78 19.9261 122.484 19.9261ZM127.31 24.8182V30H125.611V21.2727H127.241V22.6932H127.349C127.55 22.2311 127.865 21.8598 128.293 21.5795C128.724 21.2992 129.268 21.1591 129.923 21.1591C130.518 21.1591 131.039 21.2841 131.486 21.5341C131.933 21.7803 132.279 22.1477 132.526 22.6364C132.772 23.125 132.895 23.7292 132.895 24.4489V30H131.196V24.6534C131.196 24.0208 131.031 23.5265 130.702 23.1705C130.372 22.8106 129.92 22.6307 129.344 22.6307C128.95 22.6307 128.599 22.7159 128.293 22.8864C127.99 23.0568 127.749 23.3068 127.571 23.6364C127.397 23.9621 127.31 24.3561 127.31 24.8182ZM138.832 33.4545C138.139 33.4545 137.543 33.3636 137.043 33.1818C136.546 33 136.141 32.7595 135.827 32.4602C135.512 32.161 135.277 31.8333 135.122 31.4773L136.582 30.875C136.685 31.0417 136.821 31.2178 136.991 31.4034C137.166 31.5928 137.401 31.7538 137.696 31.8864C137.995 32.0189 138.38 32.0852 138.849 32.0852C139.493 32.0852 140.026 31.928 140.446 31.6136C140.866 31.303 141.077 30.8068 141.077 30.125V28.4091H140.969C140.866 28.5947 140.719 28.8011 140.526 29.0284C140.336 29.2557 140.075 29.4527 139.741 29.6193C139.408 29.786 138.974 29.8693 138.44 29.8693C137.751 29.8693 137.13 29.7083 136.577 29.3864C136.027 29.0606 135.592 28.5814 135.27 27.9489C134.952 27.3125 134.793 26.5303 134.793 25.6023C134.793 24.6742 134.95 23.8788 135.264 23.2159C135.582 22.553 136.018 22.0455 136.571 21.6932C137.124 21.3371 137.751 21.1591 138.452 21.1591C138.993 21.1591 139.431 21.25 139.764 21.4318C140.098 21.6098 140.357 21.8182 140.543 22.0568C140.732 22.2955 140.878 22.5057 140.98 22.6875H141.105V21.2727H142.77V30.1932C142.77 30.9432 142.596 31.5587 142.247 32.0398C141.899 32.5208 141.427 32.8769 140.832 33.108C140.241 33.339 139.575 33.4545 138.832 33.4545ZM138.815 28.4602C139.304 28.4602 139.717 28.3466 140.054 28.1193C140.395 27.8883 140.652 27.5587 140.827 27.1307C141.005 26.6989 141.094 26.1818 141.094 25.5795C141.094 24.9924 141.007 24.4754 140.832 24.0284C140.658 23.5814 140.402 23.233 140.065 22.983C139.728 22.7292 139.312 22.6023 138.815 22.6023C138.304 22.6023 137.878 22.7348 137.537 23C137.196 23.2614 136.938 23.6174 136.764 24.0682C136.594 24.5189 136.509 25.0227 136.509 25.5795C136.509 26.1515 136.596 26.6534 136.77 27.0852C136.944 27.517 137.202 27.8542 137.543 28.0966C137.887 28.339 138.312 28.4602 138.815 28.4602ZM150.982 18.3636V30H149.283V18.3636H150.982ZM153.267 30V21.2727H154.966V30H153.267ZM154.125 19.9261C153.83 19.9261 153.576 19.8277 153.364 19.6307C153.155 19.4299 153.051 19.1913 153.051 18.9148C153.051 18.6345 153.155 18.3958 153.364 18.1989C153.576 17.9981 153.83 17.8977 154.125 17.8977C154.42 17.8977 154.672 17.9981 154.881 18.1989C155.093 18.3958 155.199 18.6345 155.199 18.9148C155.199 19.1913 155.093 19.4299 154.881 19.6307C154.672 19.8277 154.42 19.9261 154.125 19.9261ZM164.717 21.2727L161.553 30H159.734L156.564 21.2727H158.388L160.598 27.9886H160.689L162.893 21.2727H164.717ZM169.778 30.1761C168.919 30.1761 168.178 29.9924 167.557 29.625C166.939 29.2538 166.462 28.733 166.125 28.0625C165.792 27.3883 165.625 26.5985 165.625 25.6932C165.625 24.7992 165.792 24.0114 166.125 23.3295C166.462 22.6477 166.932 22.1155 167.534 21.733C168.14 21.3504 168.848 21.1591 169.659 21.1591C170.152 21.1591 170.629 21.2405 171.091 21.4034C171.553 21.5663 171.968 21.822 172.335 22.1705C172.703 22.5189 172.992 22.9716 173.205 23.5284C173.417 24.0814 173.523 24.7538 173.523 25.5455V26.1477H166.585V24.875H171.858C171.858 24.428 171.767 24.0322 171.585 23.6875C171.403 23.339 171.148 23.0644 170.818 22.8636C170.492 22.6629 170.11 22.5625 169.67 22.5625C169.193 22.5625 168.777 22.6799 168.42 22.9148C168.068 23.1458 167.795 23.4489 167.602 23.8239C167.413 24.1951 167.318 24.5985 167.318 25.0341V26.0284C167.318 26.6117 167.42 27.108 167.625 27.517C167.833 27.9261 168.123 28.2386 168.494 28.4545C168.866 28.6667 169.299 28.7727 169.795 28.7727C170.117 28.7727 170.411 28.7273 170.676 28.6364C170.941 28.5417 171.17 28.4015 171.364 28.2159C171.557 28.0303 171.705 27.8011 171.807 27.5284L173.415 27.8182C173.286 28.2917 173.055 28.7064 172.722 29.0625C172.392 29.4148 171.977 29.6894 171.477 29.8864C170.981 30.0795 170.415 30.1761 169.778 30.1761ZM179.642 30V21.2727H181.341V30H179.642ZM180.5 19.9261C180.205 19.9261 179.951 19.8277 179.739 19.6307C179.53 19.4299 179.426 19.1913 179.426 18.9148C179.426 18.6345 179.53 18.3958 179.739 18.1989C179.951 17.9981 180.205 17.8977 180.5 17.8977C180.795 17.8977 181.047 17.9981 181.256 18.1989C181.468 18.3958 181.574 18.6345 181.574 18.9148C181.574 19.1913 181.468 19.4299 181.256 19.6307C181.047 19.8277 180.795 19.9261 180.5 19.9261ZM185.325 24.8182V30H183.626V21.2727H185.257V22.6932H185.365C185.566 22.2311 185.88 21.8598 186.308 21.5795C186.74 21.2992 187.284 21.1591 187.939 21.1591C188.534 21.1591 189.054 21.2841 189.501 21.5341C189.948 21.7803 190.295 22.1477 190.541 22.6364C190.787 23.125 190.911 23.7292 190.911 24.4489V30H189.212V24.6534C189.212 24.0208 189.047 23.5265 188.717 23.1705C188.388 22.8106 187.935 22.6307 187.359 22.6307C186.965 22.6307 186.615 22.7159 186.308 22.8864C186.005 23.0568 185.765 23.3068 185.587 23.6364C185.412 23.9621 185.325 24.3561 185.325 24.8182ZM202.082 18.3636H203.832V26.6136C203.832 27.3598 203.685 27.9981 203.389 28.5284C203.098 29.0587 202.687 29.464 202.156 29.7443C201.626 30.0208 201.005 30.1591 200.293 30.1591C199.637 30.1591 199.048 30.0398 198.526 29.8011C198.007 29.5625 197.596 29.2159 197.293 28.7614C196.993 28.303 196.844 27.7462 196.844 27.0909H198.588C198.588 27.4129 198.662 27.6913 198.81 27.9261C198.961 28.161 199.168 28.3447 199.429 28.4773C199.694 28.6061 199.997 28.6705 200.338 28.6705C200.709 28.6705 201.024 28.5928 201.281 28.4375C201.543 28.2784 201.741 28.0455 201.878 27.7386C202.014 27.4318 202.082 27.0568 202.082 26.6136V18.3636ZM211.78 26.3807V21.2727H213.484V30H211.814V28.4886H211.723C211.522 28.9545 211.2 29.3428 210.757 29.6534C210.318 29.9602 209.77 30.1136 209.115 30.1136C208.554 30.1136 208.058 29.9905 207.626 29.7443C207.198 29.4943 206.861 29.125 206.615 28.6364C206.373 28.1477 206.251 27.5436 206.251 26.8239V21.2727H207.95V26.6193C207.95 27.214 208.115 27.6875 208.445 28.0398C208.774 28.392 209.202 28.5682 209.729 28.5682C210.047 28.5682 210.363 28.4886 210.678 28.3295C210.996 28.1705 211.259 27.9299 211.467 27.608C211.679 27.286 211.784 26.8769 211.78 26.3807ZM217.466 18.3636V30H215.767V18.3636H217.466ZM220.825 33.2727C220.571 33.2727 220.34 33.2519 220.132 33.2102C219.924 33.1723 219.768 33.1307 219.666 33.0852L220.075 31.6932C220.386 31.7765 220.662 31.8125 220.905 31.8011C221.147 31.7898 221.361 31.6989 221.547 31.5284C221.736 31.358 221.903 31.0795 222.047 30.6932L222.257 30.1136L219.064 21.2727H220.882L223.092 28.0455H223.183L225.393 21.2727H227.217L223.621 31.1648C223.454 31.6193 223.242 32.0038 222.984 32.3182C222.727 32.6364 222.42 32.875 222.064 33.0341C221.708 33.1932 221.295 33.2727 220.825 33.2727ZM230.956 18.3636L230.808 26.6534H229.234L229.087 18.3636H230.956ZM230.024 30.108C229.71 30.108 229.441 29.9981 229.217 29.7784C228.994 29.5549 228.884 29.286 228.888 28.9716C228.884 28.661 228.994 28.3958 229.217 28.1761C229.441 27.9527 229.71 27.8409 230.024 27.8409C230.331 27.8409 230.596 27.9527 230.82 28.1761C231.043 28.3958 231.157 28.661 231.161 28.9716C231.157 29.1799 231.102 29.3712 230.996 29.5455C230.893 29.7159 230.757 29.8523 230.587 29.9545C230.416 30.0568 230.229 30.108 230.024 30.108Z" fill="#1F2937"/>
<path d="M47.0824 56L44.2983 45.8182H45.5511L47.679 54.1108H47.7784L49.946 45.8182H51.3381L53.5057 54.1108H53.6051L55.733 45.8182H56.9858L54.2017 56H52.929L50.6818 47.8864H50.6023L48.3551 56H47.0824ZM60.8537 56.1591C60.1179 56.1591 59.4832 55.9967 58.9496 55.6719C58.4193 55.3438 58.0099 54.8864 57.7216 54.2997C57.4366 53.7098 57.294 53.0237 57.294 52.2415C57.294 51.4593 57.4366 50.7699 57.7216 50.1733C58.0099 49.5734 58.411 49.1061 58.9247 48.7713C59.4418 48.4332 60.045 48.2642 60.7344 48.2642C61.1321 48.2642 61.5249 48.3305 61.9126 48.4631C62.3004 48.5956 62.6534 48.8111 62.9716 49.1094C63.2898 49.4044 63.5433 49.7955 63.7322 50.2827C63.9212 50.7699 64.0156 51.3698 64.0156 52.0824V52.5795H58.1293V51.5653H62.8224C62.8224 51.1345 62.7363 50.75 62.5639 50.4119C62.3949 50.0739 62.1529 49.8071 61.8381 49.6115C61.5265 49.416 61.1586 49.3182 60.7344 49.3182C60.267 49.3182 59.8627 49.4342 59.5213 49.6662C59.1832 49.8949 58.9231 50.1932 58.7408 50.5611C58.5585 50.929 58.4673 51.3234 58.4673 51.7443V52.4205C58.4673 52.9972 58.5668 53.486 58.7656 53.8871C58.9678 54.2848 59.2479 54.5881 59.6058 54.7969C59.9638 55.0024 60.3797 55.1051 60.8537 55.1051C61.1619 55.1051 61.4403 55.062 61.6889 54.9759C61.9408 54.8864 62.1579 54.7538 62.3402 54.5781C62.5225 54.3991 62.6634 54.1771 62.7628 53.9119L63.8963 54.2301C63.777 54.6146 63.5765 54.9527 63.2947 55.2443C63.013 55.5327 62.665 55.758 62.2507 55.9205C61.8364 56.0795 61.3707 56.1591 60.8537 56.1591ZM71.9851 56.179C71.5012 56.179 71.062 56.0878 70.6676 55.9055C70.2732 55.7199 69.96 55.4531 69.728 55.1051C69.496 54.7538 69.38 54.3295 69.38 53.8324C69.38 53.3949 69.4661 53.0402 69.6385 52.7685C69.8108 52.4934 70.0412 52.2779 70.3295 52.1222C70.6179 51.9664 70.9361 51.8504 71.2841 51.7741C71.6354 51.6946 71.9884 51.6316 72.343 51.5852C72.8071 51.5256 73.1832 51.4808 73.4716 51.451C73.7633 51.4179 73.9754 51.3632 74.108 51.2869C74.2438 51.2107 74.3118 51.0781 74.3118 50.8892V50.8494C74.3118 50.3589 74.1776 49.9777 73.9091 49.706C73.6439 49.4342 73.2412 49.2983 72.701 49.2983C72.1409 49.2983 71.7017 49.4209 71.3835 49.6662C71.0653 49.9115 70.8416 50.1733 70.7124 50.4517L69.5987 50.054C69.7976 49.59 70.0627 49.2287 70.3942 48.9702C70.7289 48.7083 71.0935 48.526 71.4879 48.4233C71.8857 48.3172 72.2768 48.2642 72.6612 48.2642C72.9065 48.2642 73.1882 48.294 73.5064 48.3537C73.8279 48.41 74.1378 48.5277 74.4361 48.7067C74.7377 48.8857 74.9879 49.1558 75.1868 49.517C75.3857 49.8783 75.4851 50.3622 75.4851 50.9688V56H74.3118V54.9659H74.2521C74.1726 55.1316 74.04 55.3089 73.8544 55.4979C73.6688 55.6868 73.4219 55.8475 73.1136 55.9801C72.8054 56.1127 72.4292 56.179 71.9851 56.179ZM72.1641 55.125C72.6281 55.125 73.0192 55.0339 73.3374 54.8516C73.6589 54.6693 73.9008 54.4339 74.0632 54.1456C74.2289 53.8572 74.3118 53.554 74.3118 53.2358V52.1619C74.2621 52.2216 74.1527 52.2763 73.9837 52.326C73.8179 52.3724 73.6257 52.4138 73.407 52.4503C73.1915 52.4834 72.9811 52.5133 72.7756 52.5398C72.5734 52.563 72.4093 52.5829 72.2834 52.5994C71.9785 52.6392 71.6934 52.7038 71.4283 52.7933C71.1664 52.8795 70.9543 53.0104 70.7919 53.1861C70.6328 53.3584 70.5533 53.5937 70.5533 53.892C70.5533 54.2997 70.7041 54.608 71.0057 54.8168C71.3106 55.0223 71.6967 55.125 72.1641 55.125ZM77.6266 56V48.3636H78.7601V49.517H78.8397C78.9789 49.1392 79.2308 48.8326 79.5953 48.5973C79.9599 48.362 80.3709 48.2443 80.8283 48.2443C80.9145 48.2443 81.0222 48.246 81.1515 48.2493C81.2807 48.2526 81.3785 48.2576 81.4448 48.2642V49.4574C81.405 49.4474 81.3139 49.4325 81.1713 49.4126C81.0321 49.3894 80.8846 49.3778 80.7289 49.3778C80.3577 49.3778 80.0262 49.4557 79.7346 49.6115C79.4462 49.764 79.2175 49.9761 79.0485 50.2479C78.8828 50.5163 78.7999 50.8229 78.7999 51.1676V56H77.6266ZM85.8049 56.1591C85.0691 56.1591 84.4344 55.9967 83.9007 55.6719C83.3704 55.3438 82.9611 54.8864 82.6728 54.2997C82.3877 53.7098 82.2452 53.0237 82.2452 52.2415C82.2452 51.4593 82.3877 50.7699 82.6728 50.1733C82.9611 49.5734 83.3622 49.1061 83.8759 48.7713C84.3929 48.4332 84.9962 48.2642 85.6855 48.2642C86.0833 48.2642 86.476 48.3305 86.8638 48.4631C87.2516 48.5956 87.6046 48.8111 87.9228 49.1094C88.2409 49.4044 88.4945 49.7955 88.6834 50.2827C88.8723 50.7699 88.9668 51.3698 88.9668 52.0824V52.5795H83.0804V51.5653H87.7736C87.7736 51.1345 87.6874 50.75 87.5151 50.4119C87.3461 50.0739 87.1041 49.8071 86.7892 49.6115C86.4777 49.416 86.1098 49.3182 85.6855 49.3182C85.2182 49.3182 84.8139 49.4342 84.4725 49.6662C84.1344 49.8949 83.8742 50.1932 83.6919 50.5611C83.5096 50.929 83.4185 51.3234 83.4185 51.7443V52.4205C83.4185 52.9972 83.5179 53.486 83.7168 53.8871C83.919 54.2848 84.199 54.5881 84.557 54.7969C84.915 55.0024 85.3309 55.1051 85.8049 55.1051C86.1131 55.1051 86.3915 55.062 86.6401 54.9759C86.892 54.8864 87.1091 54.7538 87.2914 54.5781C87.4737 54.3991 87.6145 54.1771 87.714 53.9119L88.8475 54.2301C88.7282 54.6146 88.5276 54.9527 88.2459 55.2443C87.9642 55.5327 87.6162 55.758 87.2019 55.9205C86.7876 56.0795 86.3219 56.1591 85.8049 56.1591ZM95.8624 51.4062V56H94.6891V45.8182H95.8624V49.5568H95.9618C96.1408 49.1624 96.4093 48.8492 96.7672 48.6172C97.1285 48.3819 97.6091 48.2642 98.209 48.2642C98.7293 48.2642 99.1851 48.3686 99.5762 48.5774C99.9673 48.7829 100.271 49.0994 100.486 49.527C100.705 49.9512 100.814 50.4915 100.814 51.1477V56H99.6408V51.2273C99.6408 50.6207 99.4834 50.1518 99.1685 49.8203C98.8569 49.4856 98.4244 49.3182 97.8709 49.3182C97.4864 49.3182 97.1417 49.3994 96.8368 49.5618C96.5352 49.7242 96.2966 49.9612 96.1209 50.2727C95.9486 50.5843 95.8624 50.9621 95.8624 51.4062ZM105.208 56.179C104.724 56.179 104.285 56.0878 103.89 55.9055C103.496 55.7199 103.183 55.4531 102.951 55.1051C102.719 54.7538 102.603 54.3295 102.603 53.8324C102.603 53.3949 102.689 53.0402 102.861 52.7685C103.033 52.4934 103.264 52.2779 103.552 52.1222C103.841 51.9664 104.159 51.8504 104.507 51.7741C104.858 51.6946 105.211 51.6316 105.566 51.5852C106.03 51.5256 106.406 51.4808 106.694 51.451C106.986 51.4179 107.198 51.3632 107.331 51.2869C107.467 51.2107 107.534 51.0781 107.534 50.8892V50.8494C107.534 50.3589 107.4 49.9777 107.132 49.706C106.867 49.4342 106.464 49.2983 105.924 49.2983C105.364 49.2983 104.924 49.4209 104.606 49.6662C104.288 49.9115 104.064 50.1733 103.935 50.4517L102.821 50.054C103.02 49.59 103.285 49.2287 103.617 48.9702C103.952 48.7083 104.316 48.526 104.711 48.4233C105.108 48.3172 105.499 48.2642 105.884 48.2642C106.129 48.2642 106.411 48.294 106.729 48.3537C107.051 48.41 107.36 48.5277 107.659 48.7067C107.96 48.8857 108.211 49.1558 108.409 49.517C108.608 49.8783 108.708 50.3622 108.708 50.9688V56H107.534V54.9659H107.475C107.395 55.1316 107.263 55.3089 107.077 55.4979C106.891 55.6868 106.645 55.8475 106.336 55.9801C106.028 56.1127 105.652 56.179 105.208 56.179ZM105.387 55.125C105.851 55.125 106.242 55.0339 106.56 54.8516C106.882 54.6693 107.123 54.4339 107.286 54.1456C107.452 53.8572 107.534 53.554 107.534 53.2358V52.1619C107.485 52.2216 107.375 52.2763 107.206 52.326C107.041 52.3724 106.848 52.4138 106.63 52.4503C106.414 52.4834 106.204 52.5133 105.998 52.5398C105.796 52.563 105.632 52.5829 105.506 52.5994C105.201 52.6392 104.916 52.7038 104.651 52.7933C104.389 52.8795 104.177 53.0104 104.015 53.1861C103.855 53.3584 103.776 53.5937 103.776 53.892C103.776 54.2997 103.927 54.608 104.228 54.8168C104.533 55.0223 104.919 55.125 105.387 55.125ZM110.849 58.8636V48.3636H111.983V49.5767H112.122C112.208 49.4441 112.327 49.2751 112.48 49.0696C112.636 48.8608 112.858 48.6752 113.146 48.5128C113.438 48.3471 113.832 48.2642 114.329 48.2642C114.972 48.2642 115.539 48.425 116.03 48.7464C116.52 49.0679 116.903 49.5237 117.178 50.1136C117.453 50.7036 117.591 51.3996 117.591 52.2017C117.591 53.0104 117.453 53.7114 117.178 54.3047C116.903 54.8946 116.522 55.352 116.035 55.6768C115.547 55.9983 114.986 56.1591 114.349 56.1591C113.859 56.1591 113.466 56.0779 113.171 55.9155C112.876 55.7498 112.649 55.5625 112.49 55.3537C112.331 55.1416 112.208 54.9659 112.122 54.8267H112.023V58.8636H110.849ZM112.003 52.1818C112.003 52.7585 112.087 53.2673 112.256 53.7081C112.425 54.1456 112.672 54.4886 112.997 54.7372C113.322 54.9825 113.72 55.1051 114.19 55.1051C114.681 55.1051 115.09 54.9759 115.418 54.7173C115.75 54.4555 115.998 54.1042 116.164 53.6634C116.333 53.2192 116.417 52.7254 116.417 52.1818C116.417 51.6449 116.335 51.161 116.169 50.7301C116.006 50.2959 115.76 49.9529 115.428 49.701C115.1 49.4458 114.687 49.3182 114.19 49.3182C113.713 49.3182 113.312 49.4392 112.987 49.6811C112.662 49.9197 112.417 50.2545 112.251 50.6854C112.086 51.1129 112.003 51.6117 112.003 52.1818ZM119.381 58.8636V48.3636H120.514V49.5767H120.653C120.739 49.4441 120.859 49.2751 121.011 49.0696C121.167 48.8608 121.389 48.6752 121.677 48.5128C121.969 48.3471 122.363 48.2642 122.861 48.2642C123.504 48.2642 124.07 48.425 124.561 48.7464C125.051 49.0679 125.434 49.5237 125.709 50.1136C125.984 50.7036 126.122 51.3996 126.122 52.2017C126.122 53.0104 125.984 53.7114 125.709 54.3047C125.434 54.8946 125.053 55.352 124.566 55.6768C124.079 55.9983 123.517 56.1591 122.881 56.1591C122.39 56.1591 121.997 56.0779 121.702 55.9155C121.407 55.7498 121.18 55.5625 121.021 55.3537C120.862 55.1416 120.739 54.9659 120.653 54.8267H120.554V58.8636H119.381ZM120.534 52.1818C120.534 52.7585 120.618 53.2673 120.787 53.7081C120.956 54.1456 121.203 54.4886 121.528 54.7372C121.853 54.9825 122.251 55.1051 122.721 55.1051C123.212 55.1051 123.621 54.9759 123.949 54.7173C124.281 54.4555 124.529 54.1042 124.695 53.6634C124.864 53.2192 124.949 52.7254 124.949 52.1818C124.949 51.6449 124.866 51.161 124.7 50.7301C124.538 50.2959 124.291 49.9529 123.959 49.701C123.631 49.4458 123.219 49.3182 122.721 49.3182C122.244 49.3182 121.843 49.4392 121.518 49.6811C121.193 49.9197 120.948 50.2545 120.782 50.6854C120.617 51.1129 120.534 51.6117 120.534 52.1818ZM128.394 58.8636C128.195 58.8636 128.018 58.8471 127.862 58.8139C127.706 58.7841 127.599 58.7543 127.539 58.7244L127.837 57.6903C128.122 57.7633 128.374 57.7898 128.593 57.7699C128.812 57.75 129.006 57.6522 129.175 57.4766C129.347 57.3042 129.504 57.0241 129.647 56.6364L129.866 56.0398L127.042 48.3636H128.314L130.422 54.4489H130.502L132.61 48.3636H133.883L130.641 57.1136C130.495 57.508 130.315 57.8345 130.099 58.093C129.884 58.3549 129.634 58.5488 129.349 58.6747C129.067 58.8007 128.749 58.8636 128.394 58.8636ZM142.69 48.3636V49.358H138.732V48.3636H142.69ZM139.886 46.5341H141.059V53.8125C141.059 54.1439 141.107 54.3925 141.203 54.5582C141.303 54.7206 141.429 54.83 141.581 54.8864C141.737 54.9394 141.901 54.9659 142.073 54.9659C142.203 54.9659 142.309 54.9593 142.392 54.946C142.474 54.9295 142.541 54.9162 142.59 54.9062L142.829 55.9602C142.749 55.9901 142.638 56.0199 142.496 56.0497C142.353 56.0829 142.173 56.0994 141.954 56.0994C141.623 56.0994 141.298 56.0282 140.98 55.8857C140.665 55.7431 140.403 55.526 140.194 55.2344C139.989 54.9427 139.886 54.5748 139.886 54.1307V46.5341ZM147.475 56.1591C146.786 56.1591 146.181 55.995 145.66 55.6669C145.143 55.3388 144.739 54.8797 144.447 54.2898C144.159 53.6998 144.015 53.0104 144.015 52.2216C144.015 51.4261 144.159 50.7318 144.447 50.1385C144.739 49.5452 145.143 49.0845 145.66 48.7564C146.181 48.4283 146.786 48.2642 147.475 48.2642C148.164 48.2642 148.768 48.4283 149.285 48.7564C149.805 49.0845 150.209 49.5452 150.498 50.1385C150.789 50.7318 150.935 51.4261 150.935 52.2216C150.935 53.0104 150.789 53.6998 150.498 54.2898C150.209 54.8797 149.805 55.3388 149.285 55.6669C148.768 55.995 148.164 56.1591 147.475 56.1591ZM147.475 55.1051C147.999 55.1051 148.43 54.9709 148.768 54.7024C149.106 54.4339 149.356 54.081 149.518 53.6435C149.681 53.206 149.762 52.732 149.762 52.2216C149.762 51.7112 149.681 51.2356 149.518 50.7947C149.356 50.3539 149.106 49.9976 148.768 49.7259C148.43 49.4541 147.999 49.3182 147.475 49.3182C146.951 49.3182 146.52 49.4541 146.182 49.7259C145.844 49.9976 145.594 50.3539 145.432 50.7947C145.269 51.2356 145.188 51.7112 145.188 52.2216C145.188 52.732 145.269 53.206 145.432 53.6435C145.594 54.081 145.844 54.4339 146.182 54.7024C146.52 54.9709 146.951 55.1051 147.475 55.1051ZM158.911 56.179C158.427 56.179 157.988 56.0878 157.593 55.9055C157.199 55.7199 156.886 55.4531 156.654 55.1051C156.422 54.7538 156.306 54.3295 156.306 53.8324C156.306 53.3949 156.392 53.0402 156.564 52.7685C156.737 52.4934 156.967 52.2779 157.255 52.1222C157.544 51.9664 157.862 51.8504 158.21 51.7741C158.561 51.6946 158.914 51.6316 159.269 51.5852C159.733 51.5256 160.109 51.4808 160.397 51.451C160.689 51.4179 160.901 51.3632 161.034 51.2869C161.17 51.2107 161.238 51.0781 161.238 50.8892V50.8494C161.238 50.3589 161.103 49.9777 160.835 49.706C160.57 49.4342 160.167 49.2983 159.627 49.2983C159.067 49.2983 158.627 49.4209 158.309 49.6662C157.991 49.9115 157.767 50.1733 157.638 50.4517L156.525 50.054C156.723 49.59 156.989 49.2287 157.32 48.9702C157.655 48.7083 158.019 48.526 158.414 48.4233C158.811 48.3172 159.203 48.2642 159.587 48.2642C159.832 48.2642 160.114 48.294 160.432 48.3537C160.754 48.41 161.064 48.5277 161.362 48.7067C161.663 48.8857 161.914 49.1558 162.113 49.517C162.311 49.8783 162.411 50.3622 162.411 50.9688V56H161.238V54.9659H161.178C161.098 55.1316 160.966 55.3089 160.78 55.4979C160.595 55.6868 160.348 55.8475 160.039 55.9801C159.731 56.1127 159.355 56.179 158.911 56.179ZM159.09 55.125C159.554 55.125 159.945 55.0339 160.263 54.8516C160.585 54.6693 160.827 54.4339 160.989 54.1456C161.155 53.8572 161.238 53.554 161.238 53.2358V52.1619C161.188 52.2216 161.078 52.2763 160.909 52.326C160.744 52.3724 160.551 52.4138 160.333 52.4503C160.117 52.4834 159.907 52.5133 159.701 52.5398C159.499 52.563 159.335 52.5829 159.209 52.5994C158.904 52.6392 158.619 52.7038 158.354 52.7933C158.092 52.8795 157.88 53.0104 157.718 53.1861C157.559 53.3584 157.479 53.5937 157.479 53.892C157.479 54.2997 157.63 54.608 157.931 54.8168C158.236 55.0223 158.623 55.125 159.09 55.125ZM165.726 51.4062V56H164.552V48.3636H165.686V49.5568H165.785C165.964 49.169 166.236 48.8575 166.601 48.6222C166.965 48.3835 167.436 48.2642 168.013 48.2642C168.53 48.2642 168.982 48.3703 169.37 48.5824C169.758 48.7912 170.059 49.1094 170.275 49.5369C170.49 49.9612 170.598 50.4981 170.598 51.1477V56H169.425V51.2273C169.425 50.6274 169.269 50.16 168.957 49.8253C168.646 49.4872 168.218 49.3182 167.675 49.3182C167.3 49.3182 166.965 49.3994 166.67 49.5618C166.379 49.7242 166.148 49.9612 165.979 50.2727C165.81 50.5843 165.726 50.9621 165.726 51.4062ZM173.915 51.4062V56H172.742V48.3636H173.875V49.5568H173.975C174.154 49.169 174.426 48.8575 174.79 48.6222C175.155 48.3835 175.625 48.2642 176.202 48.2642C176.719 48.2642 177.172 48.3703 177.559 48.5824C177.947 48.7912 178.249 49.1094 178.464 49.5369C178.68 49.9612 178.787 50.4981 178.787 51.1477V56H177.614V51.2273C177.614 50.6274 177.458 50.16 177.147 49.8253C176.835 49.4872 176.408 49.3182 175.864 49.3182C175.489 49.3182 175.155 49.3994 174.86 49.5618C174.568 49.7242 174.338 49.9612 174.169 50.2727C174 50.5843 173.915 50.9621 173.915 51.4062ZM184.034 56.1591C183.344 56.1591 182.739 55.995 182.219 55.6669C181.702 55.3388 181.298 54.8797 181.006 54.2898C180.718 53.6998 180.573 53.0104 180.573 52.2216C180.573 51.4261 180.718 50.7318 181.006 50.1385C181.298 49.5452 181.702 49.0845 182.219 48.7564C182.739 48.4283 183.344 48.2642 184.034 48.2642C184.723 48.2642 185.326 48.4283 185.843 48.7564C186.364 49.0845 186.768 49.5452 187.056 50.1385C187.348 50.7318 187.494 51.4261 187.494 52.2216C187.494 53.0104 187.348 53.6998 187.056 54.2898C186.768 54.8797 186.364 55.3388 185.843 55.6669C185.326 55.995 184.723 56.1591 184.034 56.1591ZM184.034 55.1051C184.557 55.1051 184.988 54.9709 185.326 54.7024C185.664 54.4339 185.914 54.081 186.077 53.6435C186.239 53.206 186.32 52.732 186.32 52.2216C186.32 51.7112 186.239 51.2356 186.077 50.7947C185.914 50.3539 185.664 49.9976 185.326 49.7259C184.988 49.4541 184.557 49.3182 184.034 49.3182C183.51 49.3182 183.079 49.4541 182.741 49.7259C182.403 49.9976 182.153 50.3539 181.99 50.7947C181.828 51.2356 181.747 51.7112 181.747 52.2216C181.747 52.732 181.828 53.206 181.99 53.6435C182.153 54.081 182.403 54.4339 182.741 54.7024C183.079 54.9709 183.51 55.1051 184.034 55.1051ZM194.097 52.8778V48.3636H195.271V56H194.097V54.7074H194.018C193.839 55.0952 193.56 55.425 193.183 55.6967C192.805 55.9652 192.327 56.0994 191.751 56.0994C191.273 56.0994 190.849 55.995 190.478 55.7862C190.107 55.5741 189.815 55.2559 189.603 54.8317C189.391 54.4041 189.285 53.8655 189.285 53.2159V48.3636H190.458V53.1364C190.458 53.6932 190.614 54.1373 190.925 54.4688C191.24 54.8002 191.641 54.9659 192.129 54.9659C192.42 54.9659 192.717 54.8913 193.018 54.7422C193.323 54.593 193.579 54.3643 193.784 54.0561C193.993 53.7479 194.097 53.3551 194.097 52.8778ZM198.593 51.4062V56H197.42V48.3636H198.553V49.5568H198.653C198.831 49.169 199.103 48.8575 199.468 48.6222C199.832 48.3835 200.303 48.2642 200.88 48.2642C201.397 48.2642 201.849 48.3703 202.237 48.5824C202.625 48.7912 202.926 49.1094 203.142 49.5369C203.357 49.9612 203.465 50.4981 203.465 51.1477V56H202.292V51.2273C202.292 50.6274 202.136 50.16 201.824 49.8253C201.513 49.4872 201.085 49.3182 200.542 49.3182C200.167 49.3182 199.832 49.3994 199.537 49.5618C199.246 49.7242 199.015 49.9612 198.846 50.2727C198.677 50.5843 198.593 50.9621 198.593 51.4062ZM208.711 56.1591C207.995 56.1591 207.379 55.9901 206.862 55.652C206.345 55.3139 205.947 54.8482 205.669 54.255C205.39 53.6617 205.251 52.9839 205.251 52.2216C205.251 51.446 205.394 50.7616 205.679 50.1683C205.967 49.5717 206.368 49.1061 206.882 48.7713C207.399 48.4332 208.002 48.2642 208.691 48.2642C209.228 48.2642 209.712 48.3636 210.143 48.5625C210.574 48.7614 210.927 49.0398 211.202 49.3977C211.477 49.7557 211.648 50.1733 211.714 50.6506H210.541C210.451 50.3026 210.252 49.9943 209.944 49.7259C209.639 49.4541 209.228 49.3182 208.711 49.3182C208.254 49.3182 207.853 49.4375 207.508 49.6761C207.167 49.9115 206.9 50.2446 206.708 50.6754C206.519 51.103 206.424 51.6051 206.424 52.1818C206.424 52.7718 206.517 53.2855 206.703 53.723C206.892 54.1605 207.157 54.5002 207.498 54.7422C207.843 54.9841 208.247 55.1051 208.711 55.1051C209.016 55.1051 209.293 55.0521 209.542 54.946C209.79 54.84 210.001 54.6875 210.173 54.4886C210.345 54.2898 210.468 54.0511 210.541 53.7727H211.714C211.648 54.2235 211.484 54.6295 211.222 54.9908C210.963 55.3487 210.62 55.6338 210.193 55.8459C209.769 56.0547 209.275 56.1591 208.711 56.1591ZM216.631 56.1591C215.895 56.1591 215.261 55.9967 214.727 55.6719C214.197 55.3438 213.787 54.8864 213.499 54.2997C213.214 53.7098 213.071 53.0237 213.071 52.2415C213.071 51.4593 213.214 50.7699 213.499 50.1733C213.787 49.5734 214.188 49.1061 214.702 48.7713C215.219 48.4332 215.822 48.2642 216.512 48.2642C216.909 48.2642 217.302 48.3305 217.69 48.4631C218.078 48.5956 218.431 48.8111 218.749 49.1094C219.067 49.4044 219.321 49.7955 219.51 50.2827C219.699 50.7699 219.793 51.3698 219.793 52.0824V52.5795H213.907V51.5653H218.6C218.6 51.1345 218.514 50.75 218.341 50.4119C218.172 50.0739 217.93 49.8071 217.615 49.6115C217.304 49.416 216.936 49.3182 216.512 49.3182C216.044 49.3182 215.64 49.4342 215.299 49.6662C214.961 49.8949 214.7 50.1932 214.518 50.5611C214.336 50.929 214.245 51.3234 214.245 51.7443V52.4205C214.245 52.9972 214.344 53.486 214.543 53.8871C214.745 54.2848 215.025 54.5881 215.383 54.7969C215.741 55.0024 216.157 55.1051 216.631 55.1051C216.939 55.1051 217.218 55.062 217.466 54.9759C217.718 54.8864 217.935 54.7538 218.118 54.5781C218.3 54.3991 218.441 54.1771 218.54 53.9119L219.674 54.2301C219.554 54.6146 219.354 54.9527 219.072 55.2443C218.79 55.5327 218.442 55.758 218.028 55.9205C217.614 56.0795 217.148 56.1591 216.631 56.1591ZM228.836 48.3636V49.358H224.879V48.3636H228.836ZM226.032 46.5341H227.206V53.8125C227.206 54.1439 227.254 54.3925 227.35 54.5582C227.449 54.7206 227.575 54.83 227.728 54.8864C227.883 54.9394 228.047 54.9659 228.22 54.9659C228.349 54.9659 228.455 54.9593 228.538 54.946C228.621 54.9295 228.687 54.9162 228.737 54.9062L228.975 55.9602C228.896 55.9901 228.785 56.0199 228.642 56.0497C228.5 56.0829 228.319 56.0994 228.1 56.0994C227.769 56.0994 227.444 56.0282 227.126 55.8857C226.811 55.7431 226.549 55.526 226.341 55.2344C226.135 54.9427 226.032 54.5748 226.032 54.1307V46.5341ZM231.939 51.4062V56H230.765V45.8182H231.939V49.5568H232.038C232.217 49.1624 232.485 48.8492 232.843 48.6172C233.205 48.3819 233.685 48.2642 234.285 48.2642C234.806 48.2642 235.261 48.3686 235.652 48.5774C236.043 48.7829 236.347 49.0994 236.562 49.527C236.781 49.9512 236.89 50.4915 236.89 51.1477V56H235.717V51.2273C235.717 50.6207 235.56 50.1518 235.245 49.8203C234.933 49.4856 234.501 49.3182 233.947 49.3182C233.563 49.3182 233.218 49.3994 232.913 49.5618C232.611 49.7242 232.373 49.9612 232.197 50.2727C232.025 50.5843 231.939 50.9621 231.939 51.4062ZM241.284 56.179C240.8 56.179 240.361 56.0878 239.966 55.9055C239.572 55.7199 239.259 55.4531 239.027 55.1051C238.795 54.7538 238.679 54.3295 238.679 53.8324C238.679 53.3949 238.765 53.0402 238.937 52.7685C239.11 52.4934 239.34 52.2779 239.628 52.1222C239.917 51.9664 240.235 51.8504 240.583 51.7741C240.934 51.6946 241.287 51.6316 241.642 51.5852C242.106 51.5256 242.482 51.4808 242.77 51.451C243.062 51.4179 243.274 51.3632 243.407 51.2869C243.543 51.2107 243.611 51.0781 243.611 50.8892V50.8494C243.611 50.3589 243.476 49.9777 243.208 49.706C242.943 49.4342 242.54 49.2983 242 49.2983C241.44 49.2983 241.001 49.4209 240.682 49.6662C240.364 49.9115 240.14 50.1733 240.011 50.4517L238.898 50.054C239.096 49.59 239.362 49.2287 239.693 48.9702C240.028 48.7083 240.392 48.526 240.787 48.4233C241.184 48.3172 241.576 48.2642 241.96 48.2642C242.205 48.2642 242.487 48.294 242.805 48.3537C243.127 48.41 243.437 48.5277 243.735 48.7067C244.037 48.8857 244.287 49.1558 244.486 49.517C244.684 49.8783 244.784 50.3622 244.784 50.9688V56H243.611V54.9659H243.551C243.471 55.1316 243.339 55.3089 243.153 55.4979C242.968 55.6868 242.721 55.8475 242.412 55.9801C242.104 56.1127 241.728 56.179 241.284 56.179ZM241.463 55.125C241.927 55.125 242.318 55.0339 242.636 54.8516C242.958 54.6693 243.2 54.4339 243.362 54.1456C243.528 53.8572 243.611 53.554 243.611 53.2358V52.1619C243.561 52.2216 243.452 52.2763 243.282 52.326C243.117 52.3724 242.925 52.4138 242.706 52.4503C242.49 52.4834 242.28 52.5133 242.074 52.5398C241.872 52.563 241.708 52.5829 241.582 52.5994C241.277 52.6392 240.992 52.7038 240.727 52.7933C240.465 52.8795 240.253 53.0104 240.091 53.1861C239.932 53.3584 239.852 53.5937 239.852 53.892C239.852 54.2997 240.003 54.608 240.305 54.8168C240.609 55.0223 240.996 55.125 241.463 55.125ZM250.246 48.3636V49.358H246.289V48.3636H250.246ZM247.442 46.5341H248.616V53.8125C248.616 54.1439 248.664 54.3925 248.76 54.5582C248.859 54.7206 248.985 54.83 249.138 54.8864C249.294 54.9394 249.458 54.9659 249.63 54.9659C249.759 54.9659 249.865 54.9593 249.948 54.946C250.031 54.9295 250.097 54.9162 250.147 54.9062L250.386 55.9602C250.306 55.9901 250.195 56.0199 250.053 56.0497C249.91 56.0829 249.729 56.0994 249.511 56.0994C249.179 56.0994 248.854 56.0282 248.536 55.8857C248.221 55.7431 247.96 55.526 247.751 55.2344C247.545 54.9427 247.442 54.5748 247.442 54.1307V46.5341ZM257.679 56L255.352 48.3636H256.585L258.236 54.2102H258.315L259.946 48.3636H261.199L262.81 54.1903H262.889L264.54 48.3636H265.773L263.446 56H262.293L260.622 50.1335H260.503L258.832 56H257.679ZM270.266 56.1591C269.53 56.1591 268.895 55.9967 268.362 55.6719C267.831 55.3438 267.422 54.8864 267.134 54.2997C266.849 53.7098 266.706 53.0237 266.706 52.2415C266.706 51.4593 266.849 50.7699 267.134 50.1733C267.422 49.5734 267.823 49.1061 268.337 48.7713C268.854 48.4332 269.457 48.2642 270.146 48.2642C270.544 48.2642 270.937 48.3305 271.325 48.4631C271.713 48.5956 272.066 48.8111 272.384 49.1094C272.702 49.4044 272.955 49.7955 273.144 50.2827C273.333 50.7699 273.428 51.3698 273.428 52.0824V52.5795H267.541V51.5653H272.235C272.235 51.1345 272.148 50.75 271.976 50.4119C271.807 50.0739 271.565 49.8071 271.25 49.6115C270.939 49.416 270.571 49.3182 270.146 49.3182C269.679 49.3182 269.275 49.4342 268.933 49.6662C268.595 49.8949 268.335 50.1932 268.153 50.5611C267.971 50.929 267.879 51.3234 267.879 51.7443V52.4205C267.879 52.9972 267.979 53.486 268.178 53.8871C268.38 54.2848 268.66 54.5881 269.018 54.7969C269.376 55.0024 269.792 55.1051 270.266 55.1051C270.574 55.1051 270.852 55.062 271.101 54.9759C271.353 54.8864 271.57 54.7538 271.752 54.5781C271.935 54.3991 272.075 54.1771 272.175 53.9119L273.308 54.2301C273.189 54.6146 272.989 54.9527 272.707 55.2443C272.425 55.5327 272.077 55.758 271.663 55.9205C271.249 56.0795 270.783 56.1591 270.266 56.1591ZM281.397 56.179C280.913 56.179 280.474 56.0878 280.08 55.9055C279.685 55.7199 279.372 55.4531 279.14 55.1051C278.908 54.7538 278.792 54.3295 278.792 53.8324C278.792 53.3949 278.878 53.0402 279.051 52.7685C279.223 52.4934 279.453 52.2779 279.742 52.1222C280.03 51.9664 280.348 51.8504 280.696 51.7741C281.048 51.6946 281.401 51.6316 281.755 51.5852C282.219 51.5256 282.595 51.4808 282.884 51.451C283.175 51.4179 283.387 51.3632 283.52 51.2869C283.656 51.2107 283.724 51.0781 283.724 50.8892V50.8494C283.724 50.3589 283.59 49.9777 283.321 49.706C283.056 49.4342 282.653 49.2983 282.113 49.2983C281.553 49.2983 281.114 49.4209 280.796 49.6662C280.477 49.9115 280.254 50.1733 280.124 50.4517L279.011 50.054C279.21 49.59 279.475 49.2287 279.806 48.9702C280.141 48.7083 280.506 48.526 280.9 48.4233C281.298 48.3172 281.689 48.2642 282.073 48.2642C282.319 48.2642 282.6 48.294 282.919 48.3537C283.24 48.41 283.55 48.5277 283.848 48.7067C284.15 48.8857 284.4 49.1558 284.599 49.517C284.798 49.8783 284.897 50.3622 284.897 50.9688V56H283.724V54.9659H283.664C283.585 55.1316 283.452 55.3089 283.267 55.4979C283.081 55.6868 282.834 55.8475 282.526 55.9801C282.218 56.1127 281.841 56.179 281.397 56.179ZM281.576 55.125C282.04 55.125 282.431 55.0339 282.749 54.8516C283.071 54.6693 283.313 54.4339 283.475 54.1456C283.641 53.8572 283.724 53.554 283.724 53.2358V52.1619C283.674 52.2216 283.565 52.2763 283.396 52.326C283.23 52.3724 283.038 52.4138 282.819 52.4503C282.604 52.4834 282.393 52.5133 282.188 52.5398C281.985 52.563 281.821 52.5829 281.695 52.5994C281.391 52.6392 281.106 52.7038 280.84 52.7933C280.579 52.8795 280.366 53.0104 280.204 53.1861C280.045 53.3584 279.965 53.5937 279.965 53.892C279.965 54.2997 280.116 54.608 280.418 54.8168C280.723 55.0223 281.109 55.125 281.576 55.125ZM287.039 56V48.3636H288.172V49.517H288.252C288.391 49.1392 288.643 48.8326 289.007 48.5973C289.372 48.362 289.783 48.2443 290.24 48.2443C290.327 48.2443 290.434 48.246 290.564 48.2493C290.693 48.2526 290.791 48.2576 290.857 48.2642V49.4574C290.817 49.4474 290.726 49.4325 290.583 49.4126C290.444 49.3894 290.297 49.3778 290.141 49.3778C289.77 49.3778 289.438 49.4557 289.147 49.6115C288.858 49.764 288.63 49.9761 288.461 50.2479C288.295 50.5163 288.212 50.8229 288.212 51.1676V56H287.039ZM295.217 56.1591C294.481 56.1591 293.846 55.9967 293.313 55.6719C292.783 55.3438 292.373 54.8864 292.085 54.2997C291.8 53.7098 291.657 53.0237 291.657 52.2415C291.657 51.4593 291.8 50.7699 292.085 50.1733C292.373 49.5734 292.774 49.1061 293.288 48.7713C293.805 48.4332 294.408 48.2642 295.098 48.2642C295.495 48.2642 295.888 48.3305 296.276 48.4631C296.664 48.5956 297.017 48.8111 297.335 49.1094C297.653 49.4044 297.907 49.7955 298.096 50.2827C298.284 50.7699 298.379 51.3698 298.379 52.0824V52.5795H292.493V51.5653H297.186C297.186 51.1345 297.1 50.75 296.927 50.4119C296.758 50.0739 296.516 49.8071 296.201 49.6115C295.89 49.416 295.522 49.3182 295.098 49.3182C294.63 49.3182 294.226 49.4342 293.885 49.6662C293.547 49.8949 293.286 50.1932 293.104 50.5611C292.922 50.929 292.831 51.3234 292.831 51.7443V52.4205C292.831 52.9972 292.93 53.486 293.129 53.8871C293.331 54.2848 293.611 54.5881 293.969 54.7969C294.327 55.0024 294.743 55.1051 295.217 55.1051C295.525 55.1051 295.804 55.062 296.052 54.9759C296.304 54.8864 296.521 54.7538 296.703 54.5781C296.886 54.3991 297.027 54.1771 297.126 53.9119L298.26 54.2301C298.14 54.6146 297.94 54.9527 297.658 55.2443C297.376 55.5327 297.028 55.758 296.614 55.9205C296.2 56.0795 295.734 56.1591 295.217 56.1591ZM307.184 59.0227C306.617 59.0227 306.13 58.9498 305.722 58.804C305.314 58.6615 304.975 58.4725 304.703 58.2372C304.434 58.0052 304.221 57.7566 304.061 57.4915L304.996 56.8352C305.102 56.9744 305.236 57.1335 305.399 57.3125C305.561 57.4948 305.783 57.6522 306.065 57.7848C306.35 57.9207 306.723 57.9886 307.184 57.9886C307.8 57.9886 308.309 57.8395 308.71 57.5412C309.111 57.2429 309.311 56.7756 309.311 56.1392V54.5881H309.212C309.126 54.7273 309.003 54.8996 308.844 55.1051C308.688 55.3073 308.463 55.4879 308.168 55.647C307.876 55.8028 307.482 55.8807 306.985 55.8807C306.368 55.8807 305.815 55.7348 305.324 55.4432C304.837 55.1515 304.451 54.7273 304.166 54.1705C303.884 53.6136 303.743 52.9375 303.743 52.142C303.743 51.3598 303.881 50.6787 304.156 50.0987C304.431 49.5154 304.814 49.0646 305.304 48.7464C305.795 48.425 306.362 48.2642 307.005 48.2642C307.502 48.2642 307.896 48.3471 308.188 48.5128C308.483 48.6752 308.708 48.8608 308.864 49.0696C309.023 49.2751 309.146 49.4441 309.232 49.5767H309.351V48.3636H310.485V56.2188C310.485 56.875 310.336 57.4086 310.037 57.8196C309.742 58.2339 309.345 58.5372 308.844 58.7294C308.347 58.925 307.793 59.0227 307.184 59.0227ZM307.144 54.8267C307.614 54.8267 308.012 54.719 308.337 54.5036C308.662 54.2881 308.909 53.9782 309.078 53.5739C309.247 53.1695 309.331 52.6856 309.331 52.1222C309.331 51.572 309.248 51.0864 309.083 50.6655C308.917 50.2446 308.672 49.9148 308.347 49.6761C308.022 49.4375 307.621 49.3182 307.144 49.3182C306.647 49.3182 306.232 49.4441 305.901 49.696C305.573 49.9479 305.326 50.286 305.16 50.7102C304.998 51.1345 304.917 51.6051 304.917 52.1222C304.917 52.6525 304.999 53.1214 305.165 53.5291C305.334 53.9335 305.583 54.2517 305.911 54.4837C306.242 54.7124 306.653 54.8267 307.144 54.8267ZM315.735 56.1591C315.045 56.1591 314.44 55.995 313.92 55.6669C313.403 55.3388 312.999 54.8797 312.707 54.2898C312.419 53.6998 312.275 53.0104 312.275 52.2216C312.275 51.4261 312.419 50.7318 312.707 50.1385C312.999 49.5452 313.403 49.0845 313.92 48.7564C314.44 48.4283 315.045 48.2642 315.735 48.2642C316.424 48.2642 317.027 48.4283 317.544 48.7564C318.065 49.0845 318.469 49.5452 318.757 50.1385C319.049 50.7318 319.195 51.4261 319.195 52.2216C319.195 53.0104 319.049 53.6998 318.757 54.2898C318.469 54.8797 318.065 55.3388 317.544 55.6669C317.027 55.995 316.424 56.1591 315.735 56.1591ZM315.735 55.1051C316.258 55.1051 316.689 54.9709 317.027 54.7024C317.365 54.4339 317.616 54.081 317.778 53.6435C317.94 53.206 318.022 52.732 318.022 52.2216C318.022 51.7112 317.94 51.2356 317.778 50.7947C317.616 50.3539 317.365 49.9976 317.027 49.7259C316.689 49.4541 316.258 49.3182 315.735 49.3182C315.211 49.3182 314.78 49.4541 314.442 49.7259C314.104 49.9976 313.854 50.3539 313.691 50.7947C313.529 51.2356 313.448 51.7112 313.448 52.2216C313.448 52.732 313.529 53.206 313.691 53.6435C313.854 54.081 314.104 54.4339 314.442 54.7024C314.78 54.9709 315.211 55.1051 315.735 55.1051ZM320.986 56V48.3636H322.159V56H320.986ZM321.583 47.0909C321.354 47.0909 321.157 47.013 320.991 46.8572C320.829 46.7015 320.747 46.5142 320.747 46.2955C320.747 46.0767 320.829 45.8894 320.991 45.7337C321.157 45.5779 321.354 45.5 321.583 45.5C321.811 45.5 322.007 45.5779 322.169 45.7337C322.335 45.8894 322.418 46.0767 322.418 46.2955C322.418 46.5142 322.335 46.7015 322.169 46.8572C322.007 47.013 321.811 47.0909 321.583 47.0909ZM325.482 51.4062V56H324.308V48.3636H325.442V49.5568H325.541C325.72 49.169 325.992 48.8575 326.357 48.6222C326.721 48.3835 327.192 48.2642 327.768 48.2642C328.286 48.2642 328.738 48.3703 329.126 48.5824C329.513 48.7912 329.815 49.1094 330.031 49.5369C330.246 49.9612 330.354 50.4981 330.354 51.1477V56H329.18V51.2273C329.18 50.6274 329.025 50.16 328.713 49.8253C328.402 49.4872 327.974 49.3182 327.43 49.3182C327.056 49.3182 326.721 49.3994 326.426 49.5618C326.134 49.7242 325.904 49.9612 325.735 50.2727C325.566 50.5843 325.482 50.9621 325.482 51.4062ZM335.58 59.0227C335.013 59.0227 334.526 58.9498 334.118 58.804C333.711 58.6615 333.371 58.4725 333.099 58.2372C332.831 58.0052 332.617 57.7566 332.458 57.4915L333.393 56.8352C333.499 56.9744 333.633 57.1335 333.795 57.3125C333.958 57.4948 334.18 57.6522 334.461 57.7848C334.747 57.9207 335.119 57.9886 335.58 57.9886C336.197 57.9886 336.705 57.8395 337.106 57.5412C337.507 57.2429 337.708 56.7756 337.708 56.1392V54.5881H337.608C337.522 54.7273 337.4 54.8996 337.241 55.1051C337.085 55.3073 336.859 55.4879 336.564 55.647C336.273 55.8028 335.878 55.8807 335.381 55.8807C334.765 55.8807 334.211 55.7348 333.721 55.4432C333.233 55.1515 332.847 54.7273 332.562 54.1705C332.281 53.6136 332.14 52.9375 332.14 52.142C332.14 51.3598 332.277 50.6787 332.552 50.0987C332.827 49.5154 333.21 49.0646 333.701 48.7464C334.191 48.425 334.758 48.2642 335.401 48.2642C335.898 48.2642 336.293 48.3471 336.584 48.5128C336.879 48.6752 337.105 48.8608 337.26 49.0696C337.42 49.2751 337.542 49.4441 337.628 49.5767H337.748V48.3636H338.881V56.2188C338.881 56.875 338.732 57.4086 338.434 57.8196C338.139 58.2339 337.741 58.5372 337.241 58.7294C336.743 58.925 336.19 59.0227 335.58 59.0227ZM335.54 54.8267C336.011 54.8267 336.409 54.719 336.733 54.5036C337.058 54.2881 337.305 53.9782 337.474 53.5739C337.643 53.1695 337.728 52.6856 337.728 52.1222C337.728 51.572 337.645 51.0864 337.479 50.6655C337.314 50.2446 337.068 49.9148 336.743 49.6761C336.419 49.4375 336.018 49.3182 335.54 49.3182C335.043 49.3182 334.629 49.4441 334.297 49.696C333.969 49.9479 333.722 50.286 333.557 50.7102C333.394 51.1345 333.313 51.6051 333.313 52.1222C333.313 52.6525 333.396 53.1214 333.562 53.5291C333.731 53.9335 333.979 54.2517 334.307 54.4837C334.639 54.7124 335.05 54.8267 335.54 54.8267ZM346.14 45.8182V56H344.966V45.8182H346.14ZM348.289 56V48.3636H349.462V56H348.289ZM348.885 47.0909C348.657 47.0909 348.459 47.013 348.294 46.8572C348.131 46.7015 348.05 46.5142 348.05 46.2955C348.05 46.0767 348.131 45.8894 348.294 45.7337C348.459 45.5779 348.657 45.5 348.885 45.5C349.114 45.5 349.31 45.5779 349.472 45.7337C349.638 45.8894 349.721 46.0767 349.721 46.2955C349.721 46.5142 349.638 46.7015 349.472 46.8572C349.31 47.013 349.114 47.0909 348.885 47.0909ZM357.855 48.3636L355.031 56H353.838L351.014 48.3636H352.287L354.395 54.4489H354.475L356.583 48.3636H357.855ZM362.332 56.1591C361.596 56.1591 360.962 55.9967 360.428 55.6719C359.898 55.3438 359.488 54.8864 359.2 54.2997C358.915 53.7098 358.773 53.0237 358.773 52.2415C358.773 51.4593 358.915 50.7699 359.2 50.1733C359.488 49.5734 359.89 49.1061 360.403 48.7713C360.92 48.4332 361.523 48.2642 362.213 48.2642C362.611 48.2642 363.003 48.3305 363.391 48.4631C363.779 48.5956 364.132 48.8111 364.45 49.1094C364.768 49.4044 365.022 49.7955 365.211 50.2827C365.4 50.7699 365.494 51.3698 365.494 52.0824V52.5795H359.608V51.5653H364.301C364.301 51.1345 364.215 50.75 364.042 50.4119C363.873 50.0739 363.631 49.8071 363.317 49.6115C363.005 49.416 362.637 49.3182 362.213 49.3182C361.746 49.3182 361.341 49.4342 361 49.6662C360.662 49.8949 360.402 50.1932 360.219 50.5611C360.037 50.929 359.946 51.3234 359.946 51.7443V52.4205C359.946 52.9972 360.045 53.486 360.244 53.8871C360.446 54.2848 360.726 54.5881 361.084 54.7969C361.442 55.0024 361.858 55.1051 362.332 55.1051C362.64 55.1051 362.919 55.062 363.167 54.9759C363.419 54.8864 363.636 54.7538 363.819 54.5781C364.001 54.3991 364.142 54.1771 364.241 53.9119L365.375 54.2301C365.256 54.6146 365.055 54.9527 364.773 55.2443C364.492 55.5327 364.144 55.758 363.729 55.9205C363.315 56.0795 362.849 56.1591 362.332 56.1591ZM374.319 56.1591C373.629 56.1591 373.024 55.995 372.504 55.6669C371.987 55.3388 371.583 54.8797 371.291 54.2898C371.003 53.6998 370.858 53.0104 370.858 52.2216C370.858 51.4261 371.003 50.7318 371.291 50.1385C371.583 49.5452 371.987 49.0845 372.504 48.7564C373.024 48.4283 373.629 48.2642 374.319 48.2642C375.008 48.2642 375.611 48.4283 376.128 48.7564C376.649 49.0845 377.053 49.5452 377.341 50.1385C377.633 50.7318 377.779 51.4261 377.779 52.2216C377.779 53.0104 377.633 53.6998 377.341 54.2898C377.053 54.8797 376.649 55.3388 376.128 55.6669C375.611 55.995 375.008 56.1591 374.319 56.1591ZM374.319 55.1051C374.842 55.1051 375.273 54.9709 375.611 54.7024C375.949 54.4339 376.2 54.081 376.362 53.6435C376.524 53.206 376.606 52.732 376.606 52.2216C376.606 51.7112 376.524 51.2356 376.362 50.7947C376.2 50.3539 375.949 49.9976 375.611 49.7259C375.273 49.4541 374.842 49.3182 374.319 49.3182C373.795 49.3182 373.364 49.4541 373.026 49.7259C372.688 49.9976 372.438 50.3539 372.275 50.7947C372.113 51.2356 372.032 51.7112 372.032 52.2216C372.032 52.732 372.113 53.206 372.275 53.6435C372.438 54.081 372.688 54.4339 373.026 54.7024C373.364 54.9709 373.795 55.1051 374.319 55.1051ZM380.743 51.4062V56H379.57V48.3636H380.703V49.5568H380.803C380.982 49.169 381.254 48.8575 381.618 48.6222C381.983 48.3835 382.453 48.2642 383.03 48.2642C383.547 48.2642 384 48.3703 384.387 48.5824C384.775 48.7912 385.077 49.1094 385.292 49.5369C385.508 49.9612 385.615 50.4981 385.615 51.1477V56H384.442V51.2273C384.442 50.6274 384.286 50.16 383.975 49.8253C383.663 49.4872 383.236 49.3182 382.692 49.3182C382.318 49.3182 381.983 49.3994 381.688 49.5618C381.396 49.7242 381.166 49.9612 380.997 50.2727C380.828 50.5843 380.743 50.9621 380.743 51.4062ZM395.754 45.8182H396.987V53.0966C396.987 53.7462 396.867 54.2981 396.629 54.7521C396.39 55.2062 396.054 55.5509 395.619 55.7862C395.185 56.0215 394.673 56.1392 394.083 56.1392C393.526 56.1392 393.031 56.0381 392.597 55.8359C392.163 55.6304 391.821 55.3388 391.573 54.9609C391.324 54.5831 391.2 54.134 391.2 53.6136H392.413C392.413 53.902 392.484 54.1539 392.627 54.3693C392.772 54.5814 392.971 54.7472 393.223 54.8665C393.475 54.9858 393.762 55.0455 394.083 55.0455C394.438 55.0455 394.74 54.9709 394.988 54.8217C395.237 54.6726 395.426 54.4538 395.555 54.1655C395.687 53.8738 395.754 53.5175 395.754 53.0966V45.8182ZM404.111 52.8778V48.3636H405.284V56H404.111V54.7074H404.031C403.852 55.0952 403.574 55.425 403.196 55.6967C402.818 55.9652 402.341 56.0994 401.764 56.0994C401.287 56.0994 400.863 55.995 400.492 55.7862C400.12 55.5741 399.829 55.2559 399.617 54.8317C399.405 54.4041 399.298 53.8655 399.298 53.2159V48.3636H400.472V53.1364C400.472 53.6932 400.628 54.1373 400.939 54.4688C401.254 54.8002 401.655 54.9659 402.142 54.9659C402.434 54.9659 402.731 54.8913 403.032 54.7422C403.337 54.593 403.592 54.3643 403.798 54.0561C404.007 53.7479 404.111 53.3551 404.111 52.8778ZM408.607 45.8182V56H407.433V45.8182H408.607ZM411.511 58.8636C411.312 58.8636 411.135 58.8471 410.979 58.8139C410.823 58.7841 410.716 58.7543 410.656 58.7244L410.954 57.6903C411.239 57.7633 411.491 57.7898 411.71 57.7699C411.929 57.75 412.123 57.6522 412.292 57.4766C412.464 57.3042 412.622 57.0241 412.764 56.6364L412.983 56.0398L410.159 48.3636H411.432L413.54 54.4489H413.619L415.727 48.3636H417L413.758 57.1136C413.613 57.508 413.432 57.8345 413.216 58.093C413.001 58.3549 412.751 58.5488 412.466 58.6747C412.184 58.8007 411.866 58.8636 411.511 58.8636ZM422.466 56V55.1051L425.827 51.4261C426.221 50.9953 426.546 50.6207 426.801 50.3026C427.057 49.9811 427.245 49.6795 427.368 49.3977C427.494 49.1127 427.557 48.8144 427.557 48.5028C427.557 48.1449 427.471 47.835 427.298 47.5732C427.129 47.3113 426.897 47.1091 426.602 46.9666C426.307 46.8241 425.976 46.7528 425.608 46.7528C425.217 46.7528 424.876 46.834 424.584 46.9964C424.296 47.1555 424.072 47.3793 423.913 47.6676C423.757 47.956 423.679 48.294 423.679 48.6818H422.506C422.506 48.0852 422.643 47.5616 422.919 47.1108C423.194 46.66 423.568 46.3087 424.042 46.0568C424.519 45.8049 425.055 45.679 425.648 45.679C426.244 45.679 426.773 45.8049 427.234 46.0568C427.695 46.3087 428.056 46.6484 428.318 47.076C428.579 47.5036 428.71 47.9792 428.71 48.5028C428.71 48.8774 428.642 49.2436 428.507 49.6016C428.374 49.9562 428.142 50.3523 427.811 50.7898C427.482 51.224 427.027 51.7543 426.443 52.3807L424.156 54.8267V54.9062H428.889V56H422.466ZM434.204 56.1392C433.521 56.1392 432.918 56.0182 432.394 55.7763C431.874 55.531 431.468 55.1946 431.176 54.767C430.885 54.3362 430.74 53.8456 430.744 53.2955C430.74 52.8646 430.825 52.4669 430.997 52.1023C431.17 51.7344 431.405 51.4278 431.703 51.1825C432.005 50.9339 432.341 50.7765 432.713 50.7102V50.6506C432.225 50.5246 431.838 50.2512 431.549 49.8303C431.261 49.406 431.118 48.9238 431.122 48.3835C431.118 47.8665 431.249 47.4041 431.514 46.9964C431.78 46.5888 432.144 46.2673 432.608 46.032C433.075 45.7966 433.607 45.679 434.204 45.679C434.794 45.679 435.321 45.7966 435.785 46.032C436.249 46.2673 436.614 46.5888 436.879 46.9964C437.147 47.4041 437.283 47.8665 437.286 48.3835C437.283 48.9238 437.136 49.406 436.844 49.8303C436.556 50.2512 436.173 50.5246 435.695 50.6506V50.7102C436.063 50.7765 436.395 50.9339 436.69 51.1825C436.985 51.4278 437.22 51.7344 437.396 52.1023C437.571 52.4669 437.661 52.8646 437.664 53.2955C437.661 53.8456 437.512 54.3362 437.217 54.767C436.925 55.1946 436.519 55.531 435.999 55.7763C435.482 56.0182 434.883 56.1392 434.204 56.1392ZM434.204 55.0455C434.665 55.0455 435.062 54.9709 435.397 54.8217C435.732 54.6726 435.99 54.4621 436.173 54.1903C436.355 53.9186 436.448 53.6004 436.451 53.2358C436.448 52.8513 436.348 52.5116 436.153 52.2166C435.957 51.9216 435.691 51.6896 435.352 51.5206C435.018 51.3516 434.635 51.267 434.204 51.267C433.77 51.267 433.382 51.3516 433.041 51.5206C432.703 51.6896 432.436 51.9216 432.24 52.2166C432.048 52.5116 431.954 52.8513 431.957 53.2358C431.954 53.6004 432.041 53.9186 432.22 54.1903C432.403 54.4621 432.663 54.6726 433.001 54.8217C433.339 54.9709 433.74 55.0455 434.204 55.0455ZM434.204 50.2131C434.569 50.2131 434.892 50.1402 435.173 49.9943C435.459 49.8485 435.682 49.6446 435.845 49.3828C436.007 49.121 436.09 48.8144 436.093 48.4631C436.09 48.1184 436.009 47.8184 435.85 47.5632C435.691 47.3047 435.47 47.1058 435.188 46.9666C434.907 46.8241 434.579 46.7528 434.204 46.7528C433.823 46.7528 433.49 46.8241 433.205 46.9666C432.92 47.1058 432.699 47.3047 432.544 47.5632C432.388 47.8184 432.311 48.1184 432.315 48.4631C432.311 48.8144 432.389 49.121 432.548 49.3828C432.711 49.6446 432.935 49.8485 433.22 49.9943C433.505 50.1402 433.833 50.2131 434.204 50.2131ZM442.911 48.3636V49.358H438.953V48.3636H442.911ZM440.107 46.5341H441.28V53.8125C441.28 54.1439 441.328 54.3925 441.424 54.5582C441.523 54.7206 441.649 54.83 441.802 54.8864C441.958 54.9394 442.122 54.9659 442.294 54.9659C442.423 54.9659 442.529 54.9593 442.612 54.946C442.695 54.9295 442.761 54.9162 442.811 54.9062L443.05 55.9602C442.97 55.9901 442.859 56.0199 442.717 56.0497C442.574 56.0829 442.393 56.0994 442.175 56.0994C441.843 56.0994 441.518 56.0282 441.2 55.8857C440.885 55.7431 440.624 55.526 440.415 55.2344C440.209 54.9427 440.107 54.5748 440.107 54.1307V46.5341ZM446.013 51.4062V56H444.839V45.8182H446.013V49.5568H446.112C446.291 49.1624 446.56 48.8492 446.918 48.6172C447.279 48.3819 447.759 48.2642 448.359 48.2642C448.88 48.2642 449.335 48.3686 449.727 48.5774C450.118 48.7829 450.421 49.0994 450.636 49.527C450.855 49.9512 450.964 50.4915 450.964 51.1477V56H449.791V51.2273C449.791 50.6207 449.634 50.1518 449.319 49.8203C449.007 49.4856 448.575 49.3182 448.021 49.3182C447.637 49.3182 447.292 49.3994 446.987 49.5618C446.686 49.7242 446.447 49.9612 446.271 50.2727C446.099 50.5843 446.013 50.9621 446.013 51.4062ZM453.966 56.0795C453.721 56.0795 453.51 55.9917 453.335 55.8161C453.159 55.6404 453.071 55.4299 453.071 55.1847C453.071 54.9394 453.159 54.7289 453.335 54.5533C453.51 54.3776 453.721 54.2898 453.966 54.2898C454.211 54.2898 454.422 54.3776 454.597 54.5533C454.773 54.7289 454.861 54.9394 454.861 55.1847C454.861 55.3471 454.82 55.4962 454.737 55.6321C454.657 55.768 454.549 55.8774 454.414 55.9602C454.281 56.0398 454.132 56.0795 453.966 56.0795ZM468.023 49C467.914 48.6652 467.77 48.3653 467.591 48.1001C467.415 47.8317 467.205 47.603 466.959 47.4141C466.717 47.2251 466.442 47.081 466.134 46.9815C465.826 46.8821 465.488 46.8324 465.12 46.8324C464.517 46.8324 463.968 46.9882 463.474 47.2997C462.98 47.6113 462.588 48.0703 462.296 48.6768C462.004 49.2834 461.858 50.0275 461.858 50.9091C461.858 51.7907 462.006 52.5348 462.301 53.1413C462.596 53.7479 462.995 54.2069 463.499 54.5185C464.003 54.83 464.57 54.9858 465.199 54.9858C465.783 54.9858 466.296 54.8615 466.741 54.6129C467.188 54.361 467.536 54.0064 467.785 53.549C468.037 53.0883 468.162 52.5464 468.162 51.9233L468.54 52.0028H465.478V50.9091H469.356V52.0028C469.356 52.8414 469.177 53.5705 468.819 54.1903C468.464 54.8101 467.974 55.2907 467.347 55.6321C466.724 55.9702 466.008 56.1392 465.199 56.1392C464.298 56.1392 463.506 55.9271 462.823 55.5028C462.144 55.0786 461.613 54.4754 461.232 53.6932C460.854 52.911 460.665 51.983 460.665 50.9091C460.665 50.1037 460.773 49.3795 460.988 48.7365C461.207 48.0902 461.515 47.54 461.913 47.0859C462.311 46.6319 462.782 46.2839 463.325 46.0419C463.869 45.8 464.467 45.679 465.12 45.679C465.657 45.679 466.157 45.7602 466.621 45.9226C467.089 46.0817 467.505 46.3087 467.869 46.6037C468.237 46.8954 468.544 47.245 468.789 47.6527C469.034 48.0571 469.203 48.5062 469.296 49H468.023ZM474.51 56.1591C473.774 56.1591 473.139 55.9967 472.606 55.6719C472.076 55.3438 471.666 54.8864 471.378 54.2997C471.093 53.7098 470.95 53.0237 470.95 52.2415C470.95 51.4593 471.093 50.7699 471.378 50.1733C471.666 49.5734 472.067 49.1061 472.581 48.7713C473.098 48.4332 473.701 48.2642 474.391 48.2642C474.788 48.2642 475.181 48.3305 475.569 48.4631C475.957 48.5956 476.31 48.8111 476.628 49.1094C476.946 49.4044 477.2 49.7955 477.388 50.2827C477.577 50.7699 477.672 51.3698 477.672 52.0824V52.5795H471.786V51.5653H476.479C476.479 51.1345 476.393 50.75 476.22 50.4119C476.051 50.0739 475.809 49.8071 475.494 49.6115C475.183 49.416 474.815 49.3182 474.391 49.3182C473.923 49.3182 473.519 49.4342 473.178 49.6662C472.839 49.8949 472.579 50.1932 472.397 50.5611C472.215 50.929 472.124 51.3234 472.124 51.7443V52.4205C472.124 52.9972 472.223 53.486 472.422 53.8871C472.624 54.2848 472.904 54.5881 473.262 54.7969C473.62 55.0024 474.036 55.1051 474.51 55.1051C474.818 55.1051 475.097 55.062 475.345 54.9759C475.597 54.8864 475.814 54.7538 475.996 54.5781C476.179 54.3991 476.32 54.1771 476.419 53.9119L477.553 54.2301C477.433 54.6146 477.233 54.9527 476.951 55.2443C476.669 55.5327 476.321 55.758 475.907 55.9205C475.493 56.0795 475.027 56.1591 474.51 56.1591ZM482.778 48.3636V49.358H478.82V48.3636H482.778ZM479.974 46.5341H481.147V53.8125C481.147 54.1439 481.195 54.3925 481.291 54.5582C481.391 54.7206 481.517 54.83 481.669 54.8864C481.825 54.9394 481.989 54.9659 482.161 54.9659C482.29 54.9659 482.397 54.9593 482.479 54.946C482.562 54.9295 482.629 54.9162 482.678 54.9062L482.917 55.9602C482.837 55.9901 482.726 56.0199 482.584 56.0497C482.441 56.0829 482.261 56.0994 482.042 56.0994C481.71 56.0994 481.386 56.0282 481.067 55.8857C480.753 55.7431 480.491 55.526 480.282 55.2344C480.076 54.9427 479.974 54.5748 479.974 54.1307V46.5341ZM488.48 56V48.3636H489.614V49.517H489.693C489.832 49.1392 490.084 48.8326 490.449 48.5973C490.813 48.362 491.224 48.2443 491.682 48.2443C491.768 48.2443 491.876 48.246 492.005 48.2493C492.134 48.2526 492.232 48.2576 492.298 48.2642V49.4574C492.259 49.4474 492.167 49.4325 492.025 49.4126C491.886 49.3894 491.738 49.3778 491.582 49.3778C491.211 49.3778 490.88 49.4557 490.588 49.6115C490.3 49.764 490.071 49.9761 489.902 50.2479C489.736 50.5163 489.653 50.8229 489.653 51.1676V56H488.48ZM496.658 56.1591C495.923 56.1591 495.288 55.9967 494.754 55.6719C494.224 55.3438 493.815 54.8864 493.526 54.2997C493.241 53.7098 493.099 53.0237 493.099 52.2415C493.099 51.4593 493.241 50.7699 493.526 50.1733C493.815 49.5734 494.216 49.1061 494.729 48.7713C495.246 48.4332 495.85 48.2642 496.539 48.2642C496.937 48.2642 497.33 48.3305 497.717 48.4631C498.105 48.5956 498.458 48.8111 498.776 49.1094C499.094 49.4044 499.348 49.7955 499.537 50.2827C499.726 50.7699 499.82 51.3698 499.82 52.0824V52.5795H493.934V51.5653H498.627C498.627 51.1345 498.541 50.75 498.369 50.4119C498.2 50.0739 497.958 49.8071 497.643 49.6115C497.331 49.416 496.963 49.3182 496.539 49.3182C496.072 49.3182 495.667 49.4342 495.326 49.6662C494.988 49.8949 494.728 50.1932 494.545 50.5611C494.363 50.929 494.272 51.3234 494.272 51.7443V52.4205C494.272 52.9972 494.371 53.486 494.57 53.8871C494.772 54.2848 495.053 54.5881 495.411 54.7969C495.768 55.0024 496.184 55.1051 496.658 55.1051C496.967 55.1051 497.245 55.062 497.494 54.9759C497.746 54.8864 497.963 54.7538 498.145 54.5781C498.327 54.3991 498.468 54.1771 498.567 53.9119L499.701 54.2301C499.582 54.6146 499.381 54.9527 499.099 55.2443C498.818 55.5327 498.47 55.758 498.055 55.9205C497.641 56.0795 497.175 56.1591 496.658 56.1591ZM503.852 56.179C503.368 56.179 502.929 56.0878 502.535 55.9055C502.14 55.7199 501.827 55.4531 501.595 55.1051C501.363 54.7538 501.247 54.3295 501.247 53.8324C501.247 53.3949 501.333 53.0402 501.506 52.7685C501.678 52.4934 501.908 52.2779 502.197 52.1222C502.485 51.9664 502.803 51.8504 503.151 51.7741C503.503 51.6946 503.856 51.6316 504.21 51.5852C504.674 51.5256 505.05 51.4808 505.339 51.451C505.63 51.4179 505.843 51.3632 505.975 51.2869C506.111 51.2107 506.179 51.0781 506.179 50.8892V50.8494C506.179 50.3589 506.045 49.9777 505.776 49.706C505.511 49.4342 505.108 49.2983 504.568 49.2983C504.008 49.2983 503.569 49.4209 503.251 49.6662C502.933 49.9115 502.709 50.1733 502.58 50.4517L501.466 50.054C501.665 49.59 501.93 49.2287 502.261 48.9702C502.596 48.7083 502.961 48.526 503.355 48.4233C503.753 48.3172 504.144 48.2642 504.528 48.2642C504.774 48.2642 505.055 48.294 505.374 48.3537C505.695 48.41 506.005 48.5277 506.303 48.7067C506.605 48.8857 506.855 49.1558 507.054 49.517C507.253 49.8783 507.352 50.3622 507.352 50.9688V56H506.179V54.9659H506.119C506.04 55.1316 505.907 55.3089 505.722 55.4979C505.536 55.6868 505.289 55.8475 504.981 55.9801C504.673 56.1127 504.296 56.179 503.852 56.179ZM504.031 55.125C504.495 55.125 504.886 55.0339 505.205 54.8516C505.526 54.6693 505.768 54.4339 505.93 54.1456C506.096 53.8572 506.179 53.554 506.179 53.2358V52.1619C506.129 52.2216 506.02 52.2763 505.851 52.326C505.685 52.3724 505.493 52.4138 505.274 52.4503C505.059 52.4834 504.848 52.5133 504.643 52.5398C504.441 52.563 504.277 52.5829 504.151 52.5994C503.846 52.6392 503.561 52.7038 503.295 52.7933C503.034 52.8795 502.821 53.0104 502.659 53.1861C502.5 53.3584 502.42 53.5937 502.42 53.892C502.42 54.2997 502.571 54.608 502.873 54.8168C503.178 55.0223 503.564 55.125 504.031 55.125ZM512.377 56.1591C511.741 56.1591 511.179 55.9983 510.692 55.6768C510.205 55.352 509.824 54.8946 509.548 54.3047C509.273 53.7114 509.136 53.0104 509.136 52.2017C509.136 51.3996 509.273 50.7036 509.548 50.1136C509.824 49.5237 510.206 49.0679 510.697 48.7464C511.187 48.425 511.754 48.2642 512.397 48.2642C512.894 48.2642 513.287 48.3471 513.575 48.5128C513.867 48.6752 514.089 48.8608 514.242 49.0696C514.397 49.2751 514.518 49.4441 514.605 49.5767H514.704V45.8182H515.877V56H514.744V54.8267H514.605C514.518 54.9659 514.396 55.1416 514.237 55.3537C514.078 55.5625 513.851 55.7498 513.556 55.9155C513.261 56.0779 512.868 56.1591 512.377 56.1591ZM512.536 55.1051C513.007 55.1051 513.405 54.9825 513.73 54.7372C514.054 54.4886 514.301 54.1456 514.47 53.7081C514.639 53.2673 514.724 52.7585 514.724 52.1818C514.724 51.6117 514.641 51.1129 514.475 50.6854C514.31 50.2545 514.064 49.9197 513.74 49.6811C513.415 49.4392 513.014 49.3182 512.536 49.3182C512.039 49.3182 511.625 49.4458 511.294 49.701C510.965 49.9529 510.718 50.2959 510.553 50.7301C510.39 51.161 510.309 51.6449 510.309 52.1818C510.309 52.7254 510.392 53.2192 510.558 53.6634C510.727 54.1042 510.975 54.4555 511.303 54.7173C511.635 54.9759 512.046 55.1051 512.536 55.1051ZM518.945 58.8636C518.746 58.8636 518.569 58.8471 518.413 58.8139C518.257 58.7841 518.149 58.7543 518.09 58.7244L518.388 57.6903C518.673 57.7633 518.925 57.7898 519.144 57.7699C519.362 57.75 519.556 57.6522 519.725 57.4766C519.898 57.3042 520.055 57.0241 520.198 56.6364L520.416 56.0398L517.593 48.3636H518.865L520.973 54.4489H521.053L523.161 48.3636H524.433L521.192 57.1136C521.046 57.508 520.865 57.8345 520.65 58.093C520.435 58.3549 520.184 58.5488 519.899 58.6747C519.618 58.8007 519.299 58.8636 518.945 58.8636ZM527.533 45.8182L527.434 53.1364H526.28L526.181 45.8182H527.533ZM526.857 56.0795C526.612 56.0795 526.401 55.9917 526.226 55.8161C526.05 55.6404 525.962 55.4299 525.962 55.1847C525.962 54.9394 526.05 54.7289 526.226 54.5533C526.401 54.3776 526.612 54.2898 526.857 54.2898C527.102 54.2898 527.313 54.3776 527.488 54.5533C527.664 54.7289 527.752 54.9394 527.752 55.1847C527.752 55.3471 527.711 55.4962 527.628 55.6321C527.548 55.768 527.44 55.8774 527.305 55.9602C527.172 56.0398 527.023 56.0795 526.857 56.0795Z" fill="#1F2937"/>
<rect x="0.5" y="0.5" width="549" height="72" rx="3.5" stroke="#EA580C"/>
<defs>
<clipPath id="clip0_1498_3624">
<rect width="20" height="20" fill="white" transform="translate(14 14)"/>
</clipPath>
</defs>
</svg>
