<svg width="20" height="21" viewBox="0 0 20 21" fill="none" xmlns="http://www.w3.org/2000/svg">
<path fill-rule="evenodd" clip-rule="evenodd" d="M10 18.5C12.1217 18.5 14.1566 17.6571 15.6569 16.1569C17.1571 14.6566 18 12.6217 18 10.5C18 8.37827 17.1571 6.34344 15.6569 4.84315C14.1566 3.34285 12.1217 2.5 10 2.5C7.87827 2.5 5.84344 3.34285 4.34315 4.84315C2.84285 6.34344 2 8.37827 2 10.5C2 12.6217 2.84285 14.6566 4.34315 16.1569C5.84344 17.6571 7.87827 18.5 10 18.5ZM13.707 9.793L10.707 6.793C10.5184 6.61084 10.2658 6.51005 10.0036 6.51233C9.7414 6.5146 9.49059 6.61977 9.30518 6.80518C9.11977 6.99059 9.0146 7.2414 9.01233 7.5036C9.01005 7.7658 9.11084 8.0184 9.293 8.207L10.586 9.5H7C6.73478 9.5 6.48043 9.60536 6.29289 9.79289C6.10536 9.98043 6 10.2348 6 10.5C6 10.7652 6.10536 11.0196 6.29289 11.2071C6.48043 11.3946 6.73478 11.5 7 11.5H10.586L9.293 12.793C9.19749 12.8852 9.12131 12.9956 9.0689 13.1176C9.01649 13.2396 8.9889 13.3708 8.98775 13.5036C8.9866 13.6364 9.0119 13.7681 9.06218 13.891C9.11246 14.0139 9.18671 14.1255 9.28061 14.2194C9.3745 14.3133 9.48615 14.3875 9.60905 14.4378C9.73194 14.4881 9.86362 14.5134 9.9964 14.5123C10.1292 14.5111 10.2604 14.4835 10.3824 14.4311C10.5044 14.3787 10.6148 14.3025 10.707 14.207L13.707 11.207C13.8945 11.0195 13.9998 10.7652 13.9998 10.5C13.9998 10.2348 13.8945 9.98053 13.707 9.793Z" fill="black"/>
</svg>
