<svg width="20" height="20" viewBox="0 0 20 20" fill="none" xmlns="http://www.w3.org/2000/svg">
<path fill-rule="evenodd" clip-rule="evenodd" d="M12.5863 4.58604C12.7708 4.39502 12.9915 4.24266 13.2355 4.13784C13.4795 4.03302 13.742 3.97785 14.0075 3.97554C14.2731 3.97323 14.5364 4.02384 14.7822 4.1244C15.028 4.22496 15.2513 4.37347 15.4391 4.56125C15.6269 4.74904 15.7754 4.97234 15.876 5.21813C15.9765 5.46393 16.0271 5.72729 16.0248 5.99284C16.0225 6.2584 15.9673 6.52084 15.8625 6.76485C15.7577 7.00886 15.6053 7.22955 15.4143 7.41404L12.4143 10.414C12.0393 10.789 11.5307 10.9996 11.0003 10.9996C10.47 10.9996 9.96138 10.789 9.58633 10.414C9.39772 10.2319 9.14512 10.1311 8.88292 10.1334C8.62073 10.1356 8.36991 10.2408 8.18451 10.4262C7.9991 10.6116 7.89393 10.8624 7.89165 11.1246C7.88937 11.3868 7.99017 11.6394 8.17232 11.828C8.92244 12.5779 9.93967 12.9992 11.0003 12.9992C12.061 12.9992 13.0782 12.5779 13.8283 11.828L16.8283 8.82804C17.557 8.07363 17.9601 7.06322 17.951 6.01444C17.9419 4.96565 17.5212 3.9624 16.7796 3.22077C16.038 2.47914 15.0347 2.05846 13.9859 2.04935C12.9371 2.04023 11.9267 2.44341 11.1723 3.17204L9.67232 4.67204C9.57681 4.76429 9.50063 4.87463 9.44822 4.99664C9.39581 5.11864 9.36823 5.24986 9.36707 5.38264C9.36592 5.51542 9.39122 5.6471 9.4415 5.77C9.49178 5.89289 9.56604 6.00454 9.65993 6.09844C9.75382 6.19233 9.86547 6.26658 9.98837 6.31686C10.1113 6.36714 10.2429 6.39245 10.3757 6.39129C10.5085 6.39014 10.6397 6.36255 10.7617 6.31014C10.8837 6.25773 10.9941 6.18155 11.0863 6.08604L12.5863 4.58604ZM7.58632 9.58604C7.96138 9.2111 8.47 9.00047 9.00032 9.00047C9.53065 9.00047 10.0393 9.2111 10.4143 9.58604C10.5066 9.68155 10.6169 9.75773 10.7389 9.81014C10.8609 9.86255 10.9921 9.89014 11.1249 9.89129C11.2577 9.89245 11.3894 9.86714 11.5123 9.81686C11.6352 9.76658 11.7468 9.69233 11.8407 9.59844C11.9346 9.50454 12.0089 9.39289 12.0591 9.27C12.1094 9.1471 12.1347 9.01542 12.1336 8.88264C12.1324 8.74986 12.1048 8.61864 12.0524 8.49664C12 8.37463 11.9238 8.26429 11.8283 8.17204C11.0782 7.42216 10.061 7.0009 9.00032 7.0009C7.93967 7.0009 6.92244 7.42216 6.17232 8.17204L3.17232 11.172C2.79028 11.541 2.48556 11.9824 2.27592 12.4704C2.06628 12.9584 1.95594 13.4833 1.95132 14.0144C1.94671 14.5456 2.04791 15.0723 2.24904 15.5639C2.45016 16.0554 2.74717 16.5021 3.12274 16.8776C3.49832 17.2532 3.94492 17.5502 4.43651 17.7513C4.92809 17.9525 5.45481 18.0537 5.98593 18.049C6.51705 18.0444 7.04193 17.9341 7.52994 17.7244C8.01796 17.5148 8.45934 17.2101 8.82832 16.828L10.3283 15.328C10.4238 15.2358 10.5 15.1255 10.5524 15.0034C10.6048 14.8814 10.6324 14.7502 10.6336 14.6174C10.6347 14.4847 10.6094 14.353 10.5591 14.2301C10.5089 14.1072 10.4346 13.9955 10.3407 13.9016C10.2468 13.8078 10.1352 13.7335 10.0123 13.6832C9.88938 13.6329 9.7577 13.6076 9.62492 13.6088C9.49214 13.6099 9.36092 13.6375 9.23892 13.6899C9.11692 13.7423 9.00657 13.8185 8.91432 13.914L7.41432 15.414C7.22983 15.6051 7.00914 15.7574 6.76513 15.8622C6.52113 15.9671 6.25869 16.0222 5.99313 16.0245C5.72757 16.0269 5.46421 15.9762 5.21842 15.8757C4.97262 15.7751 4.74932 15.6266 4.56153 15.4388C4.37375 15.251 4.22524 15.0277 4.12468 14.7819C4.02412 14.5362 3.97352 14.2728 3.97582 14.0072C3.97813 13.7417 4.0333 13.4792 4.13812 13.2352C4.24294 12.9912 4.3953 12.7705 4.58632 12.586L7.58632 9.58604Z" fill="black"/>
</svg>
