<svg width="320" height="20" viewBox="0 0 320 20" fill="none" xmlns="http://www.w3.org/2000/svg">
<rect y="6" width="280" height="8" rx="4" fill="#F9F5FF"/>
<rect y="6" width="28.2029" height="8" rx="4" fill="#177445"/>
<path d="M296.842 4.81818V15H295.301V6.35938H295.241L292.805 7.95028V6.47869L295.346 4.81818H296.842ZM303.141 15.169C302.356 15.1657 301.685 14.9586 301.128 14.5476C300.571 14.1366 300.145 13.5384 299.85 12.7528C299.555 11.9673 299.408 11.0211 299.408 9.91406C299.408 8.81037 299.555 7.86742 299.85 7.08523C300.148 6.30303 300.576 5.70644 301.133 5.29545C301.693 4.88447 302.362 4.67898 303.141 4.67898C303.92 4.67898 304.588 4.88613 305.145 5.30043C305.702 5.71141 306.128 6.308 306.423 7.0902C306.721 7.86908 306.87 8.81037 306.87 9.91406C306.87 11.0244 306.723 11.9723 306.428 12.7578C306.133 13.54 305.707 14.1383 305.15 14.5526C304.593 14.9635 303.924 15.169 303.141 15.169ZM303.141 13.8416C303.831 13.8416 304.369 13.5052 304.757 12.8324C305.148 12.1596 305.344 11.1868 305.344 9.91406C305.344 9.06889 305.254 8.35464 305.075 7.77131C304.9 7.18466 304.646 6.74053 304.315 6.43892C303.987 6.134 303.595 5.98153 303.141 5.98153C302.455 5.98153 301.917 6.3196 301.526 6.99574C301.134 7.67187 300.937 8.64465 300.934 9.91406C300.934 10.7625 301.022 11.4801 301.197 12.0668C301.376 12.6501 301.63 13.0926 301.958 13.3942C302.286 13.6925 302.681 13.8416 303.141 13.8416ZM313.948 13.0909V12.554C313.948 12.1695 314.028 11.8182 314.187 11.5C314.349 11.1785 314.585 10.9216 314.893 10.7294C315.204 10.5339 315.581 10.4361 316.021 10.4361C316.472 10.4361 316.85 10.5322 317.155 10.7244C317.46 10.9167 317.69 11.1735 317.846 11.495C318.005 11.8165 318.085 12.1695 318.085 12.554V13.0909C318.085 13.4754 318.005 13.8284 317.846 14.1499C317.687 14.468 317.453 14.7249 317.145 14.9205C316.84 15.1127 316.466 15.2088 316.021 15.2088C315.574 15.2088 315.196 15.1127 314.888 14.9205C314.58 14.7249 314.346 14.468 314.187 14.1499C314.028 13.8284 313.948 13.4754 313.948 13.0909ZM315.107 12.554V13.0909C315.107 13.3759 315.175 13.6345 315.311 13.8665C315.446 14.0985 315.683 14.2145 316.021 14.2145C316.356 14.2145 316.59 14.0985 316.722 13.8665C316.855 13.6345 316.921 13.3759 316.921 13.0909V12.554C316.921 12.2689 316.857 12.0104 316.727 11.7784C316.602 11.5464 316.366 11.4304 316.021 11.4304C315.69 11.4304 315.455 11.5464 315.316 11.7784C315.176 12.0104 315.107 12.2689 315.107 12.554ZM308.828 7.2642V6.72727C308.828 6.3428 308.907 5.98982 309.066 5.66832C309.229 5.34683 309.464 5.08996 309.772 4.89773C310.084 4.70549 310.46 4.60938 310.901 4.60938C311.352 4.60938 311.729 4.70549 312.034 4.89773C312.339 5.08996 312.57 5.34683 312.725 5.66832C312.881 5.98982 312.959 6.3428 312.959 6.72727V7.2642C312.959 7.64867 312.879 8.00166 312.72 8.32315C312.565 8.64134 312.333 8.8982 312.024 9.09375C311.719 9.28598 311.345 9.3821 310.901 9.3821C310.45 9.3821 310.07 9.28598 309.762 9.09375C309.457 8.8982 309.225 8.64134 309.066 8.32315C308.907 8.00166 308.828 7.64867 308.828 7.2642ZM309.991 6.72727V7.2642C309.991 7.54924 310.057 7.80776 310.19 8.03977C310.326 8.27178 310.563 8.38778 310.901 8.38778C311.232 8.38778 311.464 8.27178 311.597 8.03977C311.733 7.80776 311.801 7.54924 311.801 7.2642V6.72727C311.801 6.44223 311.736 6.18371 311.607 5.9517C311.477 5.7197 311.242 5.60369 310.901 5.60369C310.569 5.60369 310.334 5.7197 310.195 5.9517C310.059 6.18371 309.991 6.44223 309.991 6.72727ZM309.3 15L316.3 4.81818H317.488L310.488 15H309.3Z" fill="#344054"/>
</svg>
