<svg width="38" height="16" viewBox="0 0 38 16" fill="none" xmlns="http://www.w3.org/2000/svg">
<path d="M0.409091 12V0.363636H4.47727C5.28788 0.363636 5.95644 0.503788 6.48295 0.784091C7.00947 1.06061 7.40152 1.43371 7.65909 1.90341C7.91667 2.36932 8.04545 2.88636 8.04545 3.45455C8.04545 3.95455 7.95644 4.36742 7.77841 4.69318C7.60417 5.01894 7.37311 5.27652 7.08523 5.46591C6.80114 5.6553 6.49242 5.79545 6.15909 5.88636V6C6.51515 6.02273 6.87311 6.14773 7.23295 6.375C7.5928 6.60227 7.89394 6.92803 8.13636 7.35227C8.37879 7.77651 8.5 8.29545 8.5 8.90909C8.5 9.49242 8.36742 10.017 8.10227 10.483C7.83712 10.9489 7.41856 11.3182 6.84659 11.5909C6.27462 11.8636 5.5303 12 4.61364 12H0.409091ZM1.81818 10.75H4.61364C5.53409 10.75 6.1875 10.572 6.57386 10.2159C6.96402 9.85606 7.15909 9.42045 7.15909 8.90909C7.15909 8.51515 7.05871 8.15152 6.85795 7.81818C6.6572 7.48106 6.37121 7.21212 6 7.01136C5.62879 6.80682 5.18939 6.70455 4.68182 6.70455H1.81818V10.75ZM1.81818 5.47727H4.43182C4.85606 5.47727 5.23864 5.39394 5.57955 5.22727C5.92424 5.06061 6.19697 4.82576 6.39773 4.52273C6.60227 4.2197 6.70455 3.86364 6.70455 3.45455C6.70455 2.94318 6.52652 2.50947 6.17045 2.15341C5.81439 1.79356 5.25 1.61364 4.47727 1.61364H1.81818V5.47727ZM14.179 12.1818C13.3911 12.1818 12.6998 11.9943 12.1051 11.6193C11.5142 11.2443 11.0521 10.7197 10.7188 10.0455C10.3892 9.37121 10.2244 8.58333 10.2244 7.68182C10.2244 6.77273 10.3892 5.97917 10.7188 5.30114C11.0521 4.62311 11.5142 4.09659 12.1051 3.72159C12.6998 3.34659 13.3911 3.15909 14.179 3.15909C14.9669 3.15909 15.6563 3.34659 16.2472 3.72159C16.8419 4.09659 17.304 4.62311 17.6335 5.30114C17.9669 5.97917 18.1335 6.77273 18.1335 7.68182C18.1335 8.58333 17.9669 9.37121 17.6335 10.0455C17.304 10.7197 16.8419 11.2443 16.2472 11.6193C15.6563 11.9943 14.9669 12.1818 14.179 12.1818ZM14.179 10.9773C14.7775 10.9773 15.2699 10.8239 15.6562 10.517C16.0426 10.2102 16.3286 9.80682 16.5142 9.30682C16.6998 8.80682 16.7926 8.26515 16.7926 7.68182C16.7926 7.09848 16.6998 6.55492 16.5142 6.05114C16.3286 5.54735 16.0426 5.14015 15.6562 4.82955C15.2699 4.51894 14.7775 4.36364 14.179 4.36364C13.5805 4.36364 13.0881 4.51894 12.7017 4.82955C12.3153 5.14015 12.0294 5.54735 11.8438 6.05114C11.6581 6.55492 11.5653 7.09848 11.5653 7.68182C11.5653 8.26515 11.6581 8.80682 11.8438 9.30682C12.0294 9.80682 12.3153 10.2102 12.7017 10.517C13.0881 10.8239 13.5805 10.9773 14.179 10.9773ZM23.4759 12.1818C22.7486 12.1818 22.1065 11.9981 21.5497 11.6307C20.9929 11.2595 20.5573 10.7367 20.2429 10.0625C19.9285 9.38447 19.7713 8.58333 19.7713 7.65909C19.7713 6.74242 19.9285 5.94697 20.2429 5.27273C20.5573 4.59848 20.9948 4.07765 21.5554 3.71023C22.116 3.3428 22.7637 3.15909 23.4986 3.15909C24.0668 3.15909 24.5156 3.25379 24.8452 3.44318C25.1785 3.62879 25.4323 3.84091 25.6065 4.07955C25.7846 4.31439 25.9228 4.50758 26.0213 4.65909H26.1349V0.363636H27.4759V12H26.1804V10.6591H26.0213C25.9228 10.8182 25.7827 11.0189 25.6009 11.2614C25.419 11.5 25.1596 11.714 24.8224 11.9034C24.4853 12.089 24.0365 12.1818 23.4759 12.1818ZM23.6577 10.9773C24.1955 10.9773 24.6501 10.8371 25.0213 10.5568C25.3925 10.2727 25.6747 9.88068 25.8679 9.38068C26.0611 8.87689 26.1577 8.29545 26.1577 7.63636C26.1577 6.98485 26.063 6.41477 25.8736 5.92614C25.6842 5.43371 25.4039 5.05114 25.0327 4.77841C24.6615 4.50189 24.2031 4.36364 23.6577 4.36364C23.0895 4.36364 22.616 4.50947 22.2372 4.80114C21.8622 5.08902 21.58 5.48106 21.3906 5.97727C21.205 6.4697 21.1122 7.02273 21.1122 7.63636C21.1122 8.25758 21.2069 8.82197 21.3963 9.32955C21.5895 9.83333 21.8736 10.2348 22.2486 10.5341C22.6274 10.8295 23.0971 10.9773 23.6577 10.9773ZM30.9815 15.2727C30.7543 15.2727 30.5516 15.2538 30.3736 15.2159C30.1955 15.1818 30.0724 15.1477 30.0043 15.1136L30.3452 13.9318C30.6709 14.0152 30.9588 14.0455 31.2088 14.0227C31.4588 14 31.6804 13.8883 31.8736 13.6875C32.0705 13.4905 32.2505 13.1705 32.4134 12.7273L32.6634 12.0455L29.4361 3.27273H30.8906L33.2997 10.2273H33.3906L35.7997 3.27273H37.2543L33.5497 13.2727C33.383 13.7235 33.1766 14.0966 32.9304 14.392C32.6842 14.6913 32.3982 14.9129 32.0724 15.0568C31.7505 15.2008 31.3868 15.2727 30.9815 15.2727Z" fill="black"/>
</svg>
