<svg width="26" height="10" viewBox="0 0 26 10" fill="none" xmlns="http://www.w3.org/2000/svg">
<path d="M0.758523 9V0.272727H4.25284C4.89489 0.272727 5.4304 0.367898 5.85938 0.558239C6.28835 0.74858 6.6108 1.01278 6.8267 1.35085C7.04261 1.68608 7.15057 2.07244 7.15057 2.50994C7.15057 2.85085 7.08239 3.15057 6.94602 3.40909C6.80966 3.66477 6.62216 3.875 6.38352 4.03977C6.14773 4.2017 5.87784 4.31676 5.57386 4.38494V4.47017C5.90625 4.48437 6.21733 4.57812 6.5071 4.75142C6.79972 4.92472 7.03693 5.16761 7.21875 5.48011C7.40057 5.78977 7.49148 6.15909 7.49148 6.58807C7.49148 7.05114 7.37642 7.46449 7.14631 7.82812C6.91903 8.18892 6.58239 8.47443 6.13636 8.68466C5.69034 8.89489 5.14063 9 4.48722 9H0.758523ZM2.60369 7.49148H4.10795C4.62216 7.49148 4.99716 7.39347 5.23295 7.19744C5.46875 6.99858 5.58665 6.73437 5.58665 6.40483C5.58665 6.16335 5.52841 5.95028 5.41193 5.76562C5.29545 5.58097 5.12926 5.43608 4.91335 5.33097C4.70028 5.22585 4.44602 5.1733 4.15057 5.1733H2.60369V7.49148ZM2.60369 3.92472H3.97159C4.22443 3.92472 4.44886 3.88068 4.64489 3.79261C4.84375 3.7017 5 3.57386 5.11364 3.40909C5.23011 3.24432 5.28835 3.04688 5.28835 2.81676C5.28835 2.50142 5.17614 2.24716 4.9517 2.05398C4.73011 1.8608 4.41477 1.7642 4.00568 1.7642H2.60369V3.92472ZM11.6154 9.12784C10.9535 9.12784 10.381 8.98722 9.89808 8.70597C9.41797 8.42187 9.04723 8.02699 8.78587 7.52131C8.5245 7.01278 8.39382 6.4233 8.39382 5.75284C8.39382 5.0767 8.5245 4.4858 8.78587 3.98011C9.04723 3.47159 9.41797 3.0767 9.89808 2.79545C10.381 2.51136 10.9535 2.36932 11.6154 2.36932C12.2773 2.36932 12.8484 2.51136 13.3285 2.79545C13.8114 3.0767 14.1836 3.47159 14.445 3.98011C14.7063 4.4858 14.837 5.0767 14.837 5.75284C14.837 6.4233 14.7063 7.01278 14.445 7.52131C14.1836 8.02699 13.8114 8.42187 13.3285 8.70597C12.8484 8.98722 12.2773 9.12784 11.6154 9.12784ZM11.6239 7.72159C11.9251 7.72159 12.1765 7.63636 12.3782 7.46591C12.5799 7.29261 12.7319 7.05682 12.8342 6.75852C12.9393 6.46023 12.9918 6.12074 12.9918 5.74006C12.9918 5.35938 12.9393 5.01989 12.8342 4.72159C12.7319 4.4233 12.5799 4.1875 12.3782 4.0142C12.1765 3.84091 11.9251 3.75426 11.6239 3.75426C11.32 3.75426 11.0643 3.84091 10.8569 4.0142C10.6523 4.1875 10.4975 4.4233 10.3924 4.72159C10.2901 5.01989 10.239 5.35938 10.239 5.74006C10.239 6.12074 10.2901 6.46023 10.3924 6.75852C10.4975 7.05682 10.6523 7.29261 10.8569 7.46591C11.0643 7.63636 11.32 7.72159 11.6239 7.72159ZM17.8327 0.272727V9H16.0174V0.272727H17.8327ZM21.6989 9.10653C21.2017 9.10653 20.7514 8.97869 20.348 8.72301C19.9474 8.46449 19.6293 8.08523 19.3935 7.58523C19.1605 7.08239 19.044 6.46591 19.044 5.7358C19.044 4.9858 19.1648 4.36222 19.4062 3.86506C19.6477 3.36506 19.9688 2.99148 20.3693 2.74432C20.7727 2.49432 21.2145 2.36932 21.6946 2.36932C22.0611 2.36932 22.3665 2.43182 22.6108 2.55682C22.858 2.67898 23.0568 2.83239 23.2074 3.01705C23.3608 3.19886 23.4773 3.37784 23.5568 3.55398H23.6122V0.272727H25.4233V9H23.6335V7.9517H23.5568C23.4716 8.13352 23.3509 8.31392 23.1946 8.4929C23.0412 8.66903 22.8409 8.81534 22.5938 8.93182C22.3494 9.0483 22.0511 9.10653 21.6989 9.10653ZM22.2741 7.66193C22.5668 7.66193 22.8139 7.58239 23.0156 7.4233C23.2202 7.26136 23.3764 7.03551 23.4844 6.74574C23.5952 6.45597 23.6506 6.11648 23.6506 5.72727C23.6506 5.33807 23.5966 5 23.4886 4.71307C23.3807 4.42614 23.2244 4.20455 23.0199 4.0483C22.8153 3.89205 22.5668 3.81392 22.2741 3.81392C21.9759 3.81392 21.7244 3.89489 21.5199 4.05682C21.3153 4.21875 21.1605 4.44318 21.0554 4.73011C20.9503 5.01705 20.8977 5.34943 20.8977 5.72727C20.8977 6.10795 20.9503 6.4446 21.0554 6.73722C21.1634 7.02699 21.3182 7.25426 21.5199 7.41903C21.7244 7.58097 21.9759 7.66193 22.2741 7.66193Z" fill="black"/>
</svg>
