<svg width="44" height="12" viewBox="0 0 44 12" fill="none" xmlns="http://www.w3.org/2000/svg">
<path d="M8.07955 3H7.02273C6.96023 2.69602 6.85085 2.42898 6.6946 2.19886C6.54119 1.96875 6.35369 1.77557 6.1321 1.61932C5.91335 1.46023 5.67045 1.34091 5.40341 1.26136C5.13636 1.18182 4.85795 1.14205 4.56818 1.14205C4.03977 1.14205 3.56108 1.27557 3.1321 1.54261C2.70597 1.80966 2.36648 2.20312 2.11364 2.72301C1.86364 3.2429 1.73864 3.88068 1.73864 4.63636C1.73864 5.39205 1.86364 6.02983 2.11364 6.54972C2.36648 7.0696 2.70597 7.46307 3.1321 7.73011C3.56108 7.99716 4.03977 8.13068 4.56818 8.13068C4.85795 8.13068 5.13636 8.09091 5.40341 8.01136C5.67045 7.93182 5.91335 7.81392 6.1321 7.65767C6.35369 7.49858 6.54119 7.30398 6.6946 7.07386C6.85085 6.84091 6.96023 6.57386 7.02273 6.27273H8.07955C8 6.71875 7.85511 7.1179 7.64489 7.47017C7.43466 7.82244 7.1733 8.12216 6.8608 8.36932C6.5483 8.61364 6.19744 8.79972 5.80824 8.92756C5.42188 9.0554 5.00852 9.11932 4.56818 9.11932C3.82386 9.11932 3.16193 8.9375 2.58239 8.57386C2.00284 8.21023 1.54688 7.69318 1.21449 7.02273C0.882102 6.35227 0.715909 5.55682 0.715909 4.63636C0.715909 3.71591 0.882102 2.92045 1.21449 2.25C1.54688 1.57955 2.00284 1.0625 2.58239 0.698864C3.16193 0.335227 3.82386 0.153409 4.56818 0.153409C5.00852 0.153409 5.42188 0.217329 5.80824 0.34517C6.19744 0.473011 6.5483 0.660511 6.8608 0.90767C7.1733 1.15199 7.43466 1.45028 7.64489 1.80256C7.85511 2.15199 8 2.55114 8.07955 3ZM11.5771 9.15341C11.1623 9.15341 10.7859 9.07528 10.4478 8.91903C10.1097 8.75994 9.84126 8.53125 9.6424 8.23295C9.44354 7.93182 9.34411 7.56818 9.34411 7.14205C9.34411 6.76705 9.41797 6.46307 9.5657 6.23011C9.71342 5.99432 9.91087 5.80966 10.158 5.67614C10.4052 5.54261 10.6779 5.44318 10.9762 5.37784C11.2773 5.30966 11.5799 5.25568 11.8839 5.21591C12.2816 5.16477 12.604 5.12642 12.8512 5.10085C13.1012 5.07244 13.283 5.02557 13.3967 4.96023C13.5131 4.89489 13.5714 4.78125 13.5714 4.61932V4.58523C13.5714 4.16477 13.4563 3.83807 13.2262 3.60511C12.9989 3.37216 12.6538 3.25568 12.1907 3.25568C11.7106 3.25568 11.3342 3.3608 11.0614 3.57102C10.7887 3.78125 10.5969 4.00568 10.4862 4.24432L9.53161 3.90341C9.70206 3.50568 9.92933 3.19602 10.2134 2.97443C10.5004 2.75 10.8129 2.59375 11.1509 2.50568C11.4918 2.41477 11.8271 2.36932 12.1566 2.36932C12.3668 2.36932 12.6083 2.39489 12.881 2.44602C13.1566 2.49432 13.4222 2.59517 13.6779 2.74858C13.9364 2.90199 14.1509 3.13352 14.3214 3.44318C14.4918 3.75284 14.5771 4.16761 14.5771 4.6875V9H13.5714V8.11364H13.5202C13.4521 8.25568 13.3384 8.40767 13.1793 8.5696C13.0202 8.73153 12.8086 8.86932 12.5444 8.98295C12.2802 9.09659 11.9577 9.15341 11.5771 9.15341ZM11.7305 8.25C12.1282 8.25 12.4634 8.17188 12.7362 8.01562C13.0117 7.85938 13.2191 7.65767 13.3583 7.41051C13.5004 7.16335 13.5714 6.90341 13.5714 6.63068V5.71023C13.5288 5.76136 13.435 5.80824 13.2901 5.85085C13.1481 5.89062 12.9833 5.92614 12.7958 5.95739C12.6112 5.9858 12.4308 6.01136 12.2546 6.03409C12.0813 6.05398 11.9407 6.07102 11.8327 6.08523C11.5714 6.11932 11.3271 6.17472 11.0998 6.25142C10.8754 6.32528 10.6935 6.4375 10.5543 6.58807C10.418 6.7358 10.3498 6.9375 10.3498 7.19318C10.3498 7.54261 10.479 7.80682 10.7376 7.9858C10.9989 8.16193 11.3299 8.25 11.7305 8.25ZM16.4126 11.4545V2.45455H17.3842V3.49432H17.5036C17.5774 3.38068 17.6797 3.2358 17.8104 3.05966C17.9439 2.88068 18.1342 2.72159 18.3814 2.58239C18.6314 2.44034 18.9695 2.36932 19.3956 2.36932C19.9467 2.36932 20.4325 2.5071 20.853 2.78267C21.2734 3.05824 21.6016 3.44886 21.8374 3.95455C22.0732 4.46023 22.1911 5.05682 22.1911 5.74432C22.1911 6.4375 22.0732 7.03835 21.8374 7.54688C21.6016 8.05256 21.2749 8.4446 20.8572 8.72301C20.4396 8.99858 19.9581 9.13636 19.4126 9.13636C18.9922 9.13636 18.6555 9.06676 18.4027 8.92756C18.1499 8.78551 17.9553 8.625 17.8189 8.44602C17.6825 8.2642 17.5774 8.11364 17.5036 7.99432H17.4183V11.4545H16.4126ZM17.4013 5.72727C17.4013 6.22159 17.4737 6.65767 17.6186 7.03551C17.7635 7.41051 17.9751 7.70455 18.2536 7.91761C18.532 8.12784 18.8729 8.23295 19.2763 8.23295C19.6967 8.23295 20.0476 8.12216 20.3288 7.90057C20.6129 7.67614 20.826 7.375 20.968 6.99716C21.1129 6.61648 21.1854 6.19318 21.1854 5.72727C21.1854 5.26705 21.1143 4.85227 20.9723 4.48295C20.8331 4.1108 20.6214 3.81676 20.3374 3.60085C20.0561 3.3821 19.7024 3.27273 19.2763 3.27273C18.8672 3.27273 18.5234 3.37642 18.245 3.58381C17.9666 3.78835 17.7564 4.07528 17.6143 4.4446C17.4723 4.81108 17.4013 5.23864 17.4013 5.72727ZM26.5717 2.45455V3.30682H23.1797V2.45455H26.5717ZM24.1683 0.886364H25.174V7.125C25.174 7.40909 25.2152 7.62216 25.2976 7.7642C25.3828 7.90341 25.4908 7.99716 25.6214 8.04545C25.755 8.09091 25.8956 8.11364 26.0433 8.11364C26.1541 8.11364 26.245 8.10795 26.3161 8.09659C26.3871 8.08239 26.4439 8.07102 26.4865 8.0625L26.6911 8.96591C26.6229 8.99148 26.5277 9.01705 26.4055 9.04261C26.2834 9.07102 26.1286 9.08523 25.9411 9.08523C25.657 9.08523 25.3786 9.02415 25.1058 8.90199C24.8359 8.77983 24.6115 8.59375 24.4325 8.34375C24.2564 8.09375 24.1683 7.77841 24.1683 7.39773V0.886364ZM28.0845 9V2.45455H29.0902V9H28.0845ZM28.5959 1.36364C28.3999 1.36364 28.2308 1.29688 28.0888 1.16335C27.9496 1.02983 27.88 0.869318 27.88 0.681818C27.88 0.494318 27.9496 0.333807 28.0888 0.200284C28.2308 0.0667613 28.3999 0 28.5959 0C28.7919 0 28.9595 0.0667613 29.0987 0.200284C29.2408 0.333807 29.3118 0.494318 29.3118 0.681818C29.3118 0.869318 29.2408 1.02983 29.0987 1.16335C28.9595 1.29688 28.7919 1.36364 28.5959 1.36364ZM33.5913 9.13636C33.0004 9.13636 32.4819 8.99574 32.0359 8.71449C31.5927 8.43324 31.2461 8.03977 30.9961 7.53409C30.7489 7.02841 30.6254 6.4375 30.6254 5.76136C30.6254 5.07955 30.7489 4.48437 30.9961 3.97585C31.2461 3.46733 31.5927 3.07244 32.0359 2.79119C32.4819 2.50994 33.0004 2.36932 33.5913 2.36932C34.1822 2.36932 34.6992 2.50994 35.1424 2.79119C35.5884 3.07244 35.935 3.46733 36.1822 3.97585C36.4322 4.48437 36.5572 5.07955 36.5572 5.76136C36.5572 6.4375 36.4322 7.02841 36.1822 7.53409C35.935 8.03977 35.5884 8.43324 35.1424 8.71449C34.6992 8.99574 34.1822 9.13636 33.5913 9.13636ZM33.5913 8.23295C34.0401 8.23295 34.4094 8.1179 34.6992 7.88778C34.989 7.65767 35.2035 7.35511 35.3427 6.98011C35.4819 6.60511 35.5515 6.19886 35.5515 5.76136C35.5515 5.32386 35.4819 4.91619 35.3427 4.53835C35.2035 4.16051 34.989 3.85511 34.6992 3.62216C34.4094 3.3892 34.0401 3.27273 33.5913 3.27273C33.1424 3.27273 32.7731 3.3892 32.4833 3.62216C32.1935 3.85511 31.979 4.16051 31.8398 4.53835C31.7006 4.91619 31.631 5.32386 31.631 5.76136C31.631 6.19886 31.7006 6.60511 31.8398 6.98011C31.979 7.35511 32.1935 7.65767 32.4833 7.88778C32.7731 8.1179 33.1424 8.23295 33.5913 8.23295ZM39.098 5.0625V9H38.0923V2.45455H39.0639V3.47727H39.1491C39.3026 3.14489 39.5355 2.87784 39.848 2.67614C40.1605 2.47159 40.5639 2.36932 41.0582 2.36932C41.5014 2.36932 41.8892 2.46023 42.2216 2.64205C42.554 2.82102 42.8125 3.09375 42.9972 3.46023C43.1818 3.82386 43.2741 4.28409 43.2741 4.84091V9H42.2685V4.90909C42.2685 4.39489 42.1349 3.99432 41.8679 3.70739C41.6009 3.41761 41.2344 3.27273 40.7685 3.27273C40.4474 3.27273 40.1605 3.34233 39.9077 3.48153C39.6577 3.62074 39.4602 3.82386 39.3153 4.09091C39.1705 4.35795 39.098 4.68182 39.098 5.0625Z" fill="black"/>
</svg>
