<svg width="92" height="20" viewBox="0 0 92 20" fill="none" xmlns="http://www.w3.org/2000/svg">
<path d="M0.362926 15V1.18182H2.86612V7.0316H9.26918V1.18182H11.7791V15H9.26918V9.12997H2.86612V15H0.362926ZM18.9817 15.2024C17.9426 15.2024 17.0453 14.9865 16.2896 14.5547C15.5384 14.1184 14.9604 13.5021 14.5556 12.706C14.1507 11.9053 13.9483 10.9629 13.9483 9.87891C13.9483 8.81286 14.1507 7.87725 14.5556 7.07209C14.9649 6.26243 15.5362 5.63269 16.2694 5.18288C17.0025 4.72857 17.8639 4.50142 18.8535 4.50142C19.4922 4.50142 20.095 4.60488 20.6618 4.81179C21.233 5.0142 21.7368 5.32907 22.1731 5.75639C22.6139 6.18371 22.9603 6.72798 23.2122 7.3892C23.4641 8.04593 23.59 8.8286 23.59 9.73722V10.4862H15.0953V8.83984H21.2488C21.2443 8.37204 21.1431 7.95597 20.9451 7.59162C20.7472 7.22277 20.4706 6.93265 20.1152 6.72124C19.7644 6.50982 19.3551 6.40412 18.8873 6.40412C18.388 6.40412 17.9494 6.52557 17.5716 6.76847C17.1937 7.00687 16.8991 7.32173 16.6877 7.71307C16.4808 8.0999 16.3751 8.52498 16.3706 8.98828V10.4254C16.3706 11.0282 16.4808 11.5455 16.7012 11.9773C16.9216 12.4046 17.2297 12.733 17.6255 12.9624C18.0214 13.1873 18.4847 13.2997 19.0154 13.2997C19.3708 13.2997 19.6924 13.2502 19.9803 13.1513C20.2682 13.0478 20.5178 12.8971 20.7292 12.6992C20.9406 12.5013 21.1003 12.2562 21.2083 11.9638L23.4888 12.2202C23.3449 12.8229 23.0705 13.3492 22.6657 13.799C22.2653 14.2443 21.7525 14.5907 21.1273 14.8381C20.5021 15.081 19.7869 15.2024 18.9817 15.2024ZM28.6386 15.2092C27.9819 15.2092 27.3904 15.0922 26.8641 14.8583C26.3423 14.6199 25.9285 14.2691 25.6226 13.8058C25.3212 13.3424 25.1705 12.7712 25.1705 12.092C25.1705 11.5072 25.2785 11.0237 25.4944 10.6413C25.7103 10.259 26.0049 9.95312 26.3783 9.72372C26.7516 9.49432 27.1722 9.32114 27.64 9.20419C28.1123 9.08274 28.6003 8.99503 29.1041 8.94105C29.7114 8.87808 30.2039 8.82185 30.5818 8.77237C30.9596 8.71839 31.234 8.63743 31.4049 8.52947C31.5803 8.41702 31.6681 8.24384 31.6681 8.00994V7.96946C31.6681 7.46117 31.5174 7.06759 31.216 6.78871C30.9146 6.50982 30.4806 6.37038 29.9138 6.37038C29.3155 6.37038 28.841 6.50083 28.4901 6.76172C28.1438 7.02261 27.9099 7.33073 27.7884 7.68608L25.5079 7.36222C25.6878 6.73248 25.9847 6.2062 26.3985 5.78338C26.8124 5.35606 27.3184 5.03669 27.9166 4.82528C28.5149 4.60938 29.1761 4.50142 29.9003 4.50142C30.3996 4.50142 30.8966 4.5599 31.3914 4.67685C31.8862 4.7938 32.3383 4.98722 32.7476 5.2571C33.1569 5.52249 33.4853 5.88459 33.7327 6.34339C33.9846 6.8022 34.1105 7.37571 34.1105 8.06392V15H31.7625V13.5763H31.6816C31.5331 13.8642 31.324 14.1341 31.0541 14.386C30.7887 14.6334 30.4536 14.8336 30.0487 14.9865C29.6484 15.1349 29.1784 15.2092 28.6386 15.2092ZM29.2728 13.4144C29.7631 13.4144 30.1882 13.3177 30.548 13.1243C30.9079 12.9264 31.1845 12.6655 31.3779 12.3416C31.5758 12.0178 31.6748 11.6647 31.6748 11.2823V10.0611C31.5983 10.1241 31.4679 10.1825 31.2835 10.2365C31.1035 10.2905 30.9011 10.3377 30.6762 10.3782C30.4513 10.4187 30.2287 10.4547 30.0083 10.4862C29.7878 10.5176 29.5967 10.5446 29.4347 10.5671C29.0704 10.6166 28.7443 10.6976 28.4564 10.81C28.1685 10.9225 27.9414 11.0799 27.7749 11.2823C27.6085 11.4802 27.5253 11.7366 27.5253 12.0515C27.5253 12.5013 27.6895 12.8409 28.0178 13.0703C28.3462 13.2997 28.7645 13.4144 29.2728 13.4144ZM40.4124 15.1822C39.5982 15.1822 38.8695 14.973 38.2263 14.5547C37.5831 14.1364 37.0748 13.5291 36.7014 12.733C36.3281 11.9368 36.1414 10.9697 36.1414 9.83168C36.1414 8.68016 36.3303 7.70857 36.7082 6.9169C37.0905 6.12074 37.6056 5.52024 38.2533 5.11541C38.901 4.70608 39.623 4.50142 40.4191 4.50142C41.0264 4.50142 41.5257 4.60488 41.917 4.81179C42.3083 5.0142 42.6187 5.25935 42.8481 5.54723C43.0775 5.83061 43.2552 6.09825 43.3811 6.35014H43.4823V1.18182H45.9316V15H43.5296V13.3672H43.3811C43.2552 13.6191 43.073 13.8867 42.8346 14.1701C42.5962 14.449 42.2813 14.6874 41.89 14.8853C41.4987 15.0832 41.0061 15.1822 40.4124 15.1822ZM41.0938 13.1783C41.6111 13.1783 42.0519 13.0388 42.4163 12.7599C42.7806 12.4766 43.0573 12.083 43.2462 11.5792C43.4351 11.0754 43.5296 10.4884 43.5296 9.81818C43.5296 9.14796 43.4351 8.56546 43.2462 8.07067C43.0618 7.57588 42.7874 7.19129 42.423 6.9169C42.0632 6.64252 41.6201 6.50533 41.0938 6.50533C40.5496 6.50533 40.0953 6.64702 39.7309 6.9304C39.3666 7.21378 39.0922 7.60511 38.9078 8.1044C38.7233 8.60369 38.6311 9.17495 38.6311 9.81818C38.6311 10.4659 38.7233 11.0439 38.9078 11.5522C39.0967 12.056 39.3733 12.4541 39.7377 12.7464C40.1065 13.0343 40.5586 13.1783 41.0938 13.1783ZM48.5343 15V4.63636H50.9767V15H48.5343ZM49.7623 3.16548C49.3754 3.16548 49.0426 3.03729 48.7637 2.78089C48.4848 2.52 48.3453 2.20739 48.3453 1.84304C48.3453 1.47419 48.4848 1.16158 48.7637 0.905184C49.0426 0.644294 49.3754 0.513849 49.7623 0.513849C50.1536 0.513849 50.4864 0.644294 50.7608 0.905184C51.0397 1.16158 51.1792 1.47419 51.1792 1.84304C51.1792 2.20739 51.0397 2.52 50.7608 2.78089C50.4864 3.03729 50.1536 3.16548 49.7623 3.16548ZM55.9308 8.92756V15H53.4884V4.63636H55.8229V6.39737H55.9443C56.1827 5.81712 56.5628 5.35606 57.0846 5.0142C57.6109 4.67235 58.2609 4.50142 59.0345 4.50142C59.7497 4.50142 60.3727 4.65436 60.9035 4.96023C61.4388 5.2661 61.8526 5.70916 62.145 6.28942C62.4419 6.86967 62.588 7.57363 62.5835 8.40128V15H60.1411V8.77912C60.1411 8.08641 59.9611 7.54439 59.6013 7.15305C59.2459 6.76172 58.7534 6.56605 58.1237 6.56605C57.6963 6.56605 57.3163 6.66051 56.9834 6.84943C56.655 7.03385 56.3964 7.30149 56.2075 7.65234C56.0231 8.0032 55.9308 8.42827 55.9308 8.92756ZM69.5736 19.1023C68.6965 19.1023 67.943 18.9831 67.3133 18.7447C66.6836 18.5108 66.1775 18.1959 65.7952 17.8001C65.4128 17.4042 65.1475 16.9657 64.999 16.4844L67.1986 15.9513C67.2976 16.1538 67.4415 16.3539 67.6304 16.5518C67.8193 16.7543 68.0735 16.9207 68.3928 17.0511C68.7167 17.1861 69.1238 17.2536 69.6141 17.2536C70.3068 17.2536 70.8803 17.0849 71.3346 16.7475C71.7889 16.4147 72.0161 15.8659 72.0161 15.1012V13.1378H71.8946C71.7687 13.3897 71.5843 13.6483 71.3414 13.9137C71.103 14.1791 70.7858 14.4018 70.39 14.5817C69.9987 14.7616 69.5061 14.8516 68.9124 14.8516C68.1162 14.8516 67.3943 14.6649 66.7465 14.2915C66.1033 13.9137 65.5905 13.3514 65.2082 12.6048C64.8303 11.8536 64.6414 10.9135 64.6414 9.78445C64.6414 8.64643 64.8303 7.68608 65.2082 6.90341C65.5905 6.11624 66.1056 5.52024 66.7533 5.11541C67.401 4.70608 68.123 4.50142 68.9191 4.50142C69.5264 4.50142 70.0257 4.60488 70.417 4.81179C70.8128 5.0142 71.1277 5.25935 71.3616 5.54723C71.5955 5.83061 71.7732 6.09825 71.8946 6.35014H72.0296V4.63636H74.4383V15.1687C74.4383 16.0548 74.2269 16.788 73.8041 17.3683C73.3812 17.9485 72.8032 18.3826 72.07 18.6705C71.3369 18.9583 70.5047 19.1023 69.5736 19.1023ZM69.5938 12.9354C70.1111 12.9354 70.5519 12.8094 70.9163 12.5575C71.2806 12.3056 71.5573 11.9435 71.7462 11.4712C71.9351 10.9989 72.0296 10.4322 72.0296 9.77095C72.0296 9.11873 71.9351 8.54747 71.7462 8.05717C71.5618 7.56688 71.2874 7.18679 70.923 6.9169C70.5632 6.64252 70.1201 6.50533 69.5938 6.50533C69.0496 6.50533 68.5953 6.64702 68.2309 6.9304C67.8666 7.21378 67.5922 7.60286 67.4078 8.09766C67.2233 8.58795 67.1311 9.14571 67.1311 9.77095C67.1311 10.4052 67.2233 10.9607 67.4078 11.4375C67.5967 11.9098 67.8733 12.2786 68.2377 12.544C68.6065 12.8049 69.0586 12.9354 69.5938 12.9354ZM86.5866 15.1889C85.615 15.1889 84.7513 15.0225 83.9957 14.6896C83.2445 14.3568 82.6507 13.8935 82.2144 13.2997C81.7781 12.706 81.5464 12.02 81.5194 11.2418H84.0564C84.0789 11.6152 84.2026 11.9413 84.4275 12.2202C84.6524 12.4946 84.9515 12.7082 85.3248 12.8612C85.6982 13.0141 86.1165 13.0906 86.5798 13.0906C87.0746 13.0906 87.5132 13.0051 87.8955 12.8342C88.2778 12.6587 88.577 12.4158 88.7929 12.1055C89.0088 11.7951 89.1145 11.4375 89.11 11.0327C89.1145 10.6143 89.0065 10.2455 88.7861 9.92614C88.5657 9.60677 88.2464 9.35713 87.828 9.1772C87.4142 8.99728 86.9149 8.90732 86.3302 8.90732H85.1089V6.97763H86.3302C86.8115 6.97763 87.232 6.89441 87.5919 6.72798C87.9562 6.56155 88.2419 6.32765 88.4488 6.02628C88.6557 5.72041 88.7569 5.36731 88.7524 4.96697C88.7569 4.57564 88.6692 4.23603 88.4893 3.94815C88.3138 3.65578 88.0642 3.42862 87.7403 3.26669C87.421 3.10476 87.0454 3.02379 86.6135 3.02379C86.1907 3.02379 85.7994 3.10026 85.4395 3.2532C85.0797 3.40613 84.7896 3.62429 84.5692 3.90767C84.3488 4.18655 84.2318 4.51941 84.2183 4.90625H81.8096C81.8276 4.13258 82.0502 3.45336 82.4775 2.86861C82.9094 2.27936 83.4851 1.82055 84.2048 1.49219C84.9245 1.15933 85.7319 0.992897 86.627 0.992897C87.5492 0.992897 88.3498 1.16607 89.029 1.51243C89.7127 1.85428 90.2413 2.31534 90.6146 2.8956C90.988 3.47585 91.1746 4.11683 91.1746 4.81854C91.1791 5.59671 90.9497 6.24893 90.4864 6.77521C90.0276 7.30149 89.4249 7.6456 88.6782 7.80753V7.91548C89.6498 8.05043 90.3942 8.41027 90.9115 8.99503C91.4333 9.57528 91.6919 10.2972 91.6874 11.1609C91.6874 11.9345 91.467 12.6272 91.0262 13.239C90.5899 13.8462 89.9871 14.323 89.218 14.6694C88.4533 15.0157 87.5761 15.1889 86.5866 15.1889Z" fill="black"/>
</svg>
