<svg width="130" height="27" viewBox="0 0 130 27" fill="none" xmlns="http://www.w3.org/2000/svg">
<path d="M0.93679 21V1.36364H4.49396V9.67649H13.593V1.36364H17.1598V21H13.593V12.6584H4.49396V21H0.93679ZM27.3951 21.2876C25.9185 21.2876 24.6433 20.9808 23.5694 20.3672C22.502 19.7472 21.6806 18.8714 21.1053 17.7401C20.53 16.6023 20.2424 15.2631 20.2424 13.7227C20.2424 12.2077 20.53 10.8782 21.1053 9.73402C21.687 8.58345 22.4988 7.68856 23.5407 7.04936C24.5826 6.40376 25.8066 6.08097 27.2129 6.08097C28.1206 6.08097 28.9771 6.22798 29.7825 6.52202C30.5943 6.80966 31.3102 7.2571 31.9302 7.86435C32.5566 8.47159 33.0488 9.24503 33.4068 10.1847C33.7647 11.1179 33.9437 12.2301 33.9437 13.5213V14.5856H21.8723V12.2461H30.6167C30.6103 11.5813 30.4664 10.9901 30.1852 10.4723C29.9039 9.94815 29.5108 9.53587 29.0059 9.23544C28.5073 8.93501 27.9256 8.7848 27.2608 8.7848C26.5513 8.7848 25.9281 8.95739 25.3912 9.30256C24.8542 9.64133 24.4355 10.0888 24.1351 10.6449C23.8411 11.1946 23.6909 11.7987 23.6845 12.457V14.4993C23.6845 15.3558 23.8411 16.0909 24.1543 16.7045C24.4675 17.3118 24.9054 17.7784 25.4679 18.1044C26.0304 18.424 26.6887 18.5838 27.443 18.5838C27.948 18.5838 28.405 18.5135 28.8141 18.3729C29.2232 18.2259 29.5779 18.0117 29.8784 17.7305C30.1788 17.4492 30.4057 17.1009 30.5591 16.6854L33.7999 17.0497C33.5953 17.9062 33.2054 18.6541 32.6302 19.2933C32.0613 19.9261 31.3326 20.4183 30.4441 20.7699C29.5556 21.1151 28.5392 21.2876 27.3951 21.2876ZM41.118 21.2972C40.1847 21.2972 39.3442 21.131 38.5963 20.7987C37.8548 20.4599 37.2668 19.9613 36.8321 19.3029C36.4039 18.6445 36.1897 17.8327 36.1897 16.8675C36.1897 16.0366 36.3431 15.3494 36.6499 14.8061C36.9568 14.2628 37.3754 13.8281 37.906 13.5021C38.4365 13.1761 39.0342 12.93 39.699 12.7638C40.3701 12.5913 41.0637 12.4666 41.7796 12.3899C42.6425 12.3004 43.3424 12.2205 43.8794 12.1502C44.4163 12.0735 44.8062 11.9585 45.0491 11.805C45.2984 11.6452 45.423 11.3991 45.423 11.0668V11.0092C45.423 10.2869 45.2089 9.72763 44.7806 9.33132C44.3524 8.93501 43.7355 8.73686 42.9301 8.73686C42.08 8.73686 41.4056 8.92223 40.907 9.29297C40.4149 9.66371 40.0825 10.1016 39.9099 10.6065L36.6691 10.1463C36.9248 9.25142 37.3467 8.50355 37.9347 7.9027C38.5228 7.29545 39.2419 6.84162 40.0921 6.54119C40.9422 6.23438 41.8818 6.08097 42.911 6.08097C43.6205 6.08097 44.3268 6.16406 45.0299 6.33026C45.733 6.49645 46.3754 6.77131 46.9571 7.15483C47.5388 7.53196 48.0054 8.04652 48.357 8.69851C48.7149 9.3505 48.8939 10.1655 48.8939 11.1435V21H45.5573V18.9769H45.4422C45.2313 19.386 44.934 19.7695 44.5505 20.1275C44.1734 20.479 43.6972 20.7635 43.1219 20.9808C42.553 21.1918 41.885 21.2972 41.118 21.2972ZM42.0193 18.7468C42.716 18.7468 43.32 18.6094 43.8314 18.3345C44.3428 18.0533 44.7359 17.6825 45.0107 17.2223C45.292 16.7621 45.4326 16.2603 45.4326 15.717V13.9815C45.324 14.071 45.1386 14.1541 44.8765 14.2308C44.6208 14.3075 44.3332 14.3746 44.0136 14.4322C43.694 14.4897 43.3776 14.5408 43.0644 14.5856C42.7512 14.6303 42.4795 14.6687 42.2494 14.7006C41.7316 14.771 41.2682 14.886 40.8591 15.0458C40.45 15.2056 40.1272 15.4293 39.8907 15.717C39.6542 15.9982 39.536 16.3626 39.536 16.81C39.536 17.4492 39.7693 17.9318 40.2359 18.2578C40.7025 18.5838 41.297 18.7468 42.0193 18.7468ZM57.8492 21.2589C56.6922 21.2589 55.6567 20.9616 54.7426 20.3672C53.8286 19.7727 53.1063 18.9098 52.5757 17.7784C52.0452 16.647 51.7799 15.2727 51.7799 13.6555C51.7799 12.0192 52.0484 10.6385 52.5853 9.51349C53.1286 8.3821 53.8605 7.52876 54.781 6.95348C55.7014 6.3718 56.7274 6.08097 57.8588 6.08097C58.7217 6.08097 59.4312 6.22798 59.9873 6.52202C60.5434 6.80966 60.9845 7.15803 61.3105 7.56712C61.6365 7.96981 61.8889 8.35014 62.0679 8.7081H62.2117V1.36364H65.6922V21H62.2789V18.6797H62.0679C61.8889 19.0376 61.6301 19.418 61.2913 19.8207C60.9525 20.217 60.5051 20.5558 59.949 20.837C59.3928 21.1183 58.6929 21.2589 57.8492 21.2589ZM58.8176 18.4112C59.5526 18.4112 60.1791 18.2131 60.6968 17.8168C61.2146 17.4141 61.6077 16.8548 61.8762 16.1388C62.1446 15.4229 62.2789 14.5888 62.2789 13.6364C62.2789 12.6839 62.1446 11.8562 61.8762 11.1531C61.6141 10.4499 61.2242 9.90341 60.7064 9.51349C60.195 9.12358 59.5654 8.92862 58.8176 8.92862C58.0441 8.92862 57.3985 9.12997 56.8808 9.53267C56.363 9.93537 55.9731 10.4915 55.711 11.201C55.449 11.9105 55.3179 12.7223 55.3179 13.6364C55.3179 14.5568 55.449 15.3782 55.711 16.1005C55.9795 16.8164 56.3726 17.3821 56.8904 17.7976C57.4145 18.2067 58.0569 18.4112 58.8176 18.4112ZM69.3908 21V6.27273H72.8617V21H69.3908ZM71.1358 4.18253C70.5861 4.18253 70.1131 4.00036 69.7168 3.63601C69.3205 3.26527 69.1223 2.82102 69.1223 2.30327C69.1223 1.77912 69.3205 1.33487 69.7168 0.970524C70.1131 0.599786 70.5861 0.414417 71.1358 0.414417C71.6919 0.414417 72.165 0.599786 72.5549 0.970524C72.9512 1.33487 73.1493 1.77912 73.1493 2.30327C73.1493 2.82102 72.9512 3.26527 72.5549 3.63601C72.165 4.00036 71.6919 4.18253 71.1358 4.18253ZM79.9017 12.3707V21H76.4308V6.27273H79.7483V8.77521H79.9209C80.2597 7.95064 80.7998 7.29545 81.5413 6.80966C82.2892 6.32386 83.2128 6.08097 84.3122 6.08097C85.3286 6.08097 86.2139 6.2983 86.9681 6.73295C87.7288 7.16761 88.3169 7.79723 88.7323 8.6218C89.1542 9.44638 89.3619 10.4467 89.3556 11.6229V21H85.8847V12.1598C85.8847 11.1754 85.629 10.4052 85.1176 9.84908C84.6127 9.29297 83.9127 9.01491 83.0178 9.01491C82.4106 9.01491 81.8705 9.14915 81.3975 9.41761C80.9308 9.67969 80.5633 10.06 80.2948 10.5586C80.0328 11.0572 79.9017 11.6612 79.9017 12.3707ZM99.2888 26.8295C98.0423 26.8295 96.9717 26.6602 96.0768 26.3214C95.1819 25.989 94.4628 25.5415 93.9195 24.979C93.3762 24.4165 92.999 23.7933 92.7881 23.1094L95.9138 22.3519C96.0544 22.6396 96.259 22.924 96.5274 23.2053C96.7959 23.4929 97.157 23.7294 97.6109 23.9148C98.0711 24.1065 98.6496 24.2024 99.3463 24.2024C100.331 24.2024 101.146 23.9627 101.791 23.4833C102.437 23.0103 102.76 22.2305 102.76 21.1438V18.3537H102.587C102.408 18.7116 102.146 19.0792 101.801 19.4563C101.462 19.8335 101.011 20.1499 100.449 20.4055C99.8928 20.6612 99.1929 20.7891 98.3492 20.7891C97.2178 20.7891 96.1919 20.5238 95.2714 19.9933C94.3573 19.4563 93.6286 18.6573 93.0853 17.5962C92.5484 16.5288 92.2799 15.1928 92.2799 13.5884C92.2799 11.9712 92.5484 10.6065 93.0853 9.49432C93.6286 8.37571 94.3605 7.52876 95.281 6.95348C96.2014 6.3718 97.2274 6.08097 98.3588 6.08097C99.2217 6.08097 99.9312 6.22798 100.487 6.52202C101.05 6.80966 101.497 7.15803 101.83 7.56712C102.162 7.96981 102.415 8.35014 102.587 8.7081H102.779V6.27273H106.202V21.2397C106.202 22.4989 105.901 23.5408 105.301 24.3654C104.7 25.19 103.878 25.8068 102.836 26.2159C101.794 26.625 100.612 26.8295 99.2888 26.8295ZM99.3176 18.0661C100.053 18.0661 100.679 17.8871 101.197 17.5291C101.715 17.1712 102.108 16.6566 102.376 15.9854C102.645 15.3143 102.779 14.5089 102.779 13.5692C102.779 12.6424 102.645 11.8306 102.376 11.1339C102.114 10.4371 101.724 9.89702 101.206 9.51349C100.695 9.12358 100.065 8.92862 99.3176 8.92862C98.5441 8.92862 97.8985 9.12997 97.3808 9.53267C96.863 9.93537 96.4731 10.4883 96.211 11.1914C95.949 11.8881 95.8179 12.6808 95.8179 13.5692C95.8179 14.4705 95.949 15.2599 96.211 15.9375C96.4795 16.6087 96.8726 17.1328 97.3904 17.5099C97.9145 17.8807 98.5569 18.0661 99.3176 18.0661ZM116.418 21V18.4304L123.235 11.7475C123.887 11.0891 124.43 10.5043 124.865 9.9929C125.3 9.48153 125.626 8.98615 125.843 8.50675C126.06 8.02734 126.169 7.51598 126.169 6.97266C126.169 6.35263 126.028 5.82209 125.747 5.38104C125.466 4.93359 125.079 4.58842 124.587 4.34553C124.095 4.10263 123.535 3.98118 122.909 3.98118C122.263 3.98118 121.698 4.11541 121.212 4.38388C120.726 4.64595 120.349 5.01989 120.081 5.50568C119.818 5.99148 119.687 6.56996 119.687 7.24112H116.303C116.303 5.99467 116.587 4.91122 117.156 3.99077C117.725 3.07031 118.508 2.3576 119.505 1.85263C120.509 1.34766 121.659 1.09517 122.957 1.09517C124.274 1.09517 125.431 1.34126 126.428 1.83345C127.425 2.32564 128.198 3 128.748 3.85653C129.304 4.71307 129.582 5.69105 129.582 6.79048C129.582 7.52557 129.442 8.24787 129.16 8.95739C128.879 9.6669 128.384 10.4531 127.674 11.3161C126.971 12.179 125.984 13.2241 124.712 14.4513L121.327 17.8935V18.0277H129.88V21H116.418Z" fill="black"/>
</svg>
