<svg width="149" height="32" viewBox="0 0 149 32" fill="none" xmlns="http://www.w3.org/2000/svg">
<path d="M0.0227273 25V1.72727H4.94318V11.3295H14.9318V1.72727H19.8409V25H14.9318V15.3864H4.94318V25H0.0227273ZM31.7614 25.3409C29.9659 25.3409 28.4205 24.9773 27.125 24.25C25.8371 23.5152 24.8447 22.4773 24.1477 21.1364C23.4508 19.7879 23.1023 18.1932 23.1023 16.3523C23.1023 14.5568 23.4508 12.9811 24.1477 11.625C24.8447 10.2689 25.8258 9.21212 27.0909 8.45454C28.3636 7.69697 29.8561 7.31818 31.5682 7.31818C32.7197 7.31818 33.7917 7.50379 34.7841 7.875C35.7841 8.23864 36.6553 8.78788 37.3977 9.52273C38.1477 10.2576 38.7311 11.1818 39.1477 12.2955C39.5644 13.4015 39.7727 14.697 39.7727 16.1818V17.5114H25.0341V14.5114H35.2159C35.2159 13.8144 35.0644 13.197 34.7614 12.6591C34.4583 12.1212 34.0379 11.7008 33.5 11.3977C32.9697 11.0871 32.3523 10.9318 31.6477 10.9318C30.9129 10.9318 30.2614 11.1023 29.6932 11.4432C29.1326 11.7765 28.6932 12.2273 28.375 12.7955C28.0568 13.3561 27.8939 13.9811 27.8864 14.6705V17.5227C27.8864 18.3864 28.0455 19.1326 28.3636 19.7614C28.6894 20.3902 29.1477 20.875 29.7386 21.2159C30.3295 21.5568 31.0303 21.7273 31.8409 21.7273C32.3788 21.7273 32.8712 21.6515 33.3182 21.5C33.7652 21.3485 34.1477 21.1212 34.4659 20.8182C34.7841 20.5152 35.0265 20.1439 35.1932 19.7045L39.6705 20C39.4432 21.0758 38.9773 22.0152 38.2727 22.8182C37.5758 23.6136 36.6742 24.2348 35.5682 24.6818C34.4697 25.1212 33.2008 25.3409 31.7614 25.3409ZM47.9091 25.3295C46.7955 25.3295 45.803 25.1364 44.9318 24.75C44.0606 24.3561 43.3712 23.7765 42.8636 23.0114C42.3636 22.2386 42.1136 21.2765 42.1136 20.125C42.1136 19.1553 42.2917 18.3409 42.6477 17.6818C43.0038 17.0227 43.4886 16.4924 44.1023 16.0909C44.7159 15.6894 45.4129 15.3864 46.1932 15.1818C46.9811 14.9773 47.8068 14.8333 48.6705 14.75C49.6856 14.6439 50.5038 14.5455 51.125 14.4545C51.7462 14.3561 52.197 14.2121 52.4773 14.0227C52.7576 13.8333 52.8977 13.553 52.8977 13.1818V13.1136C52.8977 12.3939 52.6705 11.8371 52.2159 11.4432C51.7689 11.0492 51.1326 10.8523 50.3068 10.8523C49.4356 10.8523 48.7424 11.0455 48.2273 11.4318C47.7121 11.8106 47.3712 12.2879 47.2045 12.8636L42.7273 12.5C42.9545 11.4394 43.4015 10.5227 44.0682 9.75C44.7348 8.9697 45.5947 8.37121 46.6477 7.95454C47.7083 7.5303 48.9356 7.31818 50.3295 7.31818C51.2992 7.31818 52.2273 7.43182 53.1136 7.65909C54.0076 7.88636 54.7992 8.23864 55.4886 8.71591C56.1856 9.19318 56.7348 9.80682 57.1364 10.5568C57.5379 11.2992 57.7386 12.1894 57.7386 13.2273V25H53.1477V22.5795H53.0114C52.7311 23.125 52.3561 23.6061 51.8864 24.0227C51.4167 24.4318 50.8523 24.7538 50.1932 24.9886C49.5341 25.2159 48.7727 25.3295 47.9091 25.3295ZM49.2955 21.9886C50.0076 21.9886 50.6364 21.8485 51.1818 21.5682C51.7273 21.2803 52.1553 20.8939 52.4659 20.4091C52.7765 19.9242 52.9318 19.375 52.9318 18.7614V16.9091C52.7803 17.0076 52.572 17.0985 52.3068 17.1818C52.0492 17.2576 51.7576 17.3295 51.4318 17.3977C51.1061 17.4583 50.7803 17.5152 50.4545 17.5682C50.1288 17.6136 49.8333 17.6553 49.5682 17.6932C49 17.7765 48.5038 17.9091 48.0795 18.0909C47.6553 18.2727 47.3258 18.5189 47.0909 18.8295C46.8561 19.1326 46.7386 19.5114 46.7386 19.9659C46.7386 20.625 46.9773 21.1288 47.4545 21.4773C47.9394 21.8182 48.553 21.9886 49.2955 21.9886ZM67.9261 25.2841C66.6004 25.2841 65.3996 24.9432 64.3239 24.2614C63.2557 23.572 62.4072 22.5606 61.7784 21.2273C61.1572 19.8864 60.8466 18.2424 60.8466 16.2955C60.8466 14.2955 61.1686 12.6326 61.8125 11.3068C62.4564 9.97348 63.3125 8.97727 64.3807 8.31818C65.4564 7.65152 66.6345 7.31818 67.9148 7.31818C68.892 7.31818 69.7064 7.48485 70.358 7.81818C71.017 8.14394 71.5473 8.55303 71.9489 9.04545C72.358 9.5303 72.6686 10.0076 72.8807 10.4773H73.0284V1.72727H77.858V25H73.0852V22.2045H72.8807C72.6534 22.6894 72.3314 23.1705 71.9148 23.6477C71.5057 24.1174 70.9716 24.5076 70.3125 24.8182C69.661 25.1288 68.8655 25.2841 67.9261 25.2841ZM69.4602 21.4318C70.2405 21.4318 70.8996 21.2197 71.4375 20.7955C71.983 20.3636 72.3996 19.7614 72.6875 18.9886C72.983 18.2159 73.1307 17.3106 73.1307 16.2727C73.1307 15.2348 72.9867 14.3333 72.6989 13.5682C72.411 12.803 71.9943 12.2121 71.4489 11.7955C70.9034 11.3788 70.2405 11.1705 69.4602 11.1705C68.6648 11.1705 67.9943 11.3864 67.4489 11.8182C66.9034 12.25 66.4905 12.8485 66.2102 13.6136C65.9299 14.3788 65.7898 15.2652 65.7898 16.2727C65.7898 17.2879 65.9299 18.1856 66.2102 18.9659C66.4981 19.7386 66.911 20.3447 67.4489 20.7841C67.9943 21.2159 68.6648 21.4318 69.4602 21.4318ZM81.8381 25V7.54545H86.679V25H81.8381ZM84.2699 5.29545C83.5502 5.29545 82.9328 5.05682 82.4176 4.57954C81.91 4.0947 81.6562 3.51515 81.6562 2.84091C81.6562 2.17424 81.91 1.60227 82.4176 1.125C82.9328 0.640151 83.5502 0.397726 84.2699 0.397726C84.9896 0.397726 85.6032 0.640151 86.1108 1.125C86.6259 1.60227 86.8835 2.17424 86.8835 2.84091C86.8835 3.51515 86.6259 4.0947 86.1108 4.57954C85.6032 5.05682 84.9896 5.29545 84.2699 5.29545ZM95.3977 14.9091V25H90.5568V7.54545H95.1705V10.625H95.375C95.7614 9.60985 96.4091 8.80682 97.3182 8.21591C98.2273 7.61742 99.3295 7.31818 100.625 7.31818C101.837 7.31818 102.894 7.58333 103.795 8.11364C104.697 8.64394 105.398 9.40151 105.898 10.3864C106.398 11.3636 106.648 12.5303 106.648 13.8864V25H101.807V14.75C101.814 13.6818 101.542 12.8485 100.989 12.25C100.436 11.6439 99.6742 11.3409 98.7045 11.3409C98.053 11.3409 97.4773 11.4811 96.9773 11.7614C96.4848 12.0417 96.0985 12.4508 95.8182 12.9886C95.5455 13.5189 95.4053 14.1591 95.3977 14.9091ZM118.327 31.9091C116.759 31.9091 115.414 31.6932 114.293 31.2614C113.179 30.8371 112.293 30.2576 111.634 29.5227C110.974 28.7879 110.546 27.9621 110.349 27.0455L114.827 26.4432C114.963 26.7917 115.179 27.1174 115.474 27.4205C115.77 27.7235 116.16 27.9659 116.645 28.1477C117.137 28.3371 117.736 28.4318 118.44 28.4318C119.493 28.4318 120.361 28.1742 121.043 27.6591C121.732 27.1515 122.077 26.2992 122.077 25.1023V21.9091H121.872C121.66 22.3939 121.342 22.8523 120.918 23.2841C120.493 23.7159 119.948 24.0682 119.281 24.3409C118.615 24.6136 117.819 24.75 116.895 24.75C115.584 24.75 114.391 24.447 113.315 23.8409C112.247 23.2273 111.395 22.2917 110.759 21.0341C110.13 19.7689 109.815 18.1705 109.815 16.2386C109.815 14.2614 110.137 12.6098 110.781 11.2841C111.425 9.95833 112.281 8.96591 113.349 8.30682C114.425 7.64773 115.603 7.31818 116.884 7.31818C117.861 7.31818 118.679 7.48485 119.338 7.81818C119.997 8.14394 120.527 8.55303 120.929 9.04545C121.338 9.5303 121.652 10.0076 121.872 10.4773H122.054V7.54545H126.861V25.1705C126.861 26.6553 126.497 27.8977 125.77 28.8977C125.043 29.8977 124.035 30.6477 122.747 31.1477C121.467 31.6553 119.993 31.9091 118.327 31.9091ZM118.429 21.1136C119.209 21.1136 119.868 20.9205 120.406 20.5341C120.952 20.1402 121.368 19.5795 121.656 18.8523C121.952 18.1174 122.099 17.2386 122.099 16.2159C122.099 15.1932 121.955 14.3068 121.668 13.5568C121.38 12.7992 120.963 12.2121 120.418 11.7955C119.872 11.3788 119.209 11.1705 118.429 11.1705C117.634 11.1705 116.963 11.3864 116.418 11.8182C115.872 12.2424 115.459 12.8333 115.179 13.5909C114.899 14.3485 114.759 15.2235 114.759 16.2159C114.759 17.2235 114.899 18.0947 115.179 18.8295C115.467 19.5568 115.88 20.1212 116.418 20.5227C116.963 20.9167 117.634 21.1136 118.429 21.1136ZM148.199 1.72727V25H143.278V6.39773H143.142L137.812 9.73864V5.375L143.574 1.72727H148.199Z" fill="black"/>
</svg>
