<svg width="46" height="11" viewBox="0 0 46 11" fill="none" xmlns="http://www.w3.org/2000/svg">
<path d="M0.958807 1.27273H2.55682L5.33523 8.05682H5.4375L8.21591 1.27273H9.81392V10H8.56108V3.68466H8.48011L5.90625 9.98722H4.86648L2.29261 3.6804H2.21165V10H0.958807V1.27273ZM14.4471 10.1321C13.8022 10.1321 13.2468 9.99432 12.7809 9.71875C12.3178 9.44034 11.9599 9.04972 11.707 8.54688C11.457 8.04119 11.332 7.44886 11.332 6.76989C11.332 6.09943 11.457 5.50852 11.707 4.99716C11.9599 4.4858 12.3121 4.08665 12.7638 3.79972C13.2184 3.51278 13.7496 3.36932 14.3576 3.36932C14.7269 3.36932 15.0849 3.4304 15.4315 3.55256C15.7781 3.67472 16.0891 3.86648 16.3647 4.12784C16.6403 4.3892 16.8576 4.72869 17.0167 5.14631C17.1758 5.56108 17.2553 6.06534 17.2553 6.65909V7.1108H12.0522V6.15625H16.0067C16.0067 5.82102 15.9386 5.52415 15.8022 5.26562C15.6658 5.00426 15.4741 4.7983 15.2269 4.64773C14.9826 4.49716 14.6957 4.42188 14.3661 4.42188C14.0082 4.42188 13.6957 4.50994 13.4286 4.68608C13.1644 4.85937 12.9599 5.08665 12.815 5.3679C12.6729 5.64631 12.6019 5.94886 12.6019 6.27557V7.02131C12.6019 7.45881 12.6786 7.83097 12.832 8.13778C12.9883 8.4446 13.2056 8.67898 13.484 8.84091C13.7624 9 14.0877 9.07955 14.4599 9.07955C14.7013 9.07955 14.9215 9.04545 15.1204 8.97727C15.3192 8.90625 15.4911 8.80114 15.636 8.66193C15.7809 8.52273 15.8917 8.35085 15.9684 8.14631L17.1744 8.36364C17.0778 8.71875 16.9045 9.02983 16.6545 9.29688C16.4073 9.56108 16.0962 9.76705 15.7212 9.91477C15.3491 10.0597 14.9244 10.1321 14.4471 10.1321ZM21.1193 10.1278C20.5909 10.1278 20.1193 9.9929 19.7045 9.72301C19.2926 9.45028 18.9688 9.0625 18.733 8.55966C18.5 8.05398 18.3835 7.44744 18.3835 6.74006C18.3835 6.03267 18.5014 5.42756 18.7372 4.92472C18.9759 4.42187 19.3026 4.03693 19.7173 3.76989C20.1321 3.50284 20.6023 3.36932 21.1278 3.36932C21.5341 3.36932 21.8608 3.4375 22.108 3.57386C22.358 3.70739 22.5511 3.86364 22.6875 4.04261C22.8267 4.22159 22.9347 4.37926 23.0114 4.51562H23.0881V1.27273H24.3622V10H23.1179V8.98153H23.0114C22.9347 9.12074 22.8239 9.27983 22.679 9.45881C22.5369 9.63778 22.3409 9.79403 22.0909 9.92756C21.8409 10.0611 21.517 10.1278 21.1193 10.1278ZM21.4006 9.04119C21.767 9.04119 22.0767 8.9446 22.3295 8.75142C22.5852 8.5554 22.7784 8.28409 22.9091 7.9375C23.0426 7.59091 23.1094 7.1875 23.1094 6.72727C23.1094 6.27273 23.044 5.875 22.9134 5.53409C22.7827 5.19318 22.5909 4.92756 22.3381 4.73722C22.0852 4.54687 21.7727 4.4517 21.4006 4.4517C21.017 4.4517 20.6974 4.55114 20.4418 4.75C20.1861 4.94886 19.9929 5.22017 19.8622 5.56392C19.7344 5.90767 19.6705 6.29545 19.6705 6.72727C19.6705 7.16477 19.7358 7.55824 19.8665 7.90767C19.9972 8.2571 20.1903 8.53409 20.446 8.73864C20.7045 8.94034 21.0227 9.04119 21.4006 9.04119ZM26.1808 10V3.45455H27.4549V10H26.1808ZM26.8242 2.4446C26.6026 2.4446 26.4123 2.37074 26.2532 2.22301C26.0969 2.07244 26.0188 1.89347 26.0188 1.68608C26.0188 1.47585 26.0969 1.29687 26.2532 1.14915C26.4123 0.998579 26.6026 0.923295 26.8242 0.923295C27.0458 0.923295 27.2347 0.998579 27.391 1.14915C27.5501 1.29687 27.6296 1.47585 27.6296 1.68608C27.6296 1.89347 27.5501 2.07244 27.391 2.22301C27.2347 2.37074 27.0458 2.4446 26.8242 2.4446ZM33.3153 7.28551V3.45455H34.5938V10H33.3409V8.86648H33.2727C33.1222 9.21591 32.8807 9.5071 32.5483 9.74006C32.2188 9.97017 31.8082 10.0852 31.3168 10.0852C30.8963 10.0852 30.5241 9.9929 30.2003 9.80824C29.8793 9.62074 29.6264 9.34375 29.4418 8.97727C29.2599 8.6108 29.169 8.15767 29.169 7.6179V3.45455H30.4432V7.46449C30.4432 7.91051 30.5668 8.26562 30.8139 8.52983C31.0611 8.79403 31.3821 8.92614 31.777 8.92614C32.0156 8.92614 32.2528 8.86648 32.4886 8.74716C32.7273 8.62784 32.9247 8.44744 33.081 8.20597C33.2401 7.96449 33.3182 7.65767 33.3153 7.28551ZM36.3058 10V3.45455H37.5288V4.51989H37.6097C37.7461 4.15909 37.9691 3.87784 38.2788 3.67614C38.5884 3.47159 38.9592 3.36932 39.391 3.36932C39.8285 3.36932 40.195 3.47159 40.4904 3.67614C40.7887 3.88068 41.0089 4.16193 41.1509 4.51989H41.2191C41.3754 4.17045 41.6239 3.89205 41.9648 3.68466C42.3058 3.47443 42.712 3.36932 43.1836 3.36932C43.7773 3.36932 44.2617 3.5554 44.6367 3.92756C45.0146 4.29972 45.2035 4.8608 45.2035 5.6108V10H43.9293V5.73011C43.9293 5.28693 43.8086 4.96591 43.5671 4.76705C43.3256 4.56818 43.0373 4.46875 42.7021 4.46875C42.2873 4.46875 41.9648 4.59659 41.7347 4.85227C41.5046 5.10511 41.3896 5.4304 41.3896 5.82812V10H40.1197V5.64915C40.1197 5.29403 40.0089 5.00852 39.7873 4.79261C39.5657 4.5767 39.2773 4.46875 38.9222 4.46875C38.6808 4.46875 38.4577 4.53267 38.2532 4.66051C38.0515 4.78551 37.8881 4.96023 37.7631 5.18466C37.641 5.40909 37.5799 5.66903 37.5799 5.96449V10H36.3058Z" fill="black"/>
</svg>
