<svg width="42" height="12" viewBox="0 0 42 12" fill="none" xmlns="http://www.w3.org/2000/svg">
<path d="M0.0568182 9V0.272727H3.00568C3.6875 0.272727 4.24716 0.389204 4.68466 0.622159C5.12216 0.852272 5.44602 1.16903 5.65625 1.57244C5.86648 1.97585 5.97159 2.43466 5.97159 2.94886C5.97159 3.46307 5.86648 3.91903 5.65625 4.31676C5.44602 4.71449 5.12358 5.02699 4.68892 5.25426C4.25426 5.47869 3.69886 5.59091 3.02273 5.59091H0.636364V4.63636H2.98864C3.45455 4.63636 3.82955 4.56818 4.11364 4.43182C4.40057 4.29545 4.60795 4.10227 4.7358 3.85227C4.86648 3.59943 4.93182 3.2983 4.93182 2.94886C4.93182 2.59943 4.86648 2.29403 4.7358 2.03267C4.60511 1.77131 4.39631 1.5696 4.10938 1.42756C3.82244 1.28267 3.44318 1.21023 2.97159 1.21023H1.11364V9H0.0568182ZM4.16477 5.07955L6.3125 9H5.08523L2.97159 5.07955H4.16477ZM10.2702 9.13636C9.63956 9.13636 9.09553 8.99716 8.63814 8.71875C8.18359 8.4375 7.83274 8.04545 7.58558 7.54261C7.34126 7.03693 7.21911 6.44886 7.21911 5.77841C7.21911 5.10795 7.34126 4.51705 7.58558 4.00568C7.83274 3.49148 8.17649 3.09091 8.61683 2.80398C9.06001 2.5142 9.57706 2.36932 10.168 2.36932C10.5089 2.36932 10.8455 2.42614 11.1779 2.53977C11.5103 2.65341 11.8129 2.83807 12.0856 3.09375C12.3583 3.34659 12.5756 3.68182 12.7376 4.09943C12.8995 4.51705 12.9805 5.03125 12.9805 5.64205V6.06818H7.93501V5.19886H11.9577C11.9577 4.82955 11.8839 4.5 11.7362 4.21023C11.5913 3.92045 11.3839 3.69176 11.114 3.52415C10.8469 3.35653 10.5316 3.27273 10.168 3.27273C9.7674 3.27273 9.42081 3.37216 9.1282 3.57102C8.83842 3.76705 8.61541 4.02273 8.45916 4.33807C8.30291 4.65341 8.22479 4.99148 8.22479 5.35227V5.93182C8.22479 6.42614 8.31001 6.84517 8.48047 7.18892C8.65376 7.52983 8.89382 7.78977 9.20064 7.96875C9.50746 8.14489 9.86399 8.23295 10.2702 8.23295C10.5344 8.23295 10.7731 8.19602 10.9862 8.12216C11.2021 8.04545 11.3881 7.93182 11.5444 7.78125C11.7006 7.62784 11.8214 7.4375 11.9066 7.21023L12.8782 7.48295C12.7759 7.8125 12.604 8.10227 12.3626 8.35227C12.1211 8.59943 11.8228 8.79261 11.4677 8.93182C11.1126 9.06818 10.7134 9.13636 10.2702 9.13636ZM17.1523 11.5909C16.6665 11.5909 16.2489 11.5284 15.8995 11.4034C15.5501 11.2812 15.2589 11.1193 15.0259 10.9176C14.7958 10.7188 14.6126 10.5057 14.4762 10.2784L15.2773 9.71591C15.3683 9.83523 15.4833 9.97159 15.6225 10.125C15.7617 10.2812 15.9521 10.4162 16.1935 10.5298C16.4379 10.6463 16.7575 10.7045 17.1523 10.7045C17.6808 10.7045 18.1168 10.5767 18.4606 10.321C18.8043 10.0653 18.9762 9.66477 18.9762 9.11932V7.78977H18.891C18.8171 7.90909 18.712 8.05682 18.5756 8.23295C18.4421 8.40625 18.2489 8.56108 17.9961 8.69744C17.7461 8.83097 17.408 8.89773 16.9819 8.89773C16.4535 8.89773 15.979 8.77273 15.5586 8.52273C15.141 8.27273 14.81 7.90909 14.5657 7.43182C14.3242 6.95455 14.2035 6.375 14.2035 5.69318C14.2035 5.02273 14.3214 4.43892 14.5572 3.94176C14.793 3.44176 15.1211 3.0554 15.5415 2.78267C15.962 2.5071 16.4478 2.36932 16.9989 2.36932C17.4251 2.36932 17.7631 2.44034 18.0131 2.58239C18.266 2.72159 18.4592 2.88068 18.5927 3.05966C18.729 3.2358 18.8342 3.38068 18.908 3.49432H19.0103V2.45455H19.9819V9.1875C19.9819 9.75 19.854 10.2074 19.5984 10.5597C19.3455 10.9148 19.0046 11.1747 18.5756 11.3395C18.1495 11.5071 17.6751 11.5909 17.1523 11.5909ZM17.1183 7.99432C17.5217 7.99432 17.8626 7.90199 18.141 7.71733C18.4194 7.53267 18.631 7.26705 18.7759 6.92045C18.9208 6.57386 18.9933 6.15909 18.9933 5.67614C18.9933 5.20455 18.9222 4.78835 18.7802 4.42756C18.6381 4.06676 18.4279 3.78409 18.1495 3.57955C17.8711 3.375 17.5273 3.27273 17.1183 3.27273C16.6921 3.27273 16.337 3.38068 16.0529 3.59659C15.7717 3.8125 15.56 4.10227 15.418 4.46591C15.2788 4.82955 15.2092 5.23295 15.2092 5.67614C15.2092 6.13068 15.2802 6.53267 15.4222 6.8821C15.5671 7.22869 15.7802 7.50142 16.0614 7.70028C16.3455 7.89631 16.6978 7.99432 17.1183 7.99432ZM25.9478 6.32386V2.45455H26.9535V9H25.9478V7.89205H25.8796C25.7262 8.22443 25.4876 8.5071 25.1637 8.74006C24.8398 8.97017 24.4308 9.08523 23.9364 9.08523C23.5273 9.08523 23.1637 8.99574 22.8455 8.81676C22.5273 8.63494 22.2773 8.36222 22.0955 7.99858C21.9137 7.6321 21.8228 7.17045 21.8228 6.61364V2.45455H22.8285V6.54545C22.8285 7.02273 22.962 7.40341 23.229 7.6875C23.4989 7.97159 23.8427 8.11364 24.2603 8.11364C24.5103 8.11364 24.7646 8.04972 25.0231 7.92188C25.2844 7.79403 25.5032 7.59801 25.6793 7.33381C25.8583 7.0696 25.9478 6.73295 25.9478 6.32386ZM29.8011 0.272727V9H28.7955V0.272727H29.8011ZM33.5692 9.15341C33.1545 9.15341 32.7781 9.07528 32.44 8.91903C32.1019 8.75994 31.8335 8.53125 31.6346 8.23295C31.4357 7.93182 31.3363 7.56818 31.3363 7.14205C31.3363 6.76705 31.4102 6.46307 31.5579 6.23011C31.7056 5.99432 31.9031 5.80966 32.1502 5.67614C32.3974 5.54261 32.6701 5.44318 32.9684 5.37784C33.2695 5.30966 33.5721 5.25568 33.8761 5.21591C34.2738 5.16477 34.5962 5.12642 34.8434 5.10085C35.0934 5.07244 35.2752 5.02557 35.3888 4.96023C35.5053 4.89489 35.5636 4.78125 35.5636 4.61932V4.58523C35.5636 4.16477 35.4485 3.83807 35.2184 3.60511C34.9911 3.37216 34.646 3.25568 34.1829 3.25568C33.7028 3.25568 33.3263 3.3608 33.0536 3.57102C32.7809 3.78125 32.5891 4.00568 32.4783 4.24432L31.5238 3.90341C31.6942 3.50568 31.9215 3.19602 32.2056 2.97443C32.4925 2.75 32.805 2.59375 33.1431 2.50568C33.484 2.41477 33.8192 2.36932 34.1488 2.36932C34.359 2.36932 34.6005 2.39489 34.8732 2.44602C35.1488 2.49432 35.4144 2.59517 35.6701 2.74858C35.9286 2.90199 36.1431 3.13352 36.3136 3.44318C36.484 3.75284 36.5692 4.16761 36.5692 4.6875V9H35.5636V8.11364H35.5124C35.4442 8.25568 35.3306 8.40767 35.1715 8.5696C35.0124 8.73153 34.8008 8.86932 34.5366 8.98295C34.2724 9.09659 33.9499 9.15341 33.5692 9.15341ZM33.7227 8.25C34.1204 8.25 34.4556 8.17188 34.7283 8.01562C35.0039 7.85938 35.2113 7.65767 35.3505 7.41051C35.4925 7.16335 35.5636 6.90341 35.5636 6.63068V5.71023C35.521 5.76136 35.4272 5.80824 35.2823 5.85085C35.1403 5.89062 34.9755 5.92614 34.788 5.95739C34.6033 5.9858 34.4229 6.01136 34.2468 6.03409C34.0735 6.05398 33.9329 6.07102 33.8249 6.08523C33.5636 6.11932 33.3192 6.17472 33.092 6.25142C32.8675 6.32528 32.6857 6.4375 32.5465 6.58807C32.4102 6.7358 32.342 6.9375 32.342 7.19318C32.342 7.54261 32.4712 7.80682 32.7298 7.9858C32.9911 8.16193 33.3221 8.25 33.7227 8.25ZM38.4048 9V2.45455H39.3764V3.44318H39.4446C39.5639 3.11932 39.7798 2.85653 40.0923 2.65483C40.4048 2.45312 40.7571 2.35227 41.1491 2.35227C41.223 2.35227 41.3153 2.35369 41.4261 2.35653C41.5369 2.35937 41.6207 2.36364 41.6776 2.36932V3.39205C41.6435 3.38352 41.5653 3.37074 41.4432 3.35369C41.3239 3.33381 41.1974 3.32386 41.0639 3.32386C40.7457 3.32386 40.4616 3.39062 40.2116 3.52415C39.9645 3.65483 39.7685 3.83665 39.6236 4.0696C39.4815 4.29972 39.4105 4.5625 39.4105 4.85795V9H38.4048Z" fill="black"/>
</svg>
