<svg width="657" height="381" viewBox="0 0 657 381" fill="none" xmlns="http://www.w3.org/2000/svg">
<g clip-path="url(#clip0_19_98)">
<rect width="657" height="381" fill="#F9F9F9"/>
<path d="M48.7 57C48.5933 57 48.4933 56.96 48.4 56.88C48.32 56.8 48.28 56.7 48.28 56.58C48.28 56.5267 48.2933 56.4667 48.32 56.4L53.14 43.5C53.18 43.3667 53.2533 43.2533 53.36 43.16C53.48 43.0533 53.64 43 53.84 43H56.02C56.22 43 56.3733 43.0533 56.48 43.16C56.5867 43.2533 56.6667 43.3667 56.72 43.5L61.54 56.4C61.5533 56.4667 61.56 56.5267 61.56 56.58C61.56 56.7 61.52 56.8 61.44 56.88C61.36 56.96 61.2667 57 61.16 57H59.42C59.2333 57 59.0933 56.96 59 56.88C58.92 56.7867 58.8667 56.7 58.84 56.62L57.9 54.18H51.96L51.02 56.62C50.9933 56.7 50.9333 56.7867 50.84 56.88C50.76 56.96 50.6267 57 50.44 57H48.7ZM52.66 51.88H57.2L54.92 45.7L52.66 51.88ZM67.57 57.2C66.61 57.2 65.7633 57.02 65.03 56.66C64.31 56.3 63.7433 55.78 63.33 55.1C62.93 54.4067 62.71 53.5733 62.67 52.6C62.6567 52.4 62.65 52.14 62.65 51.82C62.65 51.4867 62.6567 51.2133 62.67 51C62.71 50.0267 62.93 49.2 63.33 48.52C63.7433 47.8267 64.31 47.3 65.03 46.94C65.7633 46.58 66.61 46.4 67.57 46.4C68.4233 46.4 69.15 46.52 69.75 46.76C70.35 47 70.8433 47.3 71.23 47.66C71.6167 48.02 71.9033 48.4 72.09 48.8C72.29 49.1867 72.3967 49.54 72.41 49.86C72.4233 50.0067 72.3767 50.1267 72.27 50.22C72.1767 50.3 72.0633 50.34 71.93 50.34H70.17C70.0367 50.34 69.93 50.3067 69.85 50.24C69.7833 50.1733 69.7167 50.0733 69.65 49.94C69.45 49.4067 69.1833 49.0333 68.85 48.82C68.53 48.5933 68.1167 48.48 67.61 48.48C66.9433 48.48 66.41 48.6933 66.01 49.12C65.6233 49.5333 65.4167 50.1933 65.39 51.1C65.3633 51.6067 65.3633 52.0733 65.39 52.5C65.4167 53.42 65.6233 54.0867 66.01 54.5C66.41 54.9133 66.9433 55.12 67.61 55.12C68.13 55.12 68.55 55.0133 68.87 54.8C69.19 54.5733 69.45 54.1933 69.65 53.66C69.7167 53.5267 69.7833 53.4267 69.85 53.36C69.93 53.2933 70.0367 53.26 70.17 53.26H71.93C72.0633 53.26 72.1767 53.3067 72.27 53.4C72.3767 53.48 72.4233 53.5933 72.41 53.74C72.3967 53.98 72.33 54.2533 72.21 54.56C72.1033 54.8533 71.9233 55.16 71.67 55.48C71.43 55.7867 71.1233 56.0733 70.75 56.34C70.3767 56.5933 69.9233 56.8 69.39 56.96C68.87 57.12 68.2633 57.2 67.57 57.2ZM79.1958 57C78.3958 57 77.7224 56.86 77.1758 56.58C76.6291 56.3 76.2224 55.8867 75.9558 55.34C75.6891 54.78 75.5558 54.0867 75.5558 53.26V48.72H73.9758C73.8424 48.72 73.7291 48.6733 73.6358 48.58C73.5424 48.4867 73.4958 48.3733 73.4958 48.24V47.08C73.4958 46.9467 73.5424 46.8333 73.6358 46.74C73.7291 46.6467 73.8424 46.6 73.9758 46.6H75.5558V43.28C75.5558 43.1467 75.5958 43.0333 75.6758 42.94C75.7691 42.8467 75.8891 42.8 76.0358 42.8H77.6558C77.7891 42.8 77.9024 42.8467 77.9958 42.94C78.0891 43.0333 78.1358 43.1467 78.1358 43.28V46.6H80.6358C80.7691 46.6 80.8824 46.6467 80.9758 46.74C81.0691 46.8333 81.1158 46.9467 81.1158 47.08V48.24C81.1158 48.3733 81.0691 48.4867 80.9758 48.58C80.8824 48.6733 80.7691 48.72 80.6358 48.72H78.1358V53.06C78.1358 53.6067 78.2291 54.0333 78.4158 54.34C78.6158 54.6467 78.9558 54.8 79.4358 54.8H80.8158C80.9491 54.8 81.0624 54.8467 81.1558 54.94C81.2491 55.0333 81.2958 55.1467 81.2958 55.28V56.52C81.2958 56.6533 81.2491 56.7667 81.1558 56.86C81.0624 56.9533 80.9491 57 80.8158 57H79.1958ZM83.55 57C83.4167 57 83.3033 56.9533 83.21 56.86C83.1167 56.7667 83.07 56.6533 83.07 56.52V47.08C83.07 46.9467 83.1167 46.8333 83.21 46.74C83.3033 46.6467 83.4167 46.6 83.55 46.6H85.21C85.3567 46.6 85.47 46.6467 85.55 46.74C85.6433 46.8333 85.69 46.9467 85.69 47.08V56.52C85.69 56.6533 85.6433 56.7667 85.55 56.86C85.47 56.9533 85.3567 57 85.21 57H83.55ZM83.47 44.88C83.3233 44.88 83.2033 44.84 83.11 44.76C83.03 44.6667 82.99 44.5467 82.99 44.4V42.96C82.99 42.8267 83.03 42.7133 83.11 42.62C83.2033 42.5267 83.3233 42.48 83.47 42.48H85.29C85.4367 42.48 85.5567 42.5267 85.65 42.62C85.7433 42.7133 85.79 42.8267 85.79 42.96V44.4C85.79 44.5467 85.7433 44.6667 85.65 44.76C85.5567 44.84 85.4367 44.88 85.29 44.88H83.47ZM92.0234 57C91.8101 57 91.6501 56.9533 91.5434 56.86C91.4501 56.7533 91.3701 56.6333 91.3034 56.5L87.5634 47.22C87.5368 47.1533 87.5234 47.0933 87.5234 47.04C87.5234 46.92 87.5634 46.82 87.6434 46.74C87.7368 46.6467 87.8434 46.6 87.9634 46.6H89.5834C89.7434 46.6 89.8634 46.6467 89.9434 46.74C90.0234 46.82 90.0768 46.9 90.1034 46.98L92.7634 54L95.4234 46.98C95.4501 46.9 95.5034 46.82 95.5834 46.74C95.6634 46.6467 95.7834 46.6 95.9434 46.6H97.5834C97.6901 46.6 97.7834 46.6467 97.8634 46.74C97.9568 46.82 98.0034 46.92 98.0034 47.04C98.0034 47.0933 97.9968 47.1533 97.9834 47.22L94.2234 56.5C94.1701 56.6333 94.0901 56.7533 93.9834 56.86C93.8768 56.9533 93.7168 57 93.5034 57H92.0234ZM100.308 57C100.174 57 100.061 56.9533 99.9678 56.86C99.8745 56.7667 99.8278 56.6533 99.8278 56.52V47.08C99.8278 46.9467 99.8745 46.8333 99.9678 46.74C100.061 46.6467 100.174 46.6 100.308 46.6H101.968C102.114 46.6 102.228 46.6467 102.308 46.74C102.401 46.8333 102.448 46.9467 102.448 47.08V56.52C102.448 56.6533 102.401 56.7667 102.308 56.86C102.228 56.9533 102.114 57 101.968 57H100.308ZM100.228 44.88C100.081 44.88 99.9611 44.84 99.8678 44.76C99.7878 44.6667 99.7478 44.5467 99.7478 44.4V42.96C99.7478 42.8267 99.7878 42.7133 99.8678 42.62C99.9611 42.5267 100.081 42.48 100.228 42.48H102.048C102.194 42.48 102.314 42.5267 102.408 42.62C102.501 42.7133 102.548 42.8267 102.548 42.96V44.4C102.548 44.5467 102.501 44.6667 102.408 44.76C102.314 44.84 102.194 44.88 102.048 44.88H100.228ZM109.801 57C109.001 57 108.328 56.86 107.781 56.58C107.235 56.3 106.828 55.8867 106.561 55.34C106.295 54.78 106.161 54.0867 106.161 53.26V48.72H104.581C104.448 48.72 104.335 48.6733 104.241 48.58C104.148 48.4867 104.101 48.3733 104.101 48.24V47.08C104.101 46.9467 104.148 46.8333 104.241 46.74C104.335 46.6467 104.448 46.6 104.581 46.6H106.161V43.28C106.161 43.1467 106.201 43.0333 106.281 42.94C106.375 42.8467 106.495 42.8 106.641 42.8H108.261C108.395 42.8 108.508 42.8467 108.601 42.94C108.695 43.0333 108.741 43.1467 108.741 43.28V46.6H111.241C111.375 46.6 111.488 46.6467 111.581 46.74C111.675 46.8333 111.721 46.9467 111.721 47.08V48.24C111.721 48.3733 111.675 48.4867 111.581 48.58C111.488 48.6733 111.375 48.72 111.241 48.72H108.741V53.06C108.741 53.6067 108.835 54.0333 109.021 54.34C109.221 54.6467 109.561 54.8 110.041 54.8H111.421C111.555 54.8 111.668 54.8467 111.761 54.94C111.855 55.0333 111.901 55.1467 111.901 55.28V56.52C111.901 56.6533 111.855 56.7667 111.761 56.86C111.668 56.9533 111.555 57 111.421 57H109.801ZM114.155 57C114.022 57 113.909 56.9533 113.815 56.86C113.722 56.7667 113.675 56.6533 113.675 56.52V47.08C113.675 46.9467 113.722 46.8333 113.815 46.74C113.909 46.6467 114.022 46.6 114.155 46.6H115.815C115.962 46.6 116.075 46.6467 116.155 46.74C116.249 46.8333 116.295 46.9467 116.295 47.08V56.52C116.295 56.6533 116.249 56.7667 116.155 56.86C116.075 56.9533 115.962 57 115.815 57H114.155ZM114.075 44.88C113.929 44.88 113.809 44.84 113.715 44.76C113.635 44.6667 113.595 44.5467 113.595 44.4V42.96C113.595 42.8267 113.635 42.7133 113.715 42.62C113.809 42.5267 113.929 42.48 114.075 42.48H115.895C116.042 42.48 116.162 42.5267 116.255 42.62C116.349 42.7133 116.395 42.8267 116.395 42.96V44.4C116.395 44.5467 116.349 44.6667 116.255 44.76C116.162 44.84 116.042 44.88 115.895 44.88H114.075ZM123.488 57.2C122.008 57.2 120.834 56.7733 119.968 55.92C119.101 55.0667 118.634 53.8533 118.568 52.28C118.554 52.1467 118.548 51.98 118.548 51.78C118.548 51.5667 118.554 51.4 118.568 51.28C118.621 50.28 118.848 49.4133 119.248 48.68C119.661 47.9467 120.228 47.3867 120.948 47C121.668 46.6 122.514 46.4 123.488 46.4C124.568 46.4 125.474 46.6267 126.208 47.08C126.941 47.52 127.494 48.14 127.868 48.94C128.241 49.7267 128.428 50.64 128.428 51.68V52.1C128.428 52.2333 128.381 52.3467 128.288 52.44C128.194 52.5333 128.074 52.58 127.928 52.58H121.288C121.288 52.58 121.288 52.6 121.288 52.64C121.288 52.68 121.288 52.7133 121.288 52.74C121.301 53.2067 121.388 53.64 121.548 54.04C121.721 54.4267 121.968 54.74 122.288 54.98C122.621 55.22 123.014 55.34 123.468 55.34C123.841 55.34 124.154 55.2867 124.408 55.18C124.661 55.06 124.868 54.9267 125.028 54.78C125.188 54.6333 125.301 54.5133 125.368 54.42C125.488 54.26 125.581 54.1667 125.648 54.14C125.728 54.1 125.841 54.08 125.988 54.08H127.708C127.841 54.08 127.948 54.12 128.028 54.2C128.121 54.28 128.161 54.38 128.148 54.5C128.134 54.7133 128.021 54.9733 127.808 55.28C127.608 55.5867 127.314 55.8867 126.928 56.18C126.541 56.4733 126.054 56.72 125.468 56.92C124.894 57.1067 124.234 57.2 123.488 57.2ZM121.288 50.9H125.708V50.84C125.708 50.32 125.621 49.8667 125.448 49.48C125.274 49.0933 125.021 48.7867 124.688 48.56C124.354 48.3333 123.954 48.22 123.488 48.22C123.021 48.22 122.621 48.3333 122.288 48.56C121.954 48.7867 121.701 49.0933 121.528 49.48C121.368 49.8667 121.288 50.32 121.288 50.84V50.9ZM134.49 57.2C133.69 57.2 133.004 57.1067 132.43 56.92C131.87 56.7333 131.41 56.5 131.05 56.22C130.69 55.94 130.424 55.66 130.25 55.38C130.077 55.1 129.984 54.8667 129.97 54.68C129.957 54.5333 129.997 54.42 130.09 54.34C130.197 54.2467 130.31 54.2 130.43 54.2H132.01C132.064 54.2 132.11 54.2067 132.15 54.22C132.19 54.2333 132.244 54.2733 132.31 54.34C132.484 54.4867 132.664 54.64 132.85 54.8C133.05 54.96 133.284 55.1 133.55 55.22C133.817 55.3267 134.15 55.38 134.55 55.38C135.07 55.38 135.504 55.28 135.85 55.08C136.21 54.8667 136.39 54.5667 136.39 54.18C136.39 53.9 136.31 53.6733 136.15 53.5C136.004 53.3267 135.724 53.1733 135.31 53.04C134.897 52.8933 134.31 52.74 133.55 52.58C132.804 52.4067 132.184 52.1867 131.69 51.92C131.197 51.6533 130.83 51.32 130.59 50.92C130.35 50.52 130.23 50.0533 130.23 49.52C130.23 49 130.384 48.5067 130.69 48.04C131.01 47.56 131.477 47.1667 132.09 46.86C132.717 46.5533 133.49 46.4 134.41 46.4C135.13 46.4 135.757 46.4933 136.29 46.68C136.824 46.8533 137.264 47.0733 137.61 47.34C137.97 47.6067 138.244 47.88 138.43 48.16C138.617 48.4267 138.717 48.66 138.73 48.86C138.744 49.0067 138.704 49.1267 138.61 49.22C138.517 49.3 138.41 49.34 138.29 49.34H136.81C136.744 49.34 136.684 49.3267 136.63 49.3C136.577 49.2733 136.524 49.24 136.47 49.2C136.324 49.0667 136.164 48.9267 135.99 48.78C135.817 48.6333 135.604 48.5067 135.35 48.4C135.11 48.28 134.79 48.22 134.39 48.22C133.884 48.22 133.497 48.3333 133.23 48.56C132.964 48.7733 132.83 49.0467 132.83 49.38C132.83 49.6067 132.89 49.8067 133.01 49.98C133.144 50.14 133.404 50.2933 133.79 50.44C134.177 50.5867 134.764 50.74 135.55 50.9C136.444 51.06 137.15 51.3 137.67 51.62C138.204 51.9267 138.577 52.2867 138.79 52.7C139.017 53.1 139.13 53.5467 139.13 54.04C139.13 54.64 138.95 55.18 138.59 55.66C138.244 56.14 137.724 56.52 137.03 56.8C136.35 57.0667 135.504 57.2 134.49 57.2Z" fill="black"/>
<g filter="url(#filter0_d_19_98)">
<rect x="48" y="92" width="260" height="216" rx="20" fill="white" shape-rendering="crispEdges"/>
<rect x="125" y="137" width="80" height="80" rx="40" fill="#5D3387"/>
<g clip-path="url(#clip1_19_98)">
<path fill-rule="evenodd" clip-rule="evenodd" d="M165.144 171.971C166.599 171.971 167.994 171.393 169.023 170.365C170.052 169.336 170.629 167.941 170.629 166.486C170.629 165.031 170.052 163.635 169.023 162.607C167.994 161.578 166.599 161 165.144 161C163.689 161 162.294 161.578 161.265 162.607C160.236 163.635 159.658 165.031 159.658 166.486C159.658 167.941 160.236 169.336 161.265 170.365C162.294 171.393 163.689 171.971 165.144 171.971ZM152.344 188.429C152.344 186.748 152.675 185.083 153.318 183.53C153.961 181.977 154.904 180.566 156.093 179.378C157.281 178.189 158.692 177.246 160.245 176.603C161.798 175.96 163.463 175.629 165.144 175.629C166.825 175.629 168.489 175.96 170.042 176.603C171.595 177.246 173.006 178.189 174.195 179.378C175.383 180.566 176.326 181.977 176.969 183.53C177.613 185.083 177.944 186.748 177.944 188.429H152.344Z" fill="white"/>
</g>
<path d="M140.351 256C140.226 256 140.124 255.96 140.045 255.881C139.966 255.802 139.926 255.7 139.926 255.575V244.525C139.926 244.4 139.966 244.298 140.045 244.219C140.124 244.14 140.226 244.1 140.351 244.1H144.992C145.91 244.1 146.703 244.242 147.372 244.525C148.052 244.808 148.579 245.239 148.953 245.817C149.338 246.384 149.531 247.092 149.531 247.942C149.531 248.803 149.338 249.517 148.953 250.084C148.579 250.639 148.052 251.053 147.372 251.325C146.703 251.597 145.91 251.733 144.992 251.733H142.714V255.575C142.714 255.7 142.674 255.802 142.595 255.881C142.516 255.96 142.414 256 142.289 256H140.351ZM142.663 249.625H144.907C145.485 249.625 145.933 249.483 146.25 249.2C146.579 248.917 146.743 248.492 146.743 247.925C146.743 247.426 146.596 247.018 146.301 246.701C146.018 246.384 145.553 246.225 144.907 246.225H142.663V249.625ZM151.486 256C151.373 256 151.276 255.96 151.197 255.881C151.118 255.802 151.078 255.7 151.078 255.575V247.585C151.078 247.472 151.118 247.375 151.197 247.296C151.276 247.205 151.373 247.16 151.486 247.16H153.152C153.265 247.16 153.362 247.205 153.441 247.296C153.532 247.375 153.577 247.472 153.577 247.585V248.265C153.86 247.914 154.206 247.642 154.614 247.449C155.033 247.256 155.515 247.16 156.059 247.16H156.79C156.903 247.16 157 247.2 157.079 247.279C157.158 247.358 157.198 247.46 157.198 247.585V249.047C157.198 249.172 157.158 249.274 157.079 249.353C157 249.432 156.903 249.472 156.79 249.472H155.294C154.795 249.472 154.404 249.614 154.121 249.897C153.838 250.169 153.696 250.56 153.696 251.07V255.575C153.696 255.7 153.656 255.802 153.577 255.881C153.498 255.96 153.396 256 153.271 256H151.486ZM162.412 256.17C161.471 256.17 160.684 256.017 160.049 255.711C159.414 255.394 158.927 254.946 158.587 254.368C158.258 253.79 158.077 253.116 158.043 252.345C158.032 252.118 158.026 251.863 158.026 251.58C158.026 251.285 158.032 251.03 158.043 250.815C158.077 250.033 158.27 249.359 158.621 248.792C158.972 248.214 159.465 247.772 160.1 247.466C160.735 247.149 161.505 246.99 162.412 246.99C163.307 246.99 164.072 247.149 164.707 247.466C165.342 247.772 165.835 248.214 166.186 248.792C166.537 249.359 166.73 250.033 166.764 250.815C166.787 251.03 166.798 251.285 166.798 251.58C166.798 251.863 166.787 252.118 166.764 252.345C166.73 253.116 166.543 253.79 166.203 254.368C165.874 254.946 165.393 255.394 164.758 255.711C164.123 256.017 163.341 256.17 162.412 256.17ZM162.412 254.3C162.967 254.3 163.387 254.13 163.67 253.79C163.953 253.439 164.106 252.929 164.129 252.26C164.14 252.09 164.146 251.863 164.146 251.58C164.146 251.297 164.14 251.07 164.129 250.9C164.106 250.243 163.953 249.738 163.67 249.387C163.387 249.036 162.967 248.86 162.412 248.86C161.857 248.86 161.432 249.036 161.137 249.387C160.854 249.738 160.701 250.243 160.678 250.9C160.667 251.07 160.661 251.297 160.661 251.58C160.661 251.863 160.667 252.09 160.678 252.26C160.701 252.929 160.854 253.439 161.137 253.79C161.432 254.13 161.857 254.3 162.412 254.3ZM169.887 256C169.762 256 169.66 255.96 169.581 255.881C169.502 255.802 169.462 255.7 169.462 255.575V249.166H168.136C168.011 249.166 167.909 249.126 167.83 249.047C167.751 248.968 167.711 248.866 167.711 248.741V247.585C167.711 247.46 167.751 247.358 167.83 247.279C167.909 247.2 168.011 247.16 168.136 247.16H169.462V246.548C169.462 245.823 169.598 245.228 169.87 244.763C170.142 244.298 170.539 243.958 171.06 243.743C171.581 243.528 172.222 243.42 172.981 243.42H176.891C177.004 243.42 177.101 243.46 177.18 243.539C177.259 243.618 177.299 243.72 177.299 243.845V245.001C177.299 245.126 177.259 245.228 177.18 245.307C177.101 245.386 177.004 245.426 176.891 245.426H173.083C172.664 245.426 172.369 245.528 172.199 245.732C172.04 245.936 171.961 246.236 171.961 246.633V247.16H176.891C177.004 247.16 177.101 247.2 177.18 247.279C177.259 247.358 177.299 247.46 177.299 247.585V255.575C177.299 255.7 177.259 255.802 177.18 255.881C177.101 255.96 177.004 256 176.891 256H175.225C175.1 256 174.998 255.96 174.919 255.881C174.84 255.802 174.8 255.7 174.8 255.575V249.166H171.961V255.575C171.961 255.7 171.921 255.802 171.842 255.881C171.763 255.96 171.666 256 171.553 256H169.887ZM179.858 256C179.734 256 179.632 255.96 179.552 255.881C179.473 255.802 179.433 255.7 179.433 255.575V244.355C179.433 244.23 179.473 244.128 179.552 244.049C179.632 243.97 179.734 243.93 179.858 243.93H181.558C181.672 243.93 181.768 243.97 181.847 244.049C181.927 244.128 181.966 244.23 181.966 244.355V255.575C181.966 255.7 181.927 255.802 181.847 255.881C181.768 255.96 181.672 256 181.558 256H179.858ZM188.059 256.17C186.756 256.17 185.719 255.807 184.948 255.082C184.189 254.357 183.786 253.303 183.741 251.92C183.741 251.829 183.741 251.71 183.741 251.563C183.741 251.404 183.741 251.28 183.741 251.189C183.786 250.316 183.985 249.568 184.336 248.945C184.687 248.31 185.18 247.829 185.815 247.5C186.45 247.16 187.192 246.99 188.042 246.99C188.994 246.99 189.787 247.188 190.422 247.585C191.068 247.97 191.55 248.503 191.867 249.183C192.196 249.852 192.36 250.622 192.36 251.495V251.886C192.36 251.999 192.315 252.096 192.224 252.175C192.145 252.254 192.048 252.294 191.935 252.294H186.376C186.376 252.305 186.376 252.328 186.376 252.362C186.376 252.385 186.376 252.407 186.376 252.43C186.387 252.793 186.455 253.127 186.58 253.433C186.716 253.728 186.903 253.966 187.141 254.147C187.39 254.328 187.685 254.419 188.025 254.419C188.308 254.419 188.541 254.379 188.722 254.3C188.903 254.221 189.051 254.124 189.164 254.011C189.289 253.898 189.379 253.801 189.436 253.722C189.538 253.609 189.617 253.541 189.674 253.518C189.742 253.484 189.844 253.467 189.98 253.467H191.748C191.861 253.467 191.952 253.501 192.02 253.569C192.099 253.626 192.133 253.711 192.122 253.824C192.111 254.005 192.014 254.232 191.833 254.504C191.663 254.765 191.408 255.025 191.068 255.286C190.728 255.535 190.303 255.745 189.793 255.915C189.294 256.085 188.716 256.17 188.059 256.17ZM186.376 250.747H189.708V250.713C189.708 250.305 189.64 249.954 189.504 249.659C189.379 249.353 189.192 249.115 188.943 248.945C188.694 248.775 188.393 248.69 188.042 248.69C187.691 248.69 187.39 248.775 187.141 248.945C186.892 249.115 186.699 249.353 186.563 249.659C186.438 249.954 186.376 250.305 186.376 250.713V250.747Z" fill="black"/>
</g>
<g filter="url(#filter1_d_19_98)">
<rect x="349" y="92" width="260" height="216" rx="20" fill="white" shape-rendering="crispEdges"/>
<rect x="425.984" y="137" width="80" height="80" rx="40" fill="#40C7CF"/>
<g clip-path="url(#clip2_19_98)">
<path d="M475.29 167.31C474.81 166.83 474.159 166.561 473.48 166.561C472.801 166.561 472.15 166.83 471.67 167.31L461.96 177.02V180.64H465.58L475.29 170.93C475.77 170.45 476.039 169.799 476.039 169.12C476.039 168.441 475.77 167.79 475.29 167.31Z" fill="white"/>
<path fill-rule="evenodd" clip-rule="evenodd" d="M455.56 171.68C455.56 171.001 455.83 170.35 456.31 169.87C456.79 169.39 457.441 169.12 458.12 169.12H463.24C463.579 169.12 463.905 169.255 464.145 169.495C464.385 169.735 464.52 170.061 464.52 170.4C464.52 170.739 464.385 171.065 464.145 171.305C463.905 171.545 463.579 171.68 463.24 171.68H458.12V184.48H470.92V179.36C470.92 179.021 471.055 178.695 471.295 178.455C471.535 178.215 471.861 178.08 472.2 178.08C472.539 178.08 472.865 178.215 473.105 178.455C473.345 178.695 473.48 179.021 473.48 179.36V184.48C473.48 185.159 473.21 185.81 472.73 186.29C472.25 186.77 471.599 187.04 470.92 187.04H458.12C457.441 187.04 456.79 186.77 456.31 186.29C455.83 185.81 455.56 185.159 455.56 184.48V171.68Z" fill="white"/>
</g>
<path d="M388.74 256.17C387.675 256.17 386.768 255.994 386.02 255.643C385.283 255.28 384.711 254.759 384.303 254.079C383.895 253.388 383.668 252.549 383.623 251.563C383.612 251.098 383.606 250.6 383.606 250.067C383.606 249.534 383.612 249.024 383.623 248.537C383.668 247.562 383.895 246.735 384.303 246.055C384.722 245.364 385.306 244.837 386.054 244.474C386.802 244.111 387.697 243.93 388.74 243.93C389.499 243.93 390.191 244.026 390.814 244.219C391.437 244.412 391.976 244.689 392.429 245.052C392.882 245.415 393.234 245.84 393.483 246.327C393.732 246.814 393.868 247.358 393.891 247.959C393.891 248.061 393.851 248.146 393.772 248.214C393.704 248.282 393.619 248.316 393.517 248.316H391.579C391.443 248.316 391.335 248.282 391.256 248.214C391.177 248.146 391.114 248.033 391.069 247.874C390.899 247.205 390.616 246.746 390.219 246.497C389.822 246.248 389.329 246.123 388.74 246.123C388.037 246.123 387.482 246.316 387.074 246.701C386.666 247.086 386.445 247.727 386.411 248.622C386.377 249.551 386.377 250.503 386.411 251.478C386.445 252.373 386.666 253.014 387.074 253.399C387.482 253.784 388.037 253.977 388.74 253.977C389.329 253.977 389.822 253.852 390.219 253.603C390.627 253.342 390.91 252.883 391.069 252.226C391.114 252.056 391.177 251.943 391.256 251.886C391.335 251.818 391.443 251.784 391.579 251.784H393.517C393.619 251.784 393.704 251.818 393.772 251.886C393.851 251.954 393.891 252.039 393.891 252.141C393.868 252.742 393.732 253.286 393.483 253.773C393.234 254.26 392.882 254.685 392.429 255.048C391.976 255.411 391.437 255.688 390.814 255.881C390.191 256.074 389.499 256.17 388.74 256.17ZM399.66 256.17C398.719 256.17 397.932 256.017 397.297 255.711C396.662 255.394 396.175 254.946 395.835 254.368C395.506 253.79 395.325 253.116 395.291 252.345C395.28 252.118 395.274 251.863 395.274 251.58C395.274 251.285 395.28 251.03 395.291 250.815C395.325 250.033 395.518 249.359 395.869 248.792C396.22 248.214 396.713 247.772 397.348 247.466C397.983 247.149 398.753 246.99 399.66 246.99C400.555 246.99 401.32 247.149 401.955 247.466C402.59 247.772 403.083 248.214 403.434 248.792C403.785 249.359 403.978 250.033 404.012 250.815C404.035 251.03 404.046 251.285 404.046 251.58C404.046 251.863 404.035 252.118 404.012 252.345C403.978 253.116 403.791 253.79 403.451 254.368C403.122 254.946 402.641 255.394 402.006 255.711C401.371 256.017 400.589 256.17 399.66 256.17ZM399.66 254.3C400.215 254.3 400.635 254.13 400.918 253.79C401.201 253.439 401.354 252.929 401.377 252.26C401.388 252.09 401.394 251.863 401.394 251.58C401.394 251.297 401.388 251.07 401.377 250.9C401.354 250.243 401.201 249.738 400.918 249.387C400.635 249.036 400.215 248.86 399.66 248.86C399.105 248.86 398.68 249.036 398.385 249.387C398.102 249.738 397.949 250.243 397.926 250.9C397.915 251.07 397.909 251.297 397.909 251.58C397.909 251.863 397.915 252.09 397.926 252.26C397.949 252.929 398.102 253.439 398.385 253.79C398.68 254.13 399.105 254.3 399.66 254.3ZM409.071 256.17C408.414 256.17 407.83 256.023 407.32 255.728C406.821 255.422 406.43 254.986 406.147 254.419C405.875 253.841 405.739 253.144 405.739 252.328V247.585C405.739 247.46 405.779 247.358 405.858 247.279C405.937 247.2 406.034 247.16 406.147 247.16H407.949C408.074 247.16 408.176 247.2 408.255 247.279C408.334 247.358 408.374 247.46 408.374 247.585V252.226C408.374 253.495 408.929 254.13 410.04 254.13C410.573 254.13 410.992 253.966 411.298 253.637C411.615 253.297 411.774 252.827 411.774 252.226V247.585C411.774 247.46 411.814 247.358 411.893 247.279C411.972 247.2 412.074 247.16 412.199 247.16H414.001C414.114 247.16 414.211 247.2 414.29 247.279C414.369 247.358 414.409 247.46 414.409 247.585V255.575C414.409 255.7 414.369 255.802 414.29 255.881C414.211 255.96 414.114 256 414.001 256H412.335C412.21 256 412.108 255.96 412.029 255.881C411.95 255.802 411.91 255.7 411.91 255.575V254.912C411.615 255.32 411.236 255.632 410.771 255.847C410.306 256.062 409.74 256.17 409.071 256.17ZM416.957 256C416.843 256 416.747 255.96 416.668 255.881C416.588 255.802 416.549 255.7 416.549 255.575V247.585C416.549 247.472 416.588 247.375 416.668 247.296C416.747 247.205 416.843 247.16 416.957 247.16H418.623C418.736 247.16 418.832 247.205 418.912 247.296C419.002 247.375 419.048 247.472 419.048 247.585V248.265C419.331 247.914 419.677 247.642 420.085 247.449C420.504 247.256 420.986 247.16 421.53 247.16H422.261C422.374 247.16 422.47 247.2 422.55 247.279C422.629 247.358 422.669 247.46 422.669 247.585V249.047C422.669 249.172 422.629 249.274 422.55 249.353C422.47 249.432 422.374 249.472 422.261 249.472H420.765C420.266 249.472 419.875 249.614 419.592 249.897C419.308 250.169 419.167 250.56 419.167 251.07V255.575C419.167 255.7 419.127 255.802 419.048 255.881C418.968 255.96 418.866 256 418.742 256H416.957ZM427.421 256.17C426.719 256.17 426.112 256.091 425.602 255.932C425.104 255.762 424.696 255.558 424.378 255.32C424.072 255.082 423.84 254.844 423.681 254.606C423.534 254.357 423.455 254.147 423.443 253.977C423.432 253.852 423.472 253.75 423.562 253.671C423.653 253.592 423.744 253.552 423.834 253.552H425.483C425.517 253.552 425.551 253.558 425.585 253.569C425.619 253.58 425.653 253.609 425.687 253.654C425.835 253.756 425.988 253.875 426.146 254.011C426.305 254.136 426.486 254.243 426.69 254.334C426.906 254.425 427.172 254.47 427.489 254.47C427.863 254.47 428.181 254.396 428.441 254.249C428.702 254.09 428.832 253.869 428.832 253.586C428.832 253.382 428.77 253.212 428.645 253.076C428.532 252.94 428.311 252.815 427.982 252.702C427.654 252.589 427.166 252.464 426.52 252.328C425.908 252.192 425.387 252.011 424.956 251.784C424.526 251.557 424.203 251.274 423.987 250.934C423.772 250.583 423.664 250.163 423.664 249.676C423.664 249.234 423.8 248.809 424.072 248.401C424.356 247.993 424.769 247.659 425.313 247.398C425.857 247.126 426.537 246.99 427.353 246.99C427.977 246.99 428.521 247.069 428.985 247.228C429.461 247.375 429.858 247.568 430.175 247.806C430.493 248.033 430.731 248.271 430.889 248.52C431.059 248.758 431.15 248.968 431.161 249.149C431.173 249.262 431.139 249.359 431.059 249.438C430.98 249.517 430.889 249.557 430.787 249.557H429.274C429.218 249.557 429.167 249.551 429.121 249.54C429.076 249.517 429.036 249.489 429.002 249.455C428.866 249.364 428.725 249.262 428.577 249.149C428.441 249.024 428.277 248.917 428.084 248.826C427.892 248.735 427.642 248.69 427.336 248.69C426.962 248.69 426.673 248.775 426.469 248.945C426.277 249.104 426.18 249.308 426.18 249.557C426.18 249.716 426.231 249.863 426.333 249.999C426.435 250.135 426.645 250.26 426.962 250.373C427.28 250.486 427.761 250.605 428.407 250.73C429.178 250.866 429.79 251.07 430.243 251.342C430.697 251.614 431.02 251.931 431.212 252.294C431.416 252.645 431.518 253.025 431.518 253.433C431.518 253.966 431.36 254.442 431.042 254.861C430.725 255.269 430.26 255.592 429.648 255.83C429.048 256.057 428.305 256.17 427.421 256.17ZM437.094 256.17C435.791 256.17 434.754 255.807 433.983 255.082C433.224 254.357 432.821 253.303 432.776 251.92C432.776 251.829 432.776 251.71 432.776 251.563C432.776 251.404 432.776 251.28 432.776 251.189C432.821 250.316 433.02 249.568 433.371 248.945C433.722 248.31 434.215 247.829 434.85 247.5C435.485 247.16 436.227 246.99 437.077 246.99C438.029 246.99 438.822 247.188 439.457 247.585C440.103 247.97 440.585 248.503 440.902 249.183C441.231 249.852 441.395 250.622 441.395 251.495V251.886C441.395 251.999 441.35 252.096 441.259 252.175C441.18 252.254 441.083 252.294 440.97 252.294H435.411C435.411 252.305 435.411 252.328 435.411 252.362C435.411 252.385 435.411 252.407 435.411 252.43C435.422 252.793 435.49 253.127 435.615 253.433C435.751 253.728 435.938 253.966 436.176 254.147C436.425 254.328 436.72 254.419 437.06 254.419C437.343 254.419 437.576 254.379 437.757 254.3C437.938 254.221 438.086 254.124 438.199 254.011C438.324 253.898 438.414 253.801 438.471 253.722C438.573 253.609 438.652 253.541 438.709 253.518C438.777 253.484 438.879 253.467 439.015 253.467H440.783C440.896 253.467 440.987 253.501 441.055 253.569C441.134 253.626 441.168 253.711 441.157 253.824C441.146 254.005 441.049 254.232 440.868 254.504C440.698 254.765 440.443 255.025 440.103 255.286C439.763 255.535 439.338 255.745 438.828 255.915C438.329 256.085 437.751 256.17 437.094 256.17ZM435.411 250.747H438.743V250.713C438.743 250.305 438.675 249.954 438.539 249.659C438.414 249.353 438.227 249.115 437.978 248.945C437.729 248.775 437.428 248.69 437.077 248.69C436.726 248.69 436.425 248.775 436.176 248.945C435.927 249.115 435.734 249.353 435.598 249.659C435.473 249.954 435.411 250.305 435.411 250.713V250.747ZM447.458 256C447.334 256 447.232 255.96 447.152 255.881C447.073 255.802 447.033 255.7 447.033 255.575V244.525C447.033 244.4 447.073 244.298 447.152 244.219C447.232 244.14 447.334 244.1 447.458 244.1H451.963C453.38 244.1 454.496 244.429 455.312 245.086C456.128 245.732 456.536 246.667 456.536 247.891C456.536 248.718 456.338 249.41 455.941 249.965C455.545 250.52 455.012 250.934 454.343 251.206L456.74 255.456C456.774 255.524 456.791 255.586 456.791 255.643C456.791 255.734 456.757 255.819 456.689 255.898C456.621 255.966 456.536 256 456.434 256H454.547C454.343 256 454.19 255.949 454.088 255.847C453.986 255.734 453.913 255.632 453.867 255.541L451.793 251.648H449.736V255.575C449.736 255.7 449.697 255.802 449.617 255.881C449.538 255.96 449.436 256 449.311 256H447.458ZM449.736 249.489H451.912C452.536 249.489 452.995 249.347 453.289 249.064C453.595 248.781 453.748 248.384 453.748 247.874C453.748 247.364 453.601 246.962 453.306 246.667C453.012 246.372 452.547 246.225 451.912 246.225H449.736V249.489ZM462.262 256.17C460.959 256.17 459.922 255.807 459.151 255.082C458.392 254.357 457.989 253.303 457.944 251.92C457.944 251.829 457.944 251.71 457.944 251.563C457.944 251.404 457.944 251.28 457.944 251.189C457.989 250.316 458.188 249.568 458.539 248.945C458.89 248.31 459.383 247.829 460.018 247.5C460.653 247.16 461.395 246.99 462.245 246.99C463.197 246.99 463.99 247.188 464.625 247.585C465.271 247.97 465.753 248.503 466.07 249.183C466.399 249.852 466.563 250.622 466.563 251.495V251.886C466.563 251.999 466.518 252.096 466.427 252.175C466.348 252.254 466.251 252.294 466.138 252.294H460.579C460.579 252.305 460.579 252.328 460.579 252.362C460.579 252.385 460.579 252.407 460.579 252.43C460.59 252.793 460.658 253.127 460.783 253.433C460.919 253.728 461.106 253.966 461.344 254.147C461.593 254.328 461.888 254.419 462.228 254.419C462.511 254.419 462.744 254.379 462.925 254.3C463.106 254.221 463.254 254.124 463.367 254.011C463.492 253.898 463.582 253.801 463.639 253.722C463.741 253.609 463.82 253.541 463.877 253.518C463.945 253.484 464.047 253.467 464.183 253.467H465.951C466.064 253.467 466.155 253.501 466.223 253.569C466.302 253.626 466.336 253.711 466.325 253.824C466.314 254.005 466.217 254.232 466.036 254.504C465.866 254.765 465.611 255.025 465.271 255.286C464.931 255.535 464.506 255.745 463.996 255.915C463.497 256.085 462.919 256.17 462.262 256.17ZM460.579 250.747H463.911V250.713C463.911 250.305 463.843 249.954 463.707 249.659C463.582 249.353 463.395 249.115 463.146 248.945C462.897 248.775 462.596 248.69 462.245 248.69C461.894 248.69 461.593 248.775 461.344 248.945C461.095 249.115 460.902 249.353 460.766 249.659C460.641 249.954 460.579 250.305 460.579 250.713V250.747ZM472.41 259.74C471.572 259.74 470.875 259.627 470.319 259.4C469.764 259.185 469.322 258.918 468.993 258.601C468.676 258.295 468.449 257.989 468.313 257.683C468.177 257.377 468.104 257.139 468.092 256.969C468.081 256.844 468.121 256.742 468.211 256.663C468.302 256.584 468.404 256.544 468.517 256.544H470.336C470.438 256.544 470.523 256.567 470.591 256.612C470.671 256.669 470.733 256.759 470.778 256.884C470.835 257.02 470.914 257.162 471.016 257.309C471.118 257.468 471.271 257.598 471.475 257.7C471.691 257.802 471.974 257.853 472.325 257.853C472.722 257.853 473.051 257.796 473.311 257.683C473.572 257.57 473.765 257.377 473.889 257.105C474.025 256.833 474.093 256.465 474.093 256V254.861C473.821 255.156 473.476 255.399 473.056 255.592C472.648 255.785 472.144 255.881 471.543 255.881C470.954 255.881 470.433 255.79 469.979 255.609C469.537 255.416 469.169 255.15 468.874 254.81C468.58 254.459 468.353 254.039 468.194 253.552C468.036 253.065 467.945 252.515 467.922 251.903C467.911 251.597 467.911 251.297 467.922 251.002C467.945 250.413 468.036 249.874 468.194 249.387C468.353 248.9 468.58 248.48 468.874 248.129C469.169 247.766 469.537 247.489 469.979 247.296C470.433 247.092 470.954 246.99 471.543 246.99C472.167 246.99 472.699 247.109 473.141 247.347C473.583 247.585 473.946 247.88 474.229 248.231V247.585C474.229 247.472 474.269 247.375 474.348 247.296C474.428 247.205 474.524 247.16 474.637 247.16H476.303C476.417 247.16 476.513 247.205 476.592 247.296C476.683 247.375 476.728 247.472 476.728 247.585L476.745 255.762C476.745 256.612 476.581 257.332 476.252 257.921C475.924 258.51 475.436 258.958 474.79 259.264C474.156 259.581 473.362 259.74 472.41 259.74ZM472.325 253.892C472.733 253.892 473.062 253.801 473.311 253.62C473.572 253.427 473.765 253.189 473.889 252.906C474.014 252.611 474.082 252.305 474.093 251.988C474.105 251.863 474.11 251.688 474.11 251.461C474.11 251.223 474.105 251.042 474.093 250.917C474.082 250.6 474.014 250.299 473.889 250.016C473.765 249.721 473.572 249.483 473.311 249.302C473.062 249.121 472.733 249.03 472.325 249.03C471.895 249.03 471.555 249.126 471.305 249.319C471.056 249.5 470.875 249.744 470.761 250.05C470.648 250.356 470.58 250.69 470.557 251.053C470.546 251.325 470.546 251.591 470.557 251.852C470.58 252.226 470.648 252.566 470.761 252.872C470.875 253.178 471.056 253.427 471.305 253.62C471.555 253.801 471.895 253.892 472.325 253.892ZM479.295 256C479.182 256 479.086 255.96 479.006 255.881C478.927 255.802 478.887 255.7 478.887 255.575V247.585C478.887 247.46 478.927 247.358 479.006 247.279C479.086 247.2 479.182 247.16 479.295 247.16H480.995C481.12 247.16 481.222 247.2 481.301 247.279C481.381 247.358 481.42 247.46 481.42 247.585V255.575C481.42 255.7 481.381 255.802 481.301 255.881C481.222 255.96 481.12 256 480.995 256H479.295ZM479.244 245.8C479.131 245.8 479.035 245.76 478.955 245.681C478.876 245.602 478.836 245.5 478.836 245.375V244.015C478.836 243.89 478.876 243.788 478.955 243.709C479.035 243.618 479.131 243.573 479.244 243.573H481.029C481.154 243.573 481.256 243.618 481.335 243.709C481.426 243.788 481.471 243.89 481.471 244.015V245.375C481.471 245.5 481.426 245.602 481.335 245.681C481.256 245.76 481.154 245.8 481.029 245.8H479.244ZM487.303 256.17C486.6 256.17 485.994 256.091 485.484 255.932C484.985 255.762 484.577 255.558 484.26 255.32C483.954 255.082 483.722 254.844 483.563 254.606C483.416 254.357 483.336 254.147 483.325 253.977C483.314 253.852 483.353 253.75 483.444 253.671C483.535 253.592 483.625 253.552 483.716 253.552H485.365C485.399 253.552 485.433 253.558 485.467 253.569C485.501 253.58 485.535 253.609 485.569 253.654C485.716 253.756 485.869 253.875 486.028 254.011C486.187 254.136 486.368 254.243 486.572 254.334C486.787 254.425 487.054 254.47 487.371 254.47C487.745 254.47 488.062 254.396 488.323 254.249C488.584 254.09 488.714 253.869 488.714 253.586C488.714 253.382 488.652 253.212 488.527 253.076C488.414 252.94 488.193 252.815 487.864 252.702C487.535 252.589 487.048 252.464 486.402 252.328C485.79 252.192 485.269 252.011 484.838 251.784C484.407 251.557 484.084 251.274 483.869 250.934C483.654 250.583 483.546 250.163 483.546 249.676C483.546 249.234 483.682 248.809 483.954 248.401C484.237 247.993 484.651 247.659 485.195 247.398C485.739 247.126 486.419 246.99 487.235 246.99C487.858 246.99 488.402 247.069 488.867 247.228C489.343 247.375 489.74 247.568 490.057 247.806C490.374 248.033 490.612 248.271 490.771 248.52C490.941 248.758 491.032 248.968 491.043 249.149C491.054 249.262 491.02 249.359 490.941 249.438C490.862 249.517 490.771 249.557 490.669 249.557H489.156C489.099 249.557 489.048 249.551 489.003 249.54C488.958 249.517 488.918 249.489 488.884 249.455C488.748 249.364 488.606 249.262 488.459 249.149C488.323 249.024 488.159 248.917 487.966 248.826C487.773 248.735 487.524 248.69 487.218 248.69C486.844 248.69 486.555 248.775 486.351 248.945C486.158 249.104 486.062 249.308 486.062 249.557C486.062 249.716 486.113 249.863 486.215 249.999C486.317 250.135 486.527 250.26 486.844 250.373C487.161 250.486 487.643 250.605 488.289 250.73C489.06 250.866 489.672 251.07 490.125 251.342C490.578 251.614 490.901 251.931 491.094 252.294C491.298 252.645 491.4 253.025 491.4 253.433C491.4 253.966 491.241 254.442 490.924 254.861C490.607 255.269 490.142 255.592 489.53 255.83C488.929 256.057 488.187 256.17 487.303 256.17ZM497.249 256C496.546 256 495.945 255.887 495.447 255.66C494.948 255.422 494.568 255.059 494.308 254.572C494.058 254.085 493.934 253.473 493.934 252.736V249.166H492.608C492.483 249.166 492.381 249.126 492.302 249.047C492.222 248.968 492.183 248.866 492.183 248.741V247.585C492.183 247.46 492.222 247.358 492.302 247.279C492.381 247.2 492.483 247.16 492.608 247.16H493.934V244.355C493.934 244.23 493.973 244.128 494.053 244.049C494.143 243.97 494.245 243.93 494.359 243.93H496.025C496.149 243.93 496.251 243.97 496.331 244.049C496.41 244.128 496.45 244.23 496.45 244.355V247.16H498.575C498.688 247.16 498.784 247.2 498.864 247.279C498.943 247.358 498.983 247.46 498.983 247.585V248.741C498.983 248.866 498.943 248.968 498.864 249.047C498.784 249.126 498.688 249.166 498.575 249.166H496.45V252.532C496.45 252.963 496.523 253.303 496.671 253.552C496.829 253.79 497.101 253.909 497.487 253.909H498.728C498.841 253.909 498.937 253.949 499.017 254.028C499.096 254.107 499.136 254.204 499.136 254.317V255.575C499.136 255.7 499.096 255.802 499.017 255.881C498.937 255.96 498.841 256 498.728 256H497.249ZM501.027 256C500.914 256 500.817 255.96 500.738 255.881C500.659 255.802 500.619 255.7 500.619 255.575V247.585C500.619 247.472 500.659 247.375 500.738 247.296C500.817 247.205 500.914 247.16 501.027 247.16H502.693C502.806 247.16 502.903 247.205 502.982 247.296C503.073 247.375 503.118 247.472 503.118 247.585V248.265C503.401 247.914 503.747 247.642 504.155 247.449C504.574 247.256 505.056 247.16 505.6 247.16H506.331C506.444 247.16 506.541 247.2 506.62 247.279C506.699 247.358 506.739 247.46 506.739 247.585V249.047C506.739 249.172 506.699 249.274 506.62 249.353C506.541 249.432 506.444 249.472 506.331 249.472H504.835C504.336 249.472 503.945 249.614 503.662 249.897C503.379 250.169 503.237 250.56 503.237 251.07V255.575C503.237 255.7 503.197 255.802 503.118 255.881C503.039 255.96 502.937 256 502.812 256H501.027ZM510.458 256.17C509.857 256.17 509.319 256.057 508.843 255.83C508.367 255.592 507.987 255.275 507.704 254.878C507.421 254.481 507.279 254.039 507.279 253.552C507.279 252.747 507.602 252.113 508.248 251.648C508.905 251.183 509.767 250.866 510.832 250.696L513.059 250.373V250.067C513.059 249.625 512.957 249.285 512.753 249.047C512.549 248.809 512.192 248.69 511.682 248.69C511.308 248.69 511.008 248.764 510.781 248.911C510.554 249.058 510.379 249.251 510.254 249.489C510.163 249.636 510.033 249.71 509.863 249.71H508.248C508.123 249.71 508.027 249.676 507.959 249.608C507.891 249.529 507.863 249.438 507.874 249.336C507.874 249.143 507.948 248.917 508.095 248.656C508.242 248.395 508.469 248.14 508.775 247.891C509.081 247.63 509.472 247.415 509.948 247.245C510.424 247.075 511.008 246.99 511.699 246.99C512.413 246.99 513.025 247.075 513.535 247.245C514.045 247.415 514.453 247.653 514.759 247.959C515.065 248.265 515.292 248.622 515.439 249.03C515.586 249.427 515.66 249.857 515.66 250.322V255.575C515.66 255.7 515.62 255.802 515.541 255.881C515.462 255.96 515.36 256 515.235 256H513.569C513.456 256 513.359 255.96 513.28 255.881C513.201 255.802 513.161 255.7 513.161 255.575V254.946C513.014 255.161 512.815 255.365 512.566 255.558C512.317 255.739 512.016 255.887 511.665 256C511.325 256.113 510.923 256.17 510.458 256.17ZM511.138 254.402C511.512 254.402 511.846 254.323 512.141 254.164C512.436 254.005 512.668 253.762 512.838 253.433C513.008 253.104 513.093 252.691 513.093 252.192V251.903L511.512 252.158C510.9 252.26 510.452 252.413 510.169 252.617C509.886 252.821 509.744 253.07 509.744 253.365C509.744 253.58 509.806 253.767 509.931 253.926C510.067 254.085 510.243 254.204 510.458 254.283C510.673 254.362 510.9 254.402 511.138 254.402ZM521.902 256C521.199 256 520.599 255.887 520.1 255.66C519.601 255.422 519.222 255.059 518.961 254.572C518.712 254.085 518.587 253.473 518.587 252.736V249.166H517.261C517.136 249.166 517.034 249.126 516.955 249.047C516.876 248.968 516.836 248.866 516.836 248.741V247.585C516.836 247.46 516.876 247.358 516.955 247.279C517.034 247.2 517.136 247.16 517.261 247.16H518.587V244.355C518.587 244.23 518.627 244.128 518.706 244.049C518.797 243.97 518.899 243.93 519.012 243.93H520.678C520.803 243.93 520.905 243.97 520.984 244.049C521.063 244.128 521.103 244.23 521.103 244.355V247.16H523.228C523.341 247.16 523.438 247.2 523.517 247.279C523.596 247.358 523.636 247.46 523.636 247.585V248.741C523.636 248.866 523.596 248.968 523.517 249.047C523.438 249.126 523.341 249.166 523.228 249.166H521.103V252.532C521.103 252.963 521.177 253.303 521.324 253.552C521.483 253.79 521.755 253.909 522.14 253.909H523.381C523.494 253.909 523.591 253.949 523.67 254.028C523.749 254.107 523.789 254.204 523.789 254.317V255.575C523.789 255.7 523.749 255.802 523.67 255.881C523.591 255.96 523.494 256 523.381 256H521.902ZM525.68 256C525.567 256 525.471 255.96 525.391 255.881C525.312 255.802 525.272 255.7 525.272 255.575V247.585C525.272 247.46 525.312 247.358 525.391 247.279C525.471 247.2 525.567 247.16 525.68 247.16H527.38C527.505 247.16 527.607 247.2 527.686 247.279C527.766 247.358 527.805 247.46 527.805 247.585V255.575C527.805 255.7 527.766 255.802 527.686 255.881C527.607 255.96 527.505 256 527.38 256H525.68ZM525.629 245.8C525.516 245.8 525.42 245.76 525.34 245.681C525.261 245.602 525.221 245.5 525.221 245.375V244.015C525.221 243.89 525.261 243.788 525.34 243.709C525.42 243.618 525.516 243.573 525.629 243.573H527.414C527.539 243.573 527.641 243.618 527.72 243.709C527.811 243.788 527.856 243.89 527.856 244.015V245.375C527.856 245.5 527.811 245.602 527.72 245.681C527.641 245.76 527.539 245.8 527.414 245.8H525.629ZM534.05 256.17C533.109 256.17 532.321 256.017 531.687 255.711C531.052 255.394 530.565 254.946 530.225 254.368C529.896 253.79 529.715 253.116 529.681 252.345C529.669 252.118 529.664 251.863 529.664 251.58C529.664 251.285 529.669 251.03 529.681 250.815C529.715 250.033 529.907 249.359 530.259 248.792C530.61 248.214 531.103 247.772 531.738 247.466C532.372 247.149 533.143 246.99 534.05 246.99C534.945 246.99 535.71 247.149 536.345 247.466C536.979 247.772 537.472 248.214 537.824 248.792C538.175 249.359 538.368 250.033 538.402 250.815C538.424 251.03 538.436 251.285 538.436 251.58C538.436 251.863 538.424 252.118 538.402 252.345C538.368 253.116 538.181 253.79 537.841 254.368C537.512 254.946 537.03 255.394 536.396 255.711C535.761 256.017 534.979 256.17 534.05 256.17ZM534.05 254.3C534.605 254.3 535.024 254.13 535.308 253.79C535.591 253.439 535.744 252.929 535.767 252.26C535.778 252.09 535.784 251.863 535.784 251.58C535.784 251.297 535.778 251.07 535.767 250.9C535.744 250.243 535.591 249.738 535.308 249.387C535.024 249.036 534.605 248.86 534.05 248.86C533.494 248.86 533.069 249.036 532.775 249.387C532.491 249.738 532.338 250.243 532.316 250.9C532.304 251.07 532.299 251.297 532.299 251.58C532.299 251.863 532.304 252.09 532.316 252.26C532.338 252.929 532.491 253.439 532.775 253.79C533.069 254.13 533.494 254.3 534.05 254.3ZM540.622 256C540.508 256 540.412 255.96 540.333 255.881C540.253 255.802 540.214 255.7 540.214 255.575V247.585C540.214 247.46 540.253 247.358 540.333 247.279C540.412 247.2 540.508 247.16 540.622 247.16H542.288C542.412 247.16 542.514 247.2 542.594 247.279C542.673 247.358 542.713 247.46 542.713 247.585V248.248C543.007 247.885 543.387 247.585 543.852 247.347C544.316 247.109 544.883 246.99 545.552 246.99C546.22 246.99 546.804 247.143 547.303 247.449C547.813 247.744 548.209 248.18 548.493 248.758C548.787 249.325 548.935 250.016 548.935 250.832V255.575C548.935 255.7 548.889 255.802 548.799 255.881C548.719 255.96 548.623 256 548.51 256H546.708C546.583 256 546.481 255.96 546.402 255.881C546.322 255.802 546.283 255.7 546.283 255.575V250.934C546.283 250.333 546.135 249.869 545.841 249.54C545.557 249.2 545.138 249.03 544.583 249.03C544.05 249.03 543.625 249.2 543.308 249.54C542.99 249.869 542.832 250.333 542.832 250.934V255.575C542.832 255.7 542.792 255.802 542.713 255.881C542.633 255.96 542.537 256 542.424 256H540.622Z" fill="black"/>
</g>
<line x1="182.5" y1="28" x2="182.5" y2="72" stroke="#DA7B7B"/>
<line x1="609.5" y1="28" x2="609.5" y2="72" stroke="#D87C7C"/>
<line x1="182" y1="47.5" x2="609" y2="47.5" stroke="#D87C7C"/>
<line x1="351" y1="92.5" x2="307" y2="92.5" stroke="#DA7B7B"/>
<line x1="331.5" y1="92" x2="331.5" y2="308" stroke="#D87C7C"/>
<line x1="351" y1="308.5" x2="307" y2="308.5" stroke="#DA7B7B"/>
<line x1="48.5" y1="325" x2="48.5" y2="369" stroke="#DA7B7B"/>
<line x1="612.5" y1="325" x2="612.5" y2="369" stroke="#D87C7C"/>
<line x1="48" y1="344.5" x2="612" y2="344.5" stroke="#D87C7C"/>
</g>
<defs>
<filter id="filter0_d_19_98" x="25" y="81" width="306" height="262" filterUnits="userSpaceOnUse" color-interpolation-filters="sRGB">
<feFlood flood-opacity="0" result="BackgroundImageFix"/>
<feColorMatrix in="SourceAlpha" type="matrix" values="0 0 0 0 0 0 0 0 0 0 0 0 0 0 0 0 0 0 127 0" result="hardAlpha"/>
<feOffset dy="12"/>
<feGaussianBlur stdDeviation="11.5"/>
<feComposite in2="hardAlpha" operator="out"/>
<feColorMatrix type="matrix" values="0 0 0 0 0.247059 0 0 0 0 0.603922 0 0 0 0 0.878431 0 0 0 0.04 0"/>
<feBlend mode="normal" in2="BackgroundImageFix" result="effect1_dropShadow_19_98"/>
<feBlend mode="normal" in="SourceGraphic" in2="effect1_dropShadow_19_98" result="shape"/>
</filter>
<filter id="filter1_d_19_98" x="326" y="81" width="306" height="262" filterUnits="userSpaceOnUse" color-interpolation-filters="sRGB">
<feFlood flood-opacity="0" result="BackgroundImageFix"/>
<feColorMatrix in="SourceAlpha" type="matrix" values="0 0 0 0 0 0 0 0 0 0 0 0 0 0 0 0 0 0 127 0" result="hardAlpha"/>
<feOffset dy="12"/>
<feGaussianBlur stdDeviation="11.5"/>
<feComposite in2="hardAlpha" operator="out"/>
<feColorMatrix type="matrix" values="0 0 0 0 0.247059 0 0 0 0 0.603922 0 0 0 0 0.878431 0 0 0 0.04 0"/>
<feBlend mode="normal" in2="BackgroundImageFix" result="effect1_dropShadow_19_98"/>
<feBlend mode="normal" in="SourceGraphic" in2="effect1_dropShadow_19_98" result="shape"/>
</filter>
<clipPath id="clip0_19_98">
<rect width="657" height="381" fill="white"/>
</clipPath>
<clipPath id="clip1_19_98">
<rect width="32" height="32" fill="white" transform="translate(149 161)"/>
</clipPath>
<clipPath id="clip2_19_98">
<rect width="32" height="32" fill="white" transform="translate(449.984 161)"/>
</clipPath>
</defs>
</svg>
