<svg width="5424" height="4586" viewBox="0 0 5424 4586" fill="none" xmlns="http://www.w3.org/2000/svg">
<path d="M2712 4586L0.000287821 2293L2712 0.000237091L5424 2293L2712 4586Z" fill="#FAFAFA"/>
<path d="M2712 4582L3812 2978H1612L2712 4582Z" fill="#EAEAEA"/>
<path d="M5062 1144H362L1038 2152H4374L5062 1144Z" fill="#C2C2C2"/>
<path d="M1726.2 1562.36H1782.36L1830.01 1678.54H1832.2L1879.85 1562.36H1936.01V1750H1891.85V1634.74H1890.29L1845.21 1748.81H1817L1771.92 1634.1H1770.36V1750H1726.2V1562.36ZM2029.99 1752.66C2015.21 1752.66 2002.5 1749.63 1991.87 1743.59C1981.31 1737.48 1973.15 1728.99 1967.41 1718.12C1961.73 1707.18 1958.89 1694.51 1958.89 1680.09C1958.89 1665.62 1961.73 1652.94 1967.41 1642.07C1973.15 1631.14 1981.31 1622.65 1991.87 1616.6C2002.5 1610.49 2015.21 1607.44 2029.99 1607.44C2044.77 1607.44 2057.44 1610.49 2068.01 1616.6C2078.64 1622.65 2086.79 1631.14 2092.47 1642.07C2098.21 1652.94 2101.08 1665.62 2101.08 1680.09C2101.08 1694.51 2098.21 1707.18 2092.47 1718.12C2086.79 1728.99 2078.64 1737.48 2068.01 1743.59C2057.44 1749.63 2044.77 1752.66 2029.99 1752.66ZM2030.26 1718.85C2035.64 1718.85 2040.19 1717.2 2043.91 1713.9C2047.64 1710.6 2050.48 1706.02 2052.43 1700.16C2054.45 1694.3 2055.46 1687.52 2055.46 1679.82C2055.46 1672 2054.45 1665.16 2052.43 1659.3C2050.48 1653.43 2047.64 1648.85 2043.91 1645.55C2040.19 1642.26 2035.64 1640.61 2030.26 1640.61C2024.7 1640.61 2020 1642.26 2016.15 1645.55C2012.37 1648.85 2009.47 1653.43 2007.45 1659.3C2005.49 1665.16 2004.52 1672 2004.52 1679.82C2004.52 1687.52 2005.49 1694.3 2007.45 1700.16C2009.47 1706.02 2012.37 1710.6 2016.15 1713.9C2020 1717.2 2024.7 1718.85 2030.26 1718.85ZM2246.9 1652.24L2205.76 1653.34C2205.33 1650.41 2204.17 1647.81 2202.28 1645.55C2200.38 1643.23 2197.91 1641.43 2194.86 1640.15C2191.86 1638.8 2188.38 1638.13 2184.41 1638.13C2179.22 1638.13 2174.79 1639.17 2171.13 1641.25C2167.52 1643.32 2165.75 1646.13 2165.81 1649.68C2165.75 1652.43 2166.85 1654.81 2169.11 1656.82C2171.43 1658.84 2175.56 1660.46 2181.48 1661.68L2208.6 1666.81C2222.65 1669.5 2233.09 1673.96 2239.93 1680.19C2246.84 1686.42 2250.32 1694.66 2250.38 1704.92C2250.32 1714.57 2247.45 1722.97 2241.77 1730.12C2236.15 1737.26 2228.45 1742.82 2218.68 1746.79C2208.91 1750.7 2197.73 1752.66 2185.15 1752.66C2165.05 1752.66 2149.2 1748.53 2137.59 1740.29C2126.05 1731.98 2119.45 1720.87 2117.8 1706.94L2162.06 1705.84C2163.03 1710.97 2165.57 1714.88 2169.66 1717.57C2173.75 1720.25 2178.98 1721.6 2185.33 1721.6C2191.07 1721.6 2195.74 1720.53 2199.35 1718.39C2202.95 1716.25 2204.78 1713.41 2204.84 1709.87C2204.78 1706.69 2203.38 1704.16 2200.63 1702.27C2197.88 1700.31 2193.57 1698.78 2187.71 1697.69L2163.16 1693.01C2149.05 1690.45 2138.54 1685.71 2131.64 1678.81C2124.74 1671.85 2121.32 1662.99 2121.38 1652.24C2121.32 1642.84 2123.82 1634.8 2128.89 1628.15C2133.96 1621.43 2141.17 1616.3 2150.51 1612.75C2159.86 1609.21 2170.88 1607.44 2183.59 1607.44C2202.64 1607.44 2217.67 1611.44 2228.66 1619.44C2239.66 1627.38 2245.74 1638.32 2246.9 1652.24ZM2351.87 1609.27V1642.26H2263.09V1609.27H2351.87ZM2281.69 1575.56H2326.49V1705.75C2326.49 1708.5 2326.92 1710.73 2327.77 1712.44C2328.69 1714.09 2330 1715.28 2331.71 1716.01C2333.42 1716.68 2335.47 1717.02 2337.85 1717.02C2339.56 1717.02 2341.36 1716.86 2343.26 1716.56C2345.21 1716.19 2346.68 1715.89 2347.65 1715.64L2354.43 1747.98C2352.3 1748.6 2349.27 1749.36 2345.36 1750.27C2341.52 1751.19 2336.9 1751.77 2331.53 1752.02C2321.02 1752.5 2312.01 1751.28 2304.5 1748.35C2297.05 1745.36 2291.34 1740.72 2287.37 1734.42C2283.46 1728.13 2281.57 1720.22 2281.69 1710.7V1575.56ZM2475.51 1562.36V1750H2430.16V1562.36H2475.51ZM2503.98 1750V1609.27H2546.58V1635.11H2548.14C2551.07 1626.56 2556.02 1619.81 2562.98 1614.86C2569.95 1609.91 2578.25 1607.44 2587.9 1607.44C2597.68 1607.44 2606.04 1609.94 2613.01 1614.95C2619.97 1619.96 2624.4 1626.68 2626.29 1635.11H2627.76C2630.38 1626.74 2635.52 1620.05 2643.15 1615.04C2650.78 1609.98 2659.79 1607.44 2670.18 1607.44C2683.49 1607.44 2694.3 1611.72 2702.61 1620.27C2710.92 1628.76 2715.07 1640.42 2715.07 1655.27V1750H2670.27V1665.53C2670.27 1658.5 2668.47 1653.16 2664.86 1649.49C2661.26 1645.77 2656.59 1643.9 2650.85 1643.9C2644.68 1643.9 2639.82 1645.92 2636.28 1649.95C2632.8 1653.92 2631.06 1659.27 2631.06 1665.99V1750H2588V1665.07C2588 1658.53 2586.22 1653.37 2582.68 1649.59C2579.14 1645.8 2574.47 1643.9 2568.66 1643.9C2564.75 1643.9 2561.3 1644.85 2558.31 1646.75C2555.32 1648.58 2552.97 1651.2 2551.26 1654.62C2549.61 1658.04 2548.78 1662.08 2548.78 1666.72V1750H2503.98ZM2742.83 1802.77V1609.27H2787.18V1633.37H2788.55C2790.38 1629.09 2792.98 1624.97 2796.34 1621C2799.76 1617.03 2804.09 1613.79 2809.35 1611.29C2814.66 1608.72 2821.01 1607.44 2828.4 1607.44C2838.18 1607.44 2847.31 1610.01 2855.8 1615.14C2864.35 1620.27 2871.25 1628.18 2876.5 1638.87C2881.76 1649.55 2884.38 1663.18 2884.38 1679.73C2884.38 1695.67 2881.85 1709.02 2876.78 1719.77C2871.77 1730.52 2864.99 1738.58 2856.44 1743.95C2847.95 1749.33 2838.51 1752.02 2828.13 1752.02C2821.04 1752.02 2814.91 1750.86 2809.71 1748.53C2804.52 1746.21 2800.16 1743.16 2796.61 1739.37C2793.13 1735.59 2790.44 1731.52 2788.55 1727.19H2787.63V1802.77H2742.83ZM2786.72 1679.64C2786.72 1687.21 2787.73 1693.81 2789.74 1699.43C2791.82 1705.05 2794.78 1709.41 2798.63 1712.53C2802.54 1715.58 2807.21 1717.11 2812.65 1717.11C2818.14 1717.11 2822.82 1715.58 2826.66 1712.53C2830.51 1709.41 2833.41 1705.05 2835.37 1699.43C2837.38 1693.81 2838.39 1687.21 2838.39 1679.64C2838.39 1672.06 2837.38 1665.5 2835.37 1659.94C2833.41 1654.38 2830.51 1650.07 2826.66 1647.02C2822.88 1643.97 2818.2 1642.44 2812.65 1642.44C2807.15 1642.44 2802.48 1643.94 2798.63 1646.93C2794.78 1649.92 2791.82 1654.2 2789.74 1659.75C2787.73 1665.31 2786.72 1671.94 2786.72 1679.64ZM2973.55 1752.66C2958.77 1752.66 2946.07 1749.63 2935.44 1743.59C2924.87 1737.48 2916.72 1728.99 2910.98 1718.12C2905.3 1707.18 2902.46 1694.51 2902.46 1680.09C2902.46 1665.62 2905.3 1652.94 2910.98 1642.07C2916.72 1631.14 2924.87 1622.65 2935.44 1616.6C2946.07 1610.49 2958.77 1607.44 2973.55 1607.44C2988.33 1607.44 3001.01 1610.49 3011.57 1616.6C3022.2 1622.65 3030.36 1631.14 3036.04 1642.07C3041.78 1652.94 3044.65 1665.62 3044.65 1680.09C3044.65 1694.51 3041.78 1707.18 3036.04 1718.12C3030.36 1728.99 3022.2 1737.48 3011.57 1743.59C3001.01 1749.63 2988.33 1752.66 2973.55 1752.66ZM2973.83 1718.85C2979.2 1718.85 2983.75 1717.2 2987.48 1713.9C2991.2 1710.6 2994.04 1706.02 2996 1700.16C2998.01 1694.3 2999.02 1687.52 2999.02 1679.82C2999.02 1672 2998.01 1665.16 2996 1659.3C2994.04 1653.43 2991.2 1648.85 2987.48 1645.55C2983.75 1642.26 2979.2 1640.61 2973.83 1640.61C2968.27 1640.61 2963.57 1642.26 2959.72 1645.55C2955.93 1648.85 2953.03 1653.43 2951.01 1659.3C2949.06 1665.16 2948.08 1672 2948.08 1679.82C2948.08 1687.52 2949.06 1694.3 2951.01 1700.16C2953.03 1706.02 2955.93 1710.6 2959.72 1713.9C2963.57 1717.2 2968.27 1718.85 2973.83 1718.85ZM3067.6 1750V1609.27H3111.12V1634.93H3112.58C3115.15 1625.64 3119.33 1618.74 3125.14 1614.22C3130.94 1609.64 3137.69 1607.35 3145.38 1607.35C3147.46 1607.35 3149.6 1607.5 3151.8 1607.81C3154 1608.05 3156.04 1608.45 3157.94 1609V1647.94C3155.8 1647.2 3152.99 1646.62 3149.51 1646.2C3146.09 1645.77 3143.03 1645.55 3140.35 1645.55C3135.03 1645.55 3130.24 1646.75 3125.96 1649.13C3121.75 1651.45 3118.42 1654.72 3115.97 1658.93C3113.59 1663.08 3112.4 1667.97 3112.4 1673.59V1750H3067.6ZM3262.18 1609.27V1642.26H3173.4V1609.27H3262.18ZM3192 1575.56H3236.8V1705.75C3236.8 1708.5 3237.22 1710.73 3238.08 1712.44C3239 1714.09 3240.31 1715.28 3242.02 1716.01C3243.73 1716.68 3245.78 1717.02 3248.16 1717.02C3249.87 1717.02 3251.67 1716.86 3253.56 1716.56C3255.52 1716.19 3256.98 1715.89 3257.96 1715.64L3264.74 1747.98C3262.6 1748.6 3259.58 1749.36 3255.67 1750.27C3251.82 1751.19 3247.21 1751.77 3241.84 1752.02C3231.33 1752.5 3222.32 1751.28 3214.81 1748.35C3207.36 1745.36 3201.65 1740.72 3197.68 1734.42C3193.77 1728.13 3191.87 1720.22 3192 1710.7V1575.56ZM3324.71 1752.38C3315.73 1752.38 3307.76 1750.89 3300.79 1747.89C3293.89 1744.84 3288.42 1740.26 3284.39 1734.15C3280.42 1727.98 3278.44 1720.25 3278.44 1710.97C3278.44 1703.15 3279.81 1696.56 3282.56 1691.18C3285.31 1685.81 3289.1 1681.44 3293.92 1678.08C3298.75 1674.72 3304.31 1672.18 3310.6 1670.47C3316.89 1668.7 3323.61 1667.51 3330.75 1666.9C3338.75 1666.17 3345.2 1665.4 3350.08 1664.61C3354.97 1663.76 3358.51 1662.56 3360.71 1661.04C3362.97 1659.45 3364.1 1657.22 3364.1 1654.35V1653.89C3364.1 1649.19 3362.48 1645.55 3359.25 1642.99C3356.01 1640.42 3351.64 1639.14 3346.15 1639.14C3340.22 1639.14 3335.46 1640.42 3331.85 1642.99C3328.25 1645.55 3325.96 1649.1 3324.98 1653.62L3283.66 1652.15C3284.88 1643.6 3288.03 1635.96 3293.1 1629.25C3298.23 1622.47 3305.25 1617.15 3314.17 1613.3C3323.15 1609.39 3333.93 1607.44 3346.51 1607.44C3355.49 1607.44 3363.77 1608.51 3371.34 1610.65C3378.91 1612.72 3385.51 1615.78 3391.13 1619.81C3396.75 1623.78 3401.09 1628.67 3404.14 1634.47C3407.26 1640.27 3408.81 1646.9 3408.81 1654.35V1750H3366.67V1730.39H3365.57C3363.06 1735.16 3359.86 1739.19 3355.95 1742.49C3352.1 1745.79 3347.55 1748.26 3342.3 1749.91C3337.11 1751.56 3331.24 1752.38 3324.71 1752.38ZM3338.54 1723.06C3343.37 1723.06 3347.7 1722.09 3351.55 1720.13C3355.46 1718.18 3358.57 1715.49 3360.9 1712.07C3363.22 1708.59 3364.38 1704.56 3364.38 1699.98V1686.6C3363.09 1687.27 3361.54 1687.88 3359.7 1688.43C3357.93 1688.98 3355.98 1689.5 3353.84 1689.99C3351.7 1690.48 3349.5 1690.91 3347.24 1691.27C3344.98 1691.64 3342.82 1691.97 3340.74 1692.28C3336.53 1692.95 3332.92 1693.99 3329.93 1695.39C3327 1696.8 3324.74 1698.63 3323.15 1700.89C3321.62 1703.09 3320.86 1705.72 3320.86 1708.77C3320.86 1713.41 3322.51 1716.96 3325.81 1719.4C3329.16 1721.84 3333.41 1723.06 3338.54 1723.06ZM3481.01 1669.74V1750H3436.21V1609.27H3478.81V1635.11H3480.37C3483.48 1626.5 3488.8 1619.75 3496.31 1614.86C3503.82 1609.91 3512.77 1607.44 3523.15 1607.44C3533.05 1607.44 3541.63 1609.67 3548.9 1614.13C3556.23 1618.53 3561.91 1624.7 3565.94 1632.64C3570.03 1640.51 3572.05 1649.74 3571.99 1660.3V1750H3527.18V1669.1C3527.25 1661.28 3525.26 1655.17 3521.23 1650.78C3517.26 1646.38 3511.73 1644.18 3504.65 1644.18C3499.94 1644.18 3495.79 1645.22 3492.19 1647.29C3488.64 1649.31 3485.9 1652.21 3483.94 1656C3482.05 1659.79 3481.07 1664.37 3481.01 1669.74ZM3679.16 1609.27V1642.26H3590.38V1609.27H3679.16ZM3608.98 1575.56H3653.78V1705.75C3653.78 1708.5 3654.21 1710.73 3655.06 1712.44C3655.98 1714.09 3657.29 1715.28 3659 1716.01C3660.71 1716.68 3662.76 1717.02 3665.14 1717.02C3666.85 1717.02 3668.65 1716.86 3670.55 1716.56C3672.5 1716.19 3673.97 1715.89 3674.94 1715.64L3681.72 1747.98C3679.59 1748.6 3676.56 1749.36 3672.65 1750.27C3668.81 1751.19 3664.19 1751.77 3658.82 1752.02C3648.31 1752.5 3639.3 1751.28 3631.79 1748.35C3624.34 1745.36 3618.63 1740.72 3614.66 1734.42C3610.75 1728.13 3608.86 1720.22 3608.98 1710.7V1575.56Z" fill="#1A1A1A"/>
<path d="M4388 2136H1036L1620 2976H3820L4388 2136Z" fill="#D0D0D0"/>
<path d="M1717.84 2460.73H1759.37L1803.23 2567.74H1805.1L1848.96 2460.73H1890.49V2620H1857.83V2516.33H1856.51L1815.29 2619.22H1793.05L1751.83 2515.94H1750.51V2620H1717.84V2460.73ZM1972.05 2622.33C1959.77 2622.33 1949.19 2619.84 1940.32 2614.87C1931.51 2609.84 1924.72 2602.74 1919.95 2593.56C1915.18 2584.33 1912.79 2573.42 1912.79 2560.82C1912.79 2548.53 1915.18 2537.75 1919.95 2528.46C1924.72 2519.18 1931.43 2511.95 1940.09 2506.77C1948.8 2501.58 1959.01 2498.99 1970.73 2498.99C1978.61 2498.99 1985.95 2500.26 1992.74 2502.8C1999.58 2505.29 2005.55 2509.05 2010.63 2514.08C2015.76 2519.11 2019.75 2525.43 2022.6 2533.05C2025.46 2540.62 2026.88 2549.49 2026.88 2559.65V2568.75H1926.01V2548.22H1995.7C1995.7 2543.45 1994.66 2539.22 1992.58 2535.54C1990.51 2531.86 1987.63 2528.98 1983.95 2526.91C1980.32 2524.78 1976.1 2523.72 1971.28 2523.72C1966.25 2523.72 1961.79 2524.89 1957.9 2527.22C1954.06 2529.5 1951.06 2532.59 1948.88 2536.48C1946.7 2540.31 1945.59 2544.59 1945.53 2549.31V2568.83C1945.53 2574.74 1946.62 2579.84 1948.8 2584.15C1951.03 2588.45 1954.17 2591.77 1958.21 2594.1C1962.25 2596.44 1967.05 2597.6 1972.6 2597.6C1976.28 2597.6 1979.65 2597.08 1982.71 2596.05C1985.77 2595.01 1988.39 2593.45 1990.56 2591.38C1992.74 2589.31 1994.4 2586.77 1995.54 2583.76L2026.18 2585.78C2024.63 2593.14 2021.44 2599.57 2016.62 2605.07C2011.85 2610.51 2005.68 2614.76 1998.11 2617.82C1990.59 2620.83 1981.9 2622.33 1972.05 2622.33ZM2092.52 2621.94C2083.45 2621.94 2075.23 2619.61 2067.87 2614.94C2060.56 2610.23 2054.75 2603.31 2050.45 2594.18C2046.19 2585 2044.07 2573.75 2044.07 2560.43C2044.07 2546.74 2046.27 2535.36 2050.68 2526.29C2055.09 2517.16 2060.94 2510.34 2068.25 2505.83C2075.62 2501.27 2083.68 2498.99 2092.44 2498.99C2099.13 2498.99 2104.7 2500.13 2109.16 2502.41C2113.67 2504.64 2117.3 2507.44 2120.05 2510.81C2122.85 2514.13 2124.97 2517.4 2126.43 2520.61H2127.44V2460.73H2160.49V2620H2127.83V2600.87H2126.43C2124.87 2604.19 2122.67 2607.48 2119.82 2610.75C2117.02 2613.96 2113.36 2616.63 2108.85 2618.76C2104.39 2620.88 2098.95 2621.94 2092.52 2621.94ZM2103.02 2595.58C2108.36 2595.58 2112.87 2594.13 2116.55 2591.23C2120.28 2588.27 2123.13 2584.15 2125.1 2578.86C2127.13 2573.57 2128.14 2567.38 2128.14 2560.27C2128.14 2553.17 2127.15 2547 2125.18 2541.76C2123.21 2536.53 2120.36 2532.48 2116.63 2529.63C2112.89 2526.78 2108.36 2525.35 2103.02 2525.35C2097.57 2525.35 2092.99 2526.83 2089.25 2529.79C2085.52 2532.74 2082.69 2536.84 2080.78 2542.07C2078.86 2547.31 2077.9 2553.38 2077.9 2560.27C2077.9 2567.22 2078.86 2573.36 2080.78 2578.7C2082.75 2583.99 2085.57 2588.14 2089.25 2591.15C2092.99 2594.1 2097.57 2595.58 2103.02 2595.58ZM2187.73 2620V2500.55H2220.86V2620H2187.73ZM2204.37 2485.15C2199.45 2485.15 2195.22 2483.51 2191.69 2480.25C2188.22 2476.93 2186.48 2472.96 2186.48 2468.35C2186.48 2463.79 2188.22 2459.87 2191.69 2456.61C2195.22 2453.29 2199.45 2451.63 2204.37 2451.63C2209.3 2451.63 2213.5 2453.29 2216.97 2456.61C2220.5 2459.87 2222.26 2463.79 2222.26 2468.35C2222.26 2472.96 2220.5 2476.93 2216.97 2480.25C2213.5 2483.51 2209.3 2485.15 2204.37 2485.15ZM2324 2569.14V2500.55H2357.13V2620H2325.32V2598.3H2324.08C2321.38 2605.3 2316.9 2610.93 2310.62 2615.18C2304.4 2619.43 2296.81 2621.56 2287.84 2621.56C2279.85 2621.56 2272.83 2619.74 2266.76 2616.11C2260.7 2612.48 2255.95 2607.32 2252.53 2600.64C2249.16 2593.95 2247.45 2585.94 2247.4 2576.6V2500.55H2280.53V2570.69C2280.58 2577.75 2282.47 2583.32 2286.2 2587.41C2289.94 2591.51 2294.94 2593.56 2301.21 2593.56C2305.21 2593.56 2308.94 2592.65 2312.41 2590.84C2315.89 2588.97 2318.69 2586.22 2320.81 2582.59C2322.99 2578.96 2324.05 2574.48 2324 2569.14ZM2383.63 2620V2500.55H2415.21V2521.62H2416.61C2419.09 2514.62 2423.24 2509.1 2429.05 2505.06C2434.86 2501.01 2441.8 2498.99 2449.89 2498.99C2458.08 2498.99 2465.06 2501.04 2470.81 2505.13C2476.57 2509.18 2480.4 2514.67 2482.32 2521.62H2483.57C2486 2514.78 2490.41 2509.31 2496.79 2505.21C2503.22 2501.06 2510.81 2498.99 2519.57 2498.99C2530.72 2498.99 2539.77 2502.54 2546.71 2509.64C2553.71 2516.7 2557.21 2526.7 2557.21 2539.66V2620H2524.16V2546.2C2524.16 2539.56 2522.4 2534.58 2518.87 2531.26C2515.35 2527.95 2510.94 2526.29 2505.65 2526.29C2499.64 2526.29 2494.95 2528.21 2491.58 2532.04C2488.21 2535.83 2486.52 2540.83 2486.52 2547.05V2620H2454.4V2545.5C2454.4 2539.64 2452.72 2534.97 2449.35 2531.5C2446.03 2528.02 2441.65 2526.29 2436.2 2526.29C2432.52 2526.29 2429.2 2527.22 2426.25 2529.09C2423.35 2530.9 2421.04 2533.47 2419.33 2536.79C2417.62 2540.05 2416.76 2543.89 2416.76 2548.3V2620H2383.63ZM2668.37 2460.73V2620H2634.69V2460.73H2668.37ZM2695.45 2620V2500.55H2727.02V2521.62H2728.42C2730.91 2514.62 2735.06 2509.1 2740.87 2505.06C2746.67 2501.01 2753.62 2498.99 2761.71 2498.99C2769.9 2498.99 2776.87 2501.04 2782.63 2505.13C2788.38 2509.18 2792.22 2514.67 2794.14 2521.62H2795.38C2797.82 2514.78 2802.23 2509.31 2808.6 2505.21C2815.03 2501.06 2822.63 2498.99 2831.39 2498.99C2842.54 2498.99 2851.59 2502.54 2858.53 2509.64C2865.53 2516.7 2869.03 2526.7 2869.03 2539.66V2620H2835.98V2546.2C2835.98 2539.56 2834.22 2534.58 2830.69 2531.26C2827.17 2527.95 2822.76 2526.29 2817.47 2526.29C2811.46 2526.29 2806.76 2528.21 2803.39 2532.04C2800.02 2535.83 2798.34 2540.83 2798.34 2547.05V2620H2766.22V2545.5C2766.22 2539.64 2764.53 2534.97 2761.16 2531.5C2757.85 2528.02 2753.47 2526.29 2748.02 2526.29C2744.34 2526.29 2741.02 2527.22 2738.07 2529.09C2735.16 2530.9 2732.86 2533.47 2731.15 2536.79C2729.43 2540.05 2728.58 2543.89 2728.58 2548.3V2620H2695.45ZM2895.2 2664.8V2500.55H2927.86V2520.61H2929.34C2930.79 2517.4 2932.89 2514.13 2935.64 2510.81C2938.44 2507.44 2942.07 2504.64 2946.53 2502.41C2951.04 2500.13 2956.64 2498.99 2963.33 2498.99C2972.04 2498.99 2980.07 2501.27 2987.44 2505.83C2994.8 2510.34 3000.68 2517.16 3005.09 2526.29C3009.5 2535.36 3011.7 2546.74 3011.7 2560.43C3011.7 2573.75 3009.55 2585 3005.25 2594.18C3000.99 2603.31 2995.19 2610.23 2987.83 2614.94C2980.51 2619.61 2972.32 2621.94 2963.25 2621.94C2956.82 2621.94 2951.35 2620.88 2946.84 2618.76C2942.38 2616.63 2938.73 2613.96 2935.88 2610.75C2933.02 2607.48 2930.85 2604.19 2929.34 2600.87H2928.33V2664.8H2895.2ZM2927.63 2560.27C2927.63 2567.38 2928.62 2573.57 2930.59 2578.86C2932.56 2584.15 2935.41 2588.27 2939.14 2591.23C2942.87 2594.13 2947.41 2595.58 2952.75 2595.58C2958.14 2595.58 2962.71 2594.1 2966.44 2591.15C2970.17 2588.14 2973 2583.99 2974.92 2578.7C2976.89 2573.36 2977.87 2567.22 2977.87 2560.27C2977.87 2553.38 2976.91 2547.31 2974.99 2542.07C2973.07 2536.84 2970.25 2532.74 2966.52 2529.79C2962.78 2526.83 2958.19 2525.35 2952.75 2525.35C2947.36 2525.35 2942.8 2526.78 2939.06 2529.63C2935.38 2532.48 2932.56 2536.53 2930.59 2541.76C2928.62 2547 2927.63 2553.17 2927.63 2560.27ZM3087.76 2622.33C3075.68 2622.33 3065.23 2619.77 3056.42 2614.63C3047.66 2609.45 3040.89 2602.24 3036.12 2593.01C3031.35 2583.73 3028.97 2572.98 3028.97 2560.74C3028.97 2548.4 3031.35 2537.62 3036.12 2528.39C3040.89 2519.11 3047.66 2511.9 3056.42 2506.77C3065.23 2501.58 3075.68 2498.99 3087.76 2498.99C3099.84 2498.99 3110.26 2501.58 3119.02 2506.77C3127.84 2511.9 3134.63 2519.11 3139.4 2528.39C3144.17 2537.62 3146.55 2548.4 3146.55 2560.74C3146.55 2572.98 3144.17 2583.73 3139.4 2593.01C3134.63 2602.24 3127.84 2609.45 3119.02 2614.63C3110.26 2619.77 3099.84 2622.33 3087.76 2622.33ZM3087.92 2596.67C3093.41 2596.67 3098 2595.11 3101.68 2592C3105.36 2588.84 3108.14 2584.54 3110 2579.09C3111.92 2573.65 3112.88 2567.45 3112.88 2560.51C3112.88 2553.56 3111.92 2547.36 3110 2541.92C3108.14 2536.48 3105.36 2532.17 3101.68 2529.01C3098 2525.85 3093.41 2524.27 3087.92 2524.27C3082.37 2524.27 3077.7 2525.85 3073.92 2529.01C3070.18 2532.17 3067.36 2536.48 3065.44 2541.92C3063.57 2547.36 3062.64 2553.56 3062.64 2560.51C3062.64 2567.45 3063.57 2573.65 3065.44 2579.09C3067.36 2584.54 3070.18 2588.84 3073.92 2592C3077.7 2595.11 3082.37 2596.67 3087.92 2596.67ZM3168.1 2620V2500.55H3200.21V2521.39H3201.46C3203.64 2513.97 3207.29 2508.37 3212.42 2504.59C3217.56 2500.75 3223.47 2498.83 3230.16 2498.83C3231.82 2498.83 3233.6 2498.94 3235.52 2499.15C3237.44 2499.35 3239.13 2499.64 3240.58 2500V2529.4C3239.02 2528.93 3236.87 2528.52 3234.12 2528.15C3231.37 2527.79 3228.86 2527.61 3226.58 2527.61C3221.71 2527.61 3217.35 2528.67 3213.51 2530.8C3209.73 2532.87 3206.72 2535.78 3204.49 2539.51C3202.31 2543.24 3201.23 2547.54 3201.23 2552.42V2620H3168.1ZM3327.23 2500.55V2525.43H3255.3V2500.55H3327.23ZM3271.63 2471.93H3304.76V2583.29C3304.76 2586.35 3305.22 2588.74 3306.16 2590.45C3307.09 2592.11 3308.39 2593.27 3310.05 2593.95C3311.76 2594.62 3313.73 2594.96 3315.96 2594.96C3317.51 2594.96 3319.07 2594.83 3320.62 2594.57C3322.18 2594.26 3323.37 2594.02 3324.2 2593.87L3329.41 2618.52C3327.75 2619.04 3325.42 2619.64 3322.41 2620.31C3319.4 2621.04 3315.75 2621.48 3311.45 2621.63C3303.46 2621.94 3296.46 2620.88 3290.45 2618.44C3284.48 2616.01 3279.84 2612.22 3276.53 2607.09C3273.21 2601.96 3271.58 2595.48 3271.63 2587.65V2471.93ZM3382.88 2622.26C3375.26 2622.26 3368.46 2620.93 3362.5 2618.29C3356.54 2615.59 3351.82 2611.63 3348.35 2606.39C3344.93 2601.1 3343.21 2594.52 3343.21 2586.64C3343.21 2580 3344.43 2574.43 3346.87 2569.92C3349.31 2565.41 3352.62 2561.78 3356.82 2559.03C3361.02 2556.28 3365.79 2554.21 3371.13 2552.81C3376.53 2551.41 3382.18 2550.42 3388.09 2549.85C3395.03 2549.13 3400.63 2548.45 3404.89 2547.83C3409.14 2547.16 3412.22 2546.17 3414.14 2544.87C3416.06 2543.58 3417.02 2541.66 3417.02 2539.12V2538.65C3417.02 2533.73 3415.46 2529.92 3412.35 2527.22C3409.29 2524.52 3404.94 2523.18 3399.29 2523.18C3393.32 2523.18 3388.58 2524.5 3385.05 2527.14C3381.53 2529.74 3379.2 2533 3378.06 2536.94L3347.41 2534.45C3348.97 2527.19 3352.03 2520.92 3356.59 2515.63C3361.15 2510.29 3367.04 2506.2 3374.24 2503.35C3381.5 2500.44 3389.9 2498.99 3399.44 2498.99C3406.08 2498.99 3412.43 2499.77 3418.5 2501.32C3424.61 2502.88 3430.03 2505.29 3434.75 2508.56C3439.52 2511.82 3443.28 2516.02 3446.03 2521.15C3448.77 2526.24 3450.15 2532.33 3450.15 2539.43V2620H3418.73V2603.44H3417.8C3415.88 2607.17 3413.31 2610.46 3410.1 2613.31C3406.88 2616.11 3403.02 2618.31 3398.51 2619.92C3394 2621.48 3388.79 2622.26 3382.88 2622.26ZM3392.36 2599.39C3397.24 2599.39 3401.54 2598.43 3405.27 2596.51C3409.01 2594.54 3411.94 2591.9 3414.06 2588.58C3416.19 2585.26 3417.25 2581.5 3417.25 2577.3V2564.63C3416.21 2565.3 3414.79 2565.92 3412.97 2566.49C3411.21 2567.01 3409.21 2567.51 3406.99 2567.97C3404.76 2568.39 3402.53 2568.78 3400.3 2569.14C3398.07 2569.45 3396.05 2569.73 3394.23 2569.99C3390.34 2570.56 3386.95 2571.47 3384.04 2572.72C3381.14 2573.96 3378.88 2575.65 3377.28 2577.77C3375.67 2579.84 3374.87 2582.44 3374.87 2585.55C3374.87 2590.06 3376.5 2593.51 3379.77 2595.89C3383.08 2598.22 3387.28 2599.39 3392.36 2599.39ZM3508.98 2550.94V2620H3475.85V2500.55H3507.43V2521.62H3508.83C3511.47 2514.67 3515.9 2509.18 3522.12 2505.13C3528.35 2501.04 3535.89 2498.99 3544.75 2498.99C3553.05 2498.99 3560.28 2500.8 3566.45 2504.43C3572.62 2508.06 3577.42 2513.25 3580.84 2519.99C3584.26 2526.68 3585.97 2534.66 3585.97 2543.94V2620H3552.84V2549.85C3552.89 2542.54 3551.03 2536.84 3547.24 2532.74C3543.46 2528.59 3538.25 2526.52 3531.61 2526.52C3527.15 2526.52 3523.21 2527.48 3519.79 2529.4C3516.42 2531.32 3513.78 2534.12 3511.86 2537.8C3509.99 2541.43 3509.03 2545.81 3508.98 2550.94ZM3675.62 2500.55V2525.43H3603.69V2500.55H3675.62ZM3620.02 2471.93H3653.15V2583.29C3653.15 2586.35 3653.61 2588.74 3654.55 2590.45C3655.48 2592.11 3656.78 2593.27 3658.44 2593.95C3660.15 2594.62 3662.12 2594.96 3664.35 2594.96C3665.9 2594.96 3667.46 2594.83 3669.01 2594.57C3670.57 2594.26 3671.76 2594.02 3672.59 2593.87L3677.8 2618.52C3676.14 2619.04 3673.81 2619.64 3670.8 2620.31C3667.79 2621.04 3664.14 2621.48 3659.83 2621.63C3651.85 2621.94 3644.85 2620.88 3638.84 2618.44C3632.87 2616.01 3628.23 2612.22 3624.92 2607.09C3621.6 2601.96 3619.96 2595.48 3620.02 2587.65V2471.93Z" fill="#1A1A1A"/>
<path d="M2442.82 3505V3374.09H2466.54V3485.12H2524.19V3505H2442.82ZM2587.22 3506.92C2577.37 3506.92 2568.87 3504.87 2561.71 3500.78C2554.6 3496.65 2549.12 3490.81 2545.29 3483.27C2541.45 3475.68 2539.53 3466.75 2539.53 3456.48C2539.53 3446.38 2541.45 3437.52 2545.29 3429.89C2549.16 3422.22 2554.58 3416.26 2561.52 3412C2568.47 3407.69 2576.63 3405.54 2586 3405.54C2592.06 3405.54 2597.77 3406.52 2603.13 3408.48C2608.55 3410.4 2613.32 3413.38 2617.45 3417.43C2621.63 3421.48 2624.91 3426.63 2627.3 3432.9C2629.68 3439.12 2630.88 3446.53 2630.88 3455.14V3462.24H2550.4V3446.64H2608.7C2608.65 3442.21 2607.69 3438.27 2605.82 3434.82C2603.94 3431.32 2601.32 3428.57 2597.96 3426.57C2594.63 3424.57 2590.76 3423.57 2586.32 3423.57C2581.59 3423.57 2577.44 3424.72 2573.86 3427.02C2570.28 3429.28 2567.49 3432.26 2565.49 3435.97C2563.53 3439.63 2562.52 3443.66 2562.48 3448.05V3461.66C2562.48 3467.37 2563.53 3472.27 2565.61 3476.36C2567.7 3480.41 2570.62 3483.52 2574.37 3485.7C2578.12 3487.83 2582.51 3488.89 2587.54 3488.89C2590.9 3488.89 2593.95 3488.42 2596.68 3487.49C2599.41 3486.51 2601.77 3485.08 2603.77 3483.2C2605.78 3481.33 2607.29 3479.01 2608.31 3476.24L2629.92 3478.66C2628.55 3484.37 2625.95 3489.36 2622.12 3493.62C2618.33 3497.84 2613.47 3501.12 2607.55 3503.47C2601.62 3505.77 2594.85 3506.92 2587.22 3506.92ZM2678.7 3506.98C2672.48 3506.98 2666.88 3505.87 2661.89 3503.66C2656.95 3501.4 2653.03 3498.08 2650.13 3493.69C2647.28 3489.3 2645.85 3483.88 2645.85 3477.45C2645.85 3471.91 2646.87 3467.33 2648.92 3463.71C2650.96 3460.09 2653.75 3457.19 2657.29 3455.01C2660.83 3452.84 2664.81 3451.2 2669.24 3450.09C2673.72 3448.94 2678.34 3448.11 2683.12 3447.6C2688.87 3447 2693.53 3446.47 2697.11 3446C2700.69 3445.49 2703.29 3444.72 2704.91 3443.7C2706.57 3442.63 2707.4 3440.99 2707.4 3438.78V3438.39C2707.4 3433.58 2705.98 3429.85 2703.12 3427.21C2700.27 3424.57 2696.15 3423.25 2690.79 3423.25C2685.12 3423.25 2680.62 3424.48 2677.3 3426.95C2674.02 3429.42 2671.8 3432.34 2670.65 3435.71L2649.05 3432.64C2650.75 3426.68 2653.56 3421.69 2657.48 3417.68C2661.4 3413.64 2666.2 3410.61 2671.87 3408.61C2677.53 3406.56 2683.8 3405.54 2690.66 3405.54C2695.39 3405.54 2700.1 3406.09 2704.78 3407.2C2709.47 3408.31 2713.75 3410.14 2717.63 3412.7C2721.51 3415.21 2724.62 3418.64 2726.96 3422.99C2729.35 3427.34 2730.54 3432.77 2730.54 3439.29V3505H2708.3V3491.51H2707.53C2706.13 3494.24 2704.14 3496.8 2701.59 3499.18C2699.07 3501.53 2695.9 3503.42 2692.06 3504.87C2688.27 3506.28 2683.82 3506.98 2678.7 3506.98ZM2684.71 3489.98C2689.36 3489.98 2693.38 3489.06 2696.79 3487.23C2700.2 3485.36 2702.82 3482.88 2704.66 3479.82C2706.53 3476.75 2707.47 3473.4 2707.47 3469.78V3458.21C2706.74 3458.81 2705.51 3459.36 2703.76 3459.87C2702.06 3460.38 2700.14 3460.83 2698.01 3461.21C2695.88 3461.6 2693.77 3461.94 2691.68 3462.24C2689.59 3462.54 2687.78 3462.79 2686.25 3463C2682.8 3463.47 2679.71 3464.24 2676.98 3465.31C2674.25 3466.37 2672.1 3467.86 2670.52 3469.78C2668.95 3471.65 2668.16 3474.08 2668.16 3477.07C2668.16 3481.33 2669.71 3484.55 2672.82 3486.72C2675.93 3488.89 2679.9 3489.98 2684.71 3489.98ZM2831.41 3432.77L2810.32 3435.07C2809.72 3432.94 2808.68 3430.94 2807.18 3429.06C2805.74 3427.19 2803.78 3425.67 2801.3 3424.52C2798.83 3423.37 2795.81 3422.8 2792.23 3422.8C2787.41 3422.8 2783.36 3423.84 2780.08 3425.93C2776.84 3428.02 2775.25 3430.72 2775.29 3434.05C2775.25 3436.9 2776.29 3439.23 2778.42 3441.02C2780.59 3442.81 2784.17 3444.28 2789.16 3445.43L2805.91 3449.01C2815.2 3451.01 2822.1 3454.18 2826.62 3458.53C2831.18 3462.88 2833.48 3468.57 2833.52 3475.6C2833.48 3481.78 2831.67 3487.23 2828.09 3491.96C2824.55 3496.65 2819.63 3500.31 2813.32 3502.95C2807.01 3505.6 2799.77 3506.92 2791.59 3506.92C2779.57 3506.92 2769.9 3504.4 2762.57 3499.38C2755.24 3494.3 2750.87 3487.25 2749.46 3478.22L2772.03 3476.04C2773.05 3480.48 2775.22 3483.82 2778.55 3486.08C2781.87 3488.34 2786.2 3489.47 2791.52 3489.47C2797.02 3489.47 2801.43 3488.34 2804.76 3486.08C2808.12 3483.82 2809.81 3481.03 2809.81 3477.71C2809.81 3474.89 2808.72 3472.57 2806.55 3470.74C2804.41 3468.91 2801.09 3467.5 2796.57 3466.52L2779.83 3463C2770.41 3461.04 2763.44 3457.74 2758.92 3453.1C2754.41 3448.41 2752.17 3442.49 2752.21 3435.33C2752.17 3429.28 2753.81 3424.03 2757.13 3419.6C2760.5 3415.13 2765.17 3411.68 2771.13 3409.25C2777.14 3406.78 2784.07 3405.54 2791.91 3405.54C2803.41 3405.54 2812.47 3407.99 2819.07 3412.89C2825.72 3417.79 2829.83 3424.42 2831.41 3432.77ZM2901.63 3406.82V3424.72H2845.19V3406.82H2901.63ZM2859.12 3383.3H2882.26V3475.47C2882.26 3478.58 2882.73 3480.97 2883.67 3482.63C2884.65 3484.25 2885.92 3485.36 2887.5 3485.95C2889.08 3486.55 2890.82 3486.85 2892.74 3486.85C2894.19 3486.85 2895.51 3486.74 2896.71 3486.53C2897.94 3486.31 2898.88 3486.12 2899.52 3485.95L2903.42 3504.04C2902.18 3504.47 2900.41 3504.94 2898.11 3505.45C2895.85 3505.96 2893.08 3506.26 2889.8 3506.34C2884.01 3506.51 2878.79 3505.64 2874.14 3503.72C2869.5 3501.76 2865.81 3498.74 2863.08 3494.64C2860.4 3490.55 2859.08 3485.44 2859.12 3479.3V3383.3ZM2276.43 3592.09V3723H2252.71V3592.09H2276.43ZM2301.09 3723V3624.82H2323.2V3641.5H2324.35C2326.4 3635.88 2329.79 3631.49 2334.52 3628.33C2339.25 3625.14 2344.89 3623.54 2351.46 3623.54C2358.1 3623.54 2363.71 3625.16 2368.27 3628.4C2372.87 3631.59 2376.11 3635.96 2377.98 3641.5H2379.01C2381.18 3636.05 2384.84 3631.7 2390 3628.46C2395.2 3625.18 2401.36 3623.54 2408.47 3623.54C2417.51 3623.54 2424.88 3626.39 2430.59 3632.11C2436.3 3637.82 2439.15 3646.15 2439.15 3657.1V3723H2415.95V3660.68C2415.95 3654.58 2414.33 3650.13 2411.09 3647.32C2407.85 3644.46 2403.89 3643.04 2399.2 3643.04C2393.62 3643.04 2389.25 3644.78 2386.1 3648.28C2382.99 3651.73 2381.43 3656.22 2381.43 3661.76V3723H2358.74V3659.72C2358.74 3654.65 2357.21 3650.6 2354.14 3647.57C2351.11 3644.55 2347.15 3643.04 2342.25 3643.04C2338.93 3643.04 2335.9 3643.89 2333.17 3645.59C2330.45 3647.25 2328.27 3649.62 2326.65 3652.69C2325.04 3655.71 2324.23 3659.25 2324.23 3663.3V3723H2301.09ZM2462.63 3759.82V3624.82H2485.39V3641.05H2486.73C2487.92 3638.67 2489.6 3636.13 2491.78 3633.45C2493.95 3630.72 2496.89 3628.4 2500.6 3626.48C2504.31 3624.52 2509.04 3623.54 2514.79 3623.54C2522.37 3623.54 2529.21 3625.48 2535.31 3629.36C2541.44 3633.19 2546.3 3638.88 2549.88 3646.42C2553.5 3653.92 2555.31 3663.13 2555.31 3674.04C2555.31 3684.82 2553.55 3693.98 2550.01 3701.52C2546.47 3709.07 2541.66 3714.82 2535.56 3718.78C2529.47 3722.74 2522.57 3724.73 2514.85 3724.73C2509.23 3724.73 2504.56 3723.79 2500.85 3721.91C2497.15 3720.04 2494.16 3717.78 2491.91 3715.14C2489.69 3712.45 2487.96 3709.92 2486.73 3707.53H2485.77V3759.82H2462.63ZM2485.32 3673.91C2485.32 3680.26 2486.22 3685.82 2488.01 3690.59C2489.84 3695.37 2492.46 3699.09 2495.87 3701.78C2499.32 3704.42 2503.5 3705.74 2508.4 3705.74C2513.51 3705.74 2517.79 3704.38 2521.24 3701.65C2524.7 3698.88 2527.3 3695.11 2529.04 3690.34C2530.83 3685.52 2531.73 3680.05 2531.73 3673.91C2531.73 3667.82 2530.85 3662.4 2529.11 3657.67C2527.36 3652.94 2524.76 3649.24 2521.31 3646.55C2517.86 3643.87 2513.55 3642.52 2508.4 3642.52C2503.45 3642.52 2499.26 3643.82 2495.8 3646.42C2492.35 3649.02 2489.73 3652.67 2487.94 3657.35C2486.19 3662.04 2485.32 3667.56 2485.32 3673.91ZM2617.96 3724.92C2608.37 3724.92 2600.06 3722.81 2593.03 3718.59C2586 3714.37 2580.54 3708.47 2576.66 3700.88C2572.83 3693.3 2570.91 3684.43 2570.91 3674.29C2570.91 3664.15 2572.83 3655.27 2576.66 3647.64C2580.54 3640.01 2586 3634.09 2593.03 3629.87C2600.06 3625.65 2608.37 3623.54 2617.96 3623.54C2627.54 3623.54 2635.85 3625.65 2642.89 3629.87C2649.92 3634.09 2655.35 3640.01 2659.18 3647.64C2663.06 3655.27 2665 3664.15 2665 3674.29C2665 3684.43 2663.06 3693.3 2659.18 3700.88C2655.35 3708.47 2649.92 3714.37 2642.89 3718.59C2635.85 3722.81 2627.54 3724.92 2617.96 3724.92ZM2618.08 3706.38C2623.28 3706.38 2627.63 3704.95 2631.12 3702.1C2634.62 3699.2 2637.22 3695.32 2638.92 3690.46C2640.67 3685.61 2641.54 3680.19 2641.54 3674.23C2641.54 3668.22 2640.67 3662.79 2638.92 3657.93C2637.22 3653.03 2634.62 3649.13 2631.12 3646.23C2627.63 3643.33 2623.28 3641.88 2618.08 3641.88C2612.76 3641.88 2608.33 3643.33 2604.79 3646.23C2601.29 3649.13 2598.67 3653.03 2596.93 3657.93C2595.22 3662.79 2594.37 3668.22 2594.37 3674.23C2594.37 3680.19 2595.22 3685.61 2596.93 3690.46C2598.67 3695.32 2601.29 3699.2 2604.79 3702.1C2608.33 3704.95 2612.76 3706.38 2618.08 3706.38ZM2684.64 3723V3624.82H2707.08V3641.18H2708.1C2709.89 3635.51 2712.96 3631.15 2717.3 3628.08C2721.69 3624.97 2726.7 3623.41 2732.33 3623.41C2733.6 3623.41 2735.03 3623.48 2736.61 3623.6C2738.23 3623.69 2739.57 3623.84 2740.64 3624.05V3645.34C2739.66 3645 2738.1 3644.7 2735.97 3644.44C2733.88 3644.14 2731.86 3643.99 2729.9 3643.99C2725.68 3643.99 2721.89 3644.91 2718.52 3646.74C2715.2 3648.53 2712.57 3651.03 2710.66 3654.22C2708.74 3657.42 2707.78 3661.1 2707.78 3665.28V3723H2684.64ZM2810.31 3624.82V3642.72H2753.87V3624.82H2810.31ZM2767.8 3601.3H2790.94V3693.47C2790.94 3696.58 2791.41 3698.97 2792.35 3700.63C2793.33 3702.25 2794.61 3703.36 2796.18 3703.95C2797.76 3704.55 2799.51 3704.85 2801.42 3704.85C2802.87 3704.85 2804.19 3704.74 2805.39 3704.53C2806.62 3704.31 2807.56 3704.12 2808.2 3703.95L2812.1 3722.04C2810.86 3722.47 2809.09 3722.94 2806.79 3723.45C2804.53 3723.96 2801.76 3724.26 2798.48 3724.34C2792.69 3724.51 2787.47 3723.64 2782.82 3721.72C2778.18 3719.76 2774.49 3716.74 2771.76 3712.64C2769.08 3708.55 2767.76 3703.44 2767.8 3697.3V3601.3ZM2857.91 3724.98C2851.69 3724.98 2846.09 3723.87 2841.1 3721.66C2836.16 3719.4 2832.24 3716.08 2829.34 3711.69C2826.49 3707.3 2825.06 3701.88 2825.06 3695.45C2825.06 3689.91 2826.08 3685.33 2828.13 3681.71C2830.17 3678.09 2832.96 3675.19 2836.5 3673.01C2840.04 3670.84 2844.02 3669.2 2848.45 3668.09C2852.93 3666.94 2857.55 3666.11 2862.32 3665.6C2868.08 3665 2872.74 3664.47 2876.32 3664C2879.9 3663.49 2882.5 3662.72 2884.12 3661.7C2885.78 3660.63 2886.61 3658.99 2886.61 3656.78V3656.39C2886.61 3651.58 2885.19 3647.85 2882.33 3645.21C2879.48 3642.57 2875.36 3641.25 2869.99 3641.25C2864.33 3641.25 2859.83 3642.48 2856.51 3644.95C2853.23 3647.42 2851.01 3650.34 2849.86 3653.71L2828.25 3650.64C2829.96 3644.68 2832.77 3639.69 2836.69 3635.68C2840.61 3631.64 2845.41 3628.61 2851.07 3626.61C2856.74 3624.56 2863.01 3623.54 2869.87 3623.54C2874.6 3623.54 2879.31 3624.09 2883.99 3625.2C2888.68 3626.31 2892.96 3628.14 2896.84 3630.7C2900.72 3633.21 2903.83 3636.64 2906.17 3640.99C2908.56 3645.34 2909.75 3650.77 2909.75 3657.29V3723H2887.51V3709.51H2886.74C2885.34 3712.24 2883.35 3714.8 2880.8 3717.18C2878.28 3719.53 2875.11 3721.42 2871.27 3722.87C2867.48 3724.28 2863.03 3724.98 2857.91 3724.98ZM2863.92 3707.98C2868.57 3707.98 2872.59 3707.06 2876 3705.23C2879.41 3703.36 2882.03 3700.88 2883.87 3697.82C2885.74 3694.75 2886.68 3691.4 2886.68 3687.78V3676.21C2885.95 3676.81 2884.72 3677.36 2882.97 3677.87C2881.27 3678.38 2879.35 3678.83 2877.22 3679.21C2875.09 3679.6 2872.98 3679.94 2870.89 3680.24C2868.8 3680.54 2866.99 3680.79 2865.46 3681C2862 3681.47 2858.91 3682.24 2856.19 3683.31C2853.46 3684.37 2851.31 3685.86 2849.73 3687.78C2848.16 3689.65 2847.37 3692.08 2847.37 3695.07C2847.37 3699.33 2848.92 3702.55 2852.03 3704.72C2855.14 3706.89 2859.11 3707.98 2863.92 3707.98ZM2956.16 3665.47V3723H2933.02V3624.82H2955.14V3641.5H2956.29C2958.55 3636 2962.15 3631.64 2967.09 3628.4C2972.08 3625.16 2978.23 3623.54 2985.56 3623.54C2992.34 3623.54 2998.24 3624.99 3003.27 3627.89C3008.34 3630.78 3012.26 3634.98 3015.03 3640.48C3017.84 3645.98 3019.23 3652.64 3019.18 3660.49V3723H2996.05V3664.07C2996.05 3657.5 2994.34 3652.37 2990.93 3648.66C2987.57 3644.95 2982.9 3643.1 2976.93 3643.1C2972.89 3643.1 2969.28 3643.99 2966.13 3645.78C2963.02 3647.53 2960.57 3650.07 2958.78 3653.39C2957.03 3656.71 2956.16 3660.74 2956.16 3665.47ZM3091.73 3624.82V3642.72H3035.29V3624.82H3091.73ZM3049.23 3601.3H3072.37V3693.47C3072.37 3696.58 3072.84 3698.97 3073.77 3700.63C3074.75 3702.25 3076.03 3703.36 3077.61 3703.95C3079.18 3704.55 3080.93 3704.85 3082.85 3704.85C3084.3 3704.85 3085.62 3704.74 3086.81 3704.53C3088.05 3704.31 3088.99 3704.12 3089.63 3703.95L3093.52 3722.04C3092.29 3722.47 3090.52 3722.94 3088.22 3723.45C3085.96 3723.96 3083.19 3724.26 3079.91 3724.34C3074.11 3724.51 3068.89 3723.64 3064.25 3721.72C3059.6 3719.76 3055.92 3716.74 3053.19 3712.64C3050.51 3708.55 3049.18 3703.44 3049.23 3697.3V3601.3Z" fill="#1A1A1A"/>
</svg>
