<svg width="212" height="62" viewBox="0 0 212 62" fill="none" xmlns="http://www.w3.org/2000/svg">
<g filter="url(#filter0_i_19_20)">
<rect width="212" height="62" fill="white"/>
<path d="M40.6662 26.8182H42.2074V33.5149C42.2074 34.2275 42.04 34.8589 41.7053 35.4091C41.3705 35.956 40.8999 36.3868 40.2933 36.7017C39.6868 37.0133 38.9759 37.169 38.1605 37.169C37.3485 37.169 36.6392 37.0133 36.0327 36.7017C35.4261 36.3868 34.9555 35.956 34.6207 35.4091C34.286 34.8589 34.1186 34.2275 34.1186 33.5149V26.8182H35.6548V33.3906C35.6548 33.8513 35.7559 34.2607 35.9581 34.6186C36.1636 34.9766 36.4536 35.2583 36.8281 35.4638C37.2027 35.666 37.6468 35.767 38.1605 35.767C38.6776 35.767 39.1233 35.666 39.4979 35.4638C39.8757 35.2583 40.1641 34.9766 40.3629 34.6186C40.5651 34.2607 40.6662 33.8513 40.6662 33.3906V26.8182ZM44.5216 39.8636V29.3636H45.9733V30.6016H46.0975C46.1837 30.4425 46.308 30.2585 46.4704 30.0497C46.6328 29.8409 46.8582 29.6586 47.1466 29.5028C47.4349 29.3438 47.8161 29.2642 48.29 29.2642C48.9065 29.2642 49.4567 29.42 49.9406 29.7315C50.4245 30.0431 50.804 30.4922 51.0791 31.0788C51.3575 31.6655 51.4967 32.3714 51.4967 33.1967C51.4967 34.022 51.3592 34.7296 51.0841 35.3196C50.809 35.9062 50.4311 36.3587 49.9505 36.6768C49.4699 36.9917 48.9214 37.1491 48.3049 37.1491C47.8409 37.1491 47.4614 37.0713 47.1664 36.9155C46.8748 36.7597 46.6461 36.5774 46.4804 36.3686C46.3146 36.1598 46.187 35.9742 46.0975 35.8118H46.0081V39.8636H44.5216ZM45.9782 33.1818C45.9782 33.7187 46.0561 34.1894 46.2119 34.5938C46.3677 34.9981 46.5931 35.3146 46.888 35.5433C47.183 35.7687 47.5443 35.8814 47.9718 35.8814C48.416 35.8814 48.7872 35.7637 49.0855 35.5284C49.3838 35.2898 49.6092 34.9666 49.7616 34.5589C49.9174 34.1513 49.9953 33.6922 49.9953 33.1818C49.9953 32.678 49.919 32.2256 49.7666 31.8246C49.6174 31.4235 49.3921 31.107 49.0904 30.875C48.7922 30.643 48.4193 30.527 47.9718 30.527C47.541 30.527 47.1764 30.638 46.8781 30.8601C46.5831 31.0821 46.3594 31.392 46.2069 31.7898C46.0545 32.1875 45.9782 32.6515 45.9782 33.1818ZM56.2208 37.1491C55.6044 37.1491 55.0542 36.9917 54.5703 36.6768C54.0897 36.3587 53.7118 35.9062 53.4368 35.3196C53.165 34.7296 53.0291 34.022 53.0291 33.1967C53.0291 32.3714 53.1666 31.6655 53.4417 31.0788C53.7201 30.4922 54.1013 30.0431 54.5852 29.7315C55.0691 29.42 55.6176 29.2642 56.2308 29.2642C56.7047 29.2642 57.0859 29.3438 57.3743 29.5028C57.6659 29.6586 57.8913 29.8409 58.0504 30.0497C58.2128 30.2585 58.3387 30.4425 58.4282 30.6016H58.5177V26.8182H60.0042V37H58.5525V35.8118H58.4282C58.3387 35.9742 58.2095 36.1598 58.0404 36.3686C57.8747 36.5774 57.646 36.7597 57.3544 36.9155C57.0627 37.0713 56.6849 37.1491 56.2208 37.1491ZM56.549 35.8814C56.9765 35.8814 57.3378 35.7687 57.6328 35.5433C57.9311 35.3146 58.1565 34.9981 58.3089 34.5938C58.4647 34.1894 58.5426 33.7187 58.5426 33.1818C58.5426 32.6515 58.4663 32.1875 58.3139 31.7898C58.1614 31.392 57.9377 31.0821 57.6427 30.8601C57.3477 30.638 56.9832 30.527 56.549 30.527C56.1015 30.527 55.7287 30.643 55.4304 30.875C55.1321 31.107 54.9067 31.4235 54.7542 31.8246C54.6051 32.2256 54.5305 32.678 54.5305 33.1818C54.5305 33.6922 54.6067 34.1513 54.7592 34.5589C54.9117 34.9666 55.137 35.2898 55.4353 35.5284C55.7369 35.7637 56.1082 35.8814 56.549 35.8814ZM64.5482 37.169C64.0643 37.169 63.6268 37.0795 63.2357 36.9006C62.8446 36.7183 62.5347 36.4548 62.306 36.1101C62.0806 35.7654 61.9679 35.3428 61.9679 34.8423C61.9679 34.4115 62.0508 34.0568 62.2165 33.7784C62.3822 33.5 62.6059 33.2796 62.8876 33.1172C63.1694 32.9548 63.4842 32.8321 63.8322 32.7493C64.1803 32.6664 64.5349 32.6035 64.8962 32.5604C65.3536 32.5073 65.7248 32.4643 66.0098 32.4311C66.2948 32.3946 66.502 32.3366 66.6313 32.2571C66.7605 32.1776 66.8251 32.0483 66.8251 31.8693V31.8345C66.8251 31.4003 66.7025 31.0639 66.4572 30.8253C66.2153 30.5866 65.854 30.4673 65.3734 30.4673C64.873 30.4673 64.4786 30.5784 64.1902 30.8004C63.9052 31.0192 63.708 31.2628 63.5986 31.5312L62.2016 31.2131C62.3673 30.7491 62.6092 30.3745 62.9274 30.0895C63.2489 29.8011 63.6185 29.5923 64.0361 29.4631C64.4537 29.3305 64.8929 29.2642 65.3536 29.2642C65.6585 29.2642 65.9816 29.3007 66.323 29.3736C66.6677 29.4432 66.9892 29.5724 67.2875 29.7614C67.5891 29.9503 67.836 30.2204 68.0283 30.5717C68.2205 30.9197 68.3166 31.3722 68.3166 31.929V37H66.8649V35.956H66.8053C66.7091 36.1482 66.565 36.3371 66.3727 36.5227C66.1805 36.7083 65.9336 36.8625 65.632 36.9851C65.3304 37.1077 64.9691 37.169 64.5482 37.169ZM64.8713 35.9759C65.2823 35.9759 65.6336 35.8946 65.9253 35.7322C66.2203 35.5698 66.444 35.3577 66.5964 35.0959C66.7522 34.8307 66.8301 34.5473 66.8301 34.2457V33.2614C66.7771 33.3144 66.6743 33.3641 66.5219 33.4105C66.3727 33.4536 66.202 33.4917 66.0098 33.5249C65.8176 33.5547 65.6303 33.5829 65.448 33.6094C65.2657 33.6326 65.1133 33.6525 64.9906 33.669C64.7023 33.7055 64.4388 33.7668 64.2001 33.853C63.9648 33.9392 63.7759 34.0634 63.6334 34.2259C63.4942 34.3849 63.4246 34.5971 63.4246 34.8622C63.4246 35.2301 63.5605 35.5085 63.8322 35.6974C64.104 35.883 64.4504 35.9759 64.8713 35.9759ZM74.0612 29.3636V30.5568H69.89V29.3636H74.0612ZM71.0086 27.5341H72.4951V34.7578C72.4951 35.0462 72.5382 35.2633 72.6244 35.4091C72.7106 35.5516 72.8216 35.6494 72.9575 35.7024C73.0967 35.7521 73.2475 35.777 73.4099 35.777C73.5292 35.777 73.6336 35.7687 73.7231 35.7521C73.8126 35.7356 73.8822 35.7223 73.9319 35.7124L74.2004 36.9403C74.1142 36.9735 73.9916 37.0066 73.8325 37.0398C73.6734 37.0762 73.4745 37.0961 73.2359 37.0994C72.8448 37.1061 72.4802 37.0365 72.1422 36.8906C71.8041 36.7448 71.5306 36.5194 71.3218 36.2145C71.113 35.9096 71.0086 35.5268 71.0086 35.0661V27.5341ZM79.1147 37.1541C78.3623 37.1541 77.7144 36.9934 77.1708 36.6719C76.6306 36.3471 76.2129 35.8913 75.918 35.3047C75.6263 34.7147 75.4805 34.0237 75.4805 33.2315C75.4805 32.4493 75.6263 31.7599 75.918 31.1634C76.2129 30.5668 76.6239 30.1011 77.1509 29.7663C77.6812 29.4316 78.301 29.2642 79.0103 29.2642C79.4412 29.2642 79.8588 29.3355 80.2631 29.478C80.6675 29.6205 81.0304 29.8442 81.3519 30.1491C81.6734 30.4541 81.927 30.8501 82.1126 31.3374C82.2982 31.8213 82.391 32.4096 82.391 33.1023V33.6293H76.3207V32.5156H80.9343C80.9343 32.1245 80.8548 31.7782 80.6957 31.4766C80.5366 31.1716 80.3129 30.9313 80.0245 30.7557C79.7395 30.58 79.4047 30.4922 79.0202 30.4922C78.6026 30.4922 78.238 30.5949 77.9265 30.8004C77.6183 31.0026 77.3796 31.2678 77.2106 31.5959C77.0449 31.9207 76.962 32.2737 76.962 32.6548V33.5249C76.962 34.0353 77.0515 34.4695 77.2305 34.8274C77.4128 35.1854 77.6663 35.4588 77.9911 35.6477C78.3159 35.8333 78.6954 35.9261 79.1296 35.9261C79.4113 35.9261 79.6682 35.8864 79.9002 35.8068C80.1322 35.724 80.3327 35.6013 80.5018 35.4389C80.6708 35.2765 80.8001 35.076 80.8896 34.8374L82.2965 35.0909C82.1838 35.5052 81.9817 35.8681 81.69 36.1797C81.4016 36.4879 81.0387 36.7282 80.6012 36.9006C80.167 37.0696 79.6715 37.1541 79.1147 37.1541ZM89.9626 31.228L88.6153 31.4666C88.559 31.2943 88.4695 31.1302 88.3468 30.9744C88.2275 30.8187 88.0651 30.6911 87.8596 30.5916C87.6541 30.4922 87.3973 30.4425 87.089 30.4425C86.6681 30.4425 86.3168 30.5369 86.0351 30.7259C85.7533 30.9115 85.6125 31.1518 85.6125 31.4467C85.6125 31.7019 85.7069 31.9074 85.8958 32.0632C86.0848 32.219 86.3897 32.3466 86.8106 32.446L88.0237 32.7244C88.7263 32.8868 89.25 33.1371 89.5947 33.4751C89.9394 33.8132 90.1118 34.2524 90.1118 34.7926C90.1118 35.25 89.9792 35.6577 89.714 36.0156C89.4522 36.3703 89.086 36.6487 88.6153 36.8509C88.148 37.053 87.6061 37.1541 86.9896 37.1541C86.1345 37.1541 85.4368 36.9718 84.8966 36.6072C84.3563 36.2393 84.0249 35.7173 83.9022 35.0412L85.339 34.8224C85.4285 35.197 85.6125 35.4804 85.8909 35.6726C86.1693 35.8615 86.5322 35.956 86.9797 35.956C87.4669 35.956 87.8563 35.8549 88.148 35.6527C88.4396 35.4472 88.5855 35.197 88.5855 34.902C88.5855 34.6634 88.496 34.4628 88.317 34.3004C88.1413 34.138 87.8712 34.0154 87.5066 33.9325L86.214 33.6491C85.5014 33.4867 84.9744 33.2282 84.6331 32.8736C84.295 32.5189 84.126 32.0698 84.126 31.5263C84.126 31.0755 84.2519 30.6811 84.5038 30.343C84.7557 30.005 85.1037 29.7415 85.5478 29.5526C85.992 29.3603 86.5007 29.2642 87.0741 29.2642C87.8994 29.2642 88.549 29.4432 89.023 29.8011C89.4969 30.1558 89.8101 30.6314 89.9626 31.228Z" fill="#424242"/>
<path d="M130.672 29.4929C130.619 29.0223 130.4 28.6577 130.016 28.3991C129.631 28.1373 129.147 28.0064 128.564 28.0064C128.146 28.0064 127.785 28.0727 127.48 28.2053C127.175 28.3345 126.938 28.5135 126.769 28.7422C126.603 28.9676 126.521 29.2244 126.521 29.5128C126.521 29.7547 126.577 29.9635 126.69 30.1392C126.806 30.3149 126.956 30.4624 127.142 30.5817C127.331 30.6977 127.533 30.7955 127.749 30.875C127.964 30.9512 128.171 31.0142 128.37 31.0639L129.364 31.3224C129.689 31.402 130.022 31.5097 130.364 31.6456C130.705 31.7815 131.022 31.9605 131.313 32.1825C131.605 32.4046 131.84 32.6797 132.019 33.0078C132.201 33.3359 132.293 33.7287 132.293 34.1861C132.293 34.7628 132.143 35.2749 131.845 35.7223C131.55 36.1697 131.121 36.5227 130.558 36.7812C129.997 37.0398 129.32 37.169 128.524 37.169C127.762 37.169 127.102 37.0481 126.545 36.8061C125.989 36.5642 125.553 36.2211 125.238 35.777C124.923 35.3295 124.749 34.7992 124.716 34.1861H126.257C126.287 34.554 126.406 34.8606 126.615 35.1058C126.827 35.3478 127.097 35.5284 127.425 35.6477C127.757 35.7637 128.12 35.8217 128.514 35.8217C128.948 35.8217 129.335 35.7538 129.673 35.6179C130.014 35.4787 130.282 35.2865 130.478 35.0412C130.674 34.7926 130.771 34.5026 130.771 34.1712C130.771 33.8696 130.685 33.6226 130.513 33.4304C130.344 33.2382 130.113 33.0791 129.822 32.9531C129.533 32.8272 129.207 32.7161 128.842 32.62L127.639 32.2919C126.824 32.0698 126.178 31.7434 125.7 31.3125C125.226 30.8816 124.989 30.3116 124.989 29.6023C124.989 29.0156 125.148 28.5036 125.467 28.0661C125.785 27.6286 126.216 27.2888 126.759 27.0469C127.303 26.8016 127.916 26.679 128.599 26.679C129.288 26.679 129.896 26.8 130.423 27.0419C130.954 27.2839 131.371 27.617 131.676 28.0412C131.981 28.4621 132.14 28.946 132.153 29.4929H130.672ZM137.5 37.1541C136.748 37.1541 136.1 36.9934 135.556 36.6719C135.016 36.3471 134.598 35.8913 134.304 35.3047C134.012 34.7147 133.866 34.0237 133.866 33.2315C133.866 32.4493 134.012 31.7599 134.304 31.1634C134.598 30.5668 135.009 30.1011 135.536 29.7663C136.067 29.4316 136.687 29.2642 137.396 29.2642C137.827 29.2642 138.244 29.3355 138.649 29.478C139.053 29.6205 139.416 29.8442 139.737 30.1491C140.059 30.4541 140.313 30.8501 140.498 31.3374C140.684 31.8213 140.777 32.4096 140.777 33.1023V33.6293H134.706V32.5156H139.32C139.32 32.1245 139.24 31.7782 139.081 31.4766C138.922 31.1716 138.698 30.9313 138.41 30.7557C138.125 30.58 137.79 30.4922 137.406 30.4922C136.988 30.4922 136.624 30.5949 136.312 30.8004C136.004 31.0026 135.765 31.2678 135.596 31.5959C135.43 31.9207 135.348 32.2737 135.348 32.6548V33.5249C135.348 34.0353 135.437 34.4695 135.616 34.8274C135.798 35.1854 136.052 35.4588 136.377 35.6477C136.701 35.8333 137.081 35.9261 137.515 35.9261C137.797 35.9261 138.054 35.8864 138.286 35.8068C138.518 35.724 138.718 35.6013 138.887 35.4389C139.056 35.2765 139.186 35.076 139.275 34.8374L140.682 35.0909C140.569 35.5052 140.367 35.8681 140.076 36.1797C139.787 36.4879 139.424 36.7282 138.987 36.9006C138.553 37.0696 138.057 37.1541 137.5 37.1541ZM142.626 37V29.3636H144.063V30.5767H144.142C144.281 30.1657 144.527 29.8426 144.878 29.6072C145.233 29.3686 145.634 29.2493 146.081 29.2493C146.174 29.2493 146.283 29.2526 146.409 29.2592C146.538 29.2659 146.64 29.2741 146.712 29.2841V30.706C146.653 30.6894 146.547 30.6712 146.394 30.6513C146.242 30.6281 146.089 30.6165 145.937 30.6165C145.586 30.6165 145.272 30.6911 144.997 30.8402C144.726 30.986 144.51 31.1899 144.351 31.4517C144.192 31.7102 144.112 32.0052 144.112 32.3366V37H142.626ZM154.964 29.3636L152.195 37H150.604L147.83 29.3636H149.426L151.36 35.2401H151.439L153.368 29.3636H154.964ZM156.561 37V29.3636H158.048V37H156.561ZM157.312 28.1854C157.053 28.1854 156.831 28.0992 156.646 27.9268C156.463 27.7512 156.372 27.5424 156.372 27.3004C156.372 27.0552 156.463 26.8464 156.646 26.674C156.831 26.4983 157.053 26.4105 157.312 26.4105C157.57 26.4105 157.791 26.4983 157.973 26.674C158.159 26.8464 158.251 27.0552 158.251 27.3004C158.251 27.5424 158.159 27.7512 157.973 27.9268C157.791 28.0992 157.57 28.1854 157.312 28.1854ZM163.464 37.1541C162.725 37.1541 162.088 36.9867 161.555 36.652C161.025 36.3139 160.617 35.8482 160.332 35.255C160.047 34.6617 159.904 33.9822 159.904 33.2166C159.904 32.4411 160.05 31.7566 160.342 31.1634C160.633 30.5668 161.044 30.1011 161.575 29.7663C162.105 29.4316 162.73 29.2642 163.449 29.2642C164.029 29.2642 164.546 29.3719 165 29.5874C165.454 29.7995 165.82 30.0978 166.099 30.4822C166.381 30.8667 166.548 31.3158 166.601 31.8295H165.154C165.075 31.4716 164.892 31.1634 164.607 30.9048C164.326 30.6463 163.948 30.517 163.474 30.517C163.06 30.517 162.697 30.6264 162.385 30.8452C162.077 31.0606 161.837 31.3688 161.664 31.7699C161.492 32.1676 161.406 32.6383 161.406 33.1818C161.406 33.7386 161.49 34.2192 161.659 34.6236C161.828 35.0279 162.067 35.3411 162.375 35.5632C162.687 35.7853 163.053 35.8963 163.474 35.8963C163.756 35.8963 164.011 35.8449 164.24 35.7422C164.472 35.6361 164.665 35.4853 164.821 35.2898C164.98 35.0942 165.091 34.8589 165.154 34.5838H166.601C166.548 35.0777 166.387 35.5185 166.119 35.9062C165.85 36.294 165.491 36.599 165.04 36.821C164.593 37.0431 164.067 37.1541 163.464 37.1541ZM171.682 37.1541C170.93 37.1541 170.282 36.9934 169.738 36.6719C169.198 36.3471 168.78 35.8913 168.485 35.3047C168.193 34.7147 168.048 34.0237 168.048 33.2315C168.048 32.4493 168.193 31.7599 168.485 31.1634C168.78 30.5668 169.191 30.1011 169.718 29.7663C170.248 29.4316 170.868 29.2642 171.577 29.2642C172.008 29.2642 172.426 29.3355 172.83 29.478C173.235 29.6205 173.598 29.8442 173.919 30.1491C174.241 30.4541 174.494 30.8501 174.68 31.3374C174.865 31.8213 174.958 32.4096 174.958 33.1023V33.6293H168.888V32.5156H173.501C173.501 32.1245 173.422 31.7782 173.263 31.4766C173.104 31.1716 172.88 30.9313 172.592 30.7557C172.307 30.58 171.972 30.4922 171.587 30.4922C171.17 30.4922 170.805 30.5949 170.494 30.8004C170.185 31.0026 169.947 31.2678 169.778 31.5959C169.612 31.9207 169.529 32.2737 169.529 32.6548V33.5249C169.529 34.0353 169.619 34.4695 169.798 34.8274C169.98 35.1854 170.233 35.4588 170.558 35.6477C170.883 35.8333 171.263 35.9261 171.697 35.9261C171.979 35.9261 172.235 35.8864 172.467 35.8068C172.699 35.724 172.9 35.6013 173.069 35.4389C173.238 35.2765 173.367 35.076 173.457 34.8374L174.864 35.0909C174.751 35.5052 174.549 35.8681 174.257 36.1797C173.969 36.4879 173.606 36.7282 173.168 36.9006C172.734 37.0696 172.239 37.1541 171.682 37.1541ZM182.53 31.228L181.182 31.4666C181.126 31.2943 181.037 31.1302 180.914 30.9744C180.795 30.8187 180.632 30.6911 180.427 30.5916C180.221 30.4922 179.964 30.4425 179.656 30.4425C179.235 30.4425 178.884 30.5369 178.602 30.7259C178.321 30.9115 178.18 31.1518 178.18 31.4467C178.18 31.7019 178.274 31.9074 178.463 32.0632C178.652 32.219 178.957 32.3466 179.378 32.446L180.591 32.7244C181.294 32.8868 181.817 33.1371 182.162 33.4751C182.507 33.8132 182.679 34.2524 182.679 34.7926C182.679 35.25 182.546 35.6577 182.281 36.0156C182.019 36.3703 181.653 36.6487 181.182 36.8509C180.715 37.053 180.173 37.1541 179.557 37.1541C178.702 37.1541 178.004 36.9718 177.464 36.6072C176.923 36.2393 176.592 35.7173 176.469 35.0412L177.906 34.8224C177.996 35.197 178.18 35.4804 178.458 35.6726C178.736 35.8615 179.099 35.956 179.547 35.956C180.034 35.956 180.423 35.8549 180.715 35.6527C181.007 35.4472 181.153 35.197 181.153 34.902C181.153 34.6634 181.063 34.4628 180.884 34.3004C180.709 34.138 180.438 34.0154 180.074 33.9325L178.781 33.6491C178.069 33.4867 177.542 33.2282 177.2 32.8736C176.862 32.5189 176.693 32.0698 176.693 31.5263C176.693 31.0755 176.819 30.6811 177.071 30.343C177.323 30.005 177.671 29.7415 178.115 29.5526C178.559 29.3603 179.068 29.2642 179.641 29.2642C180.467 29.2642 181.116 29.4432 181.59 29.8011C182.064 30.1558 182.377 30.6314 182.53 31.228Z" fill="#424242"/>
<line x1="93.5" y1="29" x2="93.5" y2="37" stroke="#CF6363"/>
<line x1="122.5" y1="29" x2="122.5" y2="37" stroke="#CF6363"/>
<line x1="122" y1="33.5" x2="103" y2="33.5" stroke="#CF6363"/>
<line x1="103" y1="33.5" x2="93" y2="33.5" stroke="#CF6363"/>
</g>
<defs>
<filter id="filter0_i_19_20" x="0" y="-1" width="212" height="63" filterUnits="userSpaceOnUse" color-interpolation-filters="sRGB">
<feFlood flood-opacity="0" result="BackgroundImageFix"/>
<feBlend mode="normal" in="SourceGraphic" in2="BackgroundImageFix" result="shape"/>
<feColorMatrix in="SourceAlpha" type="matrix" values="0 0 0 0 0 0 0 0 0 0 0 0 0 0 0 0 0 0 127 0" result="hardAlpha"/>
<feOffset dy="-1"/>
<feGaussianBlur stdDeviation="0.5"/>
<feComposite in2="hardAlpha" operator="arithmetic" k2="-1" k3="1"/>
<feColorMatrix type="matrix" values="0 0 0 0 0 0 0 0 0 0 0 0 0 0 0 0 0 0 0.1 0"/>
<feBlend mode="normal" in2="shape" result="effect1_innerShadow_19_20"/>
</filter>
</defs>
</svg>
