<svg width="19" height="35" viewBox="0 0 19 35" fill="none" xmlns="http://www.w3.org/2000/svg">
<path d="M10.9375 6.64062V0H1.17188C0.522461 0 0 0.522461 0 1.17188V23.8281C0 24.4775 0.522461 25 1.17188 25H17.5781C18.2275 25 18.75 24.4775 18.75 23.8281V7.8125H12.1094C11.4648 7.8125 10.9375 7.28516 10.9375 6.64062ZM18.75 5.95215V6.25H12.5V0H12.7979C13.1104 0 13.4082 0.12207 13.6279 0.341797L18.4082 5.12695C18.6279 5.34668 18.75 5.64453 18.75 5.95215Z" fill="#BEADEE"/>
<path d="M6.14953 32.3349L6.14314 31.1683H6.30933L8.2653 29.0909H9.40947L7.17865 31.456H7.02844L6.14953 32.3349ZM5.27062 34V27.4545H6.22623V34H5.27062ZM8.37077 34L6.61295 31.6669L7.27133 30.9989L9.54371 34H8.37077ZM10.4571 34V27.4545H11.4127V29.8867H11.4702C11.5256 29.7844 11.6055 29.6662 11.7099 29.532C11.8143 29.3977 11.9592 29.2805 12.1446 29.1804C12.33 29.0781 12.575 29.027 12.8797 29.027C13.276 29.027 13.6297 29.1271 13.9408 29.3274C14.2518 29.5277 14.4958 29.8164 14.6726 30.1935C14.8516 30.5707 14.9411 31.0245 14.9411 31.555C14.9411 32.0856 14.8527 32.5405 14.6758 32.9197C14.499 33.2969 14.2561 33.5877 13.9472 33.7923C13.6382 33.9947 13.2856 34.0959 12.8893 34.0959C12.591 34.0959 12.347 34.0458 12.1574 33.9457C11.9699 33.8455 11.8229 33.7283 11.7163 33.5941C11.6098 33.4599 11.5278 33.3406 11.4702 33.2362H11.3903V34H10.4571ZM11.3935 31.5455C11.3935 31.8906 11.4436 32.1932 11.5437 32.4531C11.6439 32.7131 11.7888 32.9165 11.9784 33.0636C12.168 33.2085 12.4003 33.2809 12.6751 33.2809C12.9606 33.2809 13.1993 33.2053 13.391 33.054C13.5828 32.9006 13.7277 32.6928 13.8257 32.4308C13.9258 32.1687 13.9759 31.8736 13.9759 31.5455C13.9759 31.2216 13.9269 30.9308 13.8289 30.6729C13.733 30.4151 13.5881 30.2116 13.3942 30.0625C13.2025 29.9134 12.9628 29.8388 12.6751 29.8388C12.3981 29.8388 12.1638 29.9102 11.972 30.0529C11.7824 30.1957 11.6386 30.3949 11.5405 30.6506C11.4425 30.9062 11.3935 31.2045 11.3935 31.5455Z" fill="#BEADEE"/>
</svg>
