<svg width="110" height="36" viewBox="0 0 110 36" fill="none" xmlns="http://www.w3.org/2000/svg">
<path d="M17.9688 6H7.03125C5.7373 6 4.6875 7.0498 4.6875 8.34375V28.6562C4.6875 29.9502 5.7373 31 7.03125 31H17.9688C19.2627 31 20.3125 29.9502 20.3125 28.6562V8.34375C20.3125 7.0498 19.2627 6 17.9688 6ZM12.5 29.4375C11.6357 29.4375 10.9375 28.7393 10.9375 27.875C10.9375 27.0107 11.6357 26.3125 12.5 26.3125C13.3643 26.3125 14.0625 27.0107 14.0625 27.875C14.0625 28.7393 13.3643 29.4375 12.5 29.4375ZM17.9688 24.1641C17.9688 24.4863 17.7051 24.75 17.3828 24.75H7.61719C7.29492 24.75 7.03125 24.4863 7.03125 24.1641V8.92969C7.03125 8.60742 7.29492 8.34375 7.61719 8.34375H17.3828C17.7051 8.34375 17.9688 8.60742 17.9688 8.92969V24.1641Z" fill="black"/>
<path d="M61.375 24.75H51.9039C51.875 25.5238 51.3293 26 50.625 26H48.25C47.5199 26 46.9602 25.3176 46.9699 24.75H37.625C37.2812 24.75 37 25.0312 37 25.375V26C37 27.375 38.125 28.5 39.5 28.5H59.5C60.875 28.5 62 27.375 62 26V25.375C62 25.0312 61.7188 24.75 61.375 24.75ZM59.5 10.375C59.5 9.34375 58.6562 8.5 57.625 8.5H41.375C40.3438 8.5 39.5 9.34375 39.5 10.375V23.5H59.5V10.375ZM57 21H42V11H57V21Z" fill="black"/>
<path d="M109.1 27H95.4616C95.42 28.1143 94.6342 28.8 93.62 28.8H90.2C89.1487 28.8 88.3426 27.8173 88.3567 27H74.9C74.405 27 74 27.405 74 27.9V28.8C74 30.78 75.62 32.4 77.6 32.4H106.4C108.38 32.4 110 30.78 110 28.8V27.9C110 27.405 109.595 27 109.1 27ZM106.4 6.29998C106.4 4.81498 105.185 3.59998 103.7 3.59998H80.3C78.815 3.59998 77.6 4.81498 77.6 6.29998V25.2H106.4V6.29998ZM102.8 21.6H81.2V7.19998H102.8V21.6Z" fill="black"/>
</svg>
