<svg width="107" height="39" viewBox="0 0 107 39" fill="none" xmlns="http://www.w3.org/2000/svg">
<rect width="106.938" height="39" rx="6" fill="#CE5E5E"/>
<path d="M32.5868 23C32.4842 23 32.4002 22.9673 32.3348 22.902C32.2695 22.8367 32.2368 22.7527 32.2368 22.65V13.55C32.2368 13.4473 32.2695 13.3633 32.3348 13.298C32.4002 13.2327 32.4842 13.2 32.5868 13.2H36.2268C37.1415 13.2 37.9208 13.3493 38.5648 13.648C39.2088 13.9373 39.7035 14.3667 40.0488 14.936C40.3942 15.496 40.5808 16.1913 40.6088 17.022C40.6182 17.4327 40.6228 17.792 40.6228 18.1C40.6228 18.408 40.6182 18.7627 40.6088 19.164C40.5715 20.032 40.3848 20.7507 40.0488 21.32C39.7222 21.8893 39.2415 22.314 38.6068 22.594C37.9815 22.8647 37.2115 23 36.2968 23H32.5868ZM34.7428 20.984H36.2268C36.6282 20.984 36.9595 20.9233 37.2208 20.802C37.4915 20.6713 37.6922 20.4707 37.8228 20.2C37.9628 19.9293 38.0375 19.5747 38.0468 19.136C38.0655 18.8653 38.0748 18.6227 38.0748 18.408C38.0842 18.1933 38.0842 17.9787 38.0748 17.764C38.0748 17.5493 38.0655 17.3113 38.0468 17.05C38.0282 16.4153 37.8602 15.9533 37.5428 15.664C37.2348 15.3653 36.7728 15.216 36.1568 15.216H34.7428V20.984ZM45.4643 23.14C44.363 23.14 43.4857 22.8413 42.8323 22.244C42.179 21.6467 41.8383 20.76 41.8103 19.584C41.8103 19.5187 41.8103 19.4347 41.8103 19.332C41.8103 19.2293 41.8103 19.15 41.8103 19.094C41.8383 18.3567 42.0017 17.7267 42.3003 17.204C42.6083 16.672 43.0283 16.2707 43.5603 16C44.1017 15.72 44.7317 15.58 45.4503 15.58C46.2717 15.58 46.9483 15.7433 47.4803 16.07C48.0217 16.3967 48.4277 16.84 48.6983 17.4C48.969 17.96 49.1043 18.5993 49.1043 19.318V19.654C49.1043 19.7567 49.067 19.8407 48.9923 19.906C48.927 19.9713 48.8477 20.004 48.7543 20.004H44.2743C44.2743 20.0133 44.2743 20.0273 44.2743 20.046C44.2743 20.0647 44.2743 20.0833 44.2743 20.102C44.2837 20.3727 44.3303 20.62 44.4143 20.844C44.4983 21.068 44.629 21.2453 44.8063 21.376C44.9837 21.5067 45.1983 21.572 45.4503 21.572C45.637 21.572 45.791 21.544 45.9123 21.488C46.043 21.4227 46.1503 21.3527 46.2343 21.278C46.3183 21.194 46.3837 21.124 46.4303 21.068C46.5143 20.9747 46.5797 20.9187 46.6263 20.9C46.6823 20.872 46.7663 20.858 46.8783 20.858H48.6143C48.7077 20.858 48.7823 20.886 48.8383 20.942C48.9037 20.9887 48.9317 21.0587 48.9223 21.152C48.913 21.3107 48.8337 21.502 48.6843 21.726C48.535 21.95 48.3157 22.174 48.0263 22.398C47.7463 22.6127 47.3917 22.79 46.9623 22.93C46.533 23.07 46.0337 23.14 45.4643 23.14ZM44.2743 18.618H46.6403V18.59C46.6403 18.2913 46.5937 18.03 46.5003 17.806C46.4163 17.582 46.281 17.4093 46.0943 17.288C45.917 17.1667 45.7023 17.106 45.4503 17.106C45.1983 17.106 44.9837 17.1667 44.8063 17.288C44.6383 17.4093 44.5077 17.582 44.4143 17.806C44.321 18.03 44.2743 18.2913 44.2743 18.59V18.618ZM50.7668 23C50.6642 23 50.5802 22.9673 50.5148 22.902C50.4495 22.8367 50.4168 22.7527 50.4168 22.65V13.41C50.4168 13.3073 50.4495 13.2233 50.5148 13.158C50.5802 13.0927 50.6642 13.06 50.7668 13.06H52.4188C52.5215 13.06 52.6055 13.0927 52.6708 13.158C52.7362 13.2233 52.7688 13.3073 52.7688 13.41V22.65C52.7688 22.7527 52.7362 22.8367 52.6708 22.902C52.6055 22.9673 52.5215 23 52.4188 23H50.7668ZM57.7827 23.14C56.6813 23.14 55.804 22.8413 55.1507 22.244C54.4973 21.6467 54.1567 20.76 54.1287 19.584C54.1287 19.5187 54.1287 19.4347 54.1287 19.332C54.1287 19.2293 54.1287 19.15 54.1287 19.094C54.1567 18.3567 54.32 17.7267 54.6187 17.204C54.9267 16.672 55.3467 16.2707 55.8787 16C56.42 15.72 57.05 15.58 57.7687 15.58C58.59 15.58 59.2667 15.7433 59.7987 16.07C60.34 16.3967 60.746 16.84 61.0167 17.4C61.2873 17.96 61.4227 18.5993 61.4227 19.318V19.654C61.4227 19.7567 61.3853 19.8407 61.3107 19.906C61.2453 19.9713 61.166 20.004 61.0727 20.004H56.5927C56.5927 20.0133 56.5927 20.0273 56.5927 20.046C56.5927 20.0647 56.5927 20.0833 56.5927 20.102C56.602 20.3727 56.6487 20.62 56.7327 20.844C56.8167 21.068 56.9473 21.2453 57.1247 21.376C57.302 21.5067 57.5167 21.572 57.7687 21.572C57.9553 21.572 58.1093 21.544 58.2307 21.488C58.3613 21.4227 58.4687 21.3527 58.5527 21.278C58.6367 21.194 58.702 21.124 58.7487 21.068C58.8327 20.9747 58.898 20.9187 58.9447 20.9C59.0007 20.872 59.0847 20.858 59.1967 20.858H60.9327C61.026 20.858 61.1007 20.886 61.1567 20.942C61.222 20.9887 61.25 21.0587 61.2407 21.152C61.2313 21.3107 61.152 21.502 61.0027 21.726C60.8533 21.95 60.634 22.174 60.3447 22.398C60.0647 22.6127 59.71 22.79 59.2807 22.93C58.8513 23.07 58.352 23.14 57.7827 23.14ZM56.5927 18.618H58.9587V18.59C58.9587 18.2913 58.912 18.03 58.8187 17.806C58.7347 17.582 58.5993 17.4093 58.4127 17.288C58.2353 17.1667 58.0207 17.106 57.7687 17.106C57.5167 17.106 57.302 17.1667 57.1247 17.288C56.9567 17.4093 56.826 17.582 56.7327 17.806C56.6393 18.03 56.5927 18.2913 56.5927 18.59V18.618ZM66.4455 23C65.8482 23 65.3302 22.9067 64.8915 22.72C64.4622 22.524 64.1308 22.2253 63.8975 21.824C63.6642 21.4133 63.5475 20.886 63.5475 20.242V17.554H62.4555C62.3528 17.554 62.2642 17.5213 62.1895 17.456C62.1242 17.3907 62.0915 17.3067 62.0915 17.204V16.07C62.0915 15.9673 62.1242 15.8833 62.1895 15.818C62.2642 15.7527 62.3528 15.72 62.4555 15.72H63.5475V13.41C63.5475 13.3073 63.5802 13.2233 63.6455 13.158C63.7202 13.0927 63.8042 13.06 63.8975 13.06H65.5215C65.6242 13.06 65.7082 13.0927 65.7735 13.158C65.8388 13.2233 65.8715 13.3073 65.8715 13.41V15.72H67.6215C67.7242 15.72 67.8082 15.7527 67.8735 15.818C67.9388 15.8833 67.9715 15.9673 67.9715 16.07V17.204C67.9715 17.3067 67.9388 17.3907 67.8735 17.456C67.8082 17.5213 67.7242 17.554 67.6215 17.554H65.8715V20.046C65.8715 20.3633 65.9322 20.6153 66.0535 20.802C66.1748 20.9887 66.3802 21.082 66.6695 21.082H67.7475C67.8502 21.082 67.9342 21.1147 67.9995 21.18C68.0648 21.2453 68.0975 21.3293 68.0975 21.432V22.65C68.0975 22.7527 68.0648 22.8367 67.9995 22.902C67.9342 22.9673 67.8502 23 67.7475 23H66.4455ZM72.6167 23.14C71.5153 23.14 70.638 22.8413 69.9847 22.244C69.3313 21.6467 68.9907 20.76 68.9627 19.584C68.9627 19.5187 68.9627 19.4347 68.9627 19.332C68.9627 19.2293 68.9627 19.15 68.9627 19.094C68.9907 18.3567 69.154 17.7267 69.4527 17.204C69.7607 16.672 70.1807 16.2707 70.7127 16C71.254 15.72 71.884 15.58 72.6027 15.58C73.424 15.58 74.1007 15.7433 74.6327 16.07C75.174 16.3967 75.58 16.84 75.8507 17.4C76.1213 17.96 76.2567 18.5993 76.2567 19.318V19.654C76.2567 19.7567 76.2193 19.8407 76.1447 19.906C76.0793 19.9713 76 20.004 75.9067 20.004H71.4267C71.4267 20.0133 71.4267 20.0273 71.4267 20.046C71.4267 20.0647 71.4267 20.0833 71.4267 20.102C71.436 20.3727 71.4827 20.62 71.5667 20.844C71.6507 21.068 71.7813 21.2453 71.9587 21.376C72.136 21.5067 72.3507 21.572 72.6027 21.572C72.7893 21.572 72.9433 21.544 73.0647 21.488C73.1953 21.4227 73.3027 21.3527 73.3867 21.278C73.4707 21.194 73.536 21.124 73.5827 21.068C73.6667 20.9747 73.732 20.9187 73.7787 20.9C73.8347 20.872 73.9187 20.858 74.0307 20.858H75.7667C75.86 20.858 75.9347 20.886 75.9907 20.942C76.056 20.9887 76.084 21.0587 76.0747 21.152C76.0653 21.3107 75.986 21.502 75.8367 21.726C75.6873 21.95 75.468 22.174 75.1787 22.398C74.8987 22.6127 74.544 22.79 74.1147 22.93C73.6853 23.07 73.186 23.14 72.6167 23.14ZM71.4267 18.618H73.7927V18.59C73.7927 18.2913 73.746 18.03 73.6527 17.806C73.5687 17.582 73.4333 17.4093 73.2467 17.288C73.0693 17.1667 72.8547 17.106 72.6027 17.106C72.3507 17.106 72.136 17.1667 71.9587 17.288C71.7907 17.4093 71.66 17.582 71.5667 17.806C71.4733 18.03 71.4267 18.2913 71.4267 18.59V18.618Z" fill="white"/>
</svg>
