<svg width="95" height="39" viewBox="0 0 95 39" fill="none" xmlns="http://www.w3.org/2000/svg">
<rect width="94.9375" height="39" rx="6" fill="#00B998"/>
<path d="M35.7903 23.14C34.8569 23.14 34.0823 23.0093 33.4663 22.748C32.8503 22.4773 32.3836 22.1273 32.0663 21.698C31.7489 21.2687 31.5809 20.8113 31.5623 20.326C31.5623 20.2513 31.5903 20.186 31.6463 20.13C31.7116 20.0647 31.7863 20.032 31.8703 20.032H33.6343C33.7649 20.032 33.8629 20.0553 33.9283 20.102C34.0029 20.1487 34.0683 20.2093 34.1243 20.284C34.1989 20.424 34.3016 20.5593 34.4323 20.69C34.5723 20.8207 34.7496 20.928 34.9643 21.012C35.1883 21.0867 35.4636 21.124 35.7903 21.124C36.3316 21.124 36.7376 21.04 37.0083 20.872C37.2883 20.704 37.4283 20.4753 37.4283 20.186C37.4283 19.9807 37.3536 19.8127 37.2043 19.682C37.0549 19.542 36.8123 19.4207 36.4763 19.318C36.1496 19.206 35.7109 19.094 35.1603 18.982C34.4509 18.8327 33.8443 18.6413 33.3403 18.408C32.8456 18.1653 32.4676 17.8527 32.2063 17.47C31.9449 17.078 31.8143 16.5927 31.8143 16.014C31.8143 15.4447 31.9729 14.936 32.2903 14.488C32.6169 14.04 33.0696 13.69 33.6483 13.438C34.2269 13.186 34.9129 13.06 35.7063 13.06C36.3503 13.06 36.9149 13.144 37.4003 13.312C37.8949 13.48 38.3103 13.704 38.6463 13.984C38.9823 14.264 39.2343 14.5627 39.4023 14.88C39.5796 15.188 39.6729 15.4913 39.6823 15.79C39.6823 15.8647 39.6543 15.9347 39.5983 16C39.5423 16.056 39.4723 16.084 39.3882 16.084H37.5403C37.4376 16.084 37.3489 16.0653 37.2743 16.028C37.1996 15.9907 37.1343 15.93 37.0783 15.846C37.0223 15.6407 36.8729 15.4633 36.6303 15.314C36.3969 15.1553 36.0889 15.076 35.7063 15.076C35.2956 15.076 34.9736 15.1507 34.7403 15.3C34.5163 15.44 34.4043 15.6593 34.4043 15.958C34.4043 16.1447 34.4649 16.308 34.5863 16.448C34.7169 16.588 34.9269 16.7093 35.2163 16.812C35.5149 16.9147 35.9209 17.022 36.4343 17.134C37.2836 17.2927 37.9696 17.4933 38.4923 17.736C39.0149 17.9693 39.3976 18.2773 39.6403 18.66C39.8829 19.0333 40.0043 19.5047 40.0043 20.074C40.0043 20.7087 39.8223 21.2593 39.4583 21.726C39.1036 22.1833 38.6089 22.5333 37.9743 22.776C37.3396 23.0187 36.6116 23.14 35.7903 23.14ZM43.4358 23.14C42.9318 23.14 42.4791 23.0467 42.0778 22.86C41.6858 22.664 41.3731 22.4027 41.1398 22.076C40.9064 21.7493 40.7898 21.3807 40.7898 20.97C40.7898 20.3073 41.0604 19.7847 41.6018 19.402C42.1431 19.01 42.8618 18.744 43.7578 18.604L45.5078 18.338V18.142C45.5078 17.806 45.4378 17.5493 45.2978 17.372C45.1578 17.1947 44.9011 17.106 44.5278 17.106C44.2664 17.106 44.0518 17.1573 43.8838 17.26C43.7251 17.3627 43.5991 17.5027 43.5058 17.68C43.4218 17.8013 43.3051 17.862 43.1558 17.862H41.5878C41.4851 17.862 41.4058 17.834 41.3498 17.778C41.2938 17.7127 41.2704 17.638 41.2798 17.554C41.2798 17.386 41.3404 17.1947 41.4618 16.98C41.5924 16.756 41.7884 16.5367 42.0498 16.322C42.3111 16.1073 42.6471 15.93 43.0578 15.79C43.4684 15.65 43.9631 15.58 44.5418 15.58C45.1484 15.58 45.6664 15.65 46.0958 15.79C46.5251 15.93 46.8704 16.126 47.1318 16.378C47.4024 16.63 47.6031 16.9287 47.7338 17.274C47.8644 17.61 47.9298 17.9833 47.9298 18.394V22.65C47.9298 22.7527 47.8924 22.8367 47.8178 22.902C47.7524 22.9673 47.6731 23 47.5798 23H45.9558C45.8531 23 45.7691 22.9673 45.7038 22.902C45.6384 22.8367 45.6058 22.7527 45.6058 22.65V22.16C45.4844 22.3373 45.3211 22.5007 45.1158 22.65C44.9104 22.7993 44.6678 22.916 44.3878 23C44.1171 23.0933 43.7998 23.14 43.4358 23.14ZM44.0938 21.544C44.3644 21.544 44.6071 21.488 44.8218 21.376C45.0458 21.2547 45.2184 21.0727 45.3398 20.83C45.4704 20.578 45.5358 20.2653 45.5358 19.892V19.696L44.3458 19.906C43.9071 19.9807 43.5851 20.0973 43.3798 20.256C43.1838 20.4053 43.0858 20.5827 43.0858 20.788C43.0858 20.9467 43.1324 21.082 43.2258 21.194C43.3191 21.306 43.4404 21.3947 43.5898 21.46C43.7391 21.516 43.9071 21.544 44.0938 21.544ZM51.8945 23C51.7545 23 51.6518 22.9673 51.5865 22.902C51.5212 22.8273 51.4652 22.7433 51.4185 22.65L48.7725 16.154C48.7538 16.1167 48.7445 16.0747 48.7445 16.028C48.7445 15.944 48.7725 15.874 48.8285 15.818C48.8938 15.7527 48.9732 15.72 49.0665 15.72H50.6485C50.7698 15.72 50.8632 15.7527 50.9285 15.818C50.9938 15.8833 51.0358 15.9487 51.0545 16.014L52.6365 20.312L54.2325 16.014C54.2512 15.9487 54.2932 15.8833 54.3585 15.818C54.4238 15.7527 54.5172 15.72 54.6385 15.72H56.2205C56.3045 15.72 56.3792 15.7527 56.4445 15.818C56.5098 15.874 56.5425 15.944 56.5425 16.028C56.5425 16.0747 56.5332 16.1167 56.5145 16.154L53.8685 22.65C53.8312 22.7433 53.7752 22.8273 53.7005 22.902C53.6352 22.9673 53.5278 23 53.3785 23H51.8945ZM60.7173 23.14C59.6159 23.14 58.7386 22.8413 58.0853 22.244C57.4319 21.6467 57.0913 20.76 57.0633 19.584C57.0633 19.5187 57.0633 19.4347 57.0633 19.332C57.0633 19.2293 57.0633 19.15 57.0633 19.094C57.0913 18.3567 57.2546 17.7267 57.5533 17.204C57.8613 16.672 58.2813 16.2707 58.8133 16C59.3546 15.72 59.9846 15.58 60.7033 15.58C61.5246 15.58 62.2013 15.7433 62.7333 16.07C63.2746 16.3967 63.6806 16.84 63.9513 17.4C64.2219 17.96 64.3573 18.5993 64.3573 19.318V19.654C64.3573 19.7567 64.3199 19.8407 64.2452 19.906C64.1799 19.9713 64.1006 20.004 64.0073 20.004H59.5273C59.5273 20.0133 59.5273 20.0273 59.5273 20.046C59.5273 20.0647 59.5273 20.0833 59.5273 20.102C59.5366 20.3727 59.5833 20.62 59.6673 20.844C59.7513 21.068 59.8819 21.2453 60.0593 21.376C60.2366 21.5067 60.4513 21.572 60.7033 21.572C60.8899 21.572 61.0439 21.544 61.1653 21.488C61.2959 21.4227 61.4033 21.3527 61.4873 21.278C61.5713 21.194 61.6366 21.124 61.6833 21.068C61.7673 20.9747 61.8326 20.9187 61.8793 20.9C61.9353 20.872 62.0193 20.858 62.1313 20.858H63.8673C63.9606 20.858 64.0353 20.886 64.0913 20.942C64.1566 20.9887 64.1846 21.0587 64.1753 21.152C64.1659 21.3107 64.0866 21.502 63.9373 21.726C63.7879 21.95 63.5686 22.174 63.2793 22.398C62.9993 22.6127 62.6446 22.79 62.2153 22.93C61.7859 23.07 61.2866 23.14 60.7173 23.14ZM59.5273 18.618H61.8933V18.59C61.8933 18.2913 61.8466 18.03 61.7533 17.806C61.6693 17.582 61.5339 17.4093 61.3473 17.288C61.1699 17.1667 60.9553 17.106 60.7033 17.106C60.4513 17.106 60.2366 17.1667 60.0593 17.288C59.8913 17.4093 59.7606 17.582 59.6673 17.806C59.5739 18.03 59.5273 18.2913 59.5273 18.59V18.618Z" fill="white"/>
</svg>
